G04*
G04 #@! TF.GenerationSoftware,Altium Limited,Altium Designer,21.3.2 (30)*
G04*
G04 Layer_Physical_Order=1*
G04 Layer_Color=204*
%FSTAX24Y24*%
%MOIN*%
G70*
G04*
G04 #@! TF.SameCoordinates,D50E3B47-D74C-4BCA-B3C4-33FD4FEC1BCA*
G04*
G04*
G04 #@! TF.FilePolarity,Positive*
G04*
G01*
G75*
%ADD13C,0.0394*%
%ADD18R,0.0512X0.0394*%
G04:AMPARAMS|DCode=19|XSize=39.4mil|YSize=47.2mil|CornerRadius=9.8mil|HoleSize=0mil|Usage=FLASHONLY|Rotation=90.000|XOffset=0mil|YOffset=0mil|HoleType=Round|Shape=RoundedRectangle|*
%AMROUNDEDRECTD19*
21,1,0.0394,0.0276,0,0,90.0*
21,1,0.0197,0.0472,0,0,90.0*
1,1,0.0197,0.0138,0.0098*
1,1,0.0197,0.0138,-0.0098*
1,1,0.0197,-0.0138,-0.0098*
1,1,0.0197,-0.0138,0.0098*
%
%ADD19ROUNDEDRECTD19*%
%ADD36C,0.0315*%
%ADD37C,0.0591*%
%ADD38O,0.0984X0.1260*%
%ADD39C,0.2205*%
%ADD40C,0.0709*%
%ADD41P,0.0767X8X22.5*%
%ADD42C,0.0984*%
%ADD43C,0.1181*%
%ADD44C,0.0787*%
%ADD45R,0.0787X0.0787*%
%ADD46C,0.0827*%
%ADD47O,0.0591X0.0394*%
%ADD48O,0.0787X0.0630*%
%ADD49O,0.1181X0.1969*%
%ADD50O,0.1969X0.1181*%
%ADD51C,0.0500*%
G36*
X03864Y051684D02*
X039526Y050798D01*
X041396D01*
Y03783D01*
X041346Y037809D01*
X041265Y03789D01*
X041152Y037965D01*
X041026Y038017D01*
X041022Y038018D01*
Y037353D01*
Y036688D01*
X041026Y036689D01*
X041152Y036741D01*
X041265Y036817D01*
X041346Y036898D01*
X041396Y036877D01*
Y03468D01*
X041346Y034659D01*
X041265Y03474D01*
X041152Y034816D01*
X041026Y034868D01*
X041022Y034869D01*
Y034204D01*
Y033539D01*
X041026Y03354D01*
X041152Y033592D01*
X041265Y033667D01*
X041346Y033748D01*
X041396Y033727D01*
Y029956D01*
X041346Y029935D01*
X041265Y030016D01*
X041152Y030091D01*
X041026Y030143D01*
X041022Y030144D01*
Y029479D01*
Y028814D01*
X041026Y028815D01*
X041152Y028867D01*
X041265Y028943D01*
X041346Y029023D01*
X041396Y029003D01*
Y026806D01*
X041346Y026785D01*
X041265Y026866D01*
X041152Y026942D01*
X041026Y026994D01*
X041022Y026995D01*
Y02633D01*
Y025665D01*
X041026Y025666D01*
X041152Y025718D01*
X041265Y025793D01*
X041346Y025874D01*
X041396Y025853D01*
Y022082D01*
X041346Y022061D01*
X041265Y022142D01*
X041152Y022217D01*
X041026Y022269D01*
X041022Y02227D01*
Y021605D01*
Y02094D01*
X041026Y020941D01*
X041152Y020993D01*
X041265Y021069D01*
X041346Y021149D01*
X041396Y021129D01*
Y018932D01*
X041346Y018911D01*
X041265Y018992D01*
X041152Y019068D01*
X041026Y01912D01*
X041022Y019121D01*
Y018456D01*
Y017791D01*
X041026Y017792D01*
X041152Y017844D01*
X041265Y017919D01*
X041346Y018D01*
X041396Y017979D01*
Y014208D01*
X041346Y014187D01*
X041265Y014268D01*
X041152Y014343D01*
X041026Y014395D01*
X041022Y014396D01*
Y013731D01*
Y013066D01*
X041026Y013067D01*
X041152Y013119D01*
X041265Y013195D01*
X041346Y013275D01*
X041396Y013255D01*
Y011058D01*
X041346Y011037D01*
X041265Y011118D01*
X041152Y011194D01*
X041026Y011246D01*
X041022Y011247D01*
Y010582D01*
Y009917D01*
X041026Y009918D01*
X041152Y00997D01*
X041265Y010045D01*
X041346Y010126D01*
X041396Y010105D01*
Y009656D01*
X039526D01*
X03864Y008771D01*
Y006848D01*
X013246D01*
Y008771D01*
X013246D01*
X01236Y009656D01*
X01049D01*
Y010198D01*
X010539Y010208D01*
X010543Y010199D01*
X010631Y010067D01*
X010743Y009955D01*
X010876Y009866D01*
X011022Y009805D01*
X011178Y009774D01*
X011337D01*
X011493Y009805D01*
X01164Y009866D01*
X011772Y009955D01*
X011885Y010067D01*
X011973Y010199D01*
X011975Y010204D01*
X01369D01*
X013692Y010199D01*
X013781Y010067D01*
X013893Y009955D01*
X014025Y009866D01*
X014172Y009805D01*
X014328Y009774D01*
X014487D01*
X014643Y009805D01*
X01479Y009866D01*
X014922Y009955D01*
X015034Y010067D01*
X015123Y010199D01*
X015174Y010322D01*
X01547D01*
X015568Y010335D01*
X015659Y010373D01*
X015737Y010433D01*
X016139Y010834D01*
X016482D01*
X016551Y010825D01*
X016917D01*
X016945Y010804D01*
Y010735D01*
X016897Y010699D01*
X016847Y010633D01*
X016815Y010556D01*
X016804Y010474D01*
Y010277D01*
X016815Y010195D01*
X016847Y010118D01*
X016897Y010053D01*
X016963Y010002D01*
X01704Y00997D01*
X017122Y00996D01*
X017398D01*
X01748Y00997D01*
X017548Y009998D01*
X018347D01*
X018415Y00997D01*
X018497Y00996D01*
X018772D01*
X018855Y00997D01*
X018931Y010002D01*
X018997Y010053D01*
X019048Y010118D01*
X019079Y010195D01*
X01909Y010277D01*
Y010474D01*
X019079Y010556D01*
X019048Y010633D01*
X018997Y010699D01*
X01895Y010735D01*
Y010786D01*
X019694D01*
Y010735D01*
X019647Y010699D01*
X019597Y010633D01*
X019565Y010556D01*
X019554Y010474D01*
Y010277D01*
X019565Y010195D01*
X019597Y010118D01*
X019632Y010072D01*
Y0096D01*
X019645Y009502D01*
X019683Y009411D01*
X019743Y009333D01*
X021029Y008046D01*
X021107Y007987D01*
X021198Y007949D01*
X021296Y007936D01*
X033545D01*
X033642Y007949D01*
X033733Y007987D01*
X033811Y008046D01*
X03438Y008615D01*
X03444Y008693D01*
X034477Y008784D01*
X03449Y008882D01*
Y009893D01*
X034536Y009912D01*
X034686Y009763D01*
X035257D01*
X035543Y010048D01*
Y010619D01*
X035318Y010844D01*
X035322Y010877D01*
X035428Y010983D01*
X035504Y011113D01*
X035543Y011258D01*
Y011409D01*
X035504Y011554D01*
X035428Y011684D01*
X035322Y01179D01*
X035291Y011809D01*
Y011859D01*
X035322Y011877D01*
X035428Y011983D01*
X035504Y012113D01*
X035543Y012258D01*
Y012409D01*
X035504Y012554D01*
X035428Y012684D01*
X035322Y01279D01*
X035291Y012809D01*
Y012859D01*
X035322Y012877D01*
X035428Y012983D01*
X035504Y013113D01*
X035543Y013258D01*
Y013409D01*
X035504Y013554D01*
X035443Y013658D01*
X035472Y013708D01*
X035832D01*
X036117Y013423D01*
Y012747D01*
X03613Y012649D01*
X036167Y012558D01*
X036227Y01248D01*
X036818Y01189D01*
X036896Y01183D01*
X036987Y011792D01*
X037085Y011779D01*
X03865D01*
X0387Y011705D01*
X038798Y011606D01*
X038873Y011556D01*
Y010305D01*
X037752Y009184D01*
X037429D01*
X037144Y008899D01*
Y008328D01*
X037429Y008042D01*
X038D01*
X038285Y008328D01*
Y00865D01*
X039517Y009882D01*
X039577Y00996D01*
X039614Y010051D01*
X039627Y010149D01*
Y011556D01*
X039702Y011606D01*
X0398Y011705D01*
X039878Y011821D01*
X039931Y01195D01*
X039959Y012087D01*
Y012226D01*
X039931Y012363D01*
X039878Y012492D01*
X0398Y012608D01*
X039702Y012707D01*
X039586Y012784D01*
X039457Y012838D01*
X03932Y012865D01*
X03918D01*
X039043Y012838D01*
X038914Y012784D01*
X038798Y012707D01*
X0387Y012608D01*
X03865Y012534D01*
X037241D01*
X036871Y012903D01*
Y01358D01*
X036858Y013677D01*
X036821Y013768D01*
X036761Y013846D01*
X036255Y014352D01*
X036177Y014412D01*
X036086Y01445D01*
X035988Y014463D01*
X0284D01*
X028302Y01445D01*
X028211Y014412D01*
X028133Y014352D01*
X027704Y013923D01*
X027644Y013845D01*
X027606Y013754D01*
X027593Y013656D01*
Y013025D01*
X027279Y012711D01*
X026727D01*
X026648Y01279D01*
X026616Y012809D01*
Y012859D01*
X026648Y012877D01*
X026754Y012983D01*
X026829Y013113D01*
X026868Y013258D01*
Y013409D01*
X026829Y013554D01*
X026754Y013684D01*
X026648Y01379D01*
X026518Y013865D01*
X026372Y013904D01*
X026222D01*
X026077Y013865D01*
X025947Y01379D01*
X02584Y013684D01*
X025765Y013554D01*
X025726Y013409D01*
Y013258D01*
X025765Y013113D01*
X02584Y012983D01*
X025947Y012877D01*
X025978Y012859D01*
Y012809D01*
X025947Y01279D01*
X02584Y012684D01*
X025765Y012554D01*
X025726Y012409D01*
Y012258D01*
X025765Y012113D01*
X02584Y011983D01*
X025947Y011877D01*
X025978Y011859D01*
Y011809D01*
X025947Y01179D01*
X02584Y011684D01*
X025765Y011554D01*
X025726Y011409D01*
Y011258D01*
X025765Y011113D01*
X02584Y010983D01*
X025947Y010877D01*
X025978Y010859D01*
Y010809D01*
X025947Y01079D01*
X02584Y010684D01*
X025765Y010554D01*
X025726Y010409D01*
Y010258D01*
X025765Y010113D01*
X02584Y009983D01*
X025878Y009945D01*
X025859Y009899D01*
X023136D01*
Y010072D01*
X023172Y010118D01*
X023204Y010195D01*
X023215Y010277D01*
Y010474D01*
X023204Y010556D01*
X023172Y010633D01*
X023121Y010699D01*
X023074Y010735D01*
Y010932D01*
X023077Y010966D01*
X022759D01*
Y011163D01*
X022562D01*
Y011452D01*
X022544Y011448D01*
X022493Y011415D01*
X022443Y011436D01*
Y012447D01*
X022493Y012468D01*
X022544Y012434D01*
X022562Y012431D01*
Y01272D01*
X022759D01*
Y012917D01*
X023074D01*
X023074Y012917D01*
X023074Y012917D01*
Y013148D01*
X023121Y013184D01*
X023172Y01325D01*
X023204Y013327D01*
X023215Y013409D01*
Y013606D01*
X023204Y013688D01*
X023172Y013764D01*
X023151Y013792D01*
Y01533D01*
X02342D01*
Y01655D01*
X022199D01*
Y015473D01*
X022149Y015447D01*
X022099Y015481D01*
X021987Y015527D01*
X02187Y01555D01*
X021749D01*
X021735Y015547D01*
X021417Y015866D01*
X02142Y01588D01*
Y016D01*
X021396Y016118D01*
X02135Y016229D01*
X021283Y016329D01*
X021198Y016414D01*
X021099Y016481D01*
X020987Y016527D01*
X02087Y01655D01*
X020749D01*
X020631Y016527D01*
X02052Y016481D01*
X02042Y016414D01*
X020335Y016329D01*
X020269Y016229D01*
X020223Y016118D01*
X020199Y016D01*
Y01588D01*
X020223Y015762D01*
X020269Y015651D01*
X020335Y015551D01*
X02042Y015466D01*
X02052Y015399D01*
X020631Y015353D01*
X020749Y01533D01*
X02087D01*
X020883Y015332D01*
X021202Y015014D01*
X021199Y015D01*
Y01488D01*
X021223Y014762D01*
X021269Y014651D01*
X021335Y014551D01*
X02142Y014466D01*
X02152Y014399D01*
X021631Y014353D01*
X021749Y01433D01*
X02187D01*
X021987Y014353D01*
X022099Y014399D01*
X022198Y014466D01*
X022283Y014551D01*
X022321Y014607D01*
X022388Y014617D01*
X022396Y01461D01*
Y01383D01*
X022346Y013764D01*
X022314Y013688D01*
X022305Y013617D01*
X022259Y013592D01*
X022117Y013735D01*
X022039Y013794D01*
X021948Y013832D01*
X02185Y013845D01*
X021727D01*
X021681Y013881D01*
X021604Y013912D01*
X021522Y013923D01*
X021246D01*
X021164Y013912D01*
X021088Y013881D01*
X021022Y01383D01*
X020971Y013764D01*
X020958Y013731D01*
X020899Y01372D01*
X020844Y013774D01*
X020766Y013834D01*
X020675Y013872D01*
X020578Y013884D01*
X020297D01*
X020229Y013912D01*
X020147Y013923D01*
X019872D01*
X019789Y013912D01*
X019722Y013884D01*
X018922D01*
X018855Y013912D01*
X018772Y013923D01*
X018497D01*
X018415Y013912D01*
X018338Y013881D01*
X018272Y01383D01*
X018222Y013764D01*
X01819Y013688D01*
X018179Y013606D01*
Y013409D01*
X01819Y013327D01*
X018222Y01325D01*
X018272Y013184D01*
X01832Y013148D01*
Y013097D01*
X017575D01*
Y013148D01*
X017622Y013184D01*
X017673Y01325D01*
X017704Y013327D01*
X017715Y013409D01*
Y013606D01*
X017704Y013688D01*
X017673Y013764D01*
X017622Y01383D01*
X017556Y013881D01*
X01748Y013912D01*
X017398Y013923D01*
X017122D01*
X01704Y013912D01*
X016972Y013884D01*
X016231D01*
X016133Y013872D01*
X016042Y013834D01*
X015964Y013774D01*
X014724Y012534D01*
X013433D01*
X013383Y012608D01*
X013284Y012707D01*
X013168Y012784D01*
X013039Y012838D01*
X012902Y012865D01*
X012763D01*
X012626Y012838D01*
X012497Y012784D01*
X012381Y012707D01*
X012282Y012608D01*
X012205Y012492D01*
X012151Y012363D01*
X012124Y012226D01*
Y012087D01*
X012151Y01195D01*
X012205Y011821D01*
X012282Y011705D01*
X012381Y011606D01*
X012497Y011528D01*
X012626Y011475D01*
X012763Y011448D01*
X012902D01*
X013039Y011475D01*
X013168Y011528D01*
X013284Y011606D01*
X013383Y011705D01*
X013433Y011779D01*
X01488D01*
X014978Y011792D01*
X015069Y01183D01*
X015147Y01189D01*
X016387Y01313D01*
X016945D01*
Y013079D01*
X016897Y013043D01*
X016847Y012977D01*
X016815Y0129D01*
X016804Y012818D01*
Y012621D01*
X016815Y012539D01*
X016847Y012463D01*
X016897Y012397D01*
X016963Y012346D01*
X01704Y012314D01*
X017122Y012304D01*
X017398D01*
X01748Y012314D01*
X017548Y012343D01*
X018347D01*
X018415Y012314D01*
X018497Y012304D01*
X018772D01*
X018855Y012314D01*
X018931Y012346D01*
X018997Y012397D01*
X019048Y012463D01*
X019079Y012539D01*
X01909Y012621D01*
Y012818D01*
X019079Y0129D01*
X019048Y012977D01*
X018997Y013043D01*
X01895Y013079D01*
Y01313D01*
X019694D01*
Y013079D01*
X019647Y013043D01*
X019597Y012977D01*
X019565Y0129D01*
X019554Y012818D01*
Y012621D01*
X019565Y012539D01*
X019597Y012463D01*
X019632Y012416D01*
Y01154D01*
X018922D01*
X018855Y011568D01*
X018772Y011579D01*
X018497D01*
X018415Y011568D01*
X018338Y011537D01*
X018272Y011486D01*
X018222Y01142D01*
X01819Y011344D01*
X018179Y011261D01*
Y011065D01*
X01819Y010982D01*
X018222Y010906D01*
X018272Y01084D01*
X01832Y010804D01*
Y010753D01*
X017575D01*
Y010804D01*
X017622Y01084D01*
X017673Y010906D01*
X017704Y010982D01*
X017715Y011065D01*
Y011261D01*
X017704Y011344D01*
X017673Y01142D01*
X017622Y011486D01*
X017556Y011537D01*
X01748Y011568D01*
X017398Y011579D01*
X017224D01*
X01722Y01158D01*
X016611D01*
X016542Y011589D01*
X015982D01*
X015885Y011576D01*
X015794Y011538D01*
X015716Y011478D01*
X015314Y011077D01*
X015047D01*
X015034Y011096D01*
X014922Y011208D01*
X01479Y011297D01*
X014643Y011358D01*
X014487Y011389D01*
X014328D01*
X014172Y011358D01*
X014025Y011297D01*
X013893Y011208D01*
X013781Y011096D01*
X013692Y010964D01*
X01369Y010959D01*
X011975D01*
X011973Y010964D01*
X011885Y011096D01*
X011772Y011208D01*
X01164Y011297D01*
X011635Y011299D01*
Y013014D01*
X01164Y013016D01*
X011772Y013104D01*
X011885Y013217D01*
X011973Y013349D01*
X011975Y013354D01*
X01369D01*
X013692Y013349D01*
X013781Y013217D01*
X013893Y013104D01*
X014025Y013016D01*
X014172Y012955D01*
X014328Y012924D01*
X014487D01*
X014643Y012955D01*
X01479Y013016D01*
X014922Y013104D01*
X015034Y013217D01*
X015123Y013349D01*
X015184Y013496D01*
X015215Y013652D01*
Y013811D01*
X015184Y013967D01*
X015123Y014113D01*
X015034Y014246D01*
X014922Y014358D01*
X01479Y014446D01*
X014643Y014507D01*
X014487Y014538D01*
X014328D01*
X014172Y014507D01*
X014025Y014446D01*
X013893Y014358D01*
X013781Y014246D01*
X013692Y014113D01*
X01369Y014108D01*
X011975D01*
X011973Y014113D01*
X011885Y014246D01*
X011772Y014358D01*
X01164Y014446D01*
X011493Y014507D01*
X011337Y014538D01*
X011178D01*
X011022Y014507D01*
X010876Y014446D01*
X010743Y014358D01*
X010631Y014246D01*
X010543Y014113D01*
X010539Y014105D01*
X01049Y014115D01*
Y018072D01*
X010539Y018082D01*
X010543Y018073D01*
X010631Y017941D01*
X010743Y017829D01*
X010876Y01774D01*
X011022Y01768D01*
X011178Y017649D01*
X011337D01*
X011493Y01768D01*
X01164Y01774D01*
X011772Y017829D01*
X011885Y017941D01*
X011973Y018073D01*
X011975Y018078D01*
X01369D01*
X013692Y018073D01*
X013781Y017941D01*
X013893Y017829D01*
X014025Y01774D01*
X014172Y01768D01*
X014328Y017649D01*
X014487D01*
X014643Y01768D01*
X01479Y01774D01*
X014922Y017829D01*
X015034Y017941D01*
X015123Y018073D01*
X015184Y01822D01*
X015215Y018376D01*
Y018535D01*
X015184Y018691D01*
X015123Y018838D01*
X015034Y01897D01*
X014922Y019082D01*
X01479Y019171D01*
X014643Y019232D01*
X014487Y019263D01*
X014328D01*
X014172Y019232D01*
X014025Y019171D01*
X013893Y019082D01*
X013781Y01897D01*
X013692Y018838D01*
X01369Y018833D01*
X011975D01*
X011973Y018838D01*
X011885Y01897D01*
X011772Y019082D01*
X01164Y019171D01*
X011635Y019173D01*
Y020888D01*
X01164Y02089D01*
X011772Y020978D01*
X011885Y021091D01*
X011973Y021223D01*
X011975Y021228D01*
X01369D01*
X013692Y021223D01*
X013781Y021091D01*
X013893Y020978D01*
X014025Y02089D01*
X014172Y020829D01*
X014328Y020798D01*
X014487D01*
X014643Y020829D01*
X01479Y02089D01*
X014922Y020978D01*
X015034Y021091D01*
X015123Y021223D01*
X015125Y021228D01*
X015314D01*
X015873Y020669D01*
X015951Y020609D01*
X016042Y020572D01*
X01614Y020559D01*
X017017D01*
X017066Y020538D01*
X017148Y020527D01*
X017424D01*
X017506Y020538D01*
X017583Y02057D01*
X017649Y02062D01*
X017699Y020686D01*
X017731Y020763D01*
X017742Y020845D01*
Y021042D01*
X017731Y021124D01*
X017699Y021201D01*
X017649Y021266D01*
X017601Y021303D01*
Y021354D01*
X018346D01*
Y021303D01*
X018299Y021266D01*
X018248Y021201D01*
X018216Y021124D01*
X018206Y021042D01*
Y020845D01*
X018216Y020763D01*
X018248Y020686D01*
X018299Y02062D01*
X018364Y02057D01*
X018441Y020538D01*
X018523Y020527D01*
X018799D01*
X018881Y020538D01*
X018949Y020566D01*
X019659D01*
Y01969D01*
X019623Y019644D01*
X019591Y019567D01*
X01958Y019485D01*
Y019288D01*
X019591Y019206D01*
X019623Y019129D01*
X019673Y019064D01*
X019721Y019027D01*
Y018977D01*
X018976D01*
Y019027D01*
X019023Y019064D01*
X019074Y019129D01*
X019106Y019206D01*
X019116Y019288D01*
Y019485D01*
X019106Y019567D01*
X019074Y019644D01*
X019023Y01971D01*
X018958Y01976D01*
X018881Y019792D01*
X018799Y019803D01*
X018523D01*
X018441Y019792D01*
X018373Y019764D01*
X017574D01*
X017506Y019792D01*
X017424Y019803D01*
X017148D01*
X017066Y019792D01*
X01699Y01976D01*
X016924Y01971D01*
X016873Y019644D01*
X016842Y019567D01*
X016831Y019485D01*
Y019288D01*
X016842Y019206D01*
X016873Y019129D01*
X016924Y019064D01*
X016971Y019027D01*
Y018959D01*
X016961Y018951D01*
X016414D01*
X015068Y020297D01*
X01499Y020357D01*
X014899Y020395D01*
X014801Y020408D01*
X013433D01*
X013383Y020482D01*
X013284Y020581D01*
X013168Y020658D01*
X013039Y020712D01*
X012902Y020739D01*
X012763D01*
X012626Y020712D01*
X012497Y020658D01*
X012381Y020581D01*
X012282Y020482D01*
X012205Y020366D01*
X012151Y020237D01*
X012124Y0201D01*
Y019961D01*
X012151Y019824D01*
X012205Y019695D01*
X012282Y019579D01*
X012381Y01948D01*
X012497Y019402D01*
X012626Y019349D01*
X012763Y019322D01*
X012902D01*
X013039Y019349D01*
X013168Y019402D01*
X013284Y01948D01*
X013383Y019579D01*
X013433Y019653D01*
X014645D01*
X015991Y018307D01*
X016069Y018247D01*
X01616Y018209D01*
X016258Y018196D01*
X01706D01*
X017066Y018194D01*
X017148Y018183D01*
X017424D01*
X017506Y018194D01*
X017583Y018226D01*
X017649Y018276D01*
X017699Y018342D01*
X017731Y018419D01*
X017742Y018501D01*
Y018698D01*
X017731Y01878D01*
X017699Y018857D01*
X017649Y018922D01*
X017601Y018959D01*
Y019009D01*
X018346D01*
Y018959D01*
X018299Y018922D01*
X018248Y018857D01*
X018216Y01878D01*
X018206Y018698D01*
Y018501D01*
X018216Y018419D01*
X018248Y018342D01*
X018299Y018276D01*
X018364Y018226D01*
X018441Y018194D01*
X018523Y018183D01*
X018799D01*
X018881Y018194D01*
X018949Y018222D01*
X019748D01*
X019816Y018194D01*
X019898Y018183D01*
X020174D01*
X020256Y018194D01*
X020303Y018213D01*
X020595D01*
X020693Y018226D01*
X020784Y018264D01*
X020862Y018324D01*
X020925Y018387D01*
X020984Y018375D01*
X020998Y018342D01*
X021048Y018276D01*
X021114Y018226D01*
X021191Y018194D01*
X021273Y018183D01*
X021548D01*
X021631Y018194D01*
X021698Y018222D01*
X021908D01*
X022006Y018235D01*
X022097Y018273D01*
X022175Y018333D01*
X022292Y018449D01*
X022339Y018433D01*
X022341Y018419D01*
X022373Y018342D01*
X022408Y018296D01*
Y018124D01*
X017378D01*
X01728Y018111D01*
X017189Y018074D01*
X017111Y018014D01*
X016927Y017829D01*
X016867Y017751D01*
X016829Y01766D01*
X016816Y017562D01*
Y01642D01*
X016622Y016227D01*
Y015656D01*
X016908Y015371D01*
X017479D01*
X017764Y015656D01*
Y016227D01*
X017571Y01642D01*
Y01737D01*
X017749D01*
X017768Y017323D01*
X017737Y017292D01*
X017661Y017162D01*
X017622Y017017D01*
Y016866D01*
X017661Y016721D01*
X017737Y016591D01*
X017843Y016485D01*
X017973Y016409D01*
X018118Y016371D01*
X018231D01*
X018622Y015979D01*
Y015866D01*
X018661Y015721D01*
X018736Y015591D01*
X018843Y015485D01*
X018973Y015409D01*
X019118Y015371D01*
X019268D01*
X019414Y015409D01*
X019544Y015485D01*
X01965Y015591D01*
X019725Y015721D01*
X019764Y015866D01*
Y015979D01*
X020452Y016667D01*
X023403D01*
X023893Y016177D01*
Y015772D01*
X023906Y015675D01*
X023943Y015584D01*
X024003Y015505D01*
X024745Y014764D01*
X024823Y014704D01*
X024914Y014666D01*
X025012Y014653D01*
X032637D01*
X032735Y014666D01*
X032826Y014704D01*
X032904Y014764D01*
X033816Y015675D01*
X033876Y015753D01*
X033913Y015844D01*
X033926Y015942D01*
Y017065D01*
X034133Y017272D01*
X034568D01*
X034621Y017219D01*
X034653Y017201D01*
Y017151D01*
X034621Y017133D01*
X034515Y017027D01*
X03444Y016896D01*
X034401Y016751D01*
Y016601D01*
X03444Y016456D01*
X034515Y016326D01*
X034621Y016219D01*
X034751Y016144D01*
X034897Y016105D01*
X035047D01*
X035192Y016144D01*
X035322Y016219D01*
X035428Y016326D01*
X035504Y016456D01*
X035543Y016601D01*
Y016751D01*
X035504Y016896D01*
X035428Y017027D01*
X035322Y017133D01*
X035291Y017151D01*
Y017201D01*
X035322Y017219D01*
X035402Y017299D01*
X035911D01*
X036009Y017312D01*
X0361Y017349D01*
X036178Y017409D01*
X036525Y017756D01*
X036585Y017834D01*
X036622Y017925D01*
X036635Y018023D01*
Y019362D01*
X036926Y019653D01*
X03865D01*
X0387Y019579D01*
X038798Y01948D01*
X038873Y01943D01*
Y016966D01*
X038679Y016773D01*
Y016202D01*
X038965Y015916D01*
X039535D01*
X039821Y016202D01*
Y016773D01*
X039627Y016966D01*
Y01943D01*
X039702Y01948D01*
X0398Y019579D01*
X039878Y019695D01*
X039931Y019824D01*
X039959Y019961D01*
Y0201D01*
X039931Y020237D01*
X039878Y020366D01*
X0398Y020482D01*
X039702Y020581D01*
X039586Y020658D01*
X039457Y020712D01*
X03932Y020739D01*
X03918D01*
X039043Y020712D01*
X038914Y020658D01*
X038798Y020581D01*
X0387Y020482D01*
X03865Y020408D01*
X03677D01*
X036672Y020395D01*
X036581Y020357D01*
X036503Y020297D01*
X035991Y019785D01*
X035931Y019707D01*
X035893Y019616D01*
X035881Y019519D01*
Y018179D01*
X035755Y018053D01*
X035402D01*
X035322Y018133D01*
X035291Y018151D01*
Y018201D01*
X035322Y018219D01*
X035428Y018326D01*
X035504Y018456D01*
X035543Y018601D01*
Y018751D01*
X035504Y018896D01*
X035428Y019027D01*
X035322Y019133D01*
X035291Y019151D01*
Y019201D01*
X035322Y019219D01*
X035428Y019326D01*
X035504Y019456D01*
X035543Y019601D01*
Y019751D01*
X035504Y019896D01*
X035428Y020027D01*
X035322Y020133D01*
X035192Y020208D01*
X035047Y020247D01*
X034897D01*
X034751Y020208D01*
X034621Y020133D01*
X034515Y020027D01*
X03444Y019896D01*
X034401Y019751D01*
Y019601D01*
X03444Y019456D01*
X034515Y019326D01*
X034621Y019219D01*
X034653Y019201D01*
Y019151D01*
X034621Y019133D01*
X034515Y019027D01*
X03444Y018896D01*
X034401Y018751D01*
Y018601D01*
X03444Y018456D01*
X034515Y018326D01*
X034621Y018219D01*
X034653Y018201D01*
Y018151D01*
X034621Y018133D01*
X034515Y018027D01*
X033977D01*
X033879Y018014D01*
X033788Y017976D01*
X03371Y017916D01*
X033282Y017488D01*
X033222Y01741D01*
X033184Y017319D01*
X033172Y017221D01*
Y016098D01*
X032481Y015408D01*
X032146D01*
X032127Y015454D01*
X032282Y015609D01*
X032348Y015695D01*
X03239Y015796D01*
X032404Y015904D01*
X032404Y015904D01*
Y016301D01*
X032428Y016326D01*
X032504Y016456D01*
X032543Y016601D01*
Y016751D01*
X032504Y016896D01*
X032428Y017027D01*
X032322Y017133D01*
X032291Y017151D01*
Y017201D01*
X032322Y017219D01*
X032428Y017326D01*
X032504Y017456D01*
X032543Y017601D01*
Y017751D01*
X032504Y017896D01*
X032428Y018027D01*
X032322Y018133D01*
X032291Y018151D01*
Y018201D01*
X032322Y018219D01*
X032428Y018326D01*
X032504Y018456D01*
X032543Y018601D01*
Y018751D01*
X032504Y018896D01*
X032428Y019027D01*
X032322Y019133D01*
X032318Y019166D01*
X032543Y019391D01*
Y019961D01*
X032257Y020247D01*
X031686D01*
X031401Y019961D01*
Y019391D01*
X031625Y019166D01*
X031621Y019133D01*
X031515Y019027D01*
X031042D01*
X030907Y019162D01*
Y020443D01*
X030894Y020541D01*
X030857Y020632D01*
X030797Y02071D01*
X030048Y021459D01*
X02997Y021519D01*
X029879Y021556D01*
X029781Y021569D01*
X025667D01*
X02557Y021556D01*
X025479Y021519D01*
X025401Y021459D01*
X024465Y020523D01*
X024405Y020445D01*
X024367Y020354D01*
X024355Y020256D01*
Y01938D01*
X02395Y018975D01*
X0231D01*
Y019156D01*
X023103Y01919D01*
X022785D01*
Y019387D01*
X022589D01*
Y019676D01*
X02257Y019672D01*
X02252Y019638D01*
X02247Y019659D01*
Y020671D01*
X02252Y020692D01*
X02257Y020658D01*
X022589Y020654D01*
Y020943D01*
X022785D01*
Y02114D01*
X0231D01*
X0231Y02114D01*
X0231Y02114D01*
Y021362D01*
X024201D01*
X024287Y021312D01*
X024406Y02128D01*
X024528D01*
X024647Y021312D01*
X024753Y021374D01*
X02484Y02146D01*
X024902Y021567D01*
X024933Y021686D01*
Y021808D01*
X024902Y021927D01*
X024887Y021952D01*
X024912Y021996D01*
X028027D01*
X028078Y021944D01*
X028184Y021883D01*
X028303Y021851D01*
X028426D01*
X028544Y021883D01*
X028651Y021944D01*
X028737Y022031D01*
X028799Y022138D01*
X028831Y022256D01*
Y022379D01*
X028799Y022498D01*
X028737Y022604D01*
X028651Y022691D01*
X028544Y022753D01*
X028426Y022784D01*
X028303D01*
X028184Y022753D01*
X02818Y02275D01*
X028178Y02275D01*
X028073D01*
X028055Y0228D01*
X02811Y022896D01*
X028142Y023014D01*
Y023137D01*
X028111Y023253D01*
X02811Y023262D01*
X028137Y023303D01*
X033624D01*
X033722Y023316D01*
X033813Y023353D01*
X033891Y023413D01*
X034399Y023921D01*
X034459Y023999D01*
X034496Y02409D01*
X034509Y024188D01*
Y0252D01*
X034555Y025219D01*
X034705Y025069D01*
X035276D01*
X035561Y025354D01*
Y025925D01*
X035337Y02615D01*
X035341Y026183D01*
X035447Y026289D01*
X035523Y026419D01*
X035561Y026565D01*
Y026715D01*
X035523Y02686D01*
X035447Y02699D01*
X035341Y027097D01*
X03531Y027115D01*
Y027165D01*
X035341Y027183D01*
X035447Y027289D01*
X035523Y027419D01*
X035561Y027565D01*
Y027715D01*
X035523Y02786D01*
X035447Y02799D01*
X035341Y028097D01*
X03531Y028115D01*
Y028165D01*
X035341Y028183D01*
X035447Y028289D01*
X035523Y028419D01*
X035561Y028565D01*
Y028715D01*
X035523Y02886D01*
X035447Y02899D01*
X035421Y029016D01*
X03544Y029063D01*
X035688D01*
X035999Y028752D01*
Y028337D01*
X036012Y02824D01*
X036049Y028149D01*
X036109Y028071D01*
X036542Y027638D01*
X03662Y027578D01*
X036711Y02754D01*
X036809Y027527D01*
X03865D01*
X0387Y027453D01*
X038798Y027354D01*
X038873Y027304D01*
Y02488D01*
X03864Y024647D01*
Y024076D01*
X038925Y02379D01*
X039496D01*
X039781Y024076D01*
Y024647D01*
X039627Y024801D01*
Y027304D01*
X039702Y027354D01*
X0398Y027453D01*
X039878Y027569D01*
X039931Y027698D01*
X039959Y027835D01*
Y027974D01*
X039931Y028111D01*
X039878Y02824D01*
X0398Y028356D01*
X039702Y028455D01*
X039586Y028532D01*
X039457Y028586D01*
X03932Y028613D01*
X03918D01*
X039043Y028586D01*
X038914Y028532D01*
X038798Y028455D01*
X0387Y028356D01*
X03865Y028282D01*
X036965D01*
X036753Y028494D01*
Y028908D01*
X03674Y029006D01*
X036703Y029097D01*
X036643Y029175D01*
X036111Y029707D01*
X036033Y029767D01*
X035942Y029804D01*
X035844Y029817D01*
X028203D01*
X028105Y029804D01*
X028014Y029767D01*
X027936Y029707D01*
X027605Y029376D01*
X027545Y029298D01*
X027508Y029207D01*
X027495Y029109D01*
Y028084D01*
X027428Y028017D01*
X026746D01*
X026667Y028097D01*
X026635Y028115D01*
Y028165D01*
X026667Y028183D01*
X026773Y028289D01*
X026848Y028419D01*
X026887Y028565D01*
Y028715D01*
X026848Y02886D01*
X026773Y02899D01*
X026667Y029097D01*
X026536Y029172D01*
X026391Y029211D01*
X026241D01*
X026096Y029172D01*
X025966Y029097D01*
X025859Y02899D01*
X025784Y02886D01*
X025745Y028715D01*
Y028565D01*
X025784Y028419D01*
X025859Y028289D01*
X025966Y028183D01*
X025997Y028165D01*
Y028115D01*
X025966Y028097D01*
X025859Y02799D01*
X025784Y02786D01*
X025745Y027715D01*
Y027565D01*
X025784Y027419D01*
X025859Y027289D01*
X025966Y027183D01*
X025997Y027165D01*
Y027115D01*
X025966Y027097D01*
X025859Y02699D01*
X025784Y02686D01*
X025745Y026715D01*
Y026565D01*
X025784Y026419D01*
X025859Y026289D01*
X025966Y026183D01*
X025997Y026165D01*
Y026115D01*
X025966Y026097D01*
X025859Y02599D01*
X025784Y02586D01*
X025745Y025715D01*
Y025565D01*
X025784Y025419D01*
X025839Y025324D01*
X025811Y025274D01*
X023155D01*
Y025378D01*
X023191Y025425D01*
X023223Y025501D01*
X023233Y025583D01*
Y02578D01*
X023223Y025863D01*
X023191Y025939D01*
X02314Y026005D01*
X023093Y026041D01*
Y026238D01*
X023096Y026272D01*
X022778D01*
Y026469D01*
X022581D01*
Y026758D01*
X022563Y026755D01*
X022512Y026721D01*
X022462Y026742D01*
Y027753D01*
X022512Y027774D01*
X022563Y027741D01*
X022581Y027737D01*
Y028026D01*
X022778D01*
Y028223D01*
X023093D01*
D01*
X023093Y028223D01*
Y028454D01*
X02314Y02849D01*
X023191Y028556D01*
X023223Y028633D01*
X023233Y028715D01*
Y028912D01*
X023223Y028994D01*
X023191Y029071D01*
X023189Y029072D01*
Y030747D01*
X023417Y030975D01*
Y031546D01*
X023132Y031831D01*
X022561D01*
X022276Y031546D01*
Y030975D01*
X022435Y030816D01*
Y030463D01*
X022385Y030456D01*
X022378Y030481D01*
X022303Y030611D01*
X022197Y030717D01*
X022067Y030792D01*
X021922Y030831D01*
X021809D01*
X021417Y031223D01*
Y031336D01*
X021378Y031481D01*
X021303Y031611D01*
X021197Y031717D01*
X021067Y031792D01*
X020922Y031831D01*
X020771D01*
X020626Y031792D01*
X020496Y031717D01*
X02039Y031611D01*
X020314Y031481D01*
X020276Y031336D01*
Y031185D01*
X020314Y03104D01*
X02039Y03091D01*
X020496Y030804D01*
X020626Y030728D01*
X020771Y03069D01*
X020884D01*
X021276Y030298D01*
Y030185D01*
X021314Y03004D01*
X02139Y02991D01*
X021496Y029804D01*
X021626Y029728D01*
X021771Y02969D01*
X021922D01*
X022067Y029728D01*
X022197Y029804D01*
X022303Y02991D01*
X022378Y03004D01*
X022385Y030065D01*
X022435Y030058D01*
Y029151D01*
X022416Y029136D01*
X022365Y029071D01*
X022333Y028994D01*
X022324Y028923D01*
X022278Y028898D01*
X022136Y029041D01*
X022058Y029101D01*
X021967Y029138D01*
X021869Y029151D01*
X021746D01*
X0217Y029187D01*
X021623Y029219D01*
X021541Y029229D01*
X021265D01*
X021183Y029219D01*
X021107Y029187D01*
X021041Y029136D01*
X02099Y029071D01*
X020977Y029038D01*
X020918Y029026D01*
X020863Y02908D01*
X020785Y02914D01*
X020694Y029178D01*
X020596Y029191D01*
X020316D01*
X020248Y029219D01*
X020166Y029229D01*
X019891D01*
X019808Y029219D01*
X019741Y029191D01*
X018941D01*
X018874Y029219D01*
X018791Y029229D01*
X018516D01*
X018434Y029219D01*
X018357Y029187D01*
X018291Y029136D01*
X018241Y029071D01*
X018209Y028994D01*
X018198Y028912D01*
Y028715D01*
X018209Y028633D01*
X018241Y028556D01*
X018291Y02849D01*
X018339Y028454D01*
Y028403D01*
X017594D01*
Y028454D01*
X017641Y02849D01*
X017692Y028556D01*
X017723Y028633D01*
X017734Y028715D01*
Y028912D01*
X017723Y028994D01*
X017692Y029071D01*
X017641Y029136D01*
X017575Y029187D01*
X017499Y029219D01*
X017417Y029229D01*
X017285D01*
X017279Y02923D01*
X016025D01*
X016025Y02923D01*
X015917Y029216D01*
X015817Y029174D01*
X01573Y029108D01*
X01573Y029108D01*
X014943Y028321D01*
X013406D01*
X013383Y028356D01*
X013284Y028455D01*
X013168Y028532D01*
X013039Y028586D01*
X012902Y028613D01*
X012763D01*
X012626Y028586D01*
X012497Y028532D01*
X012381Y028455D01*
X012282Y028356D01*
X012205Y02824D01*
X012151Y028111D01*
X012124Y027974D01*
Y027835D01*
X012151Y027698D01*
X012205Y027569D01*
X012282Y027453D01*
X012381Y027354D01*
X012497Y027276D01*
X012626Y027223D01*
X012763Y027196D01*
X012902D01*
X013039Y027223D01*
X013168Y027276D01*
X013284Y027354D01*
X013383Y027453D01*
X013406Y027487D01*
X015116D01*
X015116Y027487D01*
X015224Y027502D01*
X015325Y027543D01*
X015411Y02761D01*
X016198Y028396D01*
X016896D01*
X016912Y028358D01*
X016914Y028346D01*
X016866Y028283D01*
X016834Y028207D01*
X016823Y028124D01*
Y027928D01*
X016834Y027845D01*
X016866Y027769D01*
X016916Y027703D01*
X016982Y027652D01*
X017059Y027621D01*
X017141Y02761D01*
X017417D01*
X017499Y027621D01*
X017566Y027649D01*
X018366D01*
X018434Y027621D01*
X018516Y02761D01*
X018791D01*
X018874Y027621D01*
X01895Y027652D01*
X019016Y027703D01*
X019066Y027769D01*
X019098Y027845D01*
X019109Y027928D01*
Y028124D01*
X019098Y028207D01*
X019066Y028283D01*
X019016Y028349D01*
X018969Y028385D01*
Y028436D01*
X019713D01*
Y028385D01*
X019666Y028349D01*
X019615Y028283D01*
X019584Y028207D01*
X019573Y028124D01*
Y027928D01*
X019584Y027845D01*
X019615Y027769D01*
X019651Y027722D01*
Y026847D01*
X018941D01*
X018874Y026875D01*
X018791Y026885D01*
X018516D01*
X018434Y026875D01*
X018357Y026843D01*
X018291Y026792D01*
X018241Y026727D01*
X018209Y02665D01*
X018198Y026568D01*
Y026371D01*
X018209Y026289D01*
X018241Y026212D01*
X018291Y026146D01*
X018339Y02611D01*
Y026059D01*
X017594D01*
Y02611D01*
X017641Y026146D01*
X017692Y026212D01*
X017723Y026289D01*
X017734Y026371D01*
Y026568D01*
X017723Y02665D01*
X017692Y026727D01*
X017641Y026792D01*
X017575Y026843D01*
X017499Y026875D01*
X017417Y026885D01*
X017141D01*
X017059Y026875D01*
X016982Y026843D01*
X016936Y026807D01*
X015059D01*
X015034Y026844D01*
X014922Y026957D01*
X01479Y027045D01*
X014643Y027106D01*
X014487Y027137D01*
X014328D01*
X014172Y027106D01*
X014025Y027045D01*
X013893Y026957D01*
X013781Y026844D01*
X013692Y026712D01*
X01369Y026707D01*
X011975D01*
X011973Y026712D01*
X011885Y026844D01*
X011772Y026957D01*
X01164Y027045D01*
X011635Y027047D01*
Y028762D01*
X01164Y028764D01*
X011772Y028852D01*
X011885Y028965D01*
X011973Y029097D01*
X011975Y029102D01*
X01369D01*
X013692Y029097D01*
X013781Y028965D01*
X013893Y028852D01*
X014025Y028764D01*
X014172Y028703D01*
X014328Y028672D01*
X014487D01*
X014643Y028703D01*
X01479Y028764D01*
X014922Y028852D01*
X015034Y028965D01*
X015123Y029097D01*
X015184Y029244D01*
X015215Y0294D01*
Y029559D01*
X015184Y029715D01*
X015123Y029862D01*
X015034Y029994D01*
X014922Y030106D01*
X01479Y030194D01*
X014643Y030255D01*
X014487Y030286D01*
X014328D01*
X014172Y030255D01*
X014025Y030194D01*
X013893Y030106D01*
X013781Y029994D01*
X013692Y029862D01*
X01369Y029856D01*
X011975D01*
X011973Y029862D01*
X011885Y029994D01*
X011772Y030106D01*
X01164Y030194D01*
X011493Y030255D01*
X011337Y030286D01*
X011178D01*
X011022Y030255D01*
X010876Y030194D01*
X010743Y030106D01*
X010631Y029994D01*
X010543Y029862D01*
X010539Y029853D01*
X01049Y029863D01*
Y03382D01*
X010539Y03383D01*
X010543Y033821D01*
X010631Y033689D01*
X010743Y033577D01*
X010876Y033488D01*
X011022Y033428D01*
X011178Y033397D01*
X011337D01*
X011493Y033428D01*
X01164Y033488D01*
X011772Y033577D01*
X011885Y033689D01*
X011973Y033821D01*
X011975Y033826D01*
X01369D01*
X013692Y033821D01*
X013781Y033689D01*
X013893Y033577D01*
X014025Y033488D01*
X014172Y033428D01*
X014328Y033397D01*
X014487D01*
X014643Y033428D01*
X01479Y033488D01*
X014922Y033577D01*
X015034Y033689D01*
X015123Y033821D01*
X015184Y033968D01*
X015215Y034124D01*
Y034283D01*
X015184Y034439D01*
X015123Y034586D01*
X015034Y034718D01*
X014922Y034831D01*
X01479Y034919D01*
X014643Y03498D01*
X014487Y035011D01*
X014328D01*
X014172Y03498D01*
X014025Y034919D01*
X013893Y034831D01*
X013781Y034718D01*
X013692Y034586D01*
X01369Y034581D01*
X011975D01*
X011973Y034586D01*
X011885Y034718D01*
X011772Y034831D01*
X01164Y034919D01*
X011635Y034921D01*
Y036636D01*
X01164Y036638D01*
X011772Y036726D01*
X011885Y036839D01*
X011973Y036971D01*
X011975Y036976D01*
X01369D01*
X013692Y036971D01*
X013781Y036839D01*
X013893Y036726D01*
X014025Y036638D01*
X014172Y036577D01*
X014328Y036546D01*
X014487D01*
X014643Y036577D01*
X014648Y036579D01*
X015031Y036197D01*
X015007Y036149D01*
X014959Y036156D01*
X013433D01*
X013383Y03623D01*
X013284Y036329D01*
X013168Y036406D01*
X013039Y03646D01*
X012902Y036487D01*
X012763D01*
X012626Y03646D01*
X012497Y036406D01*
X012381Y036329D01*
X012282Y03623D01*
X012205Y036114D01*
X012151Y035985D01*
X012124Y035848D01*
Y035709D01*
X012151Y035572D01*
X012205Y035443D01*
X012282Y035327D01*
X012381Y035228D01*
X012497Y03515D01*
X012626Y035097D01*
X012763Y03507D01*
X012902D01*
X013039Y035097D01*
X013168Y03515D01*
X013284Y035228D01*
X013383Y035327D01*
X013433Y035401D01*
X014802D01*
X015448Y034756D01*
Y034322D01*
X01546Y034224D01*
X015498Y034133D01*
X015558Y034055D01*
X015912Y033701D01*
X015991Y033641D01*
X016082Y033603D01*
X016179Y03359D01*
X016941D01*
X016982Y033558D01*
X017059Y033527D01*
X017141Y033516D01*
X01727D01*
X017274Y033466D01*
X017273Y033466D01*
X017182Y033428D01*
X017104Y033368D01*
X016919Y033184D01*
X016859Y033105D01*
X016821Y033014D01*
X016809Y032917D01*
Y031753D01*
X016615Y031559D01*
Y030989D01*
X0169Y030703D01*
X017471D01*
X017757Y030989D01*
Y031559D01*
X017563Y031753D01*
Y032724D01*
X017763D01*
X017782Y032678D01*
X017729Y032625D01*
X017654Y032494D01*
X017615Y032349D01*
Y032199D01*
X017654Y032054D01*
X017729Y031923D01*
X017835Y031817D01*
X017965Y031742D01*
X018111Y031703D01*
X018223D01*
X018615Y031311D01*
Y031199D01*
X018654Y031054D01*
X018729Y030924D01*
X018835Y030817D01*
X018965Y030742D01*
X019111Y030703D01*
X019261D01*
X019406Y030742D01*
X019536Y030817D01*
X019643Y030924D01*
X019718Y031054D01*
X019757Y031199D01*
Y031311D01*
X020445Y032D01*
X023425D01*
X023893Y031532D01*
Y031097D01*
X023906Y031D01*
X023943Y030909D01*
X024003Y030831D01*
X024775Y030059D01*
X024853Y029999D01*
X024944Y029961D01*
X025042Y029948D01*
X032537D01*
X032635Y029961D01*
X032726Y029999D01*
X032804Y030059D01*
X034379Y031634D01*
X034434Y031705D01*
X034487Y031713D01*
X034534Y031632D01*
X03464Y031525D01*
X03477Y03145D01*
X034915Y031411D01*
X035066D01*
X035211Y03145D01*
X035341Y031525D01*
X035447Y031632D01*
X035523Y031762D01*
X035561Y031907D01*
Y032057D01*
X035523Y032203D01*
X035447Y032333D01*
X035341Y032439D01*
X03531Y032457D01*
Y032507D01*
X035341Y032525D01*
X035421Y032605D01*
X038693D01*
X038714Y032555D01*
X038679Y032521D01*
Y03195D01*
X038965Y031664D01*
X039535D01*
X039821Y03195D01*
Y032521D01*
X039627Y032714D01*
Y033475D01*
Y035178D01*
X039702Y035228D01*
X0398Y035327D01*
X039878Y035443D01*
X039931Y035572D01*
X039959Y035709D01*
Y035848D01*
X039931Y035985D01*
X039878Y036114D01*
X0398Y03623D01*
X039702Y036329D01*
X039586Y036406D01*
X039457Y03646D01*
X03932Y036487D01*
X03918D01*
X039043Y03646D01*
X038914Y036406D01*
X038798Y036329D01*
X0387Y03623D01*
X038622Y036114D01*
X038569Y035985D01*
X038541Y035848D01*
Y035709D01*
X038569Y035572D01*
X038622Y035443D01*
X0387Y035327D01*
X038798Y035228D01*
X038873Y035178D01*
Y033632D01*
X038601Y03336D01*
X035421D01*
X035379Y033401D01*
X0354Y033451D01*
X035884D01*
X036017Y033469D01*
X036142Y03352D01*
X036249Y033602D01*
X036839Y034193D01*
X036921Y0343D01*
X036956Y034383D01*
X037004Y034368D01*
X036985Y034272D01*
Y034136D01*
X037011Y034002D01*
X037063Y033877D01*
X037139Y033763D01*
X037235Y033667D01*
X037348Y033592D01*
X037474Y03354D01*
X037478Y033539D01*
Y034204D01*
Y034869D01*
X037474Y034868D01*
X037348Y034816D01*
X037235Y03474D01*
X037139Y034644D01*
X037063Y034531D01*
X037025Y03444D01*
X036977Y034453D01*
X036991Y034558D01*
Y037071D01*
X037041Y037081D01*
X037063Y037026D01*
X037139Y036913D01*
X037235Y036817D01*
X037348Y036741D01*
X037474Y036689D01*
X037478Y036688D01*
Y037353D01*
Y038018D01*
X037474Y038017D01*
X037348Y037965D01*
X037235Y03789D01*
X037139Y037793D01*
X037063Y03768D01*
X037041Y037626D01*
X036991Y037636D01*
Y041972D01*
X037135Y042116D01*
X037217Y042223D01*
X037268Y042348D01*
X037286Y042481D01*
Y048282D01*
X037332Y048301D01*
X03737Y048263D01*
X037941D01*
X038227Y048548D01*
Y049119D01*
X037941Y049404D01*
X03737D01*
X037332Y049366D01*
X037286Y049385D01*
Y050837D01*
X037268Y050971D01*
X037217Y051096D01*
X037135Y051203D01*
X036819Y051518D01*
X036838Y051564D01*
X037219D01*
X03737Y051412D01*
X037941D01*
X038227Y051698D01*
Y052269D01*
X037941Y052554D01*
X03737D01*
X037215Y052398D01*
X0361D01*
X03603Y052469D01*
X035926Y052537D01*
X035812Y052585D01*
X03569Y052609D01*
X035566D01*
X035444Y052585D01*
X03533Y052537D01*
X035226Y052469D01*
X035139Y052381D01*
X03507Y052278D01*
X035022Y052163D01*
X034998Y052041D01*
Y051917D01*
X035022Y051795D01*
X03507Y051681D01*
X035139Y051578D01*
X035226Y05149D01*
X03533Y051421D01*
X035444Y051374D01*
X035518Y051359D01*
X036253Y050624D01*
Y049096D01*
X036203Y049086D01*
X036186Y049128D01*
X036117Y049231D01*
X03603Y049319D01*
X035926Y049388D01*
X035812Y049435D01*
X03569Y04946D01*
X035566D01*
X035444Y049435D01*
X03533Y049388D01*
X035226Y049319D01*
X035139Y049231D01*
X03507Y049128D01*
X035022Y049013D01*
X035007Y048939D01*
X032956Y046887D01*
X032874Y04678D01*
X032822Y046656D01*
X032804Y046522D01*
Y032701D01*
X032625Y032521D01*
X032407D01*
X032387Y032571D01*
X032447Y032632D01*
X032523Y032762D01*
X032561Y032907D01*
Y033057D01*
X032523Y033203D01*
X032447Y033333D01*
X032341Y033439D01*
X03231Y033457D01*
Y033507D01*
X032341Y033525D01*
X032447Y033632D01*
X032523Y033762D01*
X032561Y033907D01*
Y034057D01*
X032523Y034203D01*
X032447Y034333D01*
X032341Y034439D01*
X032337Y034472D01*
X032561Y034697D01*
Y035268D01*
X032276Y035553D01*
X031705D01*
X03142Y035268D01*
Y034697D01*
X031644Y034472D01*
X03164Y034439D01*
X03156Y03436D01*
X031104D01*
X030926Y034537D01*
Y035976D01*
X030913Y036073D01*
X030876Y036164D01*
X030816Y036242D01*
X030245Y036813D01*
X030167Y036873D01*
X030076Y036911D01*
X029978Y036923D01*
X025678D01*
X02558Y036911D01*
X025489Y036873D01*
X025411Y036813D01*
X024456Y035858D01*
X024396Y03578D01*
X024358Y035689D01*
X024345Y035591D01*
Y034714D01*
X02394Y034309D01*
X023093D01*
Y034488D01*
X023096Y034522D01*
X022778D01*
Y034719D01*
X022581D01*
Y035008D01*
X022563Y035005D01*
X022512Y034971D01*
X022462Y034992D01*
Y036003D01*
X022512Y036024D01*
X022563Y035991D01*
X022581Y035987D01*
Y036276D01*
X022778D01*
Y036473D01*
X023093D01*
X023093Y036473D01*
X023093Y036473D01*
Y036695D01*
X024459D01*
X024542Y036647D01*
X024661Y036615D01*
X024784D01*
X024903Y036647D01*
X025009Y036708D01*
X025096Y036795D01*
X025157Y036902D01*
X025189Y03702D01*
Y037143D01*
X025157Y037262D01*
X025096Y037368D01*
X025009Y037455D01*
X024995Y037463D01*
X025008Y037511D01*
X027964D01*
X027979Y037496D01*
X028086Y037434D01*
X028204Y037402D01*
X028327D01*
X028446Y037434D01*
X028552Y037496D01*
X028639Y037583D01*
X0287Y037689D01*
X028732Y037808D01*
Y03793D01*
X0287Y038049D01*
X028639Y038155D01*
X028552Y038242D01*
X028446Y038304D01*
X028327Y038336D01*
X028204D01*
X028086Y038304D01*
X02802Y038266D01*
X027649D01*
X027643Y038316D01*
X027658Y03832D01*
X027765Y038381D01*
X027852Y038468D01*
X027913Y038575D01*
X027945Y038693D01*
Y038816D01*
X027913Y038935D01*
X027852Y039041D01*
X027765Y039128D01*
X027658Y03919D01*
X02754Y039221D01*
X027417D01*
X027298Y03919D01*
X027233Y039152D01*
X020628D01*
X020531Y039139D01*
X02044Y039101D01*
X020362Y039041D01*
X019762Y038441D01*
X019702Y038363D01*
X019664Y038272D01*
X019651Y038174D01*
Y037367D01*
X019615Y037321D01*
X019584Y037244D01*
X019573Y037162D01*
Y036965D01*
X019584Y036883D01*
X019615Y036806D01*
X019666Y03674D01*
X019713Y036704D01*
Y036653D01*
X018969D01*
Y036704D01*
X019016Y03674D01*
X019066Y036806D01*
X019098Y036883D01*
X019109Y036965D01*
Y037162D01*
X019098Y037244D01*
X019066Y037321D01*
X019016Y037386D01*
X01895Y037437D01*
X018874Y037469D01*
X018791Y037479D01*
X018516D01*
X018434Y037469D01*
X018366Y037441D01*
X017566D01*
X017499Y037469D01*
X017417Y037479D01*
X017141D01*
X017059Y037469D01*
X016982Y037437D01*
X016916Y037386D01*
X016866Y037321D01*
X016834Y037244D01*
X016823Y037162D01*
Y036965D01*
X016834Y036883D01*
X016866Y036806D01*
X016916Y03674D01*
X016964Y036704D01*
Y036635D01*
X016954Y036628D01*
X015666D01*
X015181Y037113D01*
X015184Y037118D01*
X015215Y037274D01*
Y037433D01*
X015184Y037589D01*
X015123Y037736D01*
X015034Y037868D01*
X014922Y03798D01*
X01479Y038068D01*
X014643Y038129D01*
X014487Y03816D01*
X014328D01*
X014172Y038129D01*
X014025Y038068D01*
X013893Y03798D01*
X013781Y037868D01*
X013692Y037736D01*
X01369Y03773D01*
X011975D01*
X011973Y037736D01*
X011885Y037868D01*
X011772Y03798D01*
X01164Y038068D01*
X011493Y038129D01*
X011337Y03816D01*
X011178D01*
X011022Y038129D01*
X010876Y038068D01*
X010743Y03798D01*
X010631Y037868D01*
X010543Y037736D01*
X010539Y037727D01*
X01049Y037737D01*
Y039971D01*
X030864D01*
Y053554D01*
X03864D01*
Y051684D01*
D02*
G37*
G36*
X030372Y040463D02*
X01049D01*
Y050798D01*
X012262D01*
X013246Y051782D01*
Y053554D01*
X030372D01*
Y040463D01*
D02*
G37*
G36*
X027192Y038381D02*
X027298Y03832D01*
X027314Y038316D01*
X027307Y038266D01*
X021588D01*
X02149Y038253D01*
X021399Y038215D01*
X021321Y038155D01*
X021136Y037971D01*
X021076Y037893D01*
X021039Y037802D01*
X021026Y037704D01*
Y037367D01*
X02099Y037321D01*
X020977Y037288D01*
X020918Y037276D01*
X020855Y037339D01*
X020776Y037399D01*
X020685Y037436D01*
X020588Y037449D01*
X020406D01*
Y038018D01*
X020785Y038397D01*
X027176D01*
X027192Y038381D01*
D02*
G37*
G36*
X018339Y036635D02*
X018291Y036599D01*
X018241Y036533D01*
X018209Y036457D01*
X018198Y036374D01*
Y036178D01*
X018209Y036095D01*
X018241Y036019D01*
X018291Y035953D01*
X018357Y035902D01*
X018434Y035871D01*
X018516Y03586D01*
X018791D01*
X018874Y035871D01*
X018941Y035899D01*
X019651D01*
Y035023D01*
X019615Y034977D01*
X019584Y0349D01*
X019573Y034818D01*
Y034621D01*
X019584Y034539D01*
X019615Y034462D01*
X019666Y034396D01*
X019713Y03436D01*
Y034309D01*
X018969D01*
Y03436D01*
X019016Y034396D01*
X019066Y034462D01*
X019098Y034539D01*
X019109Y034621D01*
Y034818D01*
X019098Y0349D01*
X019066Y034977D01*
X019016Y035042D01*
X01895Y035093D01*
X018874Y035125D01*
X018791Y035135D01*
X018516D01*
X018434Y035125D01*
X018366Y035097D01*
X017566D01*
X017499Y035125D01*
X017417Y035135D01*
X017141D01*
X017059Y035125D01*
X016982Y035093D01*
X016916Y035042D01*
X016866Y034977D01*
X016834Y0349D01*
X016823Y034818D01*
Y034621D01*
X016834Y034539D01*
X016866Y034462D01*
X016916Y034396D01*
X016918Y034395D01*
X016901Y034345D01*
X016335D01*
X016202Y034478D01*
Y034912D01*
X016189Y03501D01*
X016151Y035101D01*
X016092Y035179D01*
X015438Y035833D01*
X015461Y03588D01*
X01551Y035874D01*
X017052D01*
X017059Y035871D01*
X017141Y03586D01*
X017417D01*
X017499Y035871D01*
X017575Y035902D01*
X017641Y035953D01*
X017692Y036019D01*
X017723Y036095D01*
X017734Y036178D01*
Y036374D01*
X017723Y036457D01*
X017692Y036533D01*
X017641Y036599D01*
X017594Y036635D01*
Y036686D01*
X018339D01*
Y036635D01*
D02*
G37*
G36*
X020617Y036009D02*
X020695Y035949D01*
X020786Y035912D01*
X020884Y035899D01*
X021115D01*
X021183Y035871D01*
X021265Y03586D01*
X021541D01*
X021623Y035871D01*
X021658Y035885D01*
X021708Y035852D01*
Y035144D01*
X021658Y03511D01*
X021623Y035125D01*
X021541Y035135D01*
X021265D01*
X021183Y035125D01*
X021115Y035097D01*
X020884D01*
X020786Y035084D01*
X020695Y035046D01*
X020617Y034986D01*
X020519Y034888D01*
X020469Y034909D01*
X020441Y034977D01*
X020406Y035023D01*
Y035972D01*
X020441Y036019D01*
X020469Y036086D01*
X020519Y036107D01*
X020617Y036009D01*
D02*
G37*
G36*
X010543Y036971D02*
X010631Y036839D01*
X010743Y036726D01*
X010876Y036638D01*
X010881Y036636D01*
Y034921D01*
X010876Y034919D01*
X010743Y034831D01*
X010631Y034718D01*
X010543Y034586D01*
X010539Y034578D01*
X01049Y034587D01*
Y036969D01*
X010539Y036979D01*
X010543Y036971D01*
D02*
G37*
G36*
X036253Y048563D02*
Y042695D01*
X036109Y042551D01*
X036027Y042444D01*
X035976Y04232D01*
X035958Y042186D01*
Y034772D01*
X03567Y034484D01*
X035361D01*
X035349Y034534D01*
X035447Y034632D01*
X035523Y034762D01*
X035561Y034907D01*
Y035057D01*
X035523Y035203D01*
X035447Y035333D01*
X035341Y035439D01*
X035211Y035514D01*
X035066Y035553D01*
X034915D01*
X03477Y035514D01*
X03464Y035439D01*
X034534Y035333D01*
X034459Y035203D01*
X03442Y035057D01*
Y034907D01*
X034459Y034762D01*
X034534Y034632D01*
X03464Y034525D01*
X034672Y034507D01*
Y034457D01*
X03464Y034439D01*
X034534Y034333D01*
X034459Y034203D01*
X03442Y034057D01*
Y033907D01*
X034459Y033762D01*
X034534Y033632D01*
X03464Y033525D01*
X034672Y033507D01*
Y033457D01*
X03464Y033439D01*
X03456Y03336D01*
X034297D01*
X034199Y033347D01*
X034108Y033309D01*
X03403Y033249D01*
X033887Y033106D01*
X033837Y033127D01*
Y046308D01*
X035738Y048209D01*
X035812Y048224D01*
X035926Y048271D01*
X03603Y04834D01*
X036117Y048428D01*
X036186Y048531D01*
X036203Y048573D01*
X036253Y048563D01*
D02*
G37*
G36*
X018339Y034291D02*
X018291Y034255D01*
X018241Y034189D01*
X018209Y034113D01*
X018198Y03403D01*
Y033833D01*
X018209Y033751D01*
X018241Y033675D01*
X018291Y033609D01*
X018357Y033558D01*
X018434Y033527D01*
X018424Y033479D01*
X017508D01*
X017499Y033527D01*
X017575Y033558D01*
X017641Y033609D01*
X017692Y033675D01*
X017723Y033751D01*
X017734Y033833D01*
Y03403D01*
X017723Y034113D01*
X017692Y034189D01*
X017641Y034255D01*
X017594Y034291D01*
Y034342D01*
X018339D01*
Y034291D01*
D02*
G37*
G36*
X030172Y035819D02*
Y034381D01*
X030184Y034283D01*
X030222Y034192D01*
X030282Y034114D01*
X030681Y033716D01*
X030759Y033656D01*
X03085Y033618D01*
X030947Y033605D01*
X03156D01*
X03164Y033525D01*
X031672Y033507D01*
Y033457D01*
X03164Y033439D01*
X03156Y03336D01*
X029707D01*
X029627Y033439D01*
X029596Y033457D01*
Y033507D01*
X029627Y033525D01*
X029734Y033632D01*
X029809Y033762D01*
X029848Y033907D01*
Y034057D01*
X029809Y034203D01*
X029734Y034333D01*
X029627Y034439D01*
X029596Y034457D01*
Y034507D01*
X029627Y034525D01*
X029734Y034632D01*
X029809Y034762D01*
X029848Y034907D01*
Y035057D01*
X029809Y035203D01*
X029734Y035333D01*
X029627Y035439D01*
X029497Y035514D01*
X029352Y035553D01*
X029202D01*
X029056Y035514D01*
X028926Y035439D01*
X02882Y035333D01*
X028745Y035203D01*
X028706Y035057D01*
Y034907D01*
X028745Y034762D01*
X02882Y034632D01*
X028926Y034525D01*
X028958Y034507D01*
Y034457D01*
X028926Y034439D01*
X02882Y034333D01*
X028745Y034203D01*
X028706Y034057D01*
Y033907D01*
X028745Y033762D01*
X02882Y033632D01*
X028926Y033525D01*
X028958Y033507D01*
Y033457D01*
X028926Y033439D01*
X02882Y033333D01*
X028745Y033203D01*
X028706Y033057D01*
Y032907D01*
X028745Y032762D01*
X02882Y032632D01*
X028926Y032525D01*
X028958Y032507D01*
Y032457D01*
X028926Y032439D01*
X02882Y032333D01*
X028745Y032203D01*
X028706Y032057D01*
Y031907D01*
X028745Y031762D01*
X02882Y031632D01*
X028926Y031525D01*
X029056Y03145D01*
X029072Y031446D01*
X029065Y031396D01*
X026864D01*
X026754Y031506D01*
Y031667D01*
X026809Y031762D01*
X026848Y031907D01*
Y032057D01*
X026809Y032203D01*
X026734Y032333D01*
X026627Y032439D01*
X026596Y032457D01*
Y032507D01*
X026627Y032525D01*
X026734Y032632D01*
X026809Y032762D01*
X026848Y032907D01*
Y033057D01*
X026809Y033203D01*
X026734Y033333D01*
X026627Y033439D01*
X026596Y033457D01*
Y033507D01*
X026627Y033525D01*
X026734Y033632D01*
X026809Y033762D01*
X026848Y033907D01*
Y034057D01*
X026809Y034203D01*
X026734Y034333D01*
X026627Y034439D01*
X026623Y034472D01*
X026848Y034697D01*
Y035268D01*
X026562Y035553D01*
X025991D01*
X025706Y035268D01*
Y034697D01*
X025931Y034472D01*
X025926Y034439D01*
X02582Y034333D01*
X025745Y034203D01*
X025706Y034057D01*
Y033907D01*
X025745Y033762D01*
X02582Y033632D01*
X025926Y033525D01*
X025958Y033507D01*
Y033457D01*
X025926Y033439D01*
X02582Y033333D01*
X025745Y033203D01*
X025706Y033057D01*
Y032907D01*
X025745Y032762D01*
X02582Y032632D01*
X025926Y032525D01*
X025958Y032507D01*
Y032457D01*
X025926Y032439D01*
X02582Y032333D01*
X025745Y032203D01*
X025706Y032057D01*
Y031907D01*
X025745Y031762D01*
X02582Y031632D01*
X02592Y031532D01*
Y031333D01*
X02592Y031333D01*
X025934Y031225D01*
X025976Y031125D01*
X026042Y031038D01*
X026331Y030749D01*
X026312Y030703D01*
X025198D01*
X024647Y031254D01*
Y031688D01*
X024634Y031786D01*
X024597Y031876D01*
X024537Y031955D01*
X023848Y032644D01*
X02377Y032704D01*
X023679Y032741D01*
X023581Y032754D01*
X022778D01*
X022761Y032804D01*
X022801Y032835D01*
X023045Y033079D01*
X023105Y033157D01*
X023142Y033248D01*
X023155Y033345D01*
Y033555D01*
X024096D01*
X024194Y033568D01*
X024285Y033605D01*
X024363Y033665D01*
X024989Y034291D01*
X025049Y034369D01*
X025087Y03446D01*
X0251Y034558D01*
Y035435D01*
X025834Y036169D01*
X029822D01*
X030172Y035819D01*
D02*
G37*
G36*
X020062Y032674D02*
X020022Y032644D01*
X019223Y031845D01*
X019148D01*
X018757Y032237D01*
Y032349D01*
X018718Y032494D01*
X018643Y032625D01*
X018589Y032678D01*
X018608Y032724D01*
X020045D01*
X020062Y032674D01*
D02*
G37*
G36*
X03164Y032525D02*
X031672Y032507D01*
Y032457D01*
X03164Y032439D01*
X031534Y032333D01*
X031459Y032203D01*
X03142Y032057D01*
Y031907D01*
X031459Y031762D01*
X031534Y031632D01*
X03155Y031616D01*
Y031396D01*
X029488D01*
X029482Y031446D01*
X029497Y03145D01*
X029627Y031525D01*
X029734Y031632D01*
X029809Y031762D01*
X029848Y031907D01*
Y032057D01*
X029809Y032203D01*
X029734Y032333D01*
X029627Y032439D01*
X029596Y032457D01*
Y032507D01*
X029627Y032525D01*
X029707Y032605D01*
X03156D01*
X03164Y032525D01*
D02*
G37*
G36*
X033698Y032121D02*
X033735Y032108D01*
Y032057D01*
X032381Y030703D01*
X032115D01*
X032095Y030749D01*
X032261Y030915D01*
X032328Y031001D01*
X032369Y031102D01*
X032383Y03121D01*
X032383Y03121D01*
Y031489D01*
X032839D01*
X032972Y031506D01*
X033097Y031558D01*
X033204Y03164D01*
X033685Y032121D01*
X033698Y032121D01*
D02*
G37*
G36*
X03156Y029016D02*
X031534Y02899D01*
X031459Y02886D01*
X03142Y028715D01*
Y028565D01*
X031459Y028419D01*
X031534Y028289D01*
X03164Y028183D01*
X031672Y028165D01*
Y028115D01*
X03164Y028097D01*
X03156Y028017D01*
X029746D01*
X029667Y028097D01*
X029635Y028115D01*
Y028165D01*
X029667Y028183D01*
X029773Y028289D01*
X029848Y028419D01*
X029887Y028565D01*
Y028715D01*
X029848Y02886D01*
X029773Y02899D01*
X029747Y029016D01*
X029766Y029063D01*
X031541D01*
X03156Y029016D01*
D02*
G37*
G36*
X020593Y027759D02*
X020671Y027699D01*
X020762Y027662D01*
X02086Y027649D01*
X021115D01*
X021183Y027621D01*
X021265Y02761D01*
X021541D01*
X021623Y027621D01*
X021658Y027635D01*
X021708Y027602D01*
Y026894D01*
X021658Y02686D01*
X021623Y026875D01*
X021541Y026885D01*
X021265D01*
X021183Y026875D01*
X021107Y026843D01*
X021098Y026836D01*
X020931D01*
X020833Y026823D01*
X020742Y026786D01*
X020664Y026726D01*
X020531Y026593D01*
X020478Y02661D01*
X020473Y02665D01*
X020441Y026727D01*
X020406Y026773D01*
Y027722D01*
X020441Y027769D01*
X020462Y02782D01*
X020519Y027833D01*
X020593Y027759D01*
D02*
G37*
G36*
X010543Y029097D02*
X010631Y028965D01*
X010743Y028852D01*
X010876Y028764D01*
X010881Y028762D01*
Y027047D01*
X010876Y027045D01*
X010743Y026957D01*
X010631Y026844D01*
X010543Y026712D01*
X010539Y026704D01*
X01049Y026713D01*
Y029095D01*
X010539Y029105D01*
X010543Y029097D01*
D02*
G37*
G36*
X03456Y029016D02*
X034534Y02899D01*
X034459Y02886D01*
X03442Y028715D01*
Y028565D01*
X034459Y028419D01*
X034534Y028289D01*
X03464Y028183D01*
X034672Y028165D01*
Y028115D01*
X03464Y028097D01*
X03456Y028017D01*
X03404D01*
X033943Y028004D01*
X033852Y027966D01*
X033774Y027907D01*
X033275Y027407D01*
X033215Y027329D01*
X033177Y027238D01*
X033164Y027141D01*
Y025427D01*
X033011Y025274D01*
X032496D01*
X032467Y025324D01*
X032523Y025419D01*
X032561Y025565D01*
Y025715D01*
X032523Y02586D01*
X032447Y02599D01*
X032341Y026097D01*
X03231Y026115D01*
Y026165D01*
X032341Y026183D01*
X032447Y026289D01*
X032523Y026419D01*
X032561Y026565D01*
Y026715D01*
X032523Y02686D01*
X032447Y02699D01*
X032341Y027097D01*
X03231Y027115D01*
Y027165D01*
X032341Y027183D01*
X032447Y027289D01*
X032523Y027419D01*
X032561Y027565D01*
Y027715D01*
X032523Y02786D01*
X032447Y02799D01*
X032341Y028097D01*
X03231Y028115D01*
Y028165D01*
X032341Y028183D01*
X032447Y028289D01*
X032523Y028419D01*
X032561Y028565D01*
Y028715D01*
X032523Y02886D01*
X032447Y02899D01*
X032421Y029016D01*
X03244Y029063D01*
X034541D01*
X03456Y029016D01*
D02*
G37*
G36*
X03164Y027183D02*
X031672Y027165D01*
Y027115D01*
X03164Y027097D01*
X031534Y02699D01*
X031459Y02686D01*
X03142Y026715D01*
Y026565D01*
X031459Y026419D01*
X031534Y026289D01*
X03164Y026183D01*
X031672Y026165D01*
Y026115D01*
X03164Y026097D01*
X031534Y02599D01*
X031459Y02586D01*
X03142Y025715D01*
Y025565D01*
X031459Y025419D01*
X031514Y025324D01*
X031485Y025274D01*
X029872D01*
X029853Y02532D01*
X029887Y025354D01*
Y025925D01*
X029662Y02615D01*
X029667Y026183D01*
X029773Y026289D01*
X029848Y026419D01*
X029887Y026565D01*
Y026715D01*
X029848Y02686D01*
X029773Y02699D01*
X029667Y027097D01*
X029635Y027115D01*
Y027165D01*
X029667Y027183D01*
X029746Y027263D01*
X03156D01*
X03164Y027183D01*
D02*
G37*
G36*
X028885Y029016D02*
X028859Y02899D01*
X028784Y02886D01*
X028745Y028715D01*
Y028565D01*
X028784Y028419D01*
X028859Y028289D01*
X028966Y028183D01*
X028997Y028165D01*
Y028115D01*
X028966Y028097D01*
X028859Y02799D01*
X028784Y02786D01*
X028745Y027715D01*
Y027565D01*
X028784Y027419D01*
X028859Y027289D01*
X028966Y027183D01*
X028997Y027165D01*
Y027115D01*
X028966Y027097D01*
X028859Y02699D01*
X028784Y02686D01*
X028745Y026715D01*
Y026565D01*
X028784Y026419D01*
X028859Y026289D01*
X028966Y026183D01*
X02897Y02615D01*
X028745Y025925D01*
Y025354D01*
X02878Y02532D01*
X02876Y025274D01*
X026822D01*
X026793Y025324D01*
X026848Y025419D01*
X026887Y025565D01*
Y025715D01*
X026848Y02586D01*
X026773Y02599D01*
X026667Y026097D01*
X026635Y026115D01*
Y026165D01*
X026667Y026183D01*
X026773Y026289D01*
X026848Y026419D01*
X026887Y026565D01*
Y026715D01*
X026848Y02686D01*
X026773Y02699D01*
X026667Y027097D01*
X026635Y027115D01*
Y027165D01*
X026667Y027183D01*
X026746Y027263D01*
X027584D01*
X027681Y027275D01*
X027772Y027313D01*
X027851Y027373D01*
X028139Y027661D01*
X028199Y027739D01*
X028236Y02783D01*
X028249Y027928D01*
Y028953D01*
X028359Y029063D01*
X028866D01*
X028885Y029016D01*
D02*
G37*
G36*
X019713Y026041D02*
X019666Y026005D01*
X019615Y025939D01*
X019584Y025863D01*
X019573Y02578D01*
Y025583D01*
X019584Y025501D01*
X019615Y025425D01*
X019651Y025378D01*
Y024906D01*
X019664Y024808D01*
X019702Y024717D01*
X019762Y024639D01*
X020902Y023499D01*
X020883Y023453D01*
X020713D01*
X020616Y02344D01*
X020525Y023402D01*
X020447Y023342D01*
X019771Y022667D01*
X019711Y022589D01*
X019673Y022498D01*
X019661Y0224D01*
Y022037D01*
X019623Y021988D01*
X019591Y021911D01*
X01958Y021829D01*
Y021632D01*
X019591Y02155D01*
X019623Y021474D01*
X019673Y021408D01*
X019721Y021371D01*
Y021321D01*
X018976D01*
Y021371D01*
X019023Y021408D01*
X019074Y021474D01*
X019106Y02155D01*
X019116Y021632D01*
Y021829D01*
X019106Y021911D01*
X019074Y021988D01*
X019023Y022054D01*
X018958Y022104D01*
X018881Y022136D01*
X018799Y022147D01*
X018523D01*
X018441Y022136D01*
X018373Y022108D01*
X017574D01*
X017506Y022136D01*
X017424Y022147D01*
X017148D01*
X017066Y022136D01*
X01699Y022104D01*
X016924Y022054D01*
X016873Y021988D01*
X016842Y021911D01*
X016831Y021829D01*
Y021632D01*
X016842Y02155D01*
X016873Y021474D01*
X016924Y021408D01*
X016971Y021371D01*
Y021313D01*
X016296D01*
X015737Y021872D01*
X015659Y021932D01*
X015568Y02197D01*
X01547Y021982D01*
X015125D01*
X015123Y021987D01*
X015034Y02212D01*
X014922Y022232D01*
X01479Y02232D01*
X014643Y022381D01*
X014487Y022412D01*
X014328D01*
X014172Y022381D01*
X014025Y02232D01*
X013893Y022232D01*
X013781Y02212D01*
X013692Y021987D01*
X01369Y021982D01*
X011975D01*
X011973Y021987D01*
X011885Y02212D01*
X011772Y022232D01*
X01164Y02232D01*
X011493Y022381D01*
X011337Y022412D01*
X011178D01*
X011022Y022381D01*
X010876Y02232D01*
X010743Y022232D01*
X010631Y02212D01*
X010543Y021987D01*
X010539Y021979D01*
X01049Y021989D01*
Y025946D01*
X010539Y025956D01*
X010543Y025947D01*
X010631Y025815D01*
X010743Y025703D01*
X010876Y025614D01*
X011022Y025554D01*
X011178Y025523D01*
X011337D01*
X011493Y025554D01*
X01164Y025614D01*
X011772Y025703D01*
X011885Y025815D01*
X011973Y025947D01*
X011975Y025952D01*
X01369D01*
X013692Y025947D01*
X013781Y025815D01*
X013893Y025703D01*
X014025Y025614D01*
X014172Y025554D01*
X014328Y025523D01*
X014487D01*
X014643Y025554D01*
X01479Y025614D01*
X014922Y025703D01*
X015034Y025815D01*
X015123Y025947D01*
X015166Y026053D01*
X016896D01*
X016913Y026013D01*
X016915Y026003D01*
X016866Y025939D01*
X016834Y025863D01*
X016823Y02578D01*
Y025583D01*
X016834Y025501D01*
X016866Y025425D01*
X016916Y025359D01*
X016982Y025308D01*
X017059Y025277D01*
X017141Y025266D01*
X017417D01*
X017499Y025277D01*
X017566Y025305D01*
X018366D01*
X018434Y025277D01*
X018516Y025266D01*
X018791D01*
X018874Y025277D01*
X01895Y025308D01*
X019016Y025359D01*
X019066Y025425D01*
X019098Y025501D01*
X019109Y025583D01*
Y02578D01*
X019098Y025863D01*
X019066Y025939D01*
X019016Y026005D01*
X018969Y026041D01*
Y026092D01*
X019713D01*
Y026041D01*
D02*
G37*
G36*
X022003Y025415D02*
X022081Y025355D01*
X022172Y025317D01*
X02227Y025305D01*
X022401D01*
Y025081D01*
X022414Y024983D01*
X022451Y024892D01*
X022511Y024814D01*
X022616Y02471D01*
X022597Y024664D01*
X022379D01*
X02178Y025262D01*
Y025378D01*
X021816Y025425D01*
X021848Y025501D01*
X021848Y025506D01*
X021896Y025522D01*
X022003Y025415D01*
D02*
G37*
G36*
X033755Y024885D02*
Y024344D01*
X033468Y024057D01*
X033309D01*
X033284Y024101D01*
X033287Y024106D01*
X033319Y024225D01*
Y024348D01*
X033287Y024466D01*
X033277Y024485D01*
X033293Y024532D01*
X033336Y02455D01*
X033414Y02461D01*
X033708Y024904D01*
X033755Y024885D01*
D02*
G37*
G36*
X020951Y02556D02*
X020958Y025501D01*
X02099Y025425D01*
X021026Y025378D01*
Y025106D01*
X021039Y025008D01*
X021076Y024917D01*
X021136Y024839D01*
X021872Y024103D01*
X021853Y024057D01*
X021411D01*
X020406Y025062D01*
Y025344D01*
X020508D01*
X020606Y025357D01*
X020697Y025395D01*
X020775Y025455D01*
X020898Y025578D01*
X020951Y02556D01*
D02*
G37*
G36*
X02184Y022651D02*
X021825Y02264D01*
X021333Y022147D01*
X021273D01*
X021191Y022136D01*
X021114Y022104D01*
X021048Y022054D01*
X020998Y021988D01*
X020984Y021955D01*
X020925Y021943D01*
X020862Y022006D01*
X020784Y022066D01*
X020693Y022104D01*
X020595Y022117D01*
X020415D01*
Y022244D01*
X02087Y022698D01*
X021824D01*
X02184Y022651D01*
D02*
G37*
G36*
X020625Y020677D02*
X020703Y020617D01*
X020794Y020579D01*
X020891Y020566D01*
X021123D01*
X021191Y020538D01*
X021273Y020527D01*
X021548D01*
X021631Y020538D01*
X021665Y020552D01*
X021715Y020519D01*
Y019811D01*
X021665Y019778D01*
X021631Y019792D01*
X021548Y019803D01*
X021273D01*
X021191Y019792D01*
X021123Y019764D01*
X020891D01*
X020794Y019751D01*
X020703Y019713D01*
X020625Y019653D01*
X020527Y019556D01*
X020477Y019576D01*
X020449Y019644D01*
X020413Y01969D01*
Y02064D01*
X020449Y020686D01*
X020477Y020754D01*
X020527Y020775D01*
X020625Y020677D01*
D02*
G37*
G36*
X010543Y021223D02*
X010631Y021091D01*
X010743Y020978D01*
X010876Y02089D01*
X010881Y020888D01*
Y019173D01*
X010876Y019171D01*
X010743Y019082D01*
X010631Y01897D01*
X010543Y018838D01*
X010539Y01883D01*
X01049Y018839D01*
Y021221D01*
X010539Y021231D01*
X010543Y021223D01*
D02*
G37*
G36*
X030153Y020287D02*
Y019006D01*
X030166Y018908D01*
X030203Y018817D01*
X030263Y018739D01*
X030619Y018383D01*
X030698Y018323D01*
X030789Y018285D01*
X030886Y018272D01*
X031568D01*
X031621Y018219D01*
X031653Y018201D01*
Y018151D01*
X031621Y018133D01*
X031542Y018053D01*
X029727D01*
X029648Y018133D01*
X029616Y018151D01*
Y018201D01*
X029648Y018219D01*
X029754Y018326D01*
X029829Y018456D01*
X029868Y018601D01*
Y018751D01*
X029829Y018896D01*
X029754Y019027D01*
X029648Y019133D01*
X029616Y019151D01*
Y019201D01*
X029648Y019219D01*
X029754Y019326D01*
X029829Y019456D01*
X029868Y019601D01*
Y019751D01*
X029829Y019896D01*
X029754Y020027D01*
X029648Y020133D01*
X029518Y020208D01*
X029372Y020247D01*
X029222D01*
X029077Y020208D01*
X028947Y020133D01*
X02884Y020027D01*
X028765Y019896D01*
X028726Y019751D01*
Y019601D01*
X028765Y019456D01*
X02884Y019326D01*
X028947Y019219D01*
X028978Y019201D01*
Y019151D01*
X028947Y019133D01*
X02884Y019027D01*
X028765Y018896D01*
X028726Y018751D01*
Y018601D01*
X028765Y018456D01*
X02884Y018326D01*
X028947Y018219D01*
X028978Y018201D01*
Y018151D01*
X028947Y018133D01*
X02884Y018027D01*
X028765Y017896D01*
X028726Y017751D01*
Y017601D01*
X028765Y017456D01*
X02884Y017326D01*
X028947Y017219D01*
X028978Y017201D01*
Y017151D01*
X028947Y017133D01*
X02884Y017027D01*
X028765Y016896D01*
X028726Y016751D01*
Y016601D01*
X028765Y016456D01*
X02884Y016326D01*
X028947Y016219D01*
X029077Y016144D01*
X029092Y01614D01*
X029086Y01609D01*
X026884D01*
X026774Y0162D01*
Y016361D01*
X026829Y016456D01*
X026868Y016601D01*
Y016751D01*
X026829Y016896D01*
X026754Y017027D01*
X026648Y017133D01*
X026616Y017151D01*
Y017201D01*
X026648Y017219D01*
X026754Y017326D01*
X026829Y017456D01*
X026868Y017601D01*
Y017751D01*
X026829Y017896D01*
X026754Y018027D01*
X026648Y018133D01*
X026616Y018151D01*
Y018201D01*
X026648Y018219D01*
X026754Y018326D01*
X026829Y018456D01*
X026868Y018601D01*
Y018751D01*
X026829Y018896D01*
X026754Y019027D01*
X026648Y019133D01*
X026643Y019166D01*
X026868Y019391D01*
Y019961D01*
X026583Y020247D01*
X026012D01*
X025726Y019961D01*
Y019391D01*
X025951Y019166D01*
X025947Y019133D01*
X02584Y019027D01*
X025765Y018896D01*
X025726Y018751D01*
Y018601D01*
X025765Y018456D01*
X02584Y018326D01*
X025947Y018219D01*
X025978Y018201D01*
Y018151D01*
X025947Y018133D01*
X02584Y018027D01*
X025765Y017896D01*
X025726Y017751D01*
Y017601D01*
X025765Y017456D01*
X02584Y017326D01*
X025947Y017219D01*
X025978Y017201D01*
Y017151D01*
X025947Y017133D01*
X02584Y017027D01*
X025765Y016896D01*
X025726Y016751D01*
Y016601D01*
X025765Y016456D01*
X02584Y016326D01*
X025941Y016225D01*
Y016027D01*
X025941Y016027D01*
X025955Y015919D01*
X025996Y015818D01*
X026063Y015732D01*
X026341Y015454D01*
X026322Y015408D01*
X025168D01*
X024647Y015928D01*
Y016334D01*
X024634Y016431D01*
X024597Y016522D01*
X024537Y0166D01*
X023826Y017311D01*
X023748Y017371D01*
X023657Y017409D01*
X023559Y017421D01*
X022869D01*
X022853Y017469D01*
X022868Y01748D01*
X023052Y017665D01*
X023112Y017743D01*
X02315Y017834D01*
X023163Y017931D01*
Y01822D01*
X024106D01*
X024203Y018233D01*
X024294Y018271D01*
X024373Y018331D01*
X024999Y018957D01*
X025059Y019035D01*
X025096Y019126D01*
X025109Y019223D01*
Y0201D01*
X025824Y020815D01*
X029625D01*
X030153Y020287D01*
D02*
G37*
G36*
X020044Y017322D02*
X020029Y017311D01*
X019231Y016512D01*
X019156D01*
X018764Y016904D01*
Y017017D01*
X018725Y017162D01*
X01865Y017292D01*
X018619Y017323D01*
X018638Y01737D01*
X020028D01*
X020044Y017322D01*
D02*
G37*
G36*
X031621Y017219D02*
X031653Y017201D01*
Y017151D01*
X031621Y017133D01*
X031515Y017027D01*
X03144Y016896D01*
X031401Y016751D01*
Y016601D01*
X03144Y016456D01*
X031515Y016326D01*
X03157Y01627D01*
Y01609D01*
X029509D01*
X029502Y01614D01*
X029518Y016144D01*
X029648Y016219D01*
X029754Y016326D01*
X029829Y016456D01*
X029868Y016601D01*
Y016751D01*
X029829Y016896D01*
X029754Y017027D01*
X029648Y017133D01*
X029616Y017151D01*
Y017201D01*
X029648Y017219D01*
X029727Y017299D01*
X031542D01*
X031621Y017219D01*
D02*
G37*
G36*
X0315Y013658D02*
X03144Y013554D01*
X031401Y013409D01*
Y013258D01*
X03144Y013113D01*
X031515Y012983D01*
X031621Y012877D01*
X031653Y012859D01*
Y012809D01*
X031621Y01279D01*
X031542Y012711D01*
X029727D01*
X029648Y01279D01*
X029616Y012809D01*
Y012859D01*
X029648Y012877D01*
X029754Y012983D01*
X029829Y013113D01*
X029868Y013258D01*
Y013409D01*
X029829Y013554D01*
X029769Y013658D01*
X029798Y013708D01*
X031471D01*
X0315Y013658D01*
D02*
G37*
G36*
X020574Y012453D02*
X020653Y012393D01*
X020744Y012355D01*
X020841Y012343D01*
X021097D01*
X021164Y012314D01*
X021246Y012304D01*
X021522D01*
X021604Y012314D01*
X021639Y012329D01*
X021689Y012295D01*
Y011587D01*
X021639Y011554D01*
X021604Y011568D01*
X021522Y011579D01*
X021246D01*
X021164Y011568D01*
X021088Y011537D01*
X021079Y01153D01*
X020912D01*
X020814Y011517D01*
X020723Y011479D01*
X020645Y01142D01*
X020512Y011286D01*
X020459Y011304D01*
X020454Y011344D01*
X020422Y01142D01*
X020387Y011467D01*
Y012416D01*
X020422Y012463D01*
X020443Y012513D01*
X0205Y012527D01*
X020574Y012453D01*
D02*
G37*
G36*
X010543Y013349D02*
X010631Y013217D01*
X010743Y013104D01*
X010876Y013016D01*
X010881Y013014D01*
Y011299D01*
X010876Y011297D01*
X010743Y011208D01*
X010631Y011096D01*
X010543Y010964D01*
X010539Y010956D01*
X01049Y010965D01*
Y013347D01*
X010539Y013357D01*
X010543Y013349D01*
D02*
G37*
G36*
X0345Y013658D02*
X03444Y013554D01*
X034401Y013409D01*
Y013258D01*
X03444Y013113D01*
X034515Y012983D01*
X034621Y012877D01*
X034653Y012859D01*
Y012809D01*
X034621Y01279D01*
X034542Y012711D01*
X034022D01*
X033924Y012698D01*
X033833Y01266D01*
X033755Y0126D01*
X033256Y012101D01*
X033196Y012023D01*
X033158Y011932D01*
X033145Y011834D01*
Y009899D01*
X03241D01*
X032391Y009945D01*
X032428Y009983D01*
X032504Y010113D01*
X032543Y010258D01*
Y010409D01*
X032504Y010554D01*
X032428Y010684D01*
X032322Y01079D01*
X032291Y010809D01*
Y010859D01*
X032322Y010877D01*
X032428Y010983D01*
X032504Y011113D01*
X032543Y011258D01*
Y011409D01*
X032504Y011554D01*
X032428Y011684D01*
X032322Y01179D01*
X032291Y011809D01*
Y011859D01*
X032322Y011877D01*
X032428Y011983D01*
X032504Y012113D01*
X032543Y012258D01*
Y012409D01*
X032504Y012554D01*
X032428Y012684D01*
X032322Y01279D01*
X032291Y012809D01*
Y012859D01*
X032322Y012877D01*
X032428Y012983D01*
X032504Y013113D01*
X032543Y013258D01*
Y013409D01*
X032504Y013554D01*
X032443Y013658D01*
X032472Y013708D01*
X034471D01*
X0345Y013658D01*
D02*
G37*
G36*
X031621Y011877D02*
X031653Y011859D01*
Y011809D01*
X031621Y01179D01*
X031515Y011684D01*
X03144Y011554D01*
X031401Y011409D01*
Y011258D01*
X03144Y011113D01*
X031515Y010983D01*
X031621Y010877D01*
X031653Y010859D01*
Y010809D01*
X031621Y01079D01*
X031515Y010684D01*
X03144Y010554D01*
X031401Y010409D01*
Y010258D01*
X03144Y010113D01*
X031515Y009983D01*
X031553Y009945D01*
X031533Y009899D01*
X029784D01*
X029765Y009945D01*
X029868Y010048D01*
Y010619D01*
X029643Y010844D01*
X029648Y010877D01*
X029754Y010983D01*
X029829Y011113D01*
X029868Y011258D01*
Y011409D01*
X029829Y011554D01*
X029754Y011684D01*
X029648Y01179D01*
X029616Y011809D01*
Y011859D01*
X029648Y011877D01*
X029727Y011956D01*
X031542D01*
X031621Y011877D01*
D02*
G37*
G36*
X028826Y013658D02*
X028765Y013554D01*
X028726Y013409D01*
Y013258D01*
X028765Y013113D01*
X02884Y012983D01*
X028947Y012877D01*
X028978Y012859D01*
Y012809D01*
X028947Y01279D01*
X02884Y012684D01*
X028765Y012554D01*
X028726Y012409D01*
Y012258D01*
X028765Y012113D01*
X02884Y011983D01*
X028947Y011877D01*
X028978Y011859D01*
Y011809D01*
X028947Y01179D01*
X02884Y011684D01*
X028765Y011554D01*
X028726Y011409D01*
Y011258D01*
X028765Y011113D01*
X02884Y010983D01*
X028947Y010877D01*
X028951Y010844D01*
X028726Y010619D01*
Y010048D01*
X028829Y009945D01*
X02881Y009899D01*
X026735D01*
X026716Y009945D01*
X026754Y009983D01*
X026829Y010113D01*
X026868Y010258D01*
Y010409D01*
X026829Y010554D01*
X026754Y010684D01*
X026648Y01079D01*
X026616Y010809D01*
Y010859D01*
X026648Y010877D01*
X026754Y010983D01*
X026829Y011113D01*
X026868Y011258D01*
Y011409D01*
X026829Y011554D01*
X026754Y011684D01*
X026648Y01179D01*
X026616Y011809D01*
Y011859D01*
X026648Y011877D01*
X026727Y011956D01*
X027435D01*
X027533Y011969D01*
X027624Y012007D01*
X027702Y012067D01*
X028237Y012602D01*
X028297Y01268D01*
X028335Y012771D01*
X028348Y012869D01*
Y0135D01*
X028556Y013708D01*
X028797D01*
X028826Y013658D01*
D02*
G37*
G36*
X021984Y010109D02*
X022062Y010049D01*
X022153Y010011D01*
X022251Y009998D01*
X022382D01*
Y009706D01*
X022395Y009609D01*
X022432Y009518D01*
X022492Y00944D01*
X022591Y009341D01*
X022572Y009295D01*
X022423D01*
X021761Y009956D01*
Y010072D01*
X021797Y010118D01*
X021829Y010195D01*
X02183Y0102D01*
X021877Y010216D01*
X021984Y010109D01*
D02*
G37*
G36*
X020932Y010253D02*
X02094Y010195D01*
X020971Y010118D01*
X021007Y010072D01*
Y0098D01*
X02102Y009702D01*
X021058Y009611D01*
X021117Y009533D01*
X021914Y008737D01*
X021895Y00869D01*
X021452D01*
X020387Y009756D01*
Y010038D01*
X020489D01*
X020587Y010051D01*
X020678Y010088D01*
X020756Y010148D01*
X020879Y010272D01*
X020932Y010253D01*
D02*
G37*
%LPC*%
G36*
X039261Y050859D02*
X03923D01*
Y050601D01*
X039488D01*
Y050632D01*
X039261Y050859D01*
D02*
G37*
G36*
X038837D02*
X038806D01*
X038579Y050632D01*
Y050601D01*
X038837D01*
Y050859D01*
D02*
G37*
G36*
X035825Y050883D02*
Y050601D01*
X036107D01*
X036106Y050603D01*
X036039Y05072D01*
X035943Y050815D01*
X035826Y050883D01*
X035825Y050883D01*
D02*
G37*
G36*
X035431D02*
X03543Y050883D01*
X035313Y050815D01*
X035217Y05072D01*
X03515Y050603D01*
X035149Y050601D01*
X035431D01*
Y050883D01*
D02*
G37*
G36*
X039488Y050208D02*
X03923D01*
Y04995D01*
X039261D01*
X039488Y050177D01*
Y050208D01*
D02*
G37*
G36*
X038837D02*
X038579D01*
Y050177D01*
X038806Y04995D01*
X038837D01*
Y050208D01*
D02*
G37*
G36*
X036107D02*
X035825D01*
Y049926D01*
X035826Y049926D01*
X035943Y049994D01*
X036039Y050089D01*
X036106Y050206D01*
X036107Y050208D01*
D02*
G37*
G36*
X035431D02*
X035149D01*
X03515Y050206D01*
X035217Y050089D01*
X035313Y049994D01*
X03543Y049926D01*
X035431Y049926D01*
Y050208D01*
D02*
G37*
G36*
X040195Y043676D02*
X040056Y043662D01*
X039922Y043621D01*
X039799Y043556D01*
X039691Y043467D01*
X039603Y043359D01*
X039537Y043236D01*
X039496Y043102D01*
X039483Y042963D01*
Y042688D01*
X039496Y042549D01*
X039537Y042415D01*
X039603Y042292D01*
X039691Y042184D01*
X039799Y042096D01*
X039922Y04203D01*
X040056Y041989D01*
X040195Y041976D01*
X040334Y041989D01*
X040467Y04203D01*
X040591Y042096D01*
X040698Y042184D01*
X040787Y042292D01*
X040853Y042415D01*
X040893Y042549D01*
X040907Y042688D01*
Y042963D01*
X040893Y043102D01*
X040853Y043236D01*
X040787Y043359D01*
X040698Y043467D01*
X040591Y043556D01*
X040467Y043621D01*
X040334Y043662D01*
X040195Y043676D01*
D02*
G37*
G36*
X040628Y038018D02*
X040623Y038017D01*
X040498Y037965D01*
X040385Y03789D01*
X040288Y037793D01*
X040213Y03768D01*
X040161Y037555D01*
X04016Y03755D01*
X040628D01*
Y038018D01*
D02*
G37*
G36*
X037872Y038018D02*
Y03755D01*
X03834D01*
X038339Y037555D01*
X038287Y03768D01*
X038212Y037793D01*
X038115Y03789D01*
X038002Y037965D01*
X037877Y038017D01*
X037872Y038018D01*
D02*
G37*
G36*
X040628Y037156D02*
X04016D01*
X040161Y037152D01*
X040213Y037026D01*
X040288Y036913D01*
X040385Y036817D01*
X040498Y036741D01*
X040623Y036689D01*
X040628Y036688D01*
Y037156D01*
D02*
G37*
G36*
X03834Y037156D02*
X037872D01*
Y036688D01*
X037877Y036689D01*
X038002Y036741D01*
X038115Y036817D01*
X038212Y036913D01*
X038287Y037026D01*
X038339Y037152D01*
X03834Y037156D01*
D02*
G37*
G36*
X023089Y036079D02*
X022975D01*
Y035987D01*
X022993Y035991D01*
X023059Y036035D01*
X023089Y036079D01*
D02*
G37*
G36*
X022975Y035008D02*
Y034916D01*
X023089D01*
X023059Y034961D01*
X022993Y035005D01*
X022975Y035008D01*
D02*
G37*
G36*
X037872Y034869D02*
Y0344D01*
X03834D01*
X038339Y034405D01*
X038287Y034531D01*
X038212Y034644D01*
X038115Y03474D01*
X038002Y034816D01*
X037877Y034868D01*
X037872Y034869D01*
D02*
G37*
G36*
X040628D02*
X040623Y034868D01*
X040498Y034816D01*
X040385Y03474D01*
X040288Y034644D01*
X040213Y034531D01*
X040161Y034405D01*
X04016Y0344D01*
X040628D01*
Y034869D01*
D02*
G37*
G36*
X03834Y034007D02*
X037872D01*
Y033539D01*
X037877Y03354D01*
X038002Y033592D01*
X038115Y033667D01*
X038212Y033763D01*
X038287Y033877D01*
X038339Y034002D01*
X03834Y034007D01*
D02*
G37*
G36*
X040628D02*
X04016D01*
X040161Y034002D01*
X040213Y033877D01*
X040288Y033763D01*
X040385Y033667D01*
X040498Y033592D01*
X040623Y03354D01*
X040628Y033539D01*
Y034007D01*
D02*
G37*
G36*
X040628Y030144D02*
X040623Y030143D01*
X040498Y030091D01*
X040385Y030016D01*
X040288Y029919D01*
X040213Y029806D01*
X040161Y029681D01*
X04016Y029676D01*
X040628D01*
Y030144D01*
D02*
G37*
G36*
X037872D02*
Y029676D01*
X03834D01*
X038339Y029681D01*
X038287Y029806D01*
X038212Y029919D01*
X038115Y030016D01*
X038002Y030091D01*
X037877Y030143D01*
X037872Y030144D01*
D02*
G37*
G36*
X037478D02*
X037474Y030143D01*
X037348Y030091D01*
X037235Y030016D01*
X037139Y029919D01*
X037063Y029806D01*
X037011Y029681D01*
X03701Y029676D01*
X037478D01*
Y030144D01*
D02*
G37*
G36*
X040628Y029282D02*
X04016D01*
X040161Y029278D01*
X040213Y029152D01*
X040288Y029039D01*
X040385Y028943D01*
X040498Y028867D01*
X040623Y028815D01*
X040628Y028814D01*
Y029282D01*
D02*
G37*
G36*
X03834Y029282D02*
X037872D01*
Y028814D01*
X037877Y028815D01*
X038002Y028867D01*
X038115Y028943D01*
X038212Y029039D01*
X038287Y029152D01*
X038339Y029278D01*
X03834Y029282D01*
D02*
G37*
G36*
X037478D02*
X03701D01*
X037011Y029278D01*
X037063Y029152D01*
X037139Y029039D01*
X037235Y028943D01*
X037348Y028867D01*
X037474Y028815D01*
X037478Y028814D01*
Y029282D01*
D02*
G37*
G36*
X023089Y027829D02*
X022975D01*
Y027737D01*
X022993Y027741D01*
X023059Y027785D01*
X023089Y027829D01*
D02*
G37*
G36*
X022975Y026758D02*
Y026666D01*
X023089D01*
X023059Y026711D01*
X022993Y026755D01*
X022975Y026758D01*
D02*
G37*
G36*
X040628Y026995D02*
X040623Y026994D01*
X040498Y026942D01*
X040385Y026866D01*
X040288Y02677D01*
X040213Y026657D01*
X040161Y026531D01*
X04016Y026526D01*
X040628D01*
Y026995D01*
D02*
G37*
G36*
X037872D02*
Y026526D01*
X03834D01*
X038339Y026531D01*
X038287Y026657D01*
X038212Y02677D01*
X038115Y026866D01*
X038002Y026942D01*
X037877Y026994D01*
X037872Y026995D01*
D02*
G37*
G36*
X037478D02*
X037474Y026994D01*
X037348Y026942D01*
X037235Y026866D01*
X037139Y02677D01*
X037063Y026657D01*
X037011Y026531D01*
X03701Y026526D01*
X037478D01*
Y026995D01*
D02*
G37*
G36*
X03834Y026133D02*
X037872D01*
Y025665D01*
X037877Y025666D01*
X038002Y025718D01*
X038115Y025793D01*
X038212Y025889D01*
X038287Y026003D01*
X038339Y026128D01*
X03834Y026133D01*
D02*
G37*
G36*
X040628Y026133D02*
X04016D01*
X040161Y026128D01*
X040213Y026003D01*
X040288Y025889D01*
X040385Y025793D01*
X040498Y025718D01*
X040623Y025666D01*
X040628Y025665D01*
Y026133D01*
D02*
G37*
G36*
X037478Y026133D02*
X03701D01*
X037011Y026128D01*
X037063Y026003D01*
X037139Y025889D01*
X037235Y025793D01*
X037348Y025718D01*
X037474Y025666D01*
X037478Y025665D01*
Y026133D01*
D02*
G37*
G36*
X034831Y023103D02*
X034801D01*
Y022845D01*
X035059D01*
Y022876D01*
X034831Y023103D01*
D02*
G37*
G36*
X034407D02*
X034377D01*
X03415Y022876D01*
Y022845D01*
X034407D01*
Y023103D01*
D02*
G37*
G36*
X035059Y022452D02*
X034801D01*
Y022194D01*
X034831D01*
X035059Y022421D01*
Y022452D01*
D02*
G37*
G36*
X034407D02*
X03415D01*
Y022421D01*
X034377Y022194D01*
X034407D01*
Y022452D01*
D02*
G37*
G36*
X040628Y02227D02*
X040623Y022269D01*
X040498Y022217D01*
X040385Y022142D01*
X040288Y022045D01*
X040213Y021932D01*
X040161Y021807D01*
X04016Y021802D01*
X040628D01*
Y02227D01*
D02*
G37*
G36*
X037872D02*
Y021802D01*
X03834D01*
X038339Y021807D01*
X038287Y021932D01*
X038212Y022045D01*
X038115Y022142D01*
X038002Y022217D01*
X037877Y022269D01*
X037872Y02227D01*
D02*
G37*
G36*
X037478D02*
X037474Y022269D01*
X037348Y022217D01*
X037235Y022142D01*
X037139Y022045D01*
X037063Y021932D01*
X037011Y021807D01*
X03701Y021802D01*
X037478D01*
Y02227D01*
D02*
G37*
G36*
X040628Y021408D02*
X04016D01*
X040161Y021404D01*
X040213Y021278D01*
X040288Y021165D01*
X040385Y021069D01*
X040498Y020993D01*
X040623Y020941D01*
X040628Y02094D01*
Y021408D01*
D02*
G37*
G36*
X03834Y021408D02*
X037872D01*
Y02094D01*
X037877Y020941D01*
X038002Y020993D01*
X038115Y021069D01*
X038212Y021165D01*
X038287Y021278D01*
X038339Y021404D01*
X03834Y021408D01*
D02*
G37*
G36*
X037478D02*
X03701D01*
X037011Y021404D01*
X037063Y021278D01*
X037139Y021165D01*
X037235Y021069D01*
X037348Y020993D01*
X037474Y020941D01*
X037478Y02094D01*
Y021408D01*
D02*
G37*
G36*
X023096Y020747D02*
X022982D01*
Y020654D01*
X023001Y020658D01*
X023066Y020702D01*
X023096Y020747D01*
D02*
G37*
G36*
X022982Y019676D02*
Y019584D01*
X023096D01*
X023066Y019628D01*
X023001Y019672D01*
X022982Y019676D01*
D02*
G37*
G36*
X040628Y019121D02*
X040623Y01912D01*
X040498Y019068D01*
X040385Y018992D01*
X040288Y018896D01*
X040213Y018783D01*
X040161Y018657D01*
X04016Y018652D01*
X040628D01*
Y019121D01*
D02*
G37*
G36*
X037872D02*
Y018652D01*
X03834D01*
X038339Y018657D01*
X038287Y018783D01*
X038212Y018896D01*
X038115Y018992D01*
X038002Y019068D01*
X037877Y01912D01*
X037872Y019121D01*
D02*
G37*
G36*
X037478D02*
X037474Y01912D01*
X037348Y019068D01*
X037235Y018992D01*
X037139Y018896D01*
X037063Y018783D01*
X037011Y018657D01*
X03701Y018652D01*
X037478D01*
Y019121D01*
D02*
G37*
G36*
X03834Y018259D02*
X037872D01*
Y017791D01*
X037877Y017792D01*
X038002Y017844D01*
X038115Y017919D01*
X038212Y018015D01*
X038287Y018128D01*
X038339Y018254D01*
X03834Y018259D01*
D02*
G37*
G36*
X040628Y018259D02*
X04016D01*
X040161Y018254D01*
X040213Y018128D01*
X040288Y018015D01*
X040385Y017919D01*
X040498Y017844D01*
X040623Y017792D01*
X040628Y017791D01*
Y018259D01*
D02*
G37*
G36*
X037478Y018259D02*
X03701D01*
X037011Y018254D01*
X037063Y018128D01*
X037139Y018015D01*
X037235Y017919D01*
X037348Y017844D01*
X037474Y017792D01*
X037478Y017791D01*
Y018259D01*
D02*
G37*
G36*
X040628Y014396D02*
X040623Y014395D01*
X040498Y014343D01*
X040385Y014268D01*
X040288Y014171D01*
X040213Y014058D01*
X040161Y013933D01*
X04016Y013928D01*
X040628D01*
Y014396D01*
D02*
G37*
G36*
X037872D02*
Y013928D01*
X03834D01*
X038339Y013933D01*
X038287Y014058D01*
X038212Y014171D01*
X038115Y014268D01*
X038002Y014343D01*
X037877Y014395D01*
X037872Y014396D01*
D02*
G37*
G36*
X037478D02*
X037474Y014395D01*
X037348Y014343D01*
X037235Y014268D01*
X037139Y014171D01*
X037063Y014058D01*
X037011Y013933D01*
X03701Y013928D01*
X037478D01*
Y014396D01*
D02*
G37*
G36*
X040628Y013534D02*
X04016D01*
X040161Y01353D01*
X040213Y013404D01*
X040288Y013291D01*
X040385Y013195D01*
X040498Y013119D01*
X040623Y013067D01*
X040628Y013066D01*
Y013534D01*
D02*
G37*
G36*
X03834Y013534D02*
X037872D01*
Y013066D01*
X037877Y013067D01*
X038002Y013119D01*
X038115Y013195D01*
X038212Y013291D01*
X038287Y013404D01*
X038339Y01353D01*
X03834Y013534D01*
D02*
G37*
G36*
X037478D02*
X03701D01*
X037011Y01353D01*
X037063Y013404D01*
X037139Y013291D01*
X037235Y013195D01*
X037348Y013119D01*
X037474Y013067D01*
X037478Y013066D01*
Y013534D01*
D02*
G37*
G36*
X02307Y012523D02*
X022956D01*
Y012431D01*
X022974Y012434D01*
X02304Y012478D01*
X02307Y012523D01*
D02*
G37*
G36*
X022956Y011452D02*
Y01136D01*
X02307D01*
X02304Y011405D01*
X022974Y011448D01*
X022956Y011452D01*
D02*
G37*
G36*
X037872Y011247D02*
Y010778D01*
X03834D01*
X038339Y010783D01*
X038287Y010909D01*
X038212Y011022D01*
X038115Y011118D01*
X038002Y011194D01*
X037877Y011246D01*
X037872Y011247D01*
D02*
G37*
G36*
X040628D02*
X040623Y011246D01*
X040498Y011194D01*
X040385Y011118D01*
X040288Y011022D01*
X040213Y010909D01*
X040161Y010783D01*
X04016Y010778D01*
X040628D01*
Y011247D01*
D02*
G37*
G36*
X037478D02*
X037474Y011246D01*
X037348Y011194D01*
X037235Y011118D01*
X037139Y011022D01*
X037063Y010909D01*
X037011Y010783D01*
X03701Y010778D01*
X037478D01*
Y011247D01*
D02*
G37*
G36*
X03834Y010385D02*
X037872D01*
Y009917D01*
X037877Y009918D01*
X038002Y00997D01*
X038115Y010045D01*
X038212Y010141D01*
X038287Y010254D01*
X038339Y01038D01*
X03834Y010385D01*
D02*
G37*
G36*
X040628D02*
X04016D01*
X040161Y01038D01*
X040213Y010254D01*
X040288Y010141D01*
X040385Y010045D01*
X040498Y00997D01*
X040623Y009918D01*
X040628Y009917D01*
Y010385D01*
D02*
G37*
G36*
X037478D02*
X03701D01*
X037011Y01038D01*
X037063Y010254D01*
X037139Y010141D01*
X037235Y010045D01*
X037348Y00997D01*
X037474Y009918D01*
X037478Y009917D01*
Y010385D01*
D02*
G37*
G36*
X025678Y007867D02*
X025648D01*
Y007609D01*
X025905D01*
Y007639D01*
X025678Y007867D01*
D02*
G37*
G36*
X025254D02*
X025224D01*
X024996Y007639D01*
Y007609D01*
X025254D01*
Y007867D01*
D02*
G37*
G36*
X025905Y007215D02*
X025648D01*
Y006958D01*
X025678D01*
X025905Y007185D01*
Y007215D01*
D02*
G37*
G36*
X025254D02*
X024996D01*
Y007185D01*
X025224Y006958D01*
X025254D01*
Y007215D01*
D02*
G37*
G36*
X027403Y052019D02*
X027279D01*
X027157Y051994D01*
X027043Y051947D01*
X02698Y051905D01*
X025653D01*
X025598Y05196D01*
X025028D01*
X024742Y051674D01*
Y051103D01*
X025028Y050818D01*
X025598D01*
X025653Y050872D01*
X02698D01*
X027043Y05083D01*
X027157Y050783D01*
X027279Y050759D01*
X027403D01*
X027525Y050783D01*
X027639Y05083D01*
X027742Y050899D01*
X02783Y050987D01*
X027899Y05109D01*
X027947Y051205D01*
X027971Y051327D01*
Y051451D01*
X027947Y051572D01*
X027899Y051687D01*
X02783Y05179D01*
X027742Y051878D01*
X027639Y051947D01*
X027525Y051994D01*
X027403Y052019D01*
D02*
G37*
G36*
X023384Y052632D02*
X023187D01*
X023079Y052618D01*
X022979Y052577D01*
X022892Y05251D01*
X022826Y052424D01*
X022784Y052323D01*
X02277Y052215D01*
X022784Y052108D01*
X022826Y052007D01*
X022892Y051921D01*
X022923Y051897D01*
X022918Y051837D01*
X022828Y051768D01*
X022742Y051657D01*
X022689Y051527D01*
X022671Y051389D01*
X022689Y05125D01*
X022742Y051121D01*
X022813Y051029D01*
X022789Y050979D01*
X02258D01*
Y051684D01*
X022567Y051782D01*
X022529Y051873D01*
X022469Y051951D01*
X022174Y052246D01*
X022096Y052306D01*
X022005Y052344D01*
X021907Y052356D01*
X021605D01*
X021537Y052384D01*
X021455Y052395D01*
X021179D01*
X021097Y052384D01*
X02102Y052353D01*
X020954Y052302D01*
X020904Y052236D01*
X020872Y05216D01*
X020861Y052078D01*
Y051881D01*
X020872Y051799D01*
X020904Y051722D01*
X020954Y051656D01*
X021002Y05162D01*
Y051551D01*
X020954Y051515D01*
X020904Y051449D01*
X020872Y051372D01*
X020861Y05129D01*
Y051093D01*
X020872Y051011D01*
X020904Y050935D01*
X02094Y050888D01*
Y05066D01*
X020844D01*
Y049834D01*
X021789D01*
Y05066D01*
X021694D01*
Y050888D01*
X02173Y050935D01*
X021762Y051011D01*
X021772Y051093D01*
Y05129D01*
X021762Y051372D01*
X02173Y051449D01*
X021679Y051515D01*
X021632Y051551D01*
Y051602D01*
X021751D01*
X021826Y051528D01*
Y050798D01*
X021838Y0507D01*
X021876Y050609D01*
X021936Y050531D01*
X022133Y050335D01*
X022211Y050275D01*
X022302Y050237D01*
X0224Y050224D01*
X022789D01*
X022813Y050174D01*
X022742Y050082D01*
X022689Y049953D01*
X022671Y049814D01*
X022689Y049675D01*
X022742Y049546D01*
X022828Y049435D01*
X022918Y049365D01*
X022923Y049306D01*
X022892Y049282D01*
X022826Y049196D01*
X022784Y049095D01*
X02277Y048987D01*
X022784Y048879D01*
X022826Y048779D01*
X022892Y048692D01*
X022979Y048626D01*
X023079Y048584D01*
X023187Y04857D01*
X023384D01*
X023492Y048584D01*
X023592Y048626D01*
X023679Y048692D01*
X023745Y048779D01*
X023787Y048879D01*
X023801Y048987D01*
X023787Y049095D01*
X023745Y049196D01*
X023679Y049282D01*
X023647Y049306D01*
X023652Y049365D01*
X023743Y049435D01*
X023828Y049546D01*
X023882Y049675D01*
X0239Y049814D01*
X023882Y049953D01*
X023828Y050082D01*
X023743Y050193D01*
Y050222D01*
X023828Y050333D01*
X023882Y050463D01*
X0239Y050601D01*
X023882Y05074D01*
X023828Y050869D01*
X023743Y05098D01*
Y05101D01*
X023828Y051121D01*
X023882Y05125D01*
X0239Y051389D01*
X023882Y051527D01*
X023828Y051657D01*
X023743Y051768D01*
X023652Y051837D01*
X023647Y051897D01*
X023679Y051921D01*
X023745Y052007D01*
X023787Y052108D01*
X023801Y052215D01*
X023787Y052323D01*
X023745Y052424D01*
X023679Y05251D01*
X023592Y052577D01*
X023492Y052618D01*
X023384Y052632D01*
D02*
G37*
G36*
X016002Y051394D02*
X015805D01*
Y050897D01*
X016664D01*
X016643Y050965D01*
X016579Y051085D01*
X016493Y05119D01*
X016387Y051277D01*
X016268Y051341D01*
X016137Y05138D01*
X016002Y051394D01*
D02*
G37*
G36*
X015411D02*
X015215D01*
X015079Y05138D01*
X014949Y051341D01*
X014829Y051277D01*
X014724Y05119D01*
X014638Y051085D01*
X014573Y050965D01*
X014553Y050897D01*
X015411D01*
Y051394D01*
D02*
G37*
G36*
X016664Y050503D02*
X015805D01*
Y050006D01*
X016002D01*
X016137Y050019D01*
X016268Y050059D01*
X016387Y050123D01*
X016493Y050209D01*
X016579Y050314D01*
X016643Y050434D01*
X016664Y050503D01*
D02*
G37*
G36*
X015411D02*
X014553D01*
X014573Y050434D01*
X014638Y050314D01*
X014724Y050209D01*
X014829Y050123D01*
X014949Y050059D01*
X015079Y050019D01*
X015215Y050006D01*
X015411D01*
Y050503D01*
D02*
G37*
G36*
X020099Y053332D02*
X019976D01*
X019857Y0533D01*
X019751Y053238D01*
X019664Y053151D01*
X019603Y053045D01*
X019571Y052926D01*
Y052804D01*
X019603Y052685D01*
X01966Y052585D01*
Y052283D01*
X019624Y052236D01*
X019593Y05216D01*
X019582Y052078D01*
Y051881D01*
X019593Y051799D01*
X019624Y051722D01*
X019675Y051656D01*
X019722Y05162D01*
Y051551D01*
X019675Y051515D01*
X019624Y051449D01*
X019593Y051372D01*
X019582Y05129D01*
Y051093D01*
X019593Y051011D01*
X019624Y050935D01*
X01966Y050888D01*
Y05066D01*
X019565D01*
Y049936D01*
X01923D01*
Y05066D01*
X019135D01*
Y050888D01*
X019171Y050935D01*
X019203Y051011D01*
X019213Y051093D01*
Y05129D01*
X019203Y051372D01*
X019171Y051449D01*
X01912Y051515D01*
X019073Y051551D01*
Y05162D01*
X01912Y051656D01*
X019171Y051722D01*
X019203Y051799D01*
X019213Y051881D01*
Y052078D01*
X019203Y05216D01*
X019171Y052236D01*
X019135Y052283D01*
Y052585D01*
X019193Y052685D01*
X019224Y052804D01*
Y052926D01*
X019193Y053045D01*
X019131Y053151D01*
X019044Y053238D01*
X018938Y0533D01*
X018819Y053332D01*
X018696D01*
X018578Y0533D01*
X018471Y053238D01*
X018385Y053151D01*
X018323Y053045D01*
X018291Y052926D01*
Y052804D01*
X018323Y052685D01*
X018381Y052585D01*
Y052283D01*
X018345Y052236D01*
X018313Y05216D01*
X018302Y052078D01*
Y051881D01*
X018313Y051799D01*
X018345Y051722D01*
X018395Y051656D01*
X018443Y05162D01*
Y051551D01*
X018395Y051515D01*
X018345Y051449D01*
X018313Y051372D01*
X018302Y05129D01*
Y051093D01*
X018313Y051011D01*
X018345Y050935D01*
X018381Y050888D01*
Y05066D01*
X018285D01*
Y049834D01*
X018285Y049834D01*
Y049794D01*
X018285D01*
X018285Y049784D01*
Y049638D01*
X017501Y048854D01*
X016622D01*
X016575Y048911D01*
X016453Y049012D01*
X016312Y049087D01*
X01616Y049133D01*
X016002Y049148D01*
X015215D01*
X015056Y049133D01*
X014904Y049087D01*
X014764Y049012D01*
X014641Y048911D01*
X01454Y048788D01*
X014465Y048648D01*
X014419Y048496D01*
X014404Y048337D01*
X014419Y048179D01*
X014465Y048027D01*
X01454Y047887D01*
X014641Y047764D01*
X014764Y047663D01*
X014904Y047588D01*
X015056Y047542D01*
X015215Y047526D01*
X016002D01*
X01616Y047542D01*
X016312Y047588D01*
X016453Y047663D01*
X016575Y047764D01*
X016622Y047821D01*
X017715D01*
X017848Y047839D01*
X017973Y04789D01*
X01808Y047972D01*
X019011Y048904D01*
X019521D01*
Y046369D01*
X019539Y046235D01*
X01959Y046111D01*
X019672Y046004D01*
X019779Y045922D01*
X019904Y04587D01*
X020037Y045853D01*
X020171Y04587D01*
X020296Y045922D01*
X020402Y046004D01*
X020484Y046111D01*
X020536Y046235D01*
X020554Y046369D01*
Y049381D01*
X020536Y049514D01*
X02051Y049578D01*
Y049784D01*
X02051Y049794D01*
X02051D01*
Y049834D01*
X02051D01*
Y05066D01*
X020415D01*
Y050888D01*
X02045Y050935D01*
X020482Y051011D01*
X020493Y051093D01*
Y05129D01*
X020482Y051372D01*
X02045Y051449D01*
X0204Y051515D01*
X020352Y051551D01*
Y05162D01*
X0204Y051656D01*
X02045Y051722D01*
X020482Y051799D01*
X020493Y051881D01*
Y052078D01*
X020482Y05216D01*
X02045Y052236D01*
X020415Y052283D01*
Y052585D01*
X020472Y052685D01*
X020504Y052804D01*
Y052926D01*
X020472Y053045D01*
X020411Y053151D01*
X020324Y053238D01*
X020217Y0533D01*
X020099Y053332D01*
D02*
G37*
G36*
X021673Y049678D02*
X021514D01*
Y049578D01*
X021673D01*
Y049678D01*
D02*
G37*
G36*
X02112D02*
X020961D01*
Y049578D01*
X02112D01*
Y049678D01*
D02*
G37*
G36*
X013915Y050377D02*
Y049519D01*
X014412D01*
Y049715D01*
X014399Y049851D01*
X01436Y049981D01*
X014295Y050101D01*
X014209Y050206D01*
X014104Y050292D01*
X013984Y050356D01*
X013915Y050377D01*
D02*
G37*
G36*
X013522Y050377D02*
X013453Y050356D01*
X013333Y050292D01*
X013228Y050206D01*
X013142Y050101D01*
X013077Y049981D01*
X013038Y049851D01*
X013025Y049715D01*
Y049519D01*
X013522D01*
Y050377D01*
D02*
G37*
G36*
X027557Y049702D02*
Y04942D01*
X027839D01*
X027839Y049421D01*
X027771Y049539D01*
X027675Y049634D01*
X027558Y049702D01*
X027557Y049702D01*
D02*
G37*
G36*
X027163D02*
X027162Y049702D01*
X027045Y049634D01*
X026949Y049539D01*
X026882Y049421D01*
X026881Y04942D01*
X027163D01*
Y049702D01*
D02*
G37*
G36*
X02554Y049678D02*
X02551D01*
Y04942D01*
X025767D01*
Y04945D01*
X02554Y049678D01*
D02*
G37*
G36*
X025116D02*
X025086D01*
X024859Y04945D01*
Y04942D01*
X025116D01*
Y049678D01*
D02*
G37*
G36*
X021673Y049184D02*
X021514D01*
Y049084D01*
X021673D01*
Y049184D01*
D02*
G37*
G36*
X02112D02*
X020961D01*
Y049084D01*
X02112D01*
Y049184D01*
D02*
G37*
G36*
X025767Y049026D02*
X02551D01*
Y048769D01*
X02554D01*
X025767Y048996D01*
Y049026D01*
D02*
G37*
G36*
X025116D02*
X024859D01*
Y048996D01*
X025086Y048769D01*
X025116D01*
Y049026D01*
D02*
G37*
G36*
X027839Y049026D02*
X027557D01*
Y048745D01*
X027558Y048745D01*
X027675Y048812D01*
X027771Y048908D01*
X027839Y049025D01*
X027839Y049026D01*
D02*
G37*
G36*
X027163D02*
X026881D01*
X026882Y049025D01*
X026949Y048908D01*
X027045Y048812D01*
X027162Y048745D01*
X027163Y048745D01*
Y049026D01*
D02*
G37*
G36*
X014412Y049125D02*
X013915D01*
Y048266D01*
X013984Y048287D01*
X014104Y048351D01*
X014209Y048437D01*
X014295Y048543D01*
X01436Y048662D01*
X014399Y048793D01*
X014412Y048928D01*
Y049125D01*
D02*
G37*
G36*
X013522D02*
X013025D01*
Y048928D01*
X013038Y048793D01*
X013077Y048662D01*
X013142Y048543D01*
X013228Y048437D01*
X013333Y048351D01*
X013453Y048287D01*
X013522Y048266D01*
Y049125D01*
D02*
G37*
G36*
X024171Y048263D02*
X024038Y048246D01*
X023913Y048194D01*
X023806Y048112D01*
X019036Y043342D01*
X012292D01*
X012283Y043359D01*
X012194Y043467D01*
X012087Y043556D01*
X011963Y043621D01*
X01183Y043662D01*
X011691Y043676D01*
X011552Y043662D01*
X011418Y043621D01*
X011295Y043556D01*
X011187Y043467D01*
X011099Y043359D01*
X011033Y043236D01*
X010993Y043102D01*
X010979Y042963D01*
Y042688D01*
X010993Y042549D01*
X011033Y042415D01*
X011099Y042292D01*
X011187Y042184D01*
X011295Y042096D01*
X011418Y04203D01*
X011552Y041989D01*
X011691Y041976D01*
X01183Y041989D01*
X011963Y04203D01*
X012087Y042096D01*
X012194Y042184D01*
X012283Y042292D01*
X012292Y042309D01*
X01925D01*
X019384Y042327D01*
X019508Y042379D01*
X019615Y042461D01*
X024536Y047382D01*
X024536Y047382D01*
X024618Y047489D01*
X02467Y047613D01*
X024687Y047747D01*
X02467Y047881D01*
X024618Y048005D01*
X024536Y048112D01*
X024429Y048194D01*
X024305Y048246D01*
X024171Y048263D01*
D02*
G37*
%LPD*%
D13*
X031967Y031958D02*
X031991Y031982D01*
X031736Y030979D02*
X031967Y03121D01*
Y031958D01*
X026297Y016676D02*
X026358Y016616D01*
Y016027D02*
Y016616D01*
Y016027D02*
X026711Y015673D01*
X031756D01*
X031987Y015904D01*
Y016652D01*
X032011Y016676D01*
X012833Y027904D02*
X015116D01*
X016025Y028813D01*
X017279D01*
X026337Y031333D02*
X026691Y030979D01*
X031736D01*
X026277Y031982D02*
X026337Y031922D01*
Y031333D02*
Y031922D01*
X037654Y048832D02*
X037656Y048834D01*
X035628Y050404D02*
X03563Y050406D01*
X037654Y051981D02*
X037656Y051983D01*
X035628Y051979D02*
X03563Y051981D01*
X037654D01*
D18*
X018758Y050247D02*
D03*
Y049381D02*
D03*
X020037Y050247D02*
D03*
Y049381D02*
D03*
X021317Y049381D02*
D03*
Y050247D02*
D03*
D19*
X018758Y051192D02*
D03*
Y051979D02*
D03*
X020037Y051192D02*
D03*
Y051979D02*
D03*
X017279Y026469D02*
D03*
Y025682D02*
D03*
Y028813D02*
D03*
Y028026D02*
D03*
X018654D02*
D03*
Y028813D02*
D03*
Y025682D02*
D03*
Y026469D02*
D03*
X018654Y033932D02*
D03*
Y034719D02*
D03*
X020028Y026469D02*
D03*
Y025682D02*
D03*
Y028026D02*
D03*
Y028813D02*
D03*
X021403Y025682D02*
D03*
Y026469D02*
D03*
Y028026D02*
D03*
Y028813D02*
D03*
X021384Y011163D02*
D03*
Y010376D02*
D03*
X022759D02*
D03*
Y011163D02*
D03*
Y01272D02*
D03*
Y013507D02*
D03*
X022778Y025682D02*
D03*
Y026469D02*
D03*
Y028026D02*
D03*
Y028813D02*
D03*
X021411Y018599D02*
D03*
Y019387D02*
D03*
X022785Y018599D02*
D03*
Y019387D02*
D03*
X021411Y020943D02*
D03*
Y021731D02*
D03*
X022785Y020943D02*
D03*
Y021731D02*
D03*
X021403Y034719D02*
D03*
Y033932D02*
D03*
X022778D02*
D03*
Y034719D02*
D03*
X020028D02*
D03*
Y033932D02*
D03*
X017279Y034719D02*
D03*
Y033932D02*
D03*
X018654Y037063D02*
D03*
Y036276D02*
D03*
X020028D02*
D03*
Y037063D02*
D03*
X021403D02*
D03*
Y036276D02*
D03*
X022778Y037063D02*
D03*
Y036276D02*
D03*
X017279D02*
D03*
Y037063D02*
D03*
X01726Y010376D02*
D03*
Y011163D02*
D03*
Y01272D02*
D03*
Y013507D02*
D03*
X018635Y011163D02*
D03*
Y010376D02*
D03*
X017286Y019387D02*
D03*
Y018599D02*
D03*
X018635Y013507D02*
D03*
Y01272D02*
D03*
X020009Y010376D02*
D03*
Y011163D02*
D03*
Y013507D02*
D03*
Y01272D02*
D03*
X021384Y013507D02*
D03*
Y01272D02*
D03*
X018661Y018599D02*
D03*
Y019387D02*
D03*
X020036Y018599D02*
D03*
Y019387D02*
D03*
X017286Y021731D02*
D03*
Y020943D02*
D03*
X018661D02*
D03*
Y021731D02*
D03*
X020036D02*
D03*
Y020943D02*
D03*
X021317Y051979D02*
D03*
Y051192D02*
D03*
D36*
Y050247D02*
Y051192D01*
X020037Y050247D02*
Y051192D01*
X018758Y050247D02*
Y051192D01*
X03925Y033475D02*
Y035778D01*
Y032235D02*
Y033475D01*
X038757Y032982D02*
X03925Y033475D01*
X034991Y032982D02*
X038757D01*
X034297D02*
X034991D01*
X032537Y030326D02*
X034112Y0319D01*
Y032798D02*
X034297Y032982D01*
X034112Y0319D02*
Y032798D01*
X025042Y030326D02*
X032537D01*
X028203Y02944D02*
X035844D01*
X027872Y029109D02*
X028203Y02944D01*
X035844D02*
X036376Y028908D01*
X027872Y027928D02*
Y029109D01*
X020037Y051979D02*
Y052865D01*
X018758Y051979D02*
Y052865D01*
X022203Y050798D02*
X0224Y050601D01*
X023285D01*
X022203Y050798D02*
Y051684D01*
X021317Y051979D02*
X021907D01*
X022203Y051684D01*
X02427Y031097D02*
X025042Y030326D01*
X035988Y014086D02*
X036494Y01358D01*
X0284Y014086D02*
X035988D01*
X02797Y013656D02*
X0284Y014086D01*
X020809Y01594D02*
X021809Y01494D01*
X020891Y020943D02*
X021411D01*
X020891Y019387D02*
X021411D01*
X014407Y010582D02*
X014526Y0107D01*
X01547D01*
X015982Y011211D01*
X01726Y010376D02*
X018635D01*
Y011163D02*
X020009D01*
X012833Y012156D02*
X01488D01*
X016231Y013507D01*
X015982Y011211D02*
X016542D01*
X016551Y011202D01*
X016231Y013507D02*
X01726D01*
X016551Y011202D02*
X01722D01*
X01726Y011163D01*
Y01272D02*
X018635D01*
Y013507D02*
X020009D01*
Y011163D02*
Y01272D01*
Y013507D02*
X020578D01*
X020717Y013368D01*
Y012844D02*
Y013368D01*
Y012844D02*
X020841Y01272D01*
X018193Y016941D02*
X019193Y015941D01*
X018661Y018599D02*
X020036D01*
X018661Y020943D02*
X020036D01*
X019193Y015941D02*
X020296Y017044D01*
X017378Y017747D02*
X022601D01*
X020036Y019387D02*
Y020943D01*
X020743Y021091D02*
X020891Y020943D01*
X020036Y019387D02*
X020036Y019387D01*
X020036Y021731D02*
X020044Y021739D01*
Y018591D02*
X020595D01*
X020743Y018739D01*
X020595Y021739D02*
X020743Y021591D01*
Y018739D02*
Y019239D01*
Y021091D02*
Y021591D01*
Y019239D02*
X020891Y019387D01*
X020841Y01272D02*
X021384D01*
X029316Y02764D02*
X029316Y02764D01*
X033541Y027141D02*
X03404Y02764D01*
X029316D02*
X031991D01*
X033541Y025271D02*
Y027141D01*
X021403Y025106D02*
Y025682D01*
X021443Y028774D02*
X021869D01*
X021403Y025106D02*
X022223Y024286D01*
X021869Y028774D02*
X022085Y028558D01*
Y025866D02*
Y028558D01*
Y025866D02*
X02227Y025682D01*
X022778D01*
Y025081D02*
Y025682D01*
X027584Y02764D02*
X027872Y027928D01*
X020713Y023076D02*
X027675D01*
X026316Y02764D02*
X027584D01*
X021254Y02368D02*
X033624D01*
X022223Y024286D02*
X032852D01*
X033148Y024877D02*
X033541Y025271D01*
X022962Y024897D02*
X033128D01*
X033148Y024877D01*
X022778Y025081D02*
X022962Y024897D01*
X028178Y022373D02*
X028198Y022353D01*
X028329D01*
X028364Y022318D01*
X029781Y021192D02*
X03053Y020443D01*
Y019006D02*
Y020443D01*
Y019006D02*
X030886Y01865D01*
X031998D01*
X022784Y021729D02*
X022785Y021731D01*
X024713Y037072D02*
X024722Y037082D01*
X020628Y038774D02*
X027459D01*
X021588Y037889D02*
X028246D01*
X027459Y038774D02*
X027478Y038755D01*
X028246Y037889D02*
X028266Y037869D01*
X031991Y032982D02*
X031991Y032982D01*
X029277Y032982D02*
X031991D01*
X021384Y0098D02*
X022266Y008918D01*
X022066Y01056D02*
Y013252D01*
Y01056D02*
X022251Y010376D01*
X022759D01*
Y009706D02*
Y010376D01*
Y009706D02*
X022944Y009522D01*
X026297Y012334D02*
X027435D01*
X02797Y012869D01*
Y013656D01*
X021384Y013507D02*
X021424Y013468D01*
X02185D01*
X021411Y018599D02*
X021908D01*
X020296Y017044D02*
X023559D01*
X02185Y013468D02*
X022066Y013252D01*
X022601Y017747D02*
X022785Y017931D01*
X022774Y013542D02*
Y015921D01*
X022785Y017931D02*
Y018599D01*
X022787Y018597D01*
X024106D01*
X023559Y017044D02*
X02427Y016334D01*
Y015772D02*
Y016334D01*
Y015772D02*
X025012Y01503D01*
X032637D01*
X029297Y012334D02*
X029297Y012334D01*
X034408Y011342D02*
X034963D01*
X029297Y012334D02*
X031972D01*
X033338Y009522D02*
X033522Y009706D01*
Y011834D01*
X034022Y012334D01*
X033545Y008313D02*
X034113Y008882D01*
Y011047D01*
X034408Y011342D01*
X034022Y012334D02*
X034972D01*
X037085Y012156D02*
X03925D01*
X034963Y011342D02*
X034972Y011334D01*
X03925Y010149D02*
Y012156D01*
X029297Y017676D02*
X029297Y017676D01*
X031972D01*
X031998Y01765D02*
X031998Y01765D01*
X032637Y01503D02*
X033549Y015942D01*
Y017221D01*
X033977Y01765D01*
X034998D01*
X034972Y017676D02*
X035911D01*
X036258Y018023D01*
X036494Y012747D02*
Y01358D01*
Y012747D02*
X037085Y012156D01*
X03925Y016487D02*
Y02003D01*
X021908Y018599D02*
X022093Y018784D01*
X021411Y021731D02*
X02145D01*
X022092Y022373D01*
X022093Y018784D02*
Y021493D01*
X022329Y021729D01*
X022784D01*
X022785Y021731D02*
X022794Y021739D01*
X024459D01*
X024106Y018597D02*
X024732Y019223D01*
X024459Y021739D02*
X024467Y021747D01*
X024732Y019223D02*
Y020256D01*
X022092Y022373D02*
X028178D01*
X024732Y020256D02*
X025667Y021192D01*
X029781D01*
X033624Y02368D02*
X034132Y024188D01*
Y026353D01*
X036258Y018023D02*
Y019519D01*
X03677Y02003D01*
X03925D01*
X034132Y026353D02*
X034427Y026648D01*
X03404Y02764D02*
X034991D01*
X034427Y026648D02*
X034982D01*
X034991Y02664D01*
X036376Y028337D02*
Y028908D01*
Y028337D02*
X036809Y027904D01*
X03925D01*
Y024361D02*
Y027904D01*
X021296Y008313D02*
X033545D01*
X022266Y008918D02*
X032833D01*
X022944Y009522D02*
X033338D01*
X037715Y008613D02*
X03925Y010149D01*
X011258Y013731D02*
X014407D01*
X011258Y010582D02*
X014407D01*
X011258D02*
Y013731D01*
Y018456D02*
Y021605D01*
Y018456D02*
X014407D01*
X012833Y02003D02*
X014801D01*
X016258Y018574D01*
X01547Y021605D02*
X01614Y020936D01*
X017279D01*
X016258Y018574D02*
X017261D01*
X017193Y015941D02*
Y017562D01*
X017261Y018574D02*
X017286Y018599D01*
X017279Y020936D02*
X017286Y020943D01*
X017193Y017562D02*
X017378Y017747D01*
X017286Y019387D02*
X018661D01*
X011258Y02633D02*
Y029479D01*
Y021605D02*
X014407D01*
X011258Y02633D02*
X014407D01*
X014508Y02643D01*
X014407Y021605D02*
X01547D01*
X014508Y02643D02*
X017239D01*
X017279Y026469D01*
Y025682D02*
X018654D01*
X017279Y028026D02*
X018654D01*
X017286Y021731D02*
X018661D01*
X018654Y026469D02*
X020028D01*
Y028026D01*
Y024906D02*
Y025682D01*
X020036Y021731D02*
Y021768D01*
X020038Y02177D01*
Y0224D01*
X020028Y025682D02*
X020068Y025721D01*
X020508D01*
X020044Y021739D02*
X020595D01*
X020038Y0224D02*
X020713Y023076D01*
X020508Y025721D02*
X020746Y02596D01*
X020028Y024906D02*
X021254Y02368D01*
X020596Y028813D02*
X020736Y028674D01*
Y02815D02*
Y028674D01*
X020746Y02596D02*
Y026274D01*
X020736Y02815D02*
X02086Y028026D01*
X020746Y026274D02*
X020931Y026459D01*
X02086Y028026D02*
X021403D01*
X021393Y026459D02*
X021403Y026469D01*
X020931Y026459D02*
X021393D01*
X020009Y0096D02*
Y010376D01*
X020049Y010415D01*
X020489D01*
X020728Y010653D01*
X020009Y0096D02*
X021296Y008313D01*
X020728Y010653D02*
Y010968D01*
X020912Y011153D01*
X021374D01*
X021384Y0098D02*
Y010376D01*
X021374Y011153D02*
X021384Y011163D01*
X020846Y03126D02*
X021846Y03026D01*
X021403Y028813D02*
X021443Y028774D01*
X020289Y032377D02*
X023581D01*
X022534Y033101D02*
X022778Y033345D01*
X022778Y028813D02*
X022812Y028848D01*
Y031226D01*
X022846Y03126D01*
X023581Y032377D02*
X02427Y031688D01*
Y031097D02*
Y031688D01*
X011258Y029479D02*
X014407D01*
X015825Y034322D02*
X016179Y033967D01*
X017243D01*
X017186Y031274D02*
Y032917D01*
X017243Y033967D02*
X017279Y033932D01*
X017186Y032917D02*
X01737Y033101D01*
X018186Y032274D02*
X019186Y031274D01*
X020588Y033923D02*
X020736Y034071D01*
X018654Y028813D02*
X020028D01*
X018654Y033932D02*
X020028D01*
X019186Y031274D02*
X020289Y032377D01*
X01737Y033101D02*
X022534D01*
X020028Y028813D02*
X020596D01*
X020037Y033923D02*
X020588D01*
X011258Y034204D02*
Y037353D01*
Y034204D02*
X014407D01*
X012833Y035778D02*
X014959D01*
X015825Y034912D01*
Y034322D02*
Y034912D01*
X01551Y036251D02*
X017254D01*
X017279Y036276D01*
Y034719D02*
X018654D01*
X018654Y036276D02*
X020028D01*
Y034719D02*
Y036276D01*
Y034719D02*
X020028Y034719D01*
X020736Y034071D02*
Y034571D01*
X020736Y036424D02*
X020884Y036276D01*
X020736Y034571D02*
X020884Y034719D01*
X020884Y036276D02*
X021403D01*
X020884Y034719D02*
X021403D01*
Y033932D02*
X021901D01*
X022085Y034116D01*
Y036826D01*
X022778Y033345D02*
Y033932D01*
X024096D01*
X024722Y034558D01*
Y035591D01*
X025678Y036546D01*
X029978D01*
X030549Y035976D01*
Y034381D02*
Y035976D01*
Y034381D02*
X030947Y033982D01*
X031991D01*
X011258Y037353D02*
X014407D01*
X017279Y037063D02*
X018654D01*
X014407Y037353D02*
X01551Y036251D01*
X020588Y037072D02*
X020736Y036924D01*
X020028Y038174D02*
X020628Y038774D01*
X020736Y036424D02*
Y036924D01*
X020037Y037072D02*
X020588D01*
X020028Y037063D02*
Y038174D01*
Y037063D02*
X020037Y037072D01*
X021403Y037063D02*
Y037704D01*
X021588Y037889D01*
X022787Y037072D02*
X024713D01*
X022085Y036826D02*
X022321Y037062D01*
X022776D01*
X022778Y037063D01*
X022787Y037072D01*
D37*
X019998Y04942D02*
X020037Y049381D01*
X017715Y048337D02*
X018797Y04942D01*
X019998D01*
X020037Y046369D02*
Y049381D01*
X015608Y048337D02*
X017715D01*
X011691Y042826D02*
X01925D01*
X024171Y047747D02*
X024171D01*
X01925Y042826D02*
X024171Y047747D01*
X034991Y033982D02*
X035005Y033967D01*
X035884D01*
X036474Y034558D01*
Y042186D02*
X03677Y042481D01*
X036474Y034558D02*
Y042186D01*
X034991Y033982D02*
X035013Y034005D01*
X03677Y042481D02*
Y050837D01*
X035628Y051979D02*
X03677Y050837D01*
X033321Y032487D02*
Y046522D01*
X032839Y032005D02*
X033321Y032487D01*
X032013Y032005D02*
X032839D01*
X031991Y031982D02*
X032013Y032005D01*
X033321Y046522D02*
X035628Y04883D01*
X025313Y051389D02*
X027341D01*
D38*
X040195Y042826D02*
D03*
X011691D02*
D03*
D39*
X040116Y00818D02*
D03*
X01177D02*
D03*
X040116Y052274D02*
D03*
X01177D02*
D03*
D40*
X034991Y034982D02*
D03*
Y033982D02*
D03*
Y032982D02*
D03*
Y031982D02*
D03*
X031991Y032982D02*
D03*
Y031982D02*
D03*
Y033982D02*
D03*
X026297Y010334D02*
D03*
Y011334D02*
D03*
Y012334D02*
D03*
Y013334D02*
D03*
X029297Y012334D02*
D03*
Y013334D02*
D03*
Y011334D02*
D03*
X018193Y016941D02*
D03*
X019193Y015941D02*
D03*
X026297Y018676D02*
D03*
Y016676D02*
D03*
Y017676D02*
D03*
X029297Y016676D02*
D03*
Y017676D02*
D03*
Y018676D02*
D03*
Y019676D02*
D03*
X029316Y02664D02*
D03*
Y02864D02*
D03*
Y02764D02*
D03*
X026316Y02864D02*
D03*
Y02764D02*
D03*
Y02664D02*
D03*
Y02564D02*
D03*
X034972Y011334D02*
D03*
Y013334D02*
D03*
Y012334D02*
D03*
X031972Y013334D02*
D03*
Y012334D02*
D03*
Y011334D02*
D03*
Y010334D02*
D03*
Y018676D02*
D03*
Y016676D02*
D03*
Y017676D02*
D03*
X034972Y016676D02*
D03*
Y017676D02*
D03*
Y018676D02*
D03*
Y019676D02*
D03*
X031991Y02564D02*
D03*
Y02664D02*
D03*
Y02764D02*
D03*
Y02864D02*
D03*
X034991Y02764D02*
D03*
Y02864D02*
D03*
Y02664D02*
D03*
X018186Y032274D02*
D03*
X019186Y031274D02*
D03*
X021846Y03026D02*
D03*
X020846Y03126D02*
D03*
X029277Y034982D02*
D03*
Y033982D02*
D03*
Y032982D02*
D03*
Y031982D02*
D03*
X026277Y032982D02*
D03*
Y031982D02*
D03*
Y033982D02*
D03*
D41*
X031991Y034982D02*
D03*
X029297Y010334D02*
D03*
X039033Y050404D02*
D03*
X039211Y024361D02*
D03*
X034604Y022648D02*
D03*
X03925Y032235D02*
D03*
Y016487D02*
D03*
X037715Y008613D02*
D03*
X025451Y007412D02*
D03*
X017193Y015941D02*
D03*
X026297Y019676D02*
D03*
X029316Y02564D02*
D03*
X034972Y010334D02*
D03*
X031972Y019676D02*
D03*
X034991Y02564D02*
D03*
X017186Y031274D02*
D03*
X022846Y03126D02*
D03*
X026277Y034982D02*
D03*
X025313Y049223D02*
D03*
X025313Y051389D02*
D03*
X037656Y051983D02*
D03*
Y048834D02*
D03*
D42*
X03925Y035778D02*
D03*
Y012156D02*
D03*
Y02003D02*
D03*
Y027904D02*
D03*
X012833Y012156D02*
D03*
Y02003D02*
D03*
Y027904D02*
D03*
Y035778D02*
D03*
D43*
X040825Y034204D02*
D03*
Y037353D02*
D03*
X037675D02*
D03*
Y034204D02*
D03*
Y010582D02*
D03*
Y013731D02*
D03*
X040825Y010582D02*
D03*
Y013731D02*
D03*
X037675Y018456D02*
D03*
Y021605D02*
D03*
X040825Y018456D02*
D03*
Y021605D02*
D03*
X037675Y02633D02*
D03*
Y029479D02*
D03*
X040825D02*
D03*
Y02633D02*
D03*
X014407Y013731D02*
D03*
Y010582D02*
D03*
X011258Y013731D02*
D03*
Y010582D02*
D03*
X014407Y021605D02*
D03*
Y018456D02*
D03*
X011258Y021605D02*
D03*
Y018456D02*
D03*
X014407Y029479D02*
D03*
Y02633D02*
D03*
X011258D02*
D03*
Y029479D02*
D03*
Y037353D02*
D03*
Y034204D02*
D03*
X014407D02*
D03*
Y037353D02*
D03*
D44*
X020809Y01594D02*
D03*
X021809Y01494D02*
D03*
D45*
X022809Y01594D02*
D03*
D46*
X035628Y051979D02*
D03*
X027341Y051389D02*
D03*
X02736Y049223D02*
D03*
X035628Y04883D02*
D03*
Y050404D02*
D03*
D47*
X023285Y048987D02*
D03*
Y052215D02*
D03*
D48*
Y049814D02*
D03*
Y050601D02*
D03*
Y051389D02*
D03*
D49*
X013719Y049322D02*
D03*
D50*
X015608Y0507D02*
D03*
Y048337D02*
D03*
D51*
X020037Y046369D02*
D03*
X024171Y047747D02*
D03*
X020037Y052865D02*
D03*
X018758D02*
D03*
X024467Y021747D02*
D03*
X032833Y008918D02*
D03*
X027675Y023076D02*
D03*
X028364Y022318D02*
D03*
X032852Y024286D02*
D03*
X028266Y037869D02*
D03*
X024722Y037082D02*
D03*
X027478Y038755D02*
D03*
M02*
