G04*
G04 #@! TF.GenerationSoftware,Altium Limited,Altium Designer,21.3.2 (30)*
G04*
G04 Layer_Color=8421504*
%FSTAX24Y24*%
%MOIN*%
G70*
G04*
G04 #@! TF.SameCoordinates,D50E3B47-D74C-4BCA-B3C4-33FD4FEC1BCA*
G04*
G04*
G04 #@! TF.FilePolarity,Positive*
G04*
G01*
G75*
%ADD18R,0.0512X0.0394*%
G04:AMPARAMS|DCode=19|XSize=39.4mil|YSize=47.2mil|CornerRadius=9.8mil|HoleSize=0mil|Usage=FLASHONLY|Rotation=90.000|XOffset=0mil|YOffset=0mil|HoleType=Round|Shape=RoundedRectangle|*
%AMROUNDEDRECTD19*
21,1,0.0394,0.0276,0,0,90.0*
21,1,0.0197,0.0472,0,0,90.0*
1,1,0.0197,0.0138,0.0098*
1,1,0.0197,0.0138,-0.0098*
1,1,0.0197,-0.0138,-0.0098*
1,1,0.0197,-0.0138,0.0098*
%
%ADD19ROUNDEDRECTD19*%
D18*
X018758Y050247D02*
D03*
Y049381D02*
D03*
X020037Y050247D02*
D03*
Y049381D02*
D03*
X021317Y049381D02*
D03*
Y050247D02*
D03*
D19*
X018758Y051192D02*
D03*
Y051979D02*
D03*
X020037Y051192D02*
D03*
Y051979D02*
D03*
X017279Y026469D02*
D03*
Y025682D02*
D03*
Y028813D02*
D03*
Y028026D02*
D03*
X018654D02*
D03*
Y028813D02*
D03*
Y025682D02*
D03*
Y026469D02*
D03*
X018654Y033932D02*
D03*
Y034719D02*
D03*
X020028Y026469D02*
D03*
Y025682D02*
D03*
Y028026D02*
D03*
Y028813D02*
D03*
X021403Y025682D02*
D03*
Y026469D02*
D03*
Y028026D02*
D03*
Y028813D02*
D03*
X021384Y011163D02*
D03*
Y010376D02*
D03*
X022759D02*
D03*
Y011163D02*
D03*
Y01272D02*
D03*
Y013507D02*
D03*
X022778Y025682D02*
D03*
Y026469D02*
D03*
Y028026D02*
D03*
Y028813D02*
D03*
X021411Y018599D02*
D03*
Y019387D02*
D03*
X022785Y018599D02*
D03*
Y019387D02*
D03*
X021411Y020943D02*
D03*
Y021731D02*
D03*
X022785Y020943D02*
D03*
Y021731D02*
D03*
X021403Y034719D02*
D03*
Y033932D02*
D03*
X022778D02*
D03*
Y034719D02*
D03*
X020028D02*
D03*
Y033932D02*
D03*
X017279Y034719D02*
D03*
Y033932D02*
D03*
X018654Y037063D02*
D03*
Y036276D02*
D03*
X020028D02*
D03*
Y037063D02*
D03*
X021403D02*
D03*
Y036276D02*
D03*
X022778Y037063D02*
D03*
Y036276D02*
D03*
X017279D02*
D03*
Y037063D02*
D03*
X01726Y010376D02*
D03*
Y011163D02*
D03*
Y01272D02*
D03*
Y013507D02*
D03*
X018635Y011163D02*
D03*
Y010376D02*
D03*
X017286Y019387D02*
D03*
Y018599D02*
D03*
X018635Y013507D02*
D03*
Y01272D02*
D03*
X020009Y010376D02*
D03*
Y011163D02*
D03*
Y013507D02*
D03*
Y01272D02*
D03*
X021384Y013507D02*
D03*
Y01272D02*
D03*
X018661Y018599D02*
D03*
Y019387D02*
D03*
X020036Y018599D02*
D03*
Y019387D02*
D03*
X017286Y021731D02*
D03*
Y020943D02*
D03*
X018661D02*
D03*
Y021731D02*
D03*
X020036D02*
D03*
Y020943D02*
D03*
X021317Y051979D02*
D03*
Y051192D02*
D03*
M02*
