G04*
G04 #@! TF.GenerationSoftware,Altium Limited,Altium Designer,21.3.2 (30)*
G04*
G04 Layer_Physical_Order=2*
G04 Layer_Color=9720587*
%FSTAX24Y24*%
%MOIN*%
G70*
G04*
G04 #@! TF.SameCoordinates,D50E3B47-D74C-4BCA-B3C4-33FD4FEC1BCA*
G04*
G04*
G04 #@! TF.FilePolarity,Positive*
G04*
G01*
G75*
%ADD13C,0.0394*%
%ADD17C,0.0197*%
G04:AMPARAMS|DCode=19|XSize=39.4mil|YSize=47.2mil|CornerRadius=9.8mil|HoleSize=0mil|Usage=FLASHONLY|Rotation=90.000|XOffset=0mil|YOffset=0mil|HoleType=Round|Shape=RoundedRectangle|*
%AMROUNDEDRECTD19*
21,1,0.0394,0.0276,0,0,90.0*
21,1,0.0197,0.0472,0,0,90.0*
1,1,0.0197,0.0138,0.0098*
1,1,0.0197,0.0138,-0.0098*
1,1,0.0197,-0.0138,-0.0098*
1,1,0.0197,-0.0138,0.0098*
%
%ADD19ROUNDEDRECTD19*%
%ADD36C,0.0315*%
%ADD37C,0.0591*%
%ADD38O,0.0984X0.1260*%
%ADD39C,0.2205*%
%ADD40C,0.0709*%
%ADD41P,0.0767X8X22.5*%
%ADD42C,0.0984*%
%ADD43C,0.1181*%
%ADD44C,0.0787*%
%ADD45R,0.0787X0.0787*%
%ADD46C,0.0827*%
%ADD47O,0.0591X0.0394*%
%ADD48O,0.0787X0.0630*%
%ADD49O,0.1181X0.1969*%
%ADD50O,0.1969X0.1181*%
%ADD51C,0.0500*%
%ADD52R,0.0630X0.0866*%
G04:AMPARAMS|DCode=53|XSize=63mil|YSize=86.6mil|CornerRadius=15.7mil|HoleSize=0mil|Usage=FLASHONLY|Rotation=0.000|XOffset=0mil|YOffset=0mil|HoleType=Round|Shape=RoundedRectangle|*
%AMROUNDEDRECTD53*
21,1,0.0630,0.0551,0,0,0.0*
21,1,0.0315,0.0866,0,0,0.0*
1,1,0.0315,0.0157,-0.0276*
1,1,0.0315,-0.0157,-0.0276*
1,1,0.0315,-0.0157,0.0276*
1,1,0.0315,0.0157,0.0276*
%
%ADD53ROUNDEDRECTD53*%
G04:AMPARAMS|DCode=54|XSize=39.4mil|YSize=47.2mil|CornerRadius=9.8mil|HoleSize=0mil|Usage=FLASHONLY|Rotation=180.000|XOffset=0mil|YOffset=0mil|HoleType=Round|Shape=RoundedRectangle|*
%AMROUNDEDRECTD54*
21,1,0.0394,0.0276,0,0,180.0*
21,1,0.0197,0.0472,0,0,180.0*
1,1,0.0197,-0.0098,0.0138*
1,1,0.0197,0.0098,0.0138*
1,1,0.0197,0.0098,-0.0138*
1,1,0.0197,-0.0098,-0.0138*
%
%ADD54ROUNDEDRECTD54*%
G04:AMPARAMS|DCode=55|XSize=70.9mil|YSize=23.6mil|CornerRadius=3mil|HoleSize=0mil|Usage=FLASHONLY|Rotation=90.000|XOffset=0mil|YOffset=0mil|HoleType=Round|Shape=RoundedRectangle|*
%AMROUNDEDRECTD55*
21,1,0.0709,0.0177,0,0,90.0*
21,1,0.0650,0.0236,0,0,90.0*
1,1,0.0059,0.0089,0.0325*
1,1,0.0059,0.0089,-0.0325*
1,1,0.0059,-0.0089,-0.0325*
1,1,0.0059,-0.0089,0.0325*
%
%ADD55ROUNDEDRECTD55*%
G04:AMPARAMS|DCode=56|XSize=42.9mil|YSize=24mil|CornerRadius=6mil|HoleSize=0mil|Usage=FLASHONLY|Rotation=270.000|XOffset=0mil|YOffset=0mil|HoleType=Round|Shape=RoundedRectangle|*
%AMROUNDEDRECTD56*
21,1,0.0429,0.0120,0,0,270.0*
21,1,0.0309,0.0240,0,0,270.0*
1,1,0.0120,-0.0060,-0.0155*
1,1,0.0120,-0.0060,0.0155*
1,1,0.0120,0.0060,0.0155*
1,1,0.0120,0.0060,-0.0155*
%
%ADD56ROUNDEDRECTD56*%
G04:AMPARAMS|DCode=57|XSize=21.7mil|YSize=47.2mil|CornerRadius=5.4mil|HoleSize=0mil|Usage=FLASHONLY|Rotation=90.000|XOffset=0mil|YOffset=0mil|HoleType=Round|Shape=RoundedRectangle|*
%AMROUNDEDRECTD57*
21,1,0.0217,0.0364,0,0,90.0*
21,1,0.0108,0.0472,0,0,90.0*
1,1,0.0108,0.0182,0.0054*
1,1,0.0108,0.0182,-0.0054*
1,1,0.0108,-0.0182,-0.0054*
1,1,0.0108,-0.0182,0.0054*
%
%ADD57ROUNDEDRECTD57*%
%ADD58C,0.0236*%
G36*
X023778Y04942D02*
X022793D01*
Y048731D01*
X023187Y048337D01*
Y047353D01*
X022695D01*
Y048239D01*
Y048337D01*
X020923D01*
Y049617D01*
Y050109D01*
X023778D01*
Y04942D01*
D02*
G37*
G36*
X024486Y047924D02*
Y046566D01*
X022596D01*
Y047058D01*
X023876D01*
Y047944D01*
X023876D01*
X023974Y048042D01*
X024368D01*
X024486Y047924D01*
D02*
G37*
G36*
X029266Y045297D02*
Y044746D01*
X029238Y04468D01*
X029228Y044597D01*
Y044542D01*
X029204Y044524D01*
X029181Y044528D01*
X029153Y044544D01*
X029145Y044604D01*
X029117Y04467D01*
X029074Y044726D01*
X029017Y04477D01*
X028952Y044797D01*
X028881Y044806D01*
X028523D01*
X028514Y044876D01*
X028482Y044953D01*
X028431Y045019D01*
X027942Y045508D01*
X027943Y045522D01*
X027955Y045558D01*
X029005D01*
X029266Y045297D01*
D02*
G37*
G36*
X0224Y047058D02*
X022006D01*
Y046369D01*
Y045089D01*
X020234D01*
Y0444D01*
X018463D01*
Y043416D01*
X018069D01*
Y045385D01*
X019644D01*
Y048141D01*
X0224D01*
Y047058D01*
D02*
G37*
G36*
X028212Y043754D02*
Y043145D01*
X025376D01*
Y043577D01*
X025426Y043587D01*
X025446Y043541D01*
X025489Y043484D01*
X025546Y043441D01*
X025611Y043413D01*
X025682Y043404D01*
X026046D01*
X026117Y043413D01*
X026117Y043414D01*
X027422D01*
X027422Y043413D01*
X027493Y043404D01*
X027857D01*
X027928Y043413D01*
X027994Y043441D01*
X02805Y043484D01*
X028094Y043541D01*
X028121Y043606D01*
X02813Y043677D01*
Y043763D01*
X028172Y043783D01*
X028212Y043754D01*
D02*
G37*
G36*
X030372Y043145D02*
X029244D01*
Y043404D01*
X029309D01*
X029321Y043388D01*
X029386Y043338D01*
X029463Y043306D01*
X029545Y043295D01*
X029821D01*
X029903Y043306D01*
X02998Y043338D01*
X030045Y043388D01*
X030096Y043454D01*
X030128Y043531D01*
X030139Y043613D01*
Y04381D01*
X030128Y043892D01*
X030096Y043969D01*
X030045Y044035D01*
X029991Y044076D01*
X029987Y044095D01*
Y044116D01*
X029991Y044134D01*
X030045Y044176D01*
X030096Y044242D01*
X030128Y044318D01*
X030139Y0444D01*
Y044597D01*
X030128Y04468D01*
X0301Y044746D01*
Y045469D01*
X030086Y045577D01*
X030044Y045678D01*
X029978Y045764D01*
X029978Y045764D01*
X029472Y04627D01*
X029386Y046336D01*
X029285Y046378D01*
X029177Y046392D01*
X029177Y046392D01*
X024691D01*
X024664Y046442D01*
X02469Y046481D01*
X024707Y046566D01*
Y047924D01*
X02469Y048009D01*
X024642Y04808D01*
X024524Y048198D01*
X024453Y048246D01*
X024368Y048263D01*
X023974D01*
X02389Y048246D01*
X023818Y048198D01*
X02372Y0481D01*
X02372Y0481D01*
X023672Y048028D01*
X023655Y047944D01*
Y047279D01*
X023432D01*
X023401Y047317D01*
X023408Y047353D01*
Y048337D01*
X023391Y048422D01*
X023343Y048494D01*
X023313Y048524D01*
X023332Y04857D01*
X023384D01*
X023492Y048584D01*
X023592Y048626D01*
X023679Y048692D01*
X023745Y048779D01*
X023787Y048879D01*
X023801Y048987D01*
X023787Y049095D01*
X023764Y049149D01*
X023768Y049165D01*
X023796Y049203D01*
X023862Y049216D01*
X023934Y049264D01*
X023982Y049336D01*
X023998Y04942D01*
Y050085D01*
X024526D01*
X024659Y050103D01*
X024784Y050154D01*
X024891Y050236D01*
X025472Y050818D01*
X025598D01*
X025884Y051103D01*
Y051674D01*
X025598Y05196D01*
X025028D01*
X024742Y051674D01*
Y051548D01*
X024312Y051117D01*
X023881D01*
X023848Y051167D01*
X023882Y05125D01*
X0239Y051389D01*
X023882Y051527D01*
X023828Y051657D01*
X023743Y051768D01*
X023652Y051837D01*
X023647Y051897D01*
X023679Y051921D01*
X023745Y052007D01*
X023787Y052108D01*
X023801Y052215D01*
X023787Y052323D01*
X023745Y052424D01*
X023679Y05251D01*
X023592Y052577D01*
X023492Y052618D01*
X023384Y052632D01*
X023187D01*
X023079Y052618D01*
X022979Y052577D01*
X022892Y05251D01*
X022826Y052424D01*
X022784Y052323D01*
X02277Y052215D01*
X022784Y052108D01*
X022826Y052007D01*
X022892Y051921D01*
X022923Y051897D01*
X022918Y051837D01*
X022828Y051768D01*
X022742Y051657D01*
X022689Y051527D01*
X022671Y051389D01*
X022689Y05125D01*
X022742Y051121D01*
X022828Y05101D01*
Y05098D01*
X022742Y050869D01*
X022689Y05074D01*
X022671Y050601D01*
X022689Y050463D01*
X022723Y05038D01*
X02269Y05033D01*
X020923D01*
X020839Y050313D01*
X020767Y050265D01*
X020719Y050194D01*
X020702Y050109D01*
Y049788D01*
X020697Y049774D01*
X020684Y049676D01*
Y049125D01*
X020697Y049027D01*
X020702Y049013D01*
Y048361D01*
X019644D01*
X019635Y048368D01*
Y048583D01*
X020304Y049252D01*
X020364Y04933D01*
X020402Y049421D01*
X020415Y049519D01*
Y052585D01*
X020472Y052685D01*
X020504Y052804D01*
Y052926D01*
X020472Y053045D01*
X020411Y053151D01*
X020324Y053238D01*
X020217Y0533D01*
X020099Y053332D01*
X019976D01*
X019857Y0533D01*
X019751Y053238D01*
X019664Y053151D01*
X019603Y053045D01*
X019571Y052926D01*
Y052804D01*
X019603Y052685D01*
X01966Y052585D01*
Y049675D01*
X019181Y049196D01*
X019135Y049215D01*
Y052585D01*
X019193Y052685D01*
X019224Y052804D01*
Y052926D01*
X019193Y053045D01*
X019131Y053151D01*
X019044Y053238D01*
X018938Y0533D01*
X018819Y053332D01*
X018696D01*
X018578Y0533D01*
X018471Y053238D01*
X018385Y053151D01*
X018323Y053045D01*
X018291Y052926D01*
Y052804D01*
X018323Y052685D01*
X018381Y052585D01*
Y046603D01*
X018364Y04659D01*
X010884D01*
X010799Y046573D01*
X010728Y046525D01*
X01068Y046453D01*
X010663Y046369D01*
Y04194D01*
X01068Y041855D01*
X010728Y041784D01*
X010799Y041736D01*
X010884Y041719D01*
X01236D01*
X012445Y041736D01*
X012516Y041784D01*
X012564Y041855D01*
X012581Y04194D01*
Y04477D01*
X017257D01*
X017282Y04472D01*
X017266Y044696D01*
X017577D01*
Y044499D01*
X017774D01*
Y04421D01*
X017792Y044214D01*
X017804Y044222D01*
X017848Y044198D01*
Y043416D01*
X017865Y043332D01*
X017913Y04326D01*
X017984Y043212D01*
X018069Y043195D01*
X018463D01*
X018547Y043212D01*
X018619Y04326D01*
X018667Y043332D01*
X018674Y04337D01*
X018846D01*
X018862Y043373D01*
X018912Y043334D01*
Y042776D01*
X018876Y042729D01*
X018845Y042652D01*
X018834Y04257D01*
Y042294D01*
X018845Y042212D01*
X018876Y042135D01*
X018927Y04207D01*
X018993Y042019D01*
X019069Y041987D01*
X019152Y041976D01*
X019348D01*
X019431Y041987D01*
X019507Y042019D01*
X019573Y04207D01*
X019609Y042117D01*
X019841D01*
X019841Y042117D01*
Y042432D01*
Y042747D01*
D01*
X019841Y042747D01*
X019609D01*
X019588Y042776D01*
Y043345D01*
X019638Y043376D01*
X019669Y04337D01*
X019846D01*
X019897Y04338D01*
X01994Y043408D01*
X019968Y043451D01*
X019979Y043502D01*
Y04363D01*
X019758D01*
Y044023D01*
X019979D01*
Y044151D01*
X020002Y04418D01*
X020234D01*
X020319Y044197D01*
X02039Y044244D01*
X020398Y044256D01*
X020455Y044251D01*
X020511Y044214D01*
X02053Y04421D01*
Y044499D01*
Y044788D01*
X020511Y044784D01*
X020499Y044776D01*
X020455Y0448D01*
Y044869D01*
X021297D01*
Y04473D01*
X021294Y044696D01*
X021612D01*
X021927D01*
X021927Y044696D01*
X021927Y044696D01*
Y044869D01*
X022006D01*
X02209Y044885D01*
X022162Y044933D01*
X02221Y045005D01*
X022227Y045089D01*
Y046369D01*
Y046837D01*
X022356D01*
Y046679D01*
X022365Y046607D01*
X022376Y046582D01*
Y046566D01*
X022392Y046481D01*
X02244Y04641D01*
X022512Y046362D01*
X022596Y046345D01*
X023788D01*
X023804Y04631D01*
X023806Y046295D01*
X023758Y046233D01*
X023727Y046156D01*
X023716Y046074D01*
Y045877D01*
X023727Y045795D01*
X023758Y045718D01*
X023807Y045654D01*
X023805Y045636D01*
X023794Y045604D01*
X023258D01*
X023254Y045609D01*
X023188Y04566D01*
X023112Y045692D01*
X02303Y045702D01*
X022754D01*
X022672Y045692D01*
X022595Y04566D01*
X022529Y045609D01*
X022479Y045544D01*
X022447Y045467D01*
X022436Y045385D01*
Y045188D01*
X022447Y045106D01*
X022479Y045029D01*
X022529Y044963D01*
X022577Y044927D01*
Y044696D01*
X022577Y044696D01*
X022577D01*
X022577Y044696D01*
X022892D01*
X023207D01*
X023207Y044696D01*
X023207Y044696D01*
Y044927D01*
X023254Y044963D01*
X023258Y044969D01*
X027583D01*
X027699Y044853D01*
X02768Y044806D01*
X027493D01*
X027422Y044797D01*
X027422Y044797D01*
X026117D01*
X026117Y044797D01*
X026046Y044806D01*
X025682D01*
X025611Y044797D01*
X025546Y04477D01*
X025489Y044726D01*
X025446Y04467D01*
X025418Y044604D01*
X025409Y044533D01*
Y044425D01*
X025407Y044423D01*
X025182D01*
X02518Y044425D01*
Y044533D01*
X025168Y044593D01*
X025134Y044644D01*
X025083Y044679D01*
X025037Y044688D01*
Y044479D01*
X024841D01*
Y044432D01*
X024658D01*
X024588Y044423D01*
X024522Y044396D01*
X024509Y044386D01*
X024509Y044386D01*
X024465Y044352D01*
X024422Y044296D01*
X024395Y04423D01*
X024385Y044159D01*
Y044051D01*
X024395Y04398D01*
X024404Y043959D01*
X024361Y043894D01*
X024344Y04381D01*
Y042924D01*
Y041448D01*
X024361Y041363D01*
X024409Y041292D01*
X02448Y041244D01*
X024565Y041227D01*
X030372D01*
Y040463D01*
X01049D01*
Y050798D01*
X012262D01*
X013246Y051782D01*
Y053554D01*
X030372D01*
Y043145D01*
D02*
G37*
G36*
X040707Y041448D02*
X024565D01*
Y042924D01*
Y04381D01*
X025156D01*
Y042924D01*
X028433D01*
Y0438D01*
X029024D01*
Y042924D01*
X037754D01*
X038738Y043908D01*
X040707D01*
Y041448D01*
D02*
G37*
G36*
X018364Y045582D02*
X017872D01*
Y044991D01*
X01236D01*
Y04194D01*
X010884D01*
Y046369D01*
X018364D01*
Y045582D01*
D02*
G37*
G36*
X03864Y051684D02*
X03864D01*
X039526Y050798D01*
X041396D01*
Y03783D01*
X041346Y037809D01*
X041265Y03789D01*
X041152Y037965D01*
X041026Y038017D01*
X041022Y038018D01*
Y037353D01*
Y036688D01*
X041026Y036689D01*
X041152Y036741D01*
X041265Y036817D01*
X041346Y036898D01*
X041396Y036877D01*
Y03468D01*
X041346Y034659D01*
X041265Y03474D01*
X041152Y034816D01*
X041026Y034868D01*
X041022Y034869D01*
Y034204D01*
Y033539D01*
X041026Y03354D01*
X041152Y033592D01*
X041265Y033667D01*
X041346Y033748D01*
X041396Y033727D01*
Y029956D01*
X041346Y029935D01*
X041265Y030016D01*
X041152Y030091D01*
X041026Y030143D01*
X041022Y030144D01*
Y029479D01*
Y028814D01*
X041026Y028815D01*
X041152Y028867D01*
X041265Y028943D01*
X041346Y029023D01*
X041396Y029003D01*
Y026806D01*
X041346Y026785D01*
X041265Y026866D01*
X041152Y026942D01*
X041026Y026994D01*
X041022Y026995D01*
Y02633D01*
Y025665D01*
X041026Y025666D01*
X041152Y025718D01*
X041265Y025793D01*
X041346Y025874D01*
X041396Y025853D01*
Y022082D01*
X041346Y022061D01*
X041265Y022142D01*
X041152Y022217D01*
X041026Y022269D01*
X041022Y02227D01*
Y021605D01*
Y02094D01*
X041026Y020941D01*
X041152Y020993D01*
X041265Y021069D01*
X041346Y021149D01*
X041396Y021129D01*
Y018932D01*
X041346Y018911D01*
X041265Y018992D01*
X041152Y019068D01*
X041026Y01912D01*
X041022Y019121D01*
Y018456D01*
Y017791D01*
X041026Y017792D01*
X041152Y017844D01*
X041265Y017919D01*
X041346Y018D01*
X041396Y017979D01*
Y014208D01*
X041346Y014187D01*
X041265Y014268D01*
X041152Y014343D01*
X041026Y014395D01*
X041022Y014396D01*
Y013731D01*
Y013066D01*
X041026Y013067D01*
X041152Y013119D01*
X041265Y013195D01*
X041346Y013275D01*
X041396Y013255D01*
Y011058D01*
X041346Y011037D01*
X041265Y011118D01*
X041152Y011194D01*
X041026Y011246D01*
X041022Y011247D01*
Y010582D01*
Y009917D01*
X041026Y009918D01*
X041152Y00997D01*
X041265Y010045D01*
X041346Y010126D01*
X041396Y010105D01*
Y009656D01*
X039526D01*
X03864Y008771D01*
Y006848D01*
X013246D01*
Y008771D01*
X013246D01*
X01236Y009656D01*
X01049D01*
Y010198D01*
X010539Y010208D01*
X010543Y010199D01*
X010631Y010067D01*
X010743Y009955D01*
X010876Y009866D01*
X011022Y009805D01*
X011178Y009774D01*
X011337D01*
X011493Y009805D01*
X01164Y009866D01*
X011772Y009955D01*
X011885Y010067D01*
X011973Y010199D01*
X012034Y010346D01*
X012065Y010502D01*
Y010661D01*
X012034Y010817D01*
X011973Y010964D01*
X011885Y011096D01*
X011772Y011208D01*
X01164Y011297D01*
X011493Y011358D01*
X011337Y011389D01*
X011178D01*
X011022Y011358D01*
X010876Y011297D01*
X010743Y011208D01*
X010631Y011096D01*
X010543Y010964D01*
X010539Y010956D01*
X01049Y010965D01*
Y013347D01*
X010539Y013357D01*
X010543Y013349D01*
X010631Y013217D01*
X010743Y013104D01*
X010876Y013016D01*
X011022Y012955D01*
X011178Y012924D01*
X011337D01*
X011493Y012955D01*
X01164Y013016D01*
X011772Y013104D01*
X011885Y013217D01*
X011973Y013349D01*
X012034Y013496D01*
X012065Y013652D01*
Y013811D01*
X012034Y013967D01*
X011973Y014113D01*
X011885Y014246D01*
X011772Y014358D01*
X01164Y014446D01*
X011493Y014507D01*
X011337Y014538D01*
X011178D01*
X011022Y014507D01*
X010876Y014446D01*
X010743Y014358D01*
X010631Y014246D01*
X010543Y014113D01*
X010539Y014105D01*
X01049Y014115D01*
Y018072D01*
X010539Y018082D01*
X010543Y018073D01*
X010631Y017941D01*
X010743Y017829D01*
X010876Y01774D01*
X011022Y01768D01*
X011178Y017649D01*
X011337D01*
X011493Y01768D01*
X01164Y01774D01*
X011772Y017829D01*
X011885Y017941D01*
X011973Y018073D01*
X012034Y01822D01*
X012065Y018376D01*
Y018535D01*
X012034Y018691D01*
X011973Y018838D01*
X011885Y01897D01*
X011772Y019082D01*
X01164Y019171D01*
X011493Y019232D01*
X011337Y019263D01*
X011178D01*
X011022Y019232D01*
X010876Y019171D01*
X010743Y019082D01*
X010631Y01897D01*
X010543Y018838D01*
X010539Y01883D01*
X01049Y018839D01*
Y021221D01*
X010539Y021231D01*
X010543Y021223D01*
X010631Y021091D01*
X010743Y020978D01*
X010876Y02089D01*
X011022Y020829D01*
X011178Y020798D01*
X011337D01*
X011493Y020829D01*
X01164Y02089D01*
X011772Y020978D01*
X011885Y021091D01*
X011973Y021223D01*
X012034Y02137D01*
X012065Y021526D01*
Y021685D01*
X012034Y021841D01*
X011973Y021987D01*
X011885Y02212D01*
X011772Y022232D01*
X01164Y02232D01*
X011493Y022381D01*
X011337Y022412D01*
X011178D01*
X011022Y022381D01*
X010876Y02232D01*
X010743Y022232D01*
X010631Y02212D01*
X010543Y021987D01*
X010539Y021979D01*
X01049Y021989D01*
Y025946D01*
X010539Y025956D01*
X010543Y025947D01*
X010631Y025815D01*
X010743Y025703D01*
X010876Y025614D01*
X011022Y025554D01*
X011178Y025523D01*
X011337D01*
X011493Y025554D01*
X01164Y025614D01*
X011772Y025703D01*
X011885Y025815D01*
X011973Y025947D01*
X012034Y026094D01*
X012065Y02625D01*
Y026409D01*
X012034Y026565D01*
X011973Y026712D01*
X011885Y026844D01*
X011772Y026957D01*
X01164Y027045D01*
X011493Y027106D01*
X011337Y027137D01*
X011178D01*
X011022Y027106D01*
X010876Y027045D01*
X010743Y026957D01*
X010631Y026844D01*
X010543Y026712D01*
X010539Y026704D01*
X01049Y026713D01*
Y029095D01*
X010539Y029105D01*
X010543Y029097D01*
X010631Y028965D01*
X010743Y028852D01*
X010876Y028764D01*
X011022Y028703D01*
X011178Y028672D01*
X011337D01*
X011493Y028703D01*
X01164Y028764D01*
X011772Y028852D01*
X011885Y028965D01*
X011973Y029097D01*
X012034Y029244D01*
X012065Y0294D01*
Y029559D01*
X012034Y029715D01*
X011973Y029862D01*
X011885Y029994D01*
X011772Y030106D01*
X01164Y030194D01*
X011493Y030255D01*
X011337Y030286D01*
X011178D01*
X011022Y030255D01*
X010876Y030194D01*
X010743Y030106D01*
X010631Y029994D01*
X010543Y029862D01*
X010539Y029853D01*
X01049Y029863D01*
Y03382D01*
X010539Y03383D01*
X010543Y033821D01*
X010631Y033689D01*
X010743Y033577D01*
X010876Y033488D01*
X011022Y033428D01*
X011178Y033397D01*
X011337D01*
X011493Y033428D01*
X01164Y033488D01*
X011772Y033577D01*
X011885Y033689D01*
X011973Y033821D01*
X012034Y033968D01*
X012065Y034124D01*
Y034283D01*
X012034Y034439D01*
X011973Y034586D01*
X011885Y034718D01*
X011772Y034831D01*
X01164Y034919D01*
X011493Y03498D01*
X011337Y035011D01*
X011178D01*
X011022Y03498D01*
X010876Y034919D01*
X010743Y034831D01*
X010631Y034718D01*
X010543Y034586D01*
X010539Y034578D01*
X01049Y034587D01*
Y036969D01*
X010539Y036979D01*
X010543Y036971D01*
X010631Y036839D01*
X010743Y036726D01*
X010876Y036638D01*
X011022Y036577D01*
X011178Y036546D01*
X011337D01*
X011493Y036577D01*
X01164Y036638D01*
X011772Y036726D01*
X011885Y036839D01*
X011973Y036971D01*
X012034Y037118D01*
X012065Y037274D01*
Y037433D01*
X012034Y037589D01*
X011973Y037736D01*
X011885Y037868D01*
X011772Y03798D01*
X01164Y038068D01*
X011493Y038129D01*
X011337Y03816D01*
X011178D01*
X011022Y038129D01*
X010876Y038068D01*
X010743Y03798D01*
X010631Y037868D01*
X010543Y037736D01*
X010539Y037727D01*
X01049Y037737D01*
Y039971D01*
X030864D01*
Y041227D01*
X040707D01*
X040791Y041244D01*
X040863Y041292D01*
X040911Y041363D01*
X040927Y041448D01*
Y043908D01*
X040911Y043993D01*
X040863Y044064D01*
X040791Y044112D01*
X040707Y044129D01*
X038738D01*
X038654Y044112D01*
X038582Y044064D01*
X037662Y043145D01*
X030864D01*
Y053554D01*
X03864D01*
Y051684D01*
D02*
G37*
%LPC*%
G36*
X016002Y051394D02*
X015805D01*
Y050897D01*
X016664D01*
X016643Y050965D01*
X016579Y051085D01*
X016493Y05119D01*
X016387Y051277D01*
X016268Y051341D01*
X016137Y05138D01*
X016002Y051394D01*
D02*
G37*
G36*
X015411D02*
X015215D01*
X015079Y05138D01*
X014949Y051341D01*
X014829Y051277D01*
X014724Y05119D01*
X014638Y051085D01*
X014573Y050965D01*
X014553Y050897D01*
X015411D01*
Y051394D01*
D02*
G37*
G36*
X027403Y052019D02*
X027279D01*
X027157Y051994D01*
X027043Y051947D01*
X026939Y051878D01*
X026852Y05179D01*
X026783Y051687D01*
X026735Y051572D01*
X026711Y051451D01*
Y051327D01*
X026735Y051205D01*
X026783Y05109D01*
X026852Y050987D01*
X026939Y050899D01*
X027043Y05083D01*
X027157Y050783D01*
X027279Y050759D01*
X027403D01*
X027525Y050783D01*
X027639Y05083D01*
X027742Y050899D01*
X02783Y050987D01*
X027899Y05109D01*
X027947Y051205D01*
X027971Y051327D01*
Y051451D01*
X027947Y051572D01*
X027899Y051687D01*
X02783Y05179D01*
X027742Y051878D01*
X027639Y051947D01*
X027525Y051994D01*
X027403Y052019D01*
D02*
G37*
G36*
X016664Y050503D02*
X015805D01*
Y050006D01*
X016002D01*
X016137Y050019D01*
X016268Y050059D01*
X016387Y050123D01*
X016493Y050209D01*
X016579Y050314D01*
X016643Y050434D01*
X016664Y050503D01*
D02*
G37*
G36*
X015411D02*
X014553D01*
X014573Y050434D01*
X014638Y050314D01*
X014724Y050209D01*
X014829Y050123D01*
X014949Y050059D01*
X015079Y050019D01*
X015215Y050006D01*
X015411D01*
Y050503D01*
D02*
G37*
G36*
X013915Y050377D02*
Y049519D01*
X014412D01*
Y049715D01*
X014399Y049851D01*
X01436Y049981D01*
X014295Y050101D01*
X014209Y050206D01*
X014104Y050292D01*
X013984Y050356D01*
X013915Y050377D01*
D02*
G37*
G36*
X013522Y050377D02*
X013453Y050356D01*
X013333Y050292D01*
X013228Y050206D01*
X013142Y050101D01*
X013077Y049981D01*
X013038Y049851D01*
X013025Y049715D01*
Y049519D01*
X013522D01*
Y050377D01*
D02*
G37*
G36*
X027557Y049702D02*
Y04942D01*
X027839D01*
X027839Y049421D01*
X027771Y049539D01*
X027675Y049634D01*
X027558Y049702D01*
X027557Y049702D01*
D02*
G37*
G36*
X027163D02*
X027162Y049702D01*
X027045Y049634D01*
X026949Y049539D01*
X026882Y049421D01*
X026881Y04942D01*
X027163D01*
Y049702D01*
D02*
G37*
G36*
X02554Y049678D02*
X02551D01*
Y04942D01*
X025767D01*
Y04945D01*
X02554Y049678D01*
D02*
G37*
G36*
X025116D02*
X025086D01*
X024859Y04945D01*
Y04942D01*
X025116D01*
Y049678D01*
D02*
G37*
G36*
X025767Y049026D02*
X02551D01*
Y048769D01*
X02554D01*
X025767Y048996D01*
Y049026D01*
D02*
G37*
G36*
X025116D02*
X024859D01*
Y048996D01*
X025086Y048769D01*
X025116D01*
Y049026D01*
D02*
G37*
G36*
X027839Y049026D02*
X027557D01*
Y048745D01*
X027558Y048745D01*
X027675Y048812D01*
X027771Y048908D01*
X027839Y049025D01*
X027839Y049026D01*
D02*
G37*
G36*
X027163D02*
X026881D01*
X026882Y049025D01*
X026949Y048908D01*
X027045Y048812D01*
X027162Y048745D01*
X027163Y048745D01*
Y049026D01*
D02*
G37*
G36*
X014412Y049125D02*
X013915D01*
Y048266D01*
X013984Y048287D01*
X014104Y048351D01*
X014209Y048437D01*
X014295Y048543D01*
X01436Y048662D01*
X014399Y048793D01*
X014412Y048928D01*
Y049125D01*
D02*
G37*
G36*
X013522D02*
X013025D01*
Y048928D01*
X013038Y048793D01*
X013077Y048662D01*
X013142Y048543D01*
X013228Y048437D01*
X013333Y048351D01*
X013453Y048287D01*
X013522Y048266D01*
Y049125D01*
D02*
G37*
G36*
X016002Y049148D02*
X015215D01*
X015056Y049133D01*
X014904Y049087D01*
X014764Y049012D01*
X014641Y048911D01*
X01454Y048788D01*
X014465Y048648D01*
X014419Y048496D01*
X014404Y048337D01*
X014419Y048179D01*
X014465Y048027D01*
X01454Y047887D01*
X014641Y047764D01*
X014764Y047663D01*
X014904Y047588D01*
X015056Y047542D01*
X015215Y047526D01*
X016002D01*
X01616Y047542D01*
X016312Y047588D01*
X016453Y047663D01*
X016575Y047764D01*
X016676Y047887D01*
X016751Y048027D01*
X016797Y048179D01*
X016813Y048337D01*
X016797Y048496D01*
X016751Y048648D01*
X016676Y048788D01*
X016575Y048911D01*
X016453Y049012D01*
X016312Y049087D01*
X01616Y049133D01*
X016002Y049148D01*
D02*
G37*
G36*
X020923Y044788D02*
Y044696D01*
X021037D01*
X021007Y04474D01*
X020942Y044784D01*
X020923Y044788D01*
D02*
G37*
G36*
X024644Y044688D02*
X024598Y044679D01*
X024595Y044676D01*
X024644D01*
Y044688D01*
D02*
G37*
G36*
X023202Y044302D02*
X023089D01*
Y04421D01*
X023107Y044214D01*
X023173Y044257D01*
X023202Y044302D01*
D02*
G37*
G36*
X021923Y044302D02*
X021809D01*
Y04421D01*
X021827Y044214D01*
X021893Y044257D01*
X021923Y044302D01*
D02*
G37*
G36*
X021415D02*
X021302D01*
X021331Y044257D01*
X021397Y044214D01*
X021415Y04421D01*
Y044302D01*
D02*
G37*
G36*
X021037Y044302D02*
X020923D01*
Y04421D01*
X020942Y044214D01*
X021007Y044257D01*
X021037Y044302D01*
D02*
G37*
G36*
X01738Y044302D02*
X017266D01*
X017296Y044257D01*
X017362Y044214D01*
X01738Y04421D01*
Y044302D01*
D02*
G37*
G36*
X022695D02*
X022581D01*
X022611Y044257D01*
X022677Y044214D01*
X022695Y04421D01*
Y044302D01*
D02*
G37*
G36*
X020234Y042743D02*
Y042629D01*
X020326D01*
X020323Y042647D01*
X020279Y042713D01*
X020234Y042743D01*
D02*
G37*
G36*
X020326Y042235D02*
X020234D01*
Y042121D01*
X020279Y042151D01*
X020323Y042217D01*
X020326Y042235D01*
D02*
G37*
G36*
X037941Y052554D02*
X03737D01*
X037085Y052269D01*
Y051698D01*
X03737Y051412D01*
X037941D01*
X038227Y051698D01*
Y052269D01*
X037941Y052554D01*
D02*
G37*
G36*
X03569Y052609D02*
X035566D01*
X035444Y052585D01*
X03533Y052537D01*
X035226Y052469D01*
X035139Y052381D01*
X03507Y052278D01*
X035022Y052163D01*
X034998Y052041D01*
Y051917D01*
X035022Y051795D01*
X03507Y051681D01*
X035139Y051578D01*
X035226Y05149D01*
X03533Y051421D01*
X035444Y051374D01*
X035566Y051349D01*
X03569D01*
X035812Y051374D01*
X035926Y051421D01*
X03603Y05149D01*
X036117Y051578D01*
X036186Y051681D01*
X036234Y051795D01*
X036258Y051917D01*
Y052041D01*
X036234Y052163D01*
X036186Y052278D01*
X036117Y052381D01*
X03603Y052469D01*
X035926Y052537D01*
X035812Y052585D01*
X03569Y052609D01*
D02*
G37*
G36*
X039261Y050859D02*
X03923D01*
Y050601D01*
X039488D01*
Y050632D01*
X039261Y050859D01*
D02*
G37*
G36*
X038837D02*
X038806D01*
X038579Y050632D01*
Y050601D01*
X038837D01*
Y050859D01*
D02*
G37*
G36*
X035825Y050883D02*
Y050601D01*
X036107D01*
X036106Y050603D01*
X036039Y05072D01*
X035943Y050815D01*
X035826Y050883D01*
X035825Y050883D01*
D02*
G37*
G36*
X035431D02*
X03543Y050883D01*
X035313Y050815D01*
X035217Y05072D01*
X03515Y050603D01*
X035149Y050601D01*
X035431D01*
Y050883D01*
D02*
G37*
G36*
X039488Y050208D02*
X03923D01*
Y04995D01*
X039261D01*
X039488Y050177D01*
Y050208D01*
D02*
G37*
G36*
X038837D02*
X038579D01*
Y050177D01*
X038806Y04995D01*
X038837D01*
Y050208D01*
D02*
G37*
G36*
X036107D02*
X035825D01*
Y049926D01*
X035826Y049926D01*
X035943Y049994D01*
X036039Y050089D01*
X036106Y050206D01*
X036107Y050208D01*
D02*
G37*
G36*
X035431D02*
X035149D01*
X03515Y050206D01*
X035217Y050089D01*
X035313Y049994D01*
X03543Y049926D01*
X035431Y049926D01*
Y050208D01*
D02*
G37*
G36*
X03569Y04946D02*
X035566D01*
X035444Y049435D01*
X03533Y049388D01*
X035226Y049319D01*
X035139Y049231D01*
X03507Y049128D01*
X035022Y049013D01*
X034998Y048892D01*
Y048768D01*
X035022Y048646D01*
X03507Y048531D01*
X035139Y048428D01*
X035226Y04834D01*
X03533Y048271D01*
X035444Y048224D01*
X035566Y0482D01*
X03569D01*
X035812Y048224D01*
X035926Y048271D01*
X03603Y04834D01*
X036104Y048415D01*
X037219D01*
X03737Y048263D01*
X037941D01*
X038227Y048548D01*
Y049119D01*
X037941Y049404D01*
X03737D01*
X037215Y049249D01*
X0361D01*
X03603Y049319D01*
X035926Y049388D01*
X035812Y049435D01*
X03569Y04946D01*
D02*
G37*
G36*
X040628Y038018D02*
X040623Y038017D01*
X040498Y037965D01*
X040385Y03789D01*
X040288Y037793D01*
X040213Y03768D01*
X040161Y037555D01*
X04016Y03755D01*
X040628D01*
Y038018D01*
D02*
G37*
G36*
X037872Y038018D02*
Y03755D01*
X03834D01*
X038339Y037555D01*
X038287Y03768D01*
X038212Y037793D01*
X038115Y03789D01*
X038002Y037965D01*
X037877Y038017D01*
X037872Y038018D01*
D02*
G37*
G36*
X037478D02*
X037474Y038017D01*
X037348Y037965D01*
X037235Y03789D01*
X037139Y037793D01*
X037063Y03768D01*
X037011Y037555D01*
X03701Y03755D01*
X037478D01*
Y038018D01*
D02*
G37*
G36*
X040628Y037156D02*
X04016D01*
X040161Y037152D01*
X040213Y037026D01*
X040288Y036913D01*
X040385Y036817D01*
X040498Y036741D01*
X040623Y036689D01*
X040628Y036688D01*
Y037156D01*
D02*
G37*
G36*
X03834Y037156D02*
X037872D01*
Y036688D01*
X037877Y036689D01*
X038002Y036741D01*
X038115Y036817D01*
X038212Y036913D01*
X038287Y037026D01*
X038339Y037152D01*
X03834Y037156D01*
D02*
G37*
G36*
X037478D02*
X03701D01*
X037011Y037152D01*
X037063Y037026D01*
X037139Y036913D01*
X037235Y036817D01*
X037348Y036741D01*
X037474Y036689D01*
X037478Y036688D01*
Y037156D01*
D02*
G37*
G36*
X014487Y03816D02*
X014328D01*
X014172Y038129D01*
X014025Y038068D01*
X013893Y03798D01*
X013781Y037868D01*
X013692Y037736D01*
X013631Y037589D01*
X0136Y037433D01*
Y037274D01*
X013631Y037118D01*
X013692Y036971D01*
X013781Y036839D01*
X013893Y036726D01*
X014025Y036638D01*
X014172Y036577D01*
X014328Y036546D01*
X014487D01*
X014643Y036577D01*
X01479Y036638D01*
X014922Y036726D01*
X015034Y036839D01*
X015123Y036971D01*
X015184Y037118D01*
X015215Y037274D01*
Y037433D01*
X015184Y037589D01*
X015123Y037736D01*
X015034Y037868D01*
X014922Y03798D01*
X01479Y038068D01*
X014643Y038129D01*
X014487Y03816D01*
D02*
G37*
G36*
X03932Y036487D02*
X03918D01*
X039043Y03646D01*
X038914Y036406D01*
X038798Y036329D01*
X0387Y03623D01*
X038622Y036114D01*
X038569Y035985D01*
X038541Y035848D01*
Y035709D01*
X038569Y035572D01*
X038622Y035443D01*
X0387Y035327D01*
X038798Y035228D01*
X038914Y03515D01*
X039043Y035097D01*
X03918Y03507D01*
X03932D01*
X039457Y035097D01*
X039586Y03515D01*
X039702Y035228D01*
X0398Y035327D01*
X039878Y035443D01*
X039931Y035572D01*
X039959Y035709D01*
Y035848D01*
X039931Y035985D01*
X039878Y036114D01*
X0398Y03623D01*
X039702Y036329D01*
X039586Y036406D01*
X039457Y03646D01*
X03932Y036487D01*
D02*
G37*
G36*
X012902D02*
X012763D01*
X012626Y03646D01*
X012497Y036406D01*
X012381Y036329D01*
X012282Y03623D01*
X012205Y036114D01*
X012151Y035985D01*
X012124Y035848D01*
Y035709D01*
X012151Y035572D01*
X012205Y035443D01*
X012282Y035327D01*
X012381Y035228D01*
X012497Y03515D01*
X012626Y035097D01*
X012763Y03507D01*
X012902D01*
X013039Y035097D01*
X013168Y03515D01*
X013284Y035228D01*
X013383Y035327D01*
X013461Y035443D01*
X013514Y035572D01*
X013541Y035709D01*
Y035848D01*
X013514Y035985D01*
X013461Y036114D01*
X013383Y03623D01*
X013284Y036329D01*
X013168Y036406D01*
X013039Y03646D01*
X012902Y036487D01*
D02*
G37*
G36*
X037872Y034869D02*
Y0344D01*
X03834D01*
X038339Y034405D01*
X038287Y034531D01*
X038212Y034644D01*
X038115Y03474D01*
X038002Y034816D01*
X037877Y034868D01*
X037872Y034869D01*
D02*
G37*
G36*
X040628D02*
X040623Y034868D01*
X040498Y034816D01*
X040385Y03474D01*
X040288Y034644D01*
X040213Y034531D01*
X040161Y034405D01*
X04016Y0344D01*
X040628D01*
Y034869D01*
D02*
G37*
G36*
X037478D02*
X037474Y034868D01*
X037348Y034816D01*
X037235Y03474D01*
X037139Y034644D01*
X037063Y034531D01*
X037011Y034405D01*
X03701Y0344D01*
X037478D01*
Y034869D01*
D02*
G37*
G36*
X02754Y039221D02*
X027417D01*
X027298Y03919D01*
X027192Y039128D01*
X027105Y039041D01*
X027044Y038935D01*
X027012Y038816D01*
Y038693D01*
X027044Y038575D01*
X027101Y038475D01*
Y03458D01*
X02688Y03436D01*
X026707D01*
X026627Y034439D01*
X026623Y034472D01*
X026848Y034697D01*
Y035268D01*
X026562Y035553D01*
X025991D01*
X025706Y035268D01*
Y034697D01*
X025931Y034472D01*
X025926Y034439D01*
X02582Y034333D01*
X025745Y034203D01*
X025706Y034057D01*
Y033907D01*
X025745Y033762D01*
X02582Y033632D01*
X025926Y033525D01*
X025958Y033507D01*
Y033457D01*
X025926Y033439D01*
X025847Y03336D01*
X025589D01*
X0251Y033849D01*
Y036802D01*
X025157Y036902D01*
X025189Y03702D01*
Y037143D01*
X025157Y037262D01*
X025096Y037368D01*
X025009Y037455D01*
X024903Y037516D01*
X024784Y037548D01*
X024661D01*
X024542Y037516D01*
X024436Y037455D01*
X024349Y037368D01*
X024288Y037262D01*
X024256Y037143D01*
Y03702D01*
X024288Y036902D01*
X024345Y036802D01*
Y033693D01*
X024358Y033595D01*
X024396Y033504D01*
X024456Y033426D01*
X025166Y032716D01*
X025244Y032656D01*
X025335Y032618D01*
X025433Y032605D01*
X025847D01*
X025926Y032525D01*
X025958Y032507D01*
Y032457D01*
X025926Y032439D01*
X02582Y032333D01*
X025745Y032203D01*
X025706Y032057D01*
Y031907D01*
X025745Y031762D01*
X02582Y031632D01*
X02586Y031592D01*
Y031295D01*
X02586Y031295D01*
X025874Y031187D01*
X025916Y031086D01*
X025982Y031D01*
X026353Y030629D01*
X026329Y030582D01*
X026278Y030589D01*
X024052D01*
X023417Y031223D01*
Y031546D01*
X023132Y031831D01*
X022561D01*
X022276Y031546D01*
Y030975D01*
X022561Y03069D01*
X022884D01*
X023629Y029945D01*
X023707Y029885D01*
X023798Y029847D01*
X023895Y029834D01*
X026121D01*
X027396Y028559D01*
Y027141D01*
X027409Y027043D01*
X027423Y02701D01*
X027384Y026972D01*
X02736Y026982D01*
X027252Y026996D01*
X027252Y026996D01*
X026767D01*
X026667Y027097D01*
X026635Y027115D01*
Y027165D01*
X026667Y027183D01*
X026773Y027289D01*
X026848Y027419D01*
X026887Y027565D01*
Y027715D01*
X026848Y02786D01*
X026773Y02799D01*
X026667Y028097D01*
X026635Y028115D01*
Y028165D01*
X026667Y028183D01*
X026773Y028289D01*
X026848Y028419D01*
X026887Y028565D01*
Y028715D01*
X026848Y02886D01*
X026773Y02899D01*
X026667Y029097D01*
X026536Y029172D01*
X026391Y029211D01*
X026241D01*
X026096Y029172D01*
X025966Y029097D01*
X025859Y02899D01*
X025784Y02886D01*
X025745Y028715D01*
Y028565D01*
X025784Y028419D01*
X025859Y028289D01*
X025966Y028183D01*
X025997Y028165D01*
Y028115D01*
X025966Y028097D01*
X025906Y028037D01*
X024604D01*
X022417Y030223D01*
Y030336D01*
X022378Y030481D01*
X022303Y030611D01*
X022197Y030717D01*
X022067Y030792D01*
X021922Y030831D01*
X021771D01*
X021626Y030792D01*
X021496Y030717D01*
X02139Y030611D01*
X021314Y030481D01*
X021276Y030336D01*
Y030185D01*
X021314Y03004D01*
X02139Y02991D01*
X021496Y029804D01*
X021626Y029728D01*
X021771Y02969D01*
X021884D01*
X024181Y027393D01*
X024259Y027333D01*
X02435Y027295D01*
X024447Y027282D01*
X025866D01*
X025966Y027183D01*
X025997Y027165D01*
Y027115D01*
X025966Y027097D01*
X025859Y02699D01*
X025784Y02686D01*
X025745Y026715D01*
Y026565D01*
X025784Y026419D01*
X025859Y026289D01*
X025966Y026183D01*
X025997Y026165D01*
Y026115D01*
X025966Y026097D01*
X025859Y02599D01*
X025784Y02586D01*
X025745Y025715D01*
Y025565D01*
X025784Y025419D01*
X025859Y025289D01*
X025966Y025183D01*
X026096Y025108D01*
X026241Y025069D01*
X026391D01*
X026536Y025108D01*
X026667Y025183D01*
X026773Y025289D01*
X026848Y025419D01*
X026887Y025565D01*
Y025715D01*
X026848Y02586D01*
X026773Y02599D01*
X026667Y026097D01*
X026639Y026113D01*
X026652Y026163D01*
X027079D01*
X027554Y025688D01*
Y024582D01*
X027554Y024582D01*
X027568Y024474D01*
X027609Y024373D01*
X027676Y024287D01*
X027971Y023991D01*
X027971Y023991D01*
X028057Y023925D01*
X028158Y023884D01*
X028266Y023869D01*
X030033D01*
Y020355D01*
Y019153D01*
X029633D01*
X02962Y019203D01*
X029648Y019219D01*
X029754Y019326D01*
X029829Y019456D01*
X029868Y019601D01*
Y019751D01*
X029829Y019896D01*
X029754Y020027D01*
X029648Y020133D01*
X029518Y020208D01*
X029372Y020247D01*
X029222D01*
X029077Y020208D01*
X028947Y020133D01*
X02884Y020027D01*
X028829Y020007D01*
X028781Y02002D01*
Y022106D01*
X028799Y022138D01*
X028831Y022256D01*
Y022379D01*
X028799Y022498D01*
X028737Y022604D01*
X028651Y022691D01*
X028544Y022753D01*
X028426Y022784D01*
X028303D01*
X028184Y022753D01*
X028102Y022705D01*
X028052Y022734D01*
Y022796D01*
X02811Y022896D01*
X028142Y023014D01*
Y023137D01*
X02811Y023256D01*
X028049Y023362D01*
X027962Y023449D01*
X027855Y02351D01*
X027737Y023542D01*
X027614D01*
X027495Y02351D01*
X027389Y023449D01*
X027302Y023362D01*
X02724Y023256D01*
X027209Y023137D01*
Y023014D01*
X02724Y022896D01*
X027298Y022796D01*
Y019324D01*
X027027Y019053D01*
X026727D01*
X026648Y019133D01*
X026643Y019166D01*
X026868Y019391D01*
Y019961D01*
X026583Y020247D01*
X026012D01*
X025726Y019961D01*
Y019391D01*
X025951Y019166D01*
X025947Y019133D01*
X02584Y019027D01*
X025765Y018896D01*
X025726Y018751D01*
Y018601D01*
X025765Y018456D01*
X02584Y018326D01*
X025947Y018219D01*
X025978Y018201D01*
Y018151D01*
X025947Y018133D01*
X02586Y018047D01*
X025187D01*
X024844Y018389D01*
Y021467D01*
X024902Y021567D01*
X024933Y021686D01*
Y021808D01*
X024902Y021927D01*
X02484Y022033D01*
X024753Y02212D01*
X024647Y022182D01*
X024528Y022213D01*
X024406D01*
X024287Y022182D01*
X02418Y02212D01*
X024094Y022033D01*
X024032Y021927D01*
X024Y021808D01*
Y021686D01*
X024032Y021567D01*
X02409Y021467D01*
Y018233D01*
X024103Y018135D01*
X02414Y018044D01*
X0242Y017966D01*
X024764Y017403D01*
X024842Y017343D01*
X024933Y017305D01*
X02503Y017292D01*
X025874D01*
X025947Y017219D01*
X025978Y017201D01*
Y017151D01*
X025947Y017133D01*
X02584Y017027D01*
X025765Y016896D01*
X025726Y016751D01*
Y016601D01*
X025765Y016456D01*
X02584Y016326D01*
X02588Y016286D01*
Y015989D01*
X02588Y015989D01*
X025894Y015881D01*
X025936Y01578D01*
X026002Y015694D01*
X02681Y014886D01*
X026897Y01482D01*
X026963Y014792D01*
X026953Y014742D01*
X024554D01*
X02342Y015877D01*
Y01655D01*
X022199D01*
Y015473D01*
X022149Y015447D01*
X022099Y015481D01*
X021987Y015527D01*
X02187Y01555D01*
X021749D01*
X021631Y015527D01*
X02152Y015481D01*
X02142Y015414D01*
X021335Y015329D01*
X021269Y015229D01*
X021223Y015118D01*
X021199Y015D01*
Y01488D01*
X021223Y014762D01*
X021269Y014651D01*
X021335Y014551D01*
X02142Y014466D01*
X02152Y014399D01*
X021631Y014353D01*
X021749Y01433D01*
X02187D01*
X021883Y014332D01*
X024144Y012072D01*
X024222Y012012D01*
X024313Y011974D01*
X02441Y011962D01*
X025862D01*
X025947Y011877D01*
X025978Y011859D01*
Y011809D01*
X025947Y01179D01*
X02584Y011684D01*
X025765Y011554D01*
X025726Y011409D01*
Y011258D01*
X025765Y011113D01*
X02584Y010983D01*
X025947Y010877D01*
X025978Y010859D01*
Y010809D01*
X025947Y01079D01*
X02584Y010684D01*
X025765Y010554D01*
X025726Y010409D01*
Y010258D01*
X025765Y010113D01*
X02584Y009983D01*
X025947Y009877D01*
X026077Y009802D01*
X026222Y009763D01*
X026372D01*
X026518Y009802D01*
X026648Y009877D01*
X026754Y009983D01*
X026829Y010113D01*
X026868Y010258D01*
Y010409D01*
X026829Y010554D01*
X026754Y010684D01*
X026648Y01079D01*
X02662Y010806D01*
X026633Y010856D01*
X02706D01*
X027535Y010382D01*
Y009275D01*
X027535Y009275D01*
X027549Y009167D01*
X02759Y009067D01*
X027657Y008981D01*
X027952Y008685D01*
X027952Y008685D01*
X028038Y008619D01*
X028139Y008577D01*
X028247Y008563D01*
X030463D01*
X030463Y008563D01*
X03054Y008573D01*
X030569Y008569D01*
X030703Y008587D01*
X030827Y008638D01*
X030934Y00872D01*
X031016Y008827D01*
X031068Y008952D01*
X031085Y009086D01*
Y010576D01*
X031426Y010917D01*
X031581D01*
X031621Y010877D01*
X031653Y010859D01*
Y010809D01*
X031621Y01079D01*
X031515Y010684D01*
X03144Y010554D01*
X031401Y010409D01*
Y010258D01*
X03144Y010113D01*
X031515Y009983D01*
X031621Y009877D01*
X031751Y009802D01*
X031897Y009763D01*
X032047D01*
X032192Y009802D01*
X032322Y009877D01*
X032406Y009961D01*
X032456Y00994D01*
Y009197D01*
X032399Y009098D01*
X032367Y008979D01*
Y008856D01*
X032399Y008737D01*
X03246Y008631D01*
X032547Y008544D01*
X032653Y008483D01*
X032772Y008451D01*
X032895D01*
X033014Y008483D01*
X03312Y008544D01*
X033207Y008631D01*
X033268Y008737D01*
X0333Y008856D01*
Y008979D01*
X033268Y009098D01*
X033211Y009197D01*
Y011474D01*
X033198Y011572D01*
X03316Y011663D01*
X0331Y011741D01*
X032543Y012298D01*
Y012409D01*
X032504Y012554D01*
X032428Y012684D01*
X032322Y01279D01*
X032291Y012809D01*
Y012859D01*
X032322Y012877D01*
X032428Y012983D01*
X032504Y013113D01*
X032543Y013258D01*
Y013409D01*
X032504Y013554D01*
X032428Y013684D01*
X032322Y01379D01*
X032192Y013866D01*
X032047Y013904D01*
X031897D01*
X031751Y013866D01*
X031621Y01379D01*
X031515Y013684D01*
X03144Y013554D01*
X031401Y013409D01*
Y013258D01*
X03144Y013113D01*
X031515Y012983D01*
X031621Y012877D01*
X031653Y012859D01*
Y012809D01*
X031621Y01279D01*
X031515Y012684D01*
X03144Y012554D01*
X031401Y012409D01*
Y012258D01*
X03144Y012113D01*
X031515Y011983D01*
X031621Y011877D01*
X031653Y011859D01*
Y011809D01*
X031621Y01179D01*
X031581Y011751D01*
X031253D01*
X031253Y011751D01*
X031146Y011736D01*
X031088Y011712D01*
X031046Y01174D01*
Y01883D01*
X031047Y018833D01*
X031065Y018967D01*
Y02024D01*
X031214Y02039D01*
X033078D01*
X033243Y020225D01*
Y019118D01*
X033243Y019118D01*
X033257Y01901D01*
X033299Y018909D01*
X033365Y018823D01*
X033759Y018429D01*
X033759Y018429D01*
X033845Y018363D01*
X033946Y018321D01*
X034054Y018307D01*
X034533D01*
X034621Y018219D01*
X034653Y018201D01*
Y018151D01*
X034621Y018133D01*
X034515Y018027D01*
X03444Y017896D01*
X034401Y017751D01*
Y017601D01*
X03444Y017456D01*
X034515Y017326D01*
X034621Y017219D01*
X034653Y017201D01*
Y017151D01*
X034621Y017133D01*
X034515Y017027D01*
X03444Y016896D01*
X034401Y016751D01*
Y016601D01*
X03444Y016456D01*
X034515Y016326D01*
X034621Y016219D01*
X034751Y016144D01*
X034897Y016105D01*
X035047D01*
X035192Y016144D01*
X035322Y016219D01*
X035428Y016326D01*
X035504Y016456D01*
X035543Y016601D01*
Y016751D01*
X035504Y016896D01*
X035428Y017027D01*
X035322Y017133D01*
X035291Y017151D01*
Y017201D01*
X035322Y017219D01*
X035428Y017326D01*
X035504Y017456D01*
X035543Y017601D01*
Y017751D01*
X035504Y017896D01*
X035428Y018027D01*
X035322Y018133D01*
X035291Y018151D01*
Y018201D01*
X035322Y018219D01*
X035428Y018326D01*
X035504Y018456D01*
X035543Y018601D01*
Y018751D01*
X035504Y018896D01*
X035428Y019027D01*
X035322Y019133D01*
X035291Y019151D01*
Y019201D01*
X035322Y019219D01*
X035428Y019326D01*
X035504Y019456D01*
X035543Y019601D01*
Y019751D01*
X035504Y019896D01*
X035428Y020027D01*
X035322Y020133D01*
X035192Y020208D01*
X035047Y020247D01*
X034897D01*
X034751Y020208D01*
X034621Y020133D01*
X034515Y020027D01*
X03444Y019896D01*
X034401Y019751D01*
Y019601D01*
X03444Y019456D01*
X034515Y019326D01*
X03462Y019221D01*
X034621Y019219D01*
X034626Y019159D01*
X034607Y019141D01*
X034227D01*
X034077Y019291D01*
Y020397D01*
X034077Y020397D01*
X034063Y020505D01*
X034021Y020606D01*
X033955Y020692D01*
X033955Y020692D01*
X033546Y021102D01*
X033459Y021168D01*
X033359Y02121D01*
X033251Y021224D01*
X033251Y021224D01*
X031065D01*
Y024517D01*
Y025843D01*
X031445Y026223D01*
X0316D01*
X03164Y026183D01*
X031672Y026165D01*
Y026115D01*
X03164Y026097D01*
X031534Y02599D01*
X031459Y02586D01*
X03142Y025715D01*
Y025565D01*
X031459Y025419D01*
X031534Y025289D01*
X03164Y025183D01*
X03177Y025108D01*
X031915Y025069D01*
X032066D01*
X032211Y025108D01*
X032341Y025183D01*
X032425Y025267D01*
X032475Y025246D01*
Y024566D01*
X032418Y024466D01*
X032386Y024348D01*
Y024225D01*
X032418Y024106D01*
X032479Y024D01*
X032566Y023913D01*
X032672Y023852D01*
X032791Y02382D01*
X032914D01*
X033032Y023852D01*
X033139Y023913D01*
X033226Y024D01*
X033287Y024106D01*
X033319Y024225D01*
Y024348D01*
X033287Y024466D01*
X03323Y024566D01*
Y027274D01*
X033217Y027372D01*
X033179Y027463D01*
X033119Y027541D01*
X032775Y027885D01*
X032697Y027945D01*
X032606Y027983D01*
X032508Y027996D01*
X032442D01*
X032341Y028097D01*
X03231Y028115D01*
Y028165D01*
X032341Y028183D01*
X032447Y028289D01*
X032523Y028419D01*
X032561Y028565D01*
Y028715D01*
X032523Y02886D01*
X032447Y02899D01*
X032341Y029097D01*
X032211Y029172D01*
X032066Y029211D01*
X031915D01*
X03177Y029172D01*
X03164Y029097D01*
X031534Y02899D01*
X031459Y02886D01*
X03142Y028715D01*
Y028565D01*
X031459Y028419D01*
X031534Y028289D01*
X03164Y028183D01*
X031672Y028165D01*
Y028115D01*
X03164Y028097D01*
X031534Y02799D01*
X031459Y02786D01*
X03142Y027715D01*
Y027565D01*
X031459Y027419D01*
X031534Y027289D01*
X03164Y027183D01*
X031672Y027165D01*
Y027115D01*
X03164Y027097D01*
X0316Y027057D01*
X031272D01*
X031272Y027057D01*
X031164Y027043D01*
X031107Y027019D01*
X031065Y027046D01*
Y034438D01*
Y035427D01*
X031235Y035597D01*
X03169D01*
X031699Y035547D01*
X03142Y035268D01*
Y034697D01*
X031644Y034472D01*
X03164Y034439D01*
X031534Y034333D01*
X031459Y034203D01*
X03142Y034057D01*
Y033907D01*
X031459Y033762D01*
X031534Y033632D01*
X03164Y033525D01*
X031672Y033507D01*
Y033457D01*
X03164Y033439D01*
X031534Y033333D01*
X031459Y033203D01*
X03142Y033057D01*
Y032907D01*
X031459Y032762D01*
X031534Y032632D01*
X03164Y032525D01*
X031672Y032507D01*
Y032457D01*
X03164Y032439D01*
X031534Y032333D01*
X031459Y032203D01*
X03142Y032057D01*
Y031907D01*
X031459Y031762D01*
X031534Y031632D01*
X031574Y031592D01*
Y031295D01*
X031574Y031295D01*
X031588Y031187D01*
X031629Y031086D01*
X031696Y031D01*
X032504Y030192D01*
X03259Y030126D01*
X032691Y030084D01*
X032798Y03007D01*
X032798Y03007D01*
X034557D01*
Y029014D01*
X034534Y02899D01*
X034459Y02886D01*
X03442Y028715D01*
Y028565D01*
X034459Y028419D01*
X034534Y028289D01*
X03464Y028183D01*
X034672Y028165D01*
Y028115D01*
X03464Y028097D01*
X034534Y02799D01*
X034459Y02786D01*
X03442Y027715D01*
Y027565D01*
X034459Y027419D01*
X034534Y027289D01*
X03464Y027183D01*
X034672Y027165D01*
Y027115D01*
X03464Y027097D01*
X034534Y02699D01*
X034459Y02686D01*
X03442Y026715D01*
Y026565D01*
X034459Y026419D01*
X034534Y026289D01*
X03464Y026183D01*
X034644Y02615D01*
X03442Y025925D01*
Y025354D01*
X034705Y025069D01*
X035276D01*
X035561Y025354D01*
Y025925D01*
X035337Y02615D01*
X035341Y026183D01*
X035447Y026289D01*
X035523Y026419D01*
X035561Y026565D01*
Y026715D01*
X035523Y02686D01*
X035447Y02699D01*
X035341Y027097D01*
X03531Y027115D01*
Y027165D01*
X035341Y027183D01*
X035447Y027289D01*
X035523Y027419D01*
X035561Y027565D01*
Y027715D01*
X035523Y02786D01*
X035447Y02799D01*
X035387Y028051D01*
X035407Y028101D01*
X035663D01*
Y013878D01*
X035619Y013834D01*
X035395D01*
Y014928D01*
X035395Y014928D01*
X035381Y015036D01*
X035339Y015136D01*
X035273Y015222D01*
X035042Y015453D01*
X034956Y015519D01*
X034855Y015561D01*
X034747Y015575D01*
X034747Y015575D01*
X032975D01*
X032411Y016139D01*
Y016308D01*
X032428Y016326D01*
X032504Y016456D01*
X032543Y016601D01*
Y016751D01*
X032504Y016896D01*
X032428Y017027D01*
X032322Y017133D01*
X032291Y017151D01*
Y017201D01*
X032322Y017219D01*
X032428Y017326D01*
X032504Y017456D01*
X032543Y017601D01*
Y017751D01*
X032504Y017896D01*
X032428Y018027D01*
X032322Y018133D01*
X032291Y018151D01*
Y018201D01*
X032322Y018219D01*
X032428Y018326D01*
X032504Y018456D01*
X032543Y018601D01*
Y018751D01*
X032504Y018896D01*
X032428Y019027D01*
X032322Y019133D01*
X032318Y019166D01*
X032543Y019391D01*
Y019961D01*
X032257Y020247D01*
X031686D01*
X031401Y019961D01*
Y019391D01*
X031625Y019166D01*
X031621Y019133D01*
X031515Y019027D01*
X03144Y018896D01*
X031401Y018751D01*
Y018601D01*
X03144Y018456D01*
X031515Y018326D01*
X031621Y018219D01*
X031653Y018201D01*
Y018151D01*
X031621Y018133D01*
X031515Y018027D01*
X03144Y017896D01*
X031401Y017751D01*
Y017601D01*
X03144Y017456D01*
X031515Y017326D01*
X031621Y017219D01*
X031653Y017201D01*
Y017151D01*
X031621Y017133D01*
X031515Y017027D01*
X03144Y016896D01*
X031401Y016751D01*
Y016601D01*
X03144Y016456D01*
X031515Y016326D01*
X031577Y016263D01*
Y015966D01*
X031577Y015966D01*
X031592Y015858D01*
X031633Y015758D01*
X031699Y015671D01*
X032507Y014863D01*
X032594Y014797D01*
X032694Y014756D01*
X032802Y014741D01*
X032802Y014741D01*
X034561D01*
Y01373D01*
X034515Y013684D01*
X03444Y013554D01*
X034401Y013409D01*
Y013258D01*
X03444Y013113D01*
X034515Y012983D01*
X034621Y012877D01*
X034653Y012859D01*
Y012809D01*
X034621Y01279D01*
X034515Y012684D01*
X03444Y012554D01*
X034401Y012409D01*
Y012258D01*
X03444Y012113D01*
X034515Y011983D01*
X034621Y011877D01*
X034653Y011859D01*
Y011809D01*
X034621Y01179D01*
X034515Y011684D01*
X03444Y011554D01*
X034401Y011409D01*
Y011258D01*
X03444Y011113D01*
X034515Y010983D01*
X034621Y010877D01*
X034625Y010844D01*
X034401Y010619D01*
Y010048D01*
X034686Y009763D01*
X035257D01*
X035543Y010048D01*
Y010619D01*
X035318Y010844D01*
X035322Y010877D01*
X035428Y010983D01*
X035504Y011113D01*
X035543Y011258D01*
Y011409D01*
X035504Y011554D01*
X035428Y011684D01*
X035322Y01179D01*
X035291Y011809D01*
Y011859D01*
X035322Y011877D01*
X035428Y011983D01*
X035504Y012113D01*
X035543Y012258D01*
Y012409D01*
X035504Y012554D01*
X035428Y012684D01*
X035361Y012752D01*
X035382Y012802D01*
X035833D01*
X035967Y012819D01*
X036091Y012871D01*
X036198Y012953D01*
X036544Y013299D01*
X036626Y013406D01*
X036678Y01353D01*
X036695Y013664D01*
Y028963D01*
X036678Y029097D01*
X036626Y029221D01*
X036544Y029328D01*
X036437Y02941D01*
X036313Y029462D01*
X036179Y029479D01*
X036046Y029462D01*
X035921Y02941D01*
X035814Y029328D01*
X035619Y029133D01*
X035391D01*
Y030256D01*
X035391Y030256D01*
X035377Y030364D01*
X035335Y030465D01*
X035269Y030551D01*
X035039Y030782D01*
X034952Y030848D01*
X034852Y03089D01*
X034744Y030904D01*
X034744Y030904D01*
X032971D01*
X032408Y031468D01*
Y031592D01*
X032447Y031632D01*
X032523Y031762D01*
X032561Y031907D01*
Y032057D01*
X032523Y032203D01*
X032447Y032333D01*
X032341Y032439D01*
X03231Y032457D01*
Y032507D01*
X032341Y032525D01*
X032447Y032632D01*
X032523Y032762D01*
X032561Y032907D01*
Y033057D01*
X032523Y033203D01*
X032447Y033333D01*
X032341Y033439D01*
X03231Y033457D01*
Y033507D01*
X032341Y033525D01*
X032447Y033632D01*
X032523Y033762D01*
X032561Y033907D01*
Y034057D01*
X032523Y034203D01*
X032447Y034333D01*
X032341Y034439D01*
X032337Y034472D01*
X032561Y034697D01*
Y035268D01*
X032282Y035547D01*
X032291Y035597D01*
X033016D01*
X033124Y03549D01*
Y034424D01*
X033141Y03429D01*
X033193Y034166D01*
X033275Y034059D01*
X033668Y033665D01*
X033775Y033583D01*
X0339Y033532D01*
X034033Y033514D01*
X03466D01*
X034672Y033507D01*
Y033457D01*
X03464Y033439D01*
X034534Y033333D01*
X034459Y033203D01*
X03442Y033057D01*
Y032907D01*
X034459Y032762D01*
X034534Y032632D01*
X03464Y032525D01*
X034672Y032507D01*
Y032457D01*
X03464Y032439D01*
X034534Y032333D01*
X034459Y032203D01*
X03442Y032057D01*
Y031907D01*
X034459Y031762D01*
X034534Y031632D01*
X03464Y031525D01*
X03477Y03145D01*
X034915Y031411D01*
X035066D01*
X035211Y03145D01*
X035341Y031525D01*
X035447Y031632D01*
X035523Y031762D01*
X035561Y031907D01*
Y032057D01*
X035523Y032203D01*
X035447Y032333D01*
X035341Y032439D01*
X03531Y032457D01*
Y032507D01*
X035341Y032525D01*
X035447Y032632D01*
X035523Y032762D01*
X035561Y032907D01*
Y033057D01*
X035523Y033203D01*
X035447Y033333D01*
X035341Y033439D01*
X03531Y033457D01*
Y033507D01*
X035341Y033525D01*
X035447Y033632D01*
X035523Y033762D01*
X035561Y033907D01*
Y034057D01*
X035523Y034203D01*
X035447Y034333D01*
X035341Y034439D01*
X03531Y034457D01*
Y034507D01*
X035341Y034525D01*
X035447Y034632D01*
X035523Y034762D01*
X035561Y034907D01*
Y035057D01*
X035523Y035203D01*
X035447Y035333D01*
X035341Y035439D01*
X035211Y035514D01*
X035066Y035553D01*
X034915D01*
X03477Y035514D01*
X03464Y035439D01*
X034534Y035333D01*
X034459Y035203D01*
X03442Y035057D01*
Y034907D01*
X034459Y034762D01*
X034534Y034632D01*
X034573Y034593D01*
X034554Y034547D01*
X034247D01*
X034156Y034638D01*
Y035704D01*
X034138Y035837D01*
X034087Y035962D01*
X034005Y036069D01*
X033595Y036478D01*
X033488Y03656D01*
X033364Y036612D01*
X03323Y036629D01*
X031021D01*
X030888Y036612D01*
X030763Y03656D01*
X030656Y036478D01*
X030184Y036006D01*
X030102Y035899D01*
X03005Y035774D01*
X030033Y035641D01*
Y034512D01*
X02998Y03446D01*
X029613D01*
X0296Y034509D01*
X029627Y034525D01*
X029734Y034632D01*
X029809Y034762D01*
X029848Y034907D01*
Y035057D01*
X029809Y035203D01*
X029734Y035333D01*
X029627Y035439D01*
X029497Y035514D01*
X029352Y035553D01*
X029202D01*
X029056Y035514D01*
X028926Y035439D01*
X02882Y035333D01*
X028745Y035203D01*
X028706Y035057D01*
Y034907D01*
X028745Y034762D01*
X02882Y034632D01*
X028926Y034525D01*
X028958Y034507D01*
Y034457D01*
X028926Y034439D01*
X02882Y034333D01*
X028745Y034203D01*
X028706Y034057D01*
Y033907D01*
X028745Y033762D01*
X02882Y033632D01*
X028926Y033525D01*
X028958Y033507D01*
Y033457D01*
X028926Y033439D01*
X028847Y03336D01*
X028777D01*
X028643Y033494D01*
Y037589D01*
X0287Y037689D01*
X028732Y037808D01*
Y03793D01*
X0287Y038049D01*
X028639Y038155D01*
X028552Y038242D01*
X028446Y038304D01*
X028327Y038336D01*
X028204D01*
X028086Y038304D01*
X027979Y038242D01*
X027906Y038169D01*
X027856Y038187D01*
Y038475D01*
X027913Y038575D01*
X027945Y038693D01*
Y038816D01*
X027913Y038935D01*
X027852Y039041D01*
X027765Y039128D01*
X027658Y03919D01*
X02754Y039221D01*
D02*
G37*
G36*
X03834Y034007D02*
X037872D01*
Y033539D01*
X037877Y03354D01*
X038002Y033592D01*
X038115Y033667D01*
X038212Y033763D01*
X038287Y033877D01*
X038339Y034002D01*
X03834Y034007D01*
D02*
G37*
G36*
X040628D02*
X04016D01*
X040161Y034002D01*
X040213Y033877D01*
X040288Y033763D01*
X040385Y033667D01*
X040498Y033592D01*
X040623Y03354D01*
X040628Y033539D01*
Y034007D01*
D02*
G37*
G36*
X037478D02*
X03701D01*
X037011Y034002D01*
X037063Y033877D01*
X037139Y033763D01*
X037235Y033667D01*
X037348Y033592D01*
X037474Y03354D01*
X037478Y033539D01*
Y034007D01*
D02*
G37*
G36*
X014487Y035011D02*
X014328D01*
X014172Y03498D01*
X014025Y034919D01*
X013893Y034831D01*
X013781Y034718D01*
X013692Y034586D01*
X013631Y034439D01*
X0136Y034283D01*
Y034124D01*
X013631Y033968D01*
X013692Y033821D01*
X013781Y033689D01*
X013893Y033577D01*
X014025Y033488D01*
X014172Y033428D01*
X014328Y033397D01*
X014487D01*
X014643Y033428D01*
X01479Y033488D01*
X014922Y033577D01*
X015034Y033689D01*
X015123Y033821D01*
X015184Y033968D01*
X015215Y034124D01*
Y034283D01*
X015184Y034439D01*
X015123Y034586D01*
X015034Y034718D01*
X014922Y034831D01*
X01479Y034919D01*
X014643Y03498D01*
X014487Y035011D01*
D02*
G37*
G36*
X018261Y032845D02*
X018111D01*
X017965Y032806D01*
X017835Y032731D01*
X017729Y032625D01*
X017654Y032494D01*
X017615Y032349D01*
Y032199D01*
X017654Y032054D01*
X017729Y031923D01*
X017835Y031817D01*
X017965Y031742D01*
X018111Y031703D01*
X018261D01*
X018406Y031742D01*
X018536Y031817D01*
X018643Y031923D01*
X018718Y032054D01*
X018757Y032199D01*
Y032349D01*
X018718Y032494D01*
X018643Y032625D01*
X018536Y032731D01*
X018406Y032806D01*
X018261Y032845D01*
D02*
G37*
G36*
X039535Y032806D02*
X038965D01*
X038679Y032521D01*
Y03195D01*
X038965Y031664D01*
X039535D01*
X039821Y03195D01*
Y032521D01*
X039535Y032806D01*
D02*
G37*
G36*
X019261Y031845D02*
X019111D01*
X018965Y031806D01*
X018835Y031731D01*
X018729Y031625D01*
X018654Y031494D01*
X018615Y031349D01*
Y031199D01*
X018654Y031054D01*
X018729Y030924D01*
X018835Y030817D01*
X018965Y030742D01*
X019111Y030703D01*
X019261D01*
X019406Y030742D01*
X019536Y030817D01*
X019643Y030924D01*
X019718Y031054D01*
X019757Y031199D01*
Y031349D01*
X019718Y031494D01*
X019643Y031625D01*
X019536Y031731D01*
X019406Y031806D01*
X019261Y031845D01*
D02*
G37*
G36*
X017471D02*
X0169D01*
X016615Y031559D01*
Y030989D01*
X0169Y030703D01*
X017471D01*
X017757Y030989D01*
Y031559D01*
X017471Y031845D01*
D02*
G37*
G36*
X020922Y031831D02*
X020771D01*
X020626Y031792D01*
X020496Y031717D01*
X02039Y031611D01*
X020314Y031481D01*
X020276Y031336D01*
Y031185D01*
X020314Y03104D01*
X02039Y03091D01*
X020496Y030804D01*
X020626Y030728D01*
X020771Y03069D01*
X020922D01*
X021067Y030728D01*
X021197Y030804D01*
X021303Y03091D01*
X021378Y03104D01*
X021417Y031185D01*
Y031336D01*
X021378Y031481D01*
X021303Y031611D01*
X021197Y031717D01*
X021067Y031792D01*
X020922Y031831D01*
D02*
G37*
G36*
X040628Y030144D02*
X040623Y030143D01*
X040498Y030091D01*
X040385Y030016D01*
X040288Y029919D01*
X040213Y029806D01*
X040161Y029681D01*
X04016Y029676D01*
X040628D01*
Y030144D01*
D02*
G37*
G36*
X037872D02*
Y029676D01*
X03834D01*
X038339Y029681D01*
X038287Y029806D01*
X038212Y029919D01*
X038115Y030016D01*
X038002Y030091D01*
X037877Y030143D01*
X037872Y030144D01*
D02*
G37*
G36*
X037478D02*
X037474Y030143D01*
X037348Y030091D01*
X037235Y030016D01*
X037139Y029919D01*
X037063Y029806D01*
X037011Y029681D01*
X03701Y029676D01*
X037478D01*
Y030144D01*
D02*
G37*
G36*
X040628Y029282D02*
X04016D01*
X040161Y029278D01*
X040213Y029152D01*
X040288Y029039D01*
X040385Y028943D01*
X040498Y028867D01*
X040623Y028815D01*
X040628Y028814D01*
Y029282D01*
D02*
G37*
G36*
X03834Y029282D02*
X037872D01*
Y028814D01*
X037877Y028815D01*
X038002Y028867D01*
X038115Y028943D01*
X038212Y029039D01*
X038287Y029152D01*
X038339Y029278D01*
X03834Y029282D01*
D02*
G37*
G36*
X037478D02*
X03701D01*
X037011Y029278D01*
X037063Y029152D01*
X037139Y029039D01*
X037235Y028943D01*
X037348Y028867D01*
X037474Y028815D01*
X037478Y028814D01*
Y029282D01*
D02*
G37*
G36*
X014487Y030286D02*
X014328D01*
X014172Y030255D01*
X014025Y030194D01*
X013893Y030106D01*
X013781Y029994D01*
X013692Y029862D01*
X013631Y029715D01*
X0136Y029559D01*
Y0294D01*
X013631Y029244D01*
X013692Y029097D01*
X013781Y028965D01*
X013893Y028852D01*
X014025Y028764D01*
X014172Y028703D01*
X014328Y028672D01*
X014487D01*
X014643Y028703D01*
X01479Y028764D01*
X014922Y028852D01*
X015034Y028965D01*
X015123Y029097D01*
X015184Y029244D01*
X015215Y0294D01*
Y029559D01*
X015184Y029715D01*
X015123Y029862D01*
X015034Y029994D01*
X014922Y030106D01*
X01479Y030194D01*
X014643Y030255D01*
X014487Y030286D01*
D02*
G37*
G36*
X03932Y028613D02*
X03918D01*
X039043Y028586D01*
X038914Y028532D01*
X038798Y028455D01*
X0387Y028356D01*
X038622Y02824D01*
X038569Y028111D01*
X038541Y027974D01*
Y027835D01*
X038569Y027698D01*
X038622Y027569D01*
X0387Y027453D01*
X038798Y027354D01*
X038914Y027276D01*
X039043Y027223D01*
X03918Y027196D01*
X03932D01*
X039457Y027223D01*
X039586Y027276D01*
X039702Y027354D01*
X0398Y027453D01*
X039878Y027569D01*
X039931Y027698D01*
X039959Y027835D01*
Y027974D01*
X039931Y028111D01*
X039878Y02824D01*
X0398Y028356D01*
X039702Y028455D01*
X039586Y028532D01*
X039457Y028586D01*
X03932Y028613D01*
D02*
G37*
G36*
X012902D02*
X012763D01*
X012626Y028586D01*
X012497Y028532D01*
X012381Y028455D01*
X012282Y028356D01*
X012205Y02824D01*
X012151Y028111D01*
X012124Y027974D01*
Y027835D01*
X012151Y027698D01*
X012205Y027569D01*
X012282Y027453D01*
X012381Y027354D01*
X012497Y027276D01*
X012626Y027223D01*
X012763Y027196D01*
X012902D01*
X013039Y027223D01*
X013168Y027276D01*
X013284Y027354D01*
X013383Y027453D01*
X013461Y027569D01*
X013514Y027698D01*
X013541Y027835D01*
Y027974D01*
X013514Y028111D01*
X013461Y02824D01*
X013383Y028356D01*
X013284Y028455D01*
X013168Y028532D01*
X013039Y028586D01*
X012902Y028613D01*
D02*
G37*
G36*
X040628Y026995D02*
X040623Y026994D01*
X040498Y026942D01*
X040385Y026866D01*
X040288Y02677D01*
X040213Y026657D01*
X040161Y026531D01*
X04016Y026526D01*
X040628D01*
Y026995D01*
D02*
G37*
G36*
X037872D02*
Y026526D01*
X03834D01*
X038339Y026531D01*
X038287Y026657D01*
X038212Y02677D01*
X038115Y026866D01*
X038002Y026942D01*
X037877Y026994D01*
X037872Y026995D01*
D02*
G37*
G36*
X037478D02*
X037474Y026994D01*
X037348Y026942D01*
X037235Y026866D01*
X037139Y02677D01*
X037063Y026657D01*
X037011Y026531D01*
X03701Y026526D01*
X037478D01*
Y026995D01*
D02*
G37*
G36*
X03834Y026133D02*
X037872D01*
Y025665D01*
X037877Y025666D01*
X038002Y025718D01*
X038115Y025793D01*
X038212Y025889D01*
X038287Y026003D01*
X038339Y026128D01*
X03834Y026133D01*
D02*
G37*
G36*
X040628Y026133D02*
X04016D01*
X040161Y026128D01*
X040213Y026003D01*
X040288Y025889D01*
X040385Y025793D01*
X040498Y025718D01*
X040623Y025666D01*
X040628Y025665D01*
Y026133D01*
D02*
G37*
G36*
X037478Y026133D02*
X03701D01*
X037011Y026128D01*
X037063Y026003D01*
X037139Y025889D01*
X037235Y025793D01*
X037348Y025718D01*
X037474Y025666D01*
X037478Y025665D01*
Y026133D01*
D02*
G37*
G36*
X014487Y027137D02*
X014328D01*
X014172Y027106D01*
X014025Y027045D01*
X013893Y026957D01*
X013781Y026844D01*
X013692Y026712D01*
X013631Y026565D01*
X0136Y026409D01*
Y02625D01*
X013631Y026094D01*
X013692Y025947D01*
X013781Y025815D01*
X013893Y025703D01*
X014025Y025614D01*
X014172Y025554D01*
X014328Y025523D01*
X014487D01*
X014643Y025554D01*
X01479Y025614D01*
X014922Y025703D01*
X015034Y025815D01*
X015123Y025947D01*
X015184Y026094D01*
X015215Y02625D01*
Y026409D01*
X015184Y026565D01*
X015123Y026712D01*
X015034Y026844D01*
X014922Y026957D01*
X01479Y027045D01*
X014643Y027106D01*
X014487Y027137D01*
D02*
G37*
G36*
X039496Y024932D02*
X038925D01*
X03864Y024647D01*
Y024076D01*
X038925Y02379D01*
X039496D01*
X039781Y024076D01*
Y024647D01*
X039496Y024932D01*
D02*
G37*
G36*
X034831Y023103D02*
X034801D01*
Y022845D01*
X035059D01*
Y022876D01*
X034831Y023103D01*
D02*
G37*
G36*
X034407D02*
X034377D01*
X03415Y022876D01*
Y022845D01*
X034407D01*
Y023103D01*
D02*
G37*
G36*
X035059Y022452D02*
X034801D01*
Y022194D01*
X034831D01*
X035059Y022421D01*
Y022452D01*
D02*
G37*
G36*
X034407D02*
X03415D01*
Y022421D01*
X034377Y022194D01*
X034407D01*
Y022452D01*
D02*
G37*
G36*
X040628Y02227D02*
X040623Y022269D01*
X040498Y022217D01*
X040385Y022142D01*
X040288Y022045D01*
X040213Y021932D01*
X040161Y021807D01*
X04016Y021802D01*
X040628D01*
Y02227D01*
D02*
G37*
G36*
X037872D02*
Y021802D01*
X03834D01*
X038339Y021807D01*
X038287Y021932D01*
X038212Y022045D01*
X038115Y022142D01*
X038002Y022217D01*
X037877Y022269D01*
X037872Y02227D01*
D02*
G37*
G36*
X037478D02*
X037474Y022269D01*
X037348Y022217D01*
X037235Y022142D01*
X037139Y022045D01*
X037063Y021932D01*
X037011Y021807D01*
X03701Y021802D01*
X037478D01*
Y02227D01*
D02*
G37*
G36*
X040628Y021408D02*
X04016D01*
X040161Y021404D01*
X040213Y021278D01*
X040288Y021165D01*
X040385Y021069D01*
X040498Y020993D01*
X040623Y020941D01*
X040628Y02094D01*
Y021408D01*
D02*
G37*
G36*
X03834Y021408D02*
X037872D01*
Y02094D01*
X037877Y020941D01*
X038002Y020993D01*
X038115Y021069D01*
X038212Y021165D01*
X038287Y021278D01*
X038339Y021404D01*
X03834Y021408D01*
D02*
G37*
G36*
X037478D02*
X03701D01*
X037011Y021404D01*
X037063Y021278D01*
X037139Y021165D01*
X037235Y021069D01*
X037348Y020993D01*
X037474Y020941D01*
X037478Y02094D01*
Y021408D01*
D02*
G37*
G36*
X014487Y022412D02*
X014328D01*
X014172Y022381D01*
X014025Y02232D01*
X013893Y022232D01*
X013781Y02212D01*
X013692Y021987D01*
X013631Y021841D01*
X0136Y021685D01*
Y021526D01*
X013631Y02137D01*
X013692Y021223D01*
X013781Y021091D01*
X013893Y020978D01*
X014025Y02089D01*
X014172Y020829D01*
X014328Y020798D01*
X014487D01*
X014643Y020829D01*
X01479Y02089D01*
X014922Y020978D01*
X015034Y021091D01*
X015123Y021223D01*
X015184Y02137D01*
X015215Y021526D01*
Y021685D01*
X015184Y021841D01*
X015123Y021987D01*
X015034Y02212D01*
X014922Y022232D01*
X01479Y02232D01*
X014643Y022381D01*
X014487Y022412D01*
D02*
G37*
G36*
X03932Y020739D02*
X03918D01*
X039043Y020712D01*
X038914Y020658D01*
X038798Y020581D01*
X0387Y020482D01*
X038622Y020366D01*
X038569Y020237D01*
X038541Y0201D01*
Y019961D01*
X038569Y019824D01*
X038622Y019695D01*
X0387Y019579D01*
X038798Y01948D01*
X038914Y019402D01*
X039043Y019349D01*
X03918Y019322D01*
X03932D01*
X039457Y019349D01*
X039586Y019402D01*
X039702Y01948D01*
X0398Y019579D01*
X039878Y019695D01*
X039931Y019824D01*
X039959Y019961D01*
Y0201D01*
X039931Y020237D01*
X039878Y020366D01*
X0398Y020482D01*
X039702Y020581D01*
X039586Y020658D01*
X039457Y020712D01*
X03932Y020739D01*
D02*
G37*
G36*
X012902D02*
X012763D01*
X012626Y020712D01*
X012497Y020658D01*
X012381Y020581D01*
X012282Y020482D01*
X012205Y020366D01*
X012151Y020237D01*
X012124Y0201D01*
Y019961D01*
X012151Y019824D01*
X012205Y019695D01*
X012282Y019579D01*
X012381Y01948D01*
X012497Y019402D01*
X012626Y019349D01*
X012763Y019322D01*
X012902D01*
X013039Y019349D01*
X013168Y019402D01*
X013284Y01948D01*
X013383Y019579D01*
X013461Y019695D01*
X013514Y019824D01*
X013541Y019961D01*
Y0201D01*
X013514Y020237D01*
X013461Y020366D01*
X013383Y020482D01*
X013284Y020581D01*
X013168Y020658D01*
X013039Y020712D01*
X012902Y020739D01*
D02*
G37*
G36*
X040628Y019121D02*
X040623Y01912D01*
X040498Y019068D01*
X040385Y018992D01*
X040288Y018896D01*
X040213Y018783D01*
X040161Y018657D01*
X04016Y018652D01*
X040628D01*
Y019121D01*
D02*
G37*
G36*
X037872D02*
Y018652D01*
X03834D01*
X038339Y018657D01*
X038287Y018783D01*
X038212Y018896D01*
X038115Y018992D01*
X038002Y019068D01*
X037877Y01912D01*
X037872Y019121D01*
D02*
G37*
G36*
X037478D02*
X037474Y01912D01*
X037348Y019068D01*
X037235Y018992D01*
X037139Y018896D01*
X037063Y018783D01*
X037011Y018657D01*
X03701Y018652D01*
X037478D01*
Y019121D01*
D02*
G37*
G36*
X03834Y018259D02*
X037872D01*
Y017791D01*
X037877Y017792D01*
X038002Y017844D01*
X038115Y017919D01*
X038212Y018015D01*
X038287Y018128D01*
X038339Y018254D01*
X03834Y018259D01*
D02*
G37*
G36*
X040628Y018259D02*
X04016D01*
X040161Y018254D01*
X040213Y018128D01*
X040288Y018015D01*
X040385Y017919D01*
X040498Y017844D01*
X040623Y017792D01*
X040628Y017791D01*
Y018259D01*
D02*
G37*
G36*
X037478Y018259D02*
X03701D01*
X037011Y018254D01*
X037063Y018128D01*
X037139Y018015D01*
X037235Y017919D01*
X037348Y017844D01*
X037474Y017792D01*
X037478Y017791D01*
Y018259D01*
D02*
G37*
G36*
X014487Y019263D02*
X014328D01*
X014172Y019232D01*
X014025Y019171D01*
X013893Y019082D01*
X013781Y01897D01*
X013692Y018838D01*
X013631Y018691D01*
X0136Y018535D01*
Y018376D01*
X013631Y01822D01*
X013692Y018073D01*
X013781Y017941D01*
X013893Y017829D01*
X014025Y01774D01*
X014172Y01768D01*
X014328Y017649D01*
X014487D01*
X014643Y01768D01*
X01479Y01774D01*
X014922Y017829D01*
X015034Y017941D01*
X015123Y018073D01*
X015184Y01822D01*
X015215Y018376D01*
Y018535D01*
X015184Y018691D01*
X015123Y018838D01*
X015034Y01897D01*
X014922Y019082D01*
X01479Y019171D01*
X014643Y019232D01*
X014487Y019263D01*
D02*
G37*
G36*
X018268Y017512D02*
X018118D01*
X017973Y017473D01*
X017843Y017398D01*
X017737Y017292D01*
X017661Y017162D01*
X017622Y017017D01*
Y016866D01*
X017661Y016721D01*
X017737Y016591D01*
X017843Y016485D01*
X017973Y016409D01*
X018118Y016371D01*
X018268D01*
X018414Y016409D01*
X018544Y016485D01*
X01865Y016591D01*
X018725Y016721D01*
X018764Y016866D01*
Y017017D01*
X018725Y017162D01*
X01865Y017292D01*
X018544Y017398D01*
X018414Y017473D01*
X018268Y017512D01*
D02*
G37*
G36*
X039535Y017058D02*
X038965D01*
X038679Y016773D01*
Y016202D01*
X038965Y015916D01*
X039535D01*
X039821Y016202D01*
Y016773D01*
X039535Y017058D01*
D02*
G37*
G36*
X019268Y016512D02*
X019118D01*
X018973Y016473D01*
X018843Y016398D01*
X018736Y016292D01*
X018661Y016162D01*
X018622Y016017D01*
Y015866D01*
X018661Y015721D01*
X018736Y015591D01*
X018843Y015485D01*
X018973Y015409D01*
X019118Y015371D01*
X019268D01*
X019414Y015409D01*
X019544Y015485D01*
X01965Y015591D01*
X019725Y015721D01*
X019764Y015866D01*
Y016017D01*
X019725Y016162D01*
X01965Y016292D01*
X019544Y016398D01*
X019414Y016473D01*
X019268Y016512D01*
D02*
G37*
G36*
X017479D02*
X016908D01*
X016622Y016227D01*
Y015656D01*
X016908Y015371D01*
X017479D01*
X017764Y015656D01*
Y016227D01*
X017479Y016512D01*
D02*
G37*
G36*
X02087Y01655D02*
X020749D01*
X020631Y016527D01*
X02052Y016481D01*
X02042Y016414D01*
X020335Y016329D01*
X020269Y016229D01*
X020223Y016118D01*
X020199Y016D01*
Y01588D01*
X020223Y015762D01*
X020269Y015651D01*
X020335Y015551D01*
X02042Y015466D01*
X02052Y015399D01*
X020631Y015353D01*
X020749Y01533D01*
X02087D01*
X020987Y015353D01*
X021099Y015399D01*
X021198Y015466D01*
X021283Y015551D01*
X02135Y015651D01*
X021396Y015762D01*
X02142Y01588D01*
Y016D01*
X021396Y016118D01*
X02135Y016229D01*
X021283Y016329D01*
X021198Y016414D01*
X021099Y016481D01*
X020987Y016527D01*
X02087Y01655D01*
D02*
G37*
G36*
X040628Y014396D02*
X040623Y014395D01*
X040498Y014343D01*
X040385Y014268D01*
X040288Y014171D01*
X040213Y014058D01*
X040161Y013933D01*
X04016Y013928D01*
X040628D01*
Y014396D01*
D02*
G37*
G36*
X037872D02*
Y013928D01*
X03834D01*
X038339Y013933D01*
X038287Y014058D01*
X038212Y014171D01*
X038115Y014268D01*
X038002Y014343D01*
X037877Y014395D01*
X037872Y014396D01*
D02*
G37*
G36*
X037478D02*
X037474Y014395D01*
X037348Y014343D01*
X037235Y014268D01*
X037139Y014171D01*
X037063Y014058D01*
X037011Y013933D01*
X03701Y013928D01*
X037478D01*
Y014396D01*
D02*
G37*
G36*
X040628Y013534D02*
X04016D01*
X040161Y01353D01*
X040213Y013404D01*
X040288Y013291D01*
X040385Y013195D01*
X040498Y013119D01*
X040623Y013067D01*
X040628Y013066D01*
Y013534D01*
D02*
G37*
G36*
X03834Y013534D02*
X037872D01*
Y013066D01*
X037877Y013067D01*
X038002Y013119D01*
X038115Y013195D01*
X038212Y013291D01*
X038287Y013404D01*
X038339Y01353D01*
X03834Y013534D01*
D02*
G37*
G36*
X037478D02*
X03701D01*
X037011Y01353D01*
X037063Y013404D01*
X037139Y013291D01*
X037235Y013195D01*
X037348Y013119D01*
X037474Y013067D01*
X037478Y013066D01*
Y013534D01*
D02*
G37*
G36*
X014487Y014538D02*
X014328D01*
X014172Y014507D01*
X014025Y014446D01*
X013893Y014358D01*
X013781Y014246D01*
X013692Y014113D01*
X013631Y013967D01*
X0136Y013811D01*
Y013652D01*
X013631Y013496D01*
X013692Y013349D01*
X013781Y013217D01*
X013893Y013104D01*
X014025Y013016D01*
X014172Y012955D01*
X014328Y012924D01*
X014487D01*
X014643Y012955D01*
X01479Y013016D01*
X014922Y013104D01*
X015034Y013217D01*
X015123Y013349D01*
X015184Y013496D01*
X015215Y013652D01*
Y013811D01*
X015184Y013967D01*
X015123Y014113D01*
X015034Y014246D01*
X014922Y014358D01*
X01479Y014446D01*
X014643Y014507D01*
X014487Y014538D01*
D02*
G37*
G36*
X03932Y012865D02*
X03918D01*
X039043Y012838D01*
X038914Y012784D01*
X038798Y012707D01*
X0387Y012608D01*
X038622Y012492D01*
X038569Y012363D01*
X038541Y012226D01*
Y012087D01*
X038569Y01195D01*
X038622Y011821D01*
X0387Y011705D01*
X038798Y011606D01*
X038914Y011528D01*
X039043Y011475D01*
X03918Y011448D01*
X03932D01*
X039457Y011475D01*
X039586Y011528D01*
X039702Y011606D01*
X0398Y011705D01*
X039878Y011821D01*
X039931Y01195D01*
X039959Y012087D01*
Y012226D01*
X039931Y012363D01*
X039878Y012492D01*
X0398Y012608D01*
X039702Y012707D01*
X039586Y012784D01*
X039457Y012838D01*
X03932Y012865D01*
D02*
G37*
G36*
X012902D02*
X012763D01*
X012626Y012838D01*
X012497Y012784D01*
X012381Y012707D01*
X012282Y012608D01*
X012205Y012492D01*
X012151Y012363D01*
X012124Y012226D01*
Y012087D01*
X012151Y01195D01*
X012205Y011821D01*
X012282Y011705D01*
X012381Y011606D01*
X012497Y011528D01*
X012626Y011475D01*
X012763Y011448D01*
X012902D01*
X013039Y011475D01*
X013168Y011528D01*
X013284Y011606D01*
X013383Y011705D01*
X013461Y011821D01*
X013514Y01195D01*
X013541Y012087D01*
Y012226D01*
X013514Y012363D01*
X013461Y012492D01*
X013383Y012608D01*
X013284Y012707D01*
X013168Y012784D01*
X013039Y012838D01*
X012902Y012865D01*
D02*
G37*
G36*
X037872Y011247D02*
Y010778D01*
X03834D01*
X038339Y010783D01*
X038287Y010909D01*
X038212Y011022D01*
X038115Y011118D01*
X038002Y011194D01*
X037877Y011246D01*
X037872Y011247D01*
D02*
G37*
G36*
X040628D02*
X040623Y011246D01*
X040498Y011194D01*
X040385Y011118D01*
X040288Y011022D01*
X040213Y010909D01*
X040161Y010783D01*
X04016Y010778D01*
X040628D01*
Y011247D01*
D02*
G37*
G36*
X037478D02*
X037474Y011246D01*
X037348Y011194D01*
X037235Y011118D01*
X037139Y011022D01*
X037063Y010909D01*
X037011Y010783D01*
X03701Y010778D01*
X037478D01*
Y011247D01*
D02*
G37*
G36*
X03834Y010385D02*
X037872D01*
Y009917D01*
X037877Y009918D01*
X038002Y00997D01*
X038115Y010045D01*
X038212Y010141D01*
X038287Y010254D01*
X038339Y01038D01*
X03834Y010385D01*
D02*
G37*
G36*
X040628D02*
X04016D01*
X040161Y01038D01*
X040213Y010254D01*
X040288Y010141D01*
X040385Y010045D01*
X040498Y00997D01*
X040623Y009918D01*
X040628Y009917D01*
Y010385D01*
D02*
G37*
G36*
X037478D02*
X03701D01*
X037011Y01038D01*
X037063Y010254D01*
X037139Y010141D01*
X037235Y010045D01*
X037348Y00997D01*
X037474Y009918D01*
X037478Y009917D01*
Y010385D01*
D02*
G37*
G36*
X014487Y011389D02*
X014328D01*
X014172Y011358D01*
X014025Y011297D01*
X013893Y011208D01*
X013781Y011096D01*
X013692Y010964D01*
X013631Y010817D01*
X0136Y010661D01*
Y010502D01*
X013631Y010346D01*
X013692Y010199D01*
X013781Y010067D01*
X013893Y009955D01*
X014025Y009866D01*
X014172Y009805D01*
X014328Y009774D01*
X014487D01*
X014643Y009805D01*
X01479Y009866D01*
X014922Y009955D01*
X015034Y010067D01*
X015123Y010199D01*
X015184Y010346D01*
X015215Y010502D01*
Y010661D01*
X015184Y010817D01*
X015123Y010964D01*
X015034Y011096D01*
X014922Y011208D01*
X01479Y011297D01*
X014643Y011358D01*
X014487Y011389D01*
D02*
G37*
G36*
X038Y009184D02*
X037429D01*
X037144Y008899D01*
Y008328D01*
X037429Y008042D01*
X038D01*
X038285Y008328D01*
Y008899D01*
X038Y009184D01*
D02*
G37*
G36*
X025678Y007867D02*
X025648D01*
Y007609D01*
X025905D01*
Y007639D01*
X025678Y007867D01*
D02*
G37*
G36*
X025254D02*
X025224D01*
X024996Y007639D01*
Y007609D01*
X025254D01*
Y007867D01*
D02*
G37*
G36*
X025905Y007215D02*
X025648D01*
Y006958D01*
X025678D01*
X025905Y007185D01*
Y007215D01*
D02*
G37*
G36*
X025254D02*
X024996D01*
Y007185D01*
X025224Y006958D01*
X025254D01*
Y007215D01*
D02*
G37*
%LPD*%
G36*
X027085Y03007D02*
X027085Y03007D01*
X028844D01*
Y028963D01*
X028784Y02886D01*
X028745Y028715D01*
Y028565D01*
X028784Y028419D01*
X028859Y028289D01*
X028966Y028183D01*
X028997Y028165D01*
Y028115D01*
X028966Y028097D01*
X028859Y02799D01*
X028784Y02786D01*
X028745Y027715D01*
Y027565D01*
X028784Y027419D01*
X028859Y027289D01*
X028966Y027183D01*
X028997Y027165D01*
Y027115D01*
X028966Y027097D01*
X028895Y027026D01*
X028422D01*
X028151Y027297D01*
Y028715D01*
X028138Y028813D01*
X0281Y028904D01*
X02804Y028982D01*
X02699Y030032D01*
X027014Y030079D01*
X027085Y03007D01*
D02*
G37*
G36*
X027889Y034306D02*
Y033337D01*
X027901Y03324D01*
X027939Y033149D01*
X027999Y033071D01*
X028354Y032716D01*
X028432Y032656D01*
X028523Y032618D01*
X028621Y032605D01*
X028847D01*
X028926Y032525D01*
X028958Y032507D01*
Y032457D01*
X028926Y032439D01*
X02882Y032333D01*
X028745Y032203D01*
X028706Y032057D01*
Y031907D01*
X028745Y031762D01*
X02882Y031632D01*
X028926Y031525D01*
X029056Y03145D01*
X029202Y031411D01*
X029352D01*
X029497Y03145D01*
X029627Y031525D01*
X029734Y031632D01*
X029809Y031762D01*
X029848Y031907D01*
Y032057D01*
X029809Y032203D01*
X029734Y032333D01*
X029627Y032439D01*
X029596Y032457D01*
Y032507D01*
X029627Y032525D01*
X029734Y032632D01*
X029809Y032762D01*
X029848Y032907D01*
Y033057D01*
X029809Y033203D01*
X029734Y033333D01*
X029627Y033439D01*
X029596Y033457D01*
Y033507D01*
X029627Y033525D01*
X029727Y033626D01*
X030033D01*
Y025995D01*
Y024703D01*
X028438D01*
X028387Y024754D01*
Y025861D01*
X028387Y025861D01*
X028373Y025969D01*
X028332Y02607D01*
X028265Y026156D01*
X028191Y026231D01*
X028214Y026278D01*
X028266Y026271D01*
X028877D01*
X028966Y026183D01*
X02897Y02615D01*
X028745Y025925D01*
Y025354D01*
X029031Y025069D01*
X029602D01*
X029887Y025354D01*
Y025925D01*
X029662Y02615D01*
X029667Y026183D01*
X029773Y026289D01*
X029848Y026419D01*
X029887Y026565D01*
Y026715D01*
X029848Y02686D01*
X029773Y02699D01*
X029667Y027097D01*
X029635Y027115D01*
Y027165D01*
X029667Y027183D01*
X029773Y027289D01*
X029848Y027419D01*
X029887Y027565D01*
Y027715D01*
X029848Y02786D01*
X029773Y02799D01*
X029667Y028097D01*
X029635Y028115D01*
Y028165D01*
X029667Y028183D01*
X029773Y028289D01*
X029848Y028419D01*
X029887Y028565D01*
Y028715D01*
X029848Y02886D01*
X029773Y02899D01*
X029678Y029086D01*
Y030256D01*
X029678Y030256D01*
X029663Y030364D01*
X029622Y030465D01*
X029555Y030551D01*
X029325Y030782D01*
X029238Y030848D01*
X029138Y03089D01*
X02903Y030904D01*
X02903Y030904D01*
X027257D01*
X026694Y031468D01*
Y031592D01*
X026734Y031632D01*
X026809Y031762D01*
X026848Y031907D01*
Y032057D01*
X026809Y032203D01*
X026734Y032333D01*
X026627Y032439D01*
X026596Y032457D01*
Y032507D01*
X026627Y032525D01*
X026734Y032632D01*
X026809Y032762D01*
X026848Y032907D01*
Y033057D01*
X026809Y033203D01*
X026734Y033333D01*
X026627Y033439D01*
X026596Y033457D01*
Y033507D01*
X026627Y033525D01*
X026707Y033605D01*
X027037D01*
X027134Y033618D01*
X027225Y033656D01*
X027303Y033716D01*
X027745Y034157D01*
X027805Y034235D01*
X027839Y034316D01*
X027889Y034306D01*
D02*
G37*
G36*
X028864Y013708D02*
X02884Y013684D01*
X028765Y013554D01*
X028726Y013409D01*
Y013258D01*
X028765Y013113D01*
X02884Y012983D01*
X028947Y012877D01*
X028978Y012859D01*
Y012809D01*
X028947Y01279D01*
X02884Y012684D01*
X028765Y012554D01*
X028726Y012409D01*
Y012258D01*
X028765Y012113D01*
X02884Y011983D01*
X028947Y011877D01*
X028978Y011859D01*
Y011809D01*
X028947Y01179D01*
X028876Y01172D01*
X028403D01*
X028132Y011991D01*
Y013606D01*
X028119Y013704D01*
X028081Y013795D01*
X028021Y013873D01*
X027262Y014632D01*
X027184Y014692D01*
X027131Y014714D01*
X027141Y014764D01*
X028864D01*
Y013708D01*
D02*
G37*
G36*
X024131Y014098D02*
X024209Y014038D01*
X0243Y014001D01*
X024398Y013988D01*
X026839D01*
X027377Y01345D01*
Y011834D01*
X02739Y011737D01*
X027404Y011704D01*
X027366Y011666D01*
X027341Y011676D01*
X027233Y01169D01*
X027233Y01169D01*
X026748D01*
X026648Y01179D01*
X026616Y011809D01*
Y011859D01*
X026648Y011877D01*
X026754Y011983D01*
X026829Y012113D01*
X026868Y012258D01*
Y012409D01*
X026829Y012554D01*
X026754Y012684D01*
X026648Y01279D01*
X026616Y012809D01*
Y012859D01*
X026648Y012877D01*
X026754Y012983D01*
X026829Y013113D01*
X026868Y013258D01*
Y013409D01*
X026829Y013554D01*
X026754Y013684D01*
X026648Y01379D01*
X026518Y013865D01*
X026372Y013904D01*
X026222D01*
X026077Y013865D01*
X025947Y01379D01*
X02584Y013684D01*
X025765Y013554D01*
X025726Y013409D01*
Y013258D01*
X025765Y013113D01*
X02584Y012983D01*
X025947Y012877D01*
X025978Y012859D01*
Y012809D01*
X025947Y01279D01*
X025872Y012716D01*
X024567D01*
X022417Y014866D01*
X02242Y01488D01*
Y015D01*
X022396Y015118D01*
X02235Y015229D01*
X022316Y01528D01*
X022343Y01533D01*
X0229D01*
X024131Y014098D01*
D02*
G37*
G36*
X028026Y018929D02*
Y017861D01*
X028039Y017763D01*
X028077Y017672D01*
X028137Y017594D01*
X028321Y017409D01*
X028399Y017349D01*
X02849Y017312D01*
X028588Y017299D01*
X028867D01*
X028947Y017219D01*
X028978Y017201D01*
Y017151D01*
X028947Y017133D01*
X02884Y017027D01*
X028765Y016896D01*
X028726Y016751D01*
Y016601D01*
X028765Y016456D01*
X02884Y016326D01*
X028947Y016219D01*
X029077Y016144D01*
X029222Y016105D01*
X029372D01*
X029518Y016144D01*
X029648Y016219D01*
X029754Y016326D01*
X029829Y016456D01*
X029868Y016601D01*
Y016751D01*
X029829Y016896D01*
X029754Y017027D01*
X029648Y017133D01*
X029616Y017151D01*
Y017201D01*
X029648Y017219D01*
X029754Y017326D01*
X029829Y017456D01*
X029868Y017601D01*
Y017751D01*
X029829Y017896D01*
X029754Y018027D01*
X029648Y018133D01*
X029616Y018151D01*
Y018201D01*
X029648Y018219D01*
X029748Y018319D01*
X030014D01*
Y010649D01*
X030031Y010516D01*
X030053Y010464D01*
Y009397D01*
X02842D01*
X028369Y009448D01*
Y010555D01*
X028369Y010555D01*
X028354Y010663D01*
X028313Y010763D01*
X028246Y01085D01*
X028172Y010925D01*
X028195Y010972D01*
X028247Y010965D01*
X028858D01*
X028947Y010877D01*
X028951Y010844D01*
X028726Y010619D01*
Y010048D01*
X029012Y009763D01*
X029583D01*
X029868Y010048D01*
Y010619D01*
X029643Y010844D01*
X029648Y010877D01*
X029754Y010983D01*
X029829Y011113D01*
X029868Y011258D01*
Y011409D01*
X029829Y011554D01*
X029754Y011684D01*
X029648Y01179D01*
X029616Y011809D01*
Y011859D01*
X029648Y011877D01*
X029754Y011983D01*
X029829Y012113D01*
X029868Y012258D01*
Y012409D01*
X029829Y012554D01*
X029754Y012684D01*
X029648Y01279D01*
X029616Y012809D01*
Y012859D01*
X029648Y012877D01*
X029754Y012983D01*
X029829Y013113D01*
X029868Y013258D01*
Y013409D01*
X029829Y013554D01*
X029754Y013684D01*
X029698Y01374D01*
Y01495D01*
X029698Y01495D01*
X029684Y015058D01*
X029642Y015159D01*
X029576Y015245D01*
X029345Y015476D01*
X029259Y015542D01*
X029158Y015584D01*
X02905Y015598D01*
X02905Y015598D01*
X027278D01*
X026714Y016161D01*
Y016286D01*
X026754Y016326D01*
X026829Y016456D01*
X026868Y016601D01*
Y016751D01*
X026829Y016896D01*
X026754Y017027D01*
X026648Y017133D01*
X026616Y017151D01*
Y017201D01*
X026648Y017219D01*
X026754Y017326D01*
X026829Y017456D01*
X026868Y017601D01*
Y017751D01*
X026829Y017896D01*
X026754Y018027D01*
X026648Y018133D01*
X026616Y018151D01*
Y018201D01*
X026648Y018219D01*
X026727Y018299D01*
X027183D01*
X027281Y018312D01*
X027372Y018349D01*
X02745Y018409D01*
X027942Y018901D01*
X027976Y018946D01*
X028026Y018929D01*
D02*
G37*
D13*
X029683Y044499D02*
Y045469D01*
X029177Y045975D02*
X029683Y045469D01*
X03563Y048832D02*
X037654D01*
X037656Y048834D01*
X035628Y04883D02*
X03563Y048832D01*
X024171Y045975D02*
X029177D01*
X029261Y028695D02*
X029316Y02864D01*
X029261Y028656D02*
Y028695D01*
X029256Y0287D02*
X029261Y028695D01*
Y030256D01*
X02903Y030487D02*
X029261Y030256D01*
X027085Y030487D02*
X02903D01*
X026277Y031295D02*
X027085Y030487D01*
X026277Y031295D02*
Y031982D01*
X028266Y024286D02*
X030318D01*
X02797Y024582D02*
X028266Y024286D01*
X02797Y024582D02*
Y025861D01*
X027252Y026579D02*
X02797Y025861D01*
X026376Y026579D02*
X027252D01*
X026316Y02664D02*
X026376Y026579D01*
X030549Y020355D02*
X030569Y020334D01*
X031042Y020807D01*
X033251D01*
X030318Y024286D02*
X030549Y024517D01*
Y025995D02*
X030588Y025956D01*
X031272Y02664D01*
X031991D01*
Y031295D02*
X032798Y030487D01*
X031991Y031295D02*
Y031982D01*
X029277Y033982D02*
X029337Y034043D01*
X030153D01*
X034974Y028695D02*
X03503Y02864D01*
X034974Y028695D02*
Y030256D01*
X034744Y030487D02*
X034974Y030256D01*
X032798Y030487D02*
X034744D01*
X034942Y03403D02*
X034991Y033982D01*
X030153Y034043D02*
X030549Y034438D01*
X028247Y00898D02*
X030463D01*
X030569Y009086D01*
X030569Y010649D02*
X031253Y011334D01*
X031972D01*
X029281Y013389D02*
X029337Y013334D01*
X029281Y01335D02*
Y013389D01*
X029276Y013394D02*
X029281Y013389D01*
Y01495D01*
X02905Y015181D02*
X029281Y01495D01*
X027105Y015181D02*
X02905D01*
X026297Y015989D02*
X027105Y015181D01*
X026297Y015989D02*
Y016676D01*
X02632Y016653D01*
X031994Y015966D02*
X032802Y015158D01*
X031994Y015966D02*
Y016653D01*
X031972Y016676D02*
X031994Y016653D01*
X029358Y018736D02*
X030318D01*
X03053Y018948D01*
X030549Y018967D01*
X034972Y013334D02*
X034978D01*
Y014928D01*
X034747Y015158D02*
X034978Y014928D01*
X032802Y015158D02*
X034747D01*
X034054Y018724D02*
X034963D01*
X03366Y019118D02*
X034054Y018724D01*
X03366Y019118D02*
Y020397D01*
X033251Y020807D02*
X03366Y020397D01*
X027952Y009275D02*
X028247Y00898D01*
X027952Y009275D02*
Y010555D01*
X027233Y011273D02*
X027952Y010555D01*
X026358Y011273D02*
X027233D01*
D17*
X018758Y043023D02*
Y043826D01*
X022892Y045286D02*
X027715D01*
X028207Y044794D01*
X028091Y044105D02*
X028207Y044221D01*
Y044794D01*
X025864Y044479D02*
X027675D01*
X025864Y043731D02*
X027675D01*
Y044105D02*
X028091D01*
X028699D02*
X02925D01*
X029644Y044499D01*
X029683D01*
X029673Y043721D02*
X029683Y043711D01*
X028699Y043731D02*
X028709Y043721D01*
X029673D01*
X024841Y044105D02*
X025864D01*
D19*
X029683Y043711D02*
D03*
Y044499D02*
D03*
X021612D02*
D03*
Y045286D02*
D03*
X024171Y046763D02*
D03*
Y045975D02*
D03*
X022892Y044499D02*
D03*
Y045286D02*
D03*
X017577Y044499D02*
D03*
Y045286D02*
D03*
X020726Y044499D02*
D03*
Y045286D02*
D03*
D36*
X019258Y045975D02*
Y048739D01*
X020037Y049519D02*
Y052865D01*
X019258Y048739D02*
X020037Y049519D01*
X018758Y045975D02*
Y052865D01*
X026278Y030211D02*
X027774Y028715D01*
X027037Y033982D02*
X027478Y034424D01*
X028621Y032982D02*
X029277D01*
X028266Y033337D02*
X028621Y032982D01*
X026277Y033982D02*
X027037D01*
X026296Y027659D02*
X026316Y02764D01*
X024447Y027659D02*
X026296D01*
X023895Y030211D02*
X026278D01*
X022846Y03126D02*
X023895Y030211D01*
X025433Y032982D02*
X026277D01*
X024722Y033693D02*
X025433Y032982D01*
X028364Y022268D02*
X028404Y022228D01*
X028364Y022268D02*
Y022318D01*
X028266Y026648D02*
X029307D01*
X027774Y027141D02*
X028266Y026648D01*
X027774Y027141D02*
Y028715D01*
X029307Y026648D02*
X029316Y02664D01*
X032852Y024286D02*
Y027274D01*
X032508Y027618D02*
X032852Y027274D01*
X032012Y027618D02*
X032508D01*
X031991Y02764D02*
X032012Y027618D01*
X031991Y032982D02*
X031991Y032982D01*
X021846Y03026D02*
X024447Y027659D01*
X024722Y033693D02*
Y037082D01*
X028266Y033337D02*
Y037869D01*
X027478Y034424D02*
Y038755D01*
X031974Y012334D02*
X032833Y011474D01*
X031972Y012334D02*
X031974D01*
X026292Y012339D02*
X026297Y012334D01*
X02441Y012339D02*
X026292D01*
X021809Y01494D02*
X02441Y012339D01*
X026283Y012319D02*
X026297Y012334D01*
X024398Y014365D02*
X026996D01*
X022808Y015955D02*
X024398Y014365D01*
X02503Y017669D02*
X026291D01*
X026297Y017676D01*
X024467Y018233D02*
X02503Y017669D01*
X024467Y018233D02*
Y021747D01*
X029289Y011342D02*
X029297Y011334D01*
X028247Y011342D02*
X029289D01*
X027675Y019168D02*
Y023076D01*
X028588Y017676D02*
X029297D01*
X028404Y017861D02*
X028588Y017676D01*
X026297Y018676D02*
X027183D01*
X027675Y019168D01*
X028404Y017861D02*
Y022228D01*
X032833Y008918D02*
Y011474D01*
X027755Y011834D02*
X028247Y011342D01*
X027755Y011834D02*
Y013606D01*
X026996Y014365D02*
X027755Y013606D01*
D37*
X021219Y0494D02*
Y049519D01*
X021238Y049538D01*
X021356D01*
X030549Y034438D02*
Y035641D01*
Y024517D02*
Y025995D01*
Y034438D01*
X035833Y028617D02*
X036179Y028963D01*
X034033Y03403D02*
X034942D01*
X03364Y034424D02*
X034033Y03403D01*
X03364Y034424D02*
Y035704D01*
X030549Y035641D02*
X031021Y036113D01*
X03323D02*
X03364Y035704D01*
X031021Y036113D02*
X03323D01*
X030569Y009086D02*
Y010649D01*
X030549Y018967D02*
Y020355D01*
X03053Y010649D02*
Y018948D01*
X030549Y020355D02*
Y024517D01*
X034972Y013334D02*
X034987Y013318D01*
X035833D01*
X036179Y013664D01*
Y028963D01*
X035013Y028617D02*
X035833D01*
X034991Y02864D02*
X035013Y028617D01*
X015608Y048337D02*
X016002D01*
X023285Y050601D02*
X024526D01*
X025313Y051389D01*
D38*
X040195Y042826D02*
D03*
X011691D02*
D03*
D39*
X040116Y00818D02*
D03*
X01177D02*
D03*
X040116Y052274D02*
D03*
X01177D02*
D03*
D40*
X034991Y034982D02*
D03*
Y033982D02*
D03*
Y032982D02*
D03*
Y031982D02*
D03*
X031991Y032982D02*
D03*
Y031982D02*
D03*
Y033982D02*
D03*
X026297Y010334D02*
D03*
Y011334D02*
D03*
Y012334D02*
D03*
Y013334D02*
D03*
X029297Y012334D02*
D03*
Y013334D02*
D03*
Y011334D02*
D03*
X018193Y016941D02*
D03*
X019193Y015941D02*
D03*
X026297Y018676D02*
D03*
Y016676D02*
D03*
Y017676D02*
D03*
X029297Y016676D02*
D03*
Y017676D02*
D03*
Y018676D02*
D03*
Y019676D02*
D03*
X029316Y02664D02*
D03*
Y02864D02*
D03*
Y02764D02*
D03*
X026316Y02864D02*
D03*
Y02764D02*
D03*
Y02664D02*
D03*
Y02564D02*
D03*
X034972Y011334D02*
D03*
Y013334D02*
D03*
Y012334D02*
D03*
X031972Y013334D02*
D03*
Y012334D02*
D03*
Y011334D02*
D03*
Y010334D02*
D03*
Y018676D02*
D03*
Y016676D02*
D03*
Y017676D02*
D03*
X034972Y016676D02*
D03*
Y017676D02*
D03*
Y018676D02*
D03*
Y019676D02*
D03*
X031991Y02564D02*
D03*
Y02664D02*
D03*
Y02764D02*
D03*
Y02864D02*
D03*
X034991Y02764D02*
D03*
Y02864D02*
D03*
Y02664D02*
D03*
X018186Y032274D02*
D03*
X019186Y031274D02*
D03*
X021846Y03026D02*
D03*
X020846Y03126D02*
D03*
X029277Y034982D02*
D03*
Y033982D02*
D03*
Y032982D02*
D03*
Y031982D02*
D03*
X026277Y032982D02*
D03*
Y031982D02*
D03*
Y033982D02*
D03*
D41*
X031991Y034982D02*
D03*
X029297Y010334D02*
D03*
X039033Y050404D02*
D03*
X039211Y024361D02*
D03*
X034604Y022648D02*
D03*
X03925Y032235D02*
D03*
Y016487D02*
D03*
X037715Y008613D02*
D03*
X025451Y007412D02*
D03*
X017193Y015941D02*
D03*
X026297Y019676D02*
D03*
X029316Y02564D02*
D03*
X034972Y010334D02*
D03*
X031972Y019676D02*
D03*
X034991Y02564D02*
D03*
X017186Y031274D02*
D03*
X022846Y03126D02*
D03*
X026277Y034982D02*
D03*
X025313Y049223D02*
D03*
X025313Y051389D02*
D03*
X037656Y051983D02*
D03*
Y048834D02*
D03*
D42*
X03925Y035778D02*
D03*
Y012156D02*
D03*
Y02003D02*
D03*
Y027904D02*
D03*
X012833Y012156D02*
D03*
Y02003D02*
D03*
Y027904D02*
D03*
Y035778D02*
D03*
D43*
X040825Y034204D02*
D03*
Y037353D02*
D03*
X037675D02*
D03*
Y034204D02*
D03*
Y010582D02*
D03*
Y013731D02*
D03*
X040825Y010582D02*
D03*
Y013731D02*
D03*
X037675Y018456D02*
D03*
Y021605D02*
D03*
X040825Y018456D02*
D03*
Y021605D02*
D03*
X037675Y02633D02*
D03*
Y029479D02*
D03*
X040825D02*
D03*
Y02633D02*
D03*
X014407Y013731D02*
D03*
Y010582D02*
D03*
X011258Y013731D02*
D03*
Y010582D02*
D03*
X014407Y021605D02*
D03*
Y018456D02*
D03*
X011258Y021605D02*
D03*
Y018456D02*
D03*
X014407Y029479D02*
D03*
Y02633D02*
D03*
X011258D02*
D03*
Y029479D02*
D03*
Y037353D02*
D03*
Y034204D02*
D03*
X014407D02*
D03*
Y037353D02*
D03*
D44*
X020809Y01594D02*
D03*
X021809Y01494D02*
D03*
D45*
X022809Y01594D02*
D03*
D46*
X035628Y051979D02*
D03*
X027341Y051389D02*
D03*
X02736Y049223D02*
D03*
X035628Y04883D02*
D03*
Y050404D02*
D03*
D47*
X023285Y048987D02*
D03*
Y052215D02*
D03*
D48*
Y049814D02*
D03*
Y050601D02*
D03*
Y051389D02*
D03*
D49*
X013719Y049322D02*
D03*
D50*
X015608Y0507D02*
D03*
Y048337D02*
D03*
D51*
X020037Y046369D02*
D03*
X024171Y047747D02*
D03*
X020037Y052865D02*
D03*
X018758D02*
D03*
X024467Y021747D02*
D03*
X032833Y008918D02*
D03*
X027675Y023076D02*
D03*
X028364Y022318D02*
D03*
X032852Y024286D02*
D03*
X028266Y037869D02*
D03*
X024722Y037082D02*
D03*
X027478Y038755D02*
D03*
D52*
X021219Y047668D02*
D03*
D53*
Y0494D02*
D03*
D54*
X020037Y042432D02*
D03*
X01925D02*
D03*
D55*
X019758Y045975D02*
D03*
X019258D02*
D03*
X018758D02*
D03*
X018258D02*
D03*
Y043826D02*
D03*
X018758D02*
D03*
X019258D02*
D03*
X019758D02*
D03*
D56*
X022695Y046834D02*
D03*
X023055Y047676D02*
D03*
X022335D02*
D03*
D57*
X028699Y044105D02*
D03*
Y043731D02*
D03*
Y044479D02*
D03*
X027675D02*
D03*
Y044105D02*
D03*
Y043731D02*
D03*
X025864Y044105D02*
D03*
Y043731D02*
D03*
Y044479D02*
D03*
X024841D02*
D03*
Y044105D02*
D03*
Y043731D02*
D03*
D58*
X01925Y042432D02*
Y043819D01*
M02*
