G04*
G04 #@! TF.GenerationSoftware,Altium Limited,Altium Designer,21.3.2 (30)*
G04*
G04 Layer_Color=16711935*
%FSTAX24Y24*%
%MOIN*%
G70*
G04*
G04 #@! TF.SameCoordinates,D50E3B47-D74C-4BCA-B3C4-33FD4FEC1BCA*
G04*
G04*
G04 #@! TF.FilePolarity,Negative*
G04*
G01*
G75*
G04:AMPARAMS|DCode=21|XSize=43.3mil|YSize=51.2mil|CornerRadius=11.8mil|HoleSize=0mil|Usage=FLASHONLY|Rotation=90.000|XOffset=0mil|YOffset=0mil|HoleType=Round|Shape=RoundedRectangle|*
%AMROUNDEDRECTD21*
21,1,0.0433,0.0276,0,0,90.0*
21,1,0.0197,0.0512,0,0,90.0*
1,1,0.0236,0.0138,0.0098*
1,1,0.0236,0.0138,-0.0098*
1,1,0.0236,-0.0138,-0.0098*
1,1,0.0236,-0.0138,0.0098*
%
%ADD21ROUNDEDRECTD21*%
%ADD22O,0.1064X0.1340*%
%ADD23C,0.2283*%
%ADD24C,0.0789*%
%ADD25P,0.0854X8X22.5*%
%ADD26C,0.1064*%
%ADD27C,0.1261*%
%ADD28C,0.0867*%
%ADD29R,0.0867X0.0867*%
%ADD30C,0.0907*%
%ADD31O,0.0671X0.0474*%
%ADD32O,0.0867X0.0710*%
%ADD33O,0.1261X0.2049*%
%ADD34O,0.2049X0.1261*%
%ADD35C,0.0580*%
G04:AMPARAMS|DCode=59|XSize=45.3mil|YSize=53.1mil|CornerRadius=12.8mil|HoleSize=0mil|Usage=FLASHONLY|Rotation=90.000|XOffset=0mil|YOffset=0mil|HoleType=Round|Shape=RoundedRectangle|*
%AMROUNDEDRECTD59*
21,1,0.0453,0.0276,0,0,90.0*
21,1,0.0197,0.0531,0,0,90.0*
1,1,0.0256,0.0138,0.0098*
1,1,0.0256,0.0138,-0.0098*
1,1,0.0256,-0.0138,-0.0098*
1,1,0.0256,-0.0138,0.0098*
%
%ADD59ROUNDEDRECTD59*%
%ADD60R,0.0710X0.0946*%
G04:AMPARAMS|DCode=61|XSize=71mil|YSize=94.6mil|CornerRadius=19.7mil|HoleSize=0mil|Usage=FLASHONLY|Rotation=0.000|XOffset=0mil|YOffset=0mil|HoleType=Round|Shape=RoundedRectangle|*
%AMROUNDEDRECTD61*
21,1,0.0710,0.0551,0,0,0.0*
21,1,0.0315,0.0946,0,0,0.0*
1,1,0.0395,0.0157,-0.0276*
1,1,0.0395,-0.0157,-0.0276*
1,1,0.0395,-0.0157,0.0276*
1,1,0.0395,0.0157,0.0276*
%
%ADD61ROUNDEDRECTD61*%
G04:AMPARAMS|DCode=62|XSize=43.3mil|YSize=51.2mil|CornerRadius=11.8mil|HoleSize=0mil|Usage=FLASHONLY|Rotation=180.000|XOffset=0mil|YOffset=0mil|HoleType=Round|Shape=RoundedRectangle|*
%AMROUNDEDRECTD62*
21,1,0.0433,0.0276,0,0,180.0*
21,1,0.0197,0.0512,0,0,180.0*
1,1,0.0236,-0.0098,0.0138*
1,1,0.0236,0.0098,0.0138*
1,1,0.0236,0.0098,-0.0138*
1,1,0.0236,-0.0098,-0.0138*
%
%ADD62ROUNDEDRECTD62*%
G04:AMPARAMS|DCode=63|XSize=78.9mil|YSize=31.6mil|CornerRadius=7mil|HoleSize=0mil|Usage=FLASHONLY|Rotation=90.000|XOffset=0mil|YOffset=0mil|HoleType=Round|Shape=RoundedRectangle|*
%AMROUNDEDRECTD63*
21,1,0.0789,0.0177,0,0,90.0*
21,1,0.0650,0.0316,0,0,90.0*
1,1,0.0139,0.0089,0.0325*
1,1,0.0139,0.0089,-0.0325*
1,1,0.0139,-0.0089,-0.0325*
1,1,0.0139,-0.0089,0.0325*
%
%ADD63ROUNDEDRECTD63*%
G04:AMPARAMS|DCode=64|XSize=50.9mil|YSize=32mil|CornerRadius=10mil|HoleSize=0mil|Usage=FLASHONLY|Rotation=270.000|XOffset=0mil|YOffset=0mil|HoleType=Round|Shape=RoundedRectangle|*
%AMROUNDEDRECTD64*
21,1,0.0509,0.0120,0,0,270.0*
21,1,0.0309,0.0320,0,0,270.0*
1,1,0.0200,-0.0060,-0.0155*
1,1,0.0200,-0.0060,0.0155*
1,1,0.0200,0.0060,0.0155*
1,1,0.0200,0.0060,-0.0155*
%
%ADD64ROUNDEDRECTD64*%
G04:AMPARAMS|DCode=65|XSize=29.7mil|YSize=55.2mil|CornerRadius=9.4mil|HoleSize=0mil|Usage=FLASHONLY|Rotation=90.000|XOffset=0mil|YOffset=0mil|HoleType=Round|Shape=RoundedRectangle|*
%AMROUNDEDRECTD65*
21,1,0.0297,0.0364,0,0,90.0*
21,1,0.0108,0.0552,0,0,90.0*
1,1,0.0188,0.0182,0.0054*
1,1,0.0188,0.0182,-0.0054*
1,1,0.0188,-0.0182,-0.0054*
1,1,0.0188,-0.0182,0.0054*
%
%ADD65ROUNDEDRECTD65*%
D21*
X021612Y044499D02*
D03*
Y045286D02*
D03*
X024171Y046763D02*
D03*
Y045975D02*
D03*
X022892Y044499D02*
D03*
Y045286D02*
D03*
D22*
X040195Y042826D02*
D03*
X011691D02*
D03*
D23*
X040116Y00818D02*
D03*
X01177D02*
D03*
X040116Y052274D02*
D03*
X01177D02*
D03*
D24*
X034991Y034982D02*
D03*
Y033982D02*
D03*
Y032982D02*
D03*
Y031982D02*
D03*
X031991Y032982D02*
D03*
Y031982D02*
D03*
Y033982D02*
D03*
X026297Y010334D02*
D03*
Y011334D02*
D03*
Y012334D02*
D03*
Y013334D02*
D03*
X029297Y012334D02*
D03*
Y013334D02*
D03*
Y011334D02*
D03*
X018193Y016941D02*
D03*
X019193Y015941D02*
D03*
X026297Y018676D02*
D03*
Y016676D02*
D03*
Y017676D02*
D03*
X029297Y016676D02*
D03*
Y017676D02*
D03*
Y018676D02*
D03*
Y019676D02*
D03*
X029316Y02664D02*
D03*
Y02864D02*
D03*
Y02764D02*
D03*
X026316Y02864D02*
D03*
Y02764D02*
D03*
Y02664D02*
D03*
Y02564D02*
D03*
X034972Y011334D02*
D03*
Y013334D02*
D03*
Y012334D02*
D03*
X031972Y013334D02*
D03*
Y012334D02*
D03*
Y011334D02*
D03*
Y010334D02*
D03*
Y018676D02*
D03*
Y016676D02*
D03*
Y017676D02*
D03*
X034972Y016676D02*
D03*
Y017676D02*
D03*
Y018676D02*
D03*
Y019676D02*
D03*
X031991Y02564D02*
D03*
Y02664D02*
D03*
Y02764D02*
D03*
Y02864D02*
D03*
X034991Y02764D02*
D03*
Y02864D02*
D03*
Y02664D02*
D03*
X018186Y032274D02*
D03*
X019186Y031274D02*
D03*
X021846Y03026D02*
D03*
X020846Y03126D02*
D03*
X029277Y034982D02*
D03*
Y033982D02*
D03*
Y032982D02*
D03*
Y031982D02*
D03*
X026277Y032982D02*
D03*
Y031982D02*
D03*
Y033982D02*
D03*
D25*
X031991Y034982D02*
D03*
X029297Y010334D02*
D03*
X039033Y050404D02*
D03*
X039211Y024361D02*
D03*
X034604Y022648D02*
D03*
X03925Y032235D02*
D03*
Y016487D02*
D03*
X037715Y008613D02*
D03*
X025451Y007412D02*
D03*
X017193Y015941D02*
D03*
X026297Y019676D02*
D03*
X029316Y02564D02*
D03*
X034972Y010334D02*
D03*
X031972Y019676D02*
D03*
X034991Y02564D02*
D03*
X017186Y031274D02*
D03*
X022846Y03126D02*
D03*
X026277Y034982D02*
D03*
X025313Y049223D02*
D03*
X025313Y051389D02*
D03*
X037656Y051983D02*
D03*
Y048834D02*
D03*
D26*
X03925Y035778D02*
D03*
Y012156D02*
D03*
Y02003D02*
D03*
Y027904D02*
D03*
X012833Y012156D02*
D03*
Y02003D02*
D03*
Y027904D02*
D03*
Y035778D02*
D03*
D27*
X040825Y034204D02*
D03*
Y037353D02*
D03*
X037675D02*
D03*
Y034204D02*
D03*
Y010582D02*
D03*
Y013731D02*
D03*
X040825Y010582D02*
D03*
Y013731D02*
D03*
X037675Y018456D02*
D03*
Y021605D02*
D03*
X040825Y018456D02*
D03*
Y021605D02*
D03*
X037675Y02633D02*
D03*
Y029479D02*
D03*
X040825D02*
D03*
Y02633D02*
D03*
X014407Y013731D02*
D03*
Y010582D02*
D03*
X011258Y013731D02*
D03*
Y010582D02*
D03*
X014407Y021605D02*
D03*
Y018456D02*
D03*
X011258Y021605D02*
D03*
Y018456D02*
D03*
X014407Y029479D02*
D03*
Y02633D02*
D03*
X011258D02*
D03*
Y029479D02*
D03*
Y037353D02*
D03*
Y034204D02*
D03*
X014407D02*
D03*
Y037353D02*
D03*
D28*
X020809Y01594D02*
D03*
X021809Y01494D02*
D03*
D29*
X022809Y01594D02*
D03*
D30*
X035628Y051979D02*
D03*
X027341Y051389D02*
D03*
X02736Y049223D02*
D03*
X035628Y04883D02*
D03*
Y050404D02*
D03*
D31*
X023285Y048987D02*
D03*
Y052215D02*
D03*
D32*
Y049814D02*
D03*
Y050601D02*
D03*
Y051389D02*
D03*
D33*
X013719Y049322D02*
D03*
D34*
X015608Y0507D02*
D03*
Y048337D02*
D03*
D35*
X020037Y046369D02*
D03*
X024171Y047747D02*
D03*
X020037Y052865D02*
D03*
X018758D02*
D03*
X024467Y021747D02*
D03*
X032833Y008918D02*
D03*
X027675Y023076D02*
D03*
X028364Y022318D02*
D03*
X032852Y024286D02*
D03*
X028266Y037869D02*
D03*
X024722Y037082D02*
D03*
X027478Y038755D02*
D03*
D59*
X029683Y043711D02*
D03*
Y044499D02*
D03*
X017577D02*
D03*
Y045286D02*
D03*
X020726Y044499D02*
D03*
Y045286D02*
D03*
D60*
X021219Y047668D02*
D03*
D61*
Y0494D02*
D03*
D62*
X020037Y042432D02*
D03*
X01925D02*
D03*
D63*
X019758Y045975D02*
D03*
X019258D02*
D03*
X018758D02*
D03*
X018258D02*
D03*
Y043826D02*
D03*
X018758D02*
D03*
X019258D02*
D03*
X019758D02*
D03*
D64*
X022695Y046834D02*
D03*
X023055Y047676D02*
D03*
X022335D02*
D03*
D65*
X028699Y044105D02*
D03*
Y043731D02*
D03*
Y044479D02*
D03*
X027675D02*
D03*
Y044105D02*
D03*
Y043731D02*
D03*
X025864Y044105D02*
D03*
Y043731D02*
D03*
Y044479D02*
D03*
X024841D02*
D03*
Y044105D02*
D03*
Y043731D02*
D03*
M02*
