G04*
G04 #@! TF.GenerationSoftware,Altium Limited,Altium Designer,21.3.2 (30)*
G04*
G04 Layer_Color=2752767*
%FSTAX24Y24*%
%MOIN*%
G70*
G04*
G04 #@! TF.SameCoordinates,D50E3B47-D74C-4BCA-B3C4-33FD4FEC1BCA*
G04*
G04*
G04 #@! TF.FilePolarity,Positive*
G04*
G01*
G75*
%ADD74C,0.0020*%
%ADD75C,0.0027*%
%ADD76C,0.0013*%
D74*
X040115Y042746D02*
Y042906D01*
X040275D01*
Y042746D01*
X040115D01*
X011611D02*
Y042906D01*
X011771D01*
Y042746D01*
X011611D01*
X034991Y034902D02*
X034911Y035062D01*
X035071D01*
X034991Y034902D01*
Y033902D02*
X034911Y034062D01*
X035071D01*
X034991Y033902D01*
Y032902D02*
X034911Y033062D01*
X035071D01*
X034991Y032902D01*
Y031902D02*
X034911Y032062D01*
X035071D01*
X034991Y031902D01*
X031991Y032902D02*
X031911Y033062D01*
X032071D01*
X031991Y032902D01*
Y031902D02*
X031911Y032062D01*
X032071D01*
X031991Y031902D01*
Y034902D02*
X031911Y035062D01*
X032071D01*
X031991Y034902D01*
Y033902D02*
X031911Y034062D01*
X032071D01*
X031991Y033902D01*
X03925Y035698D02*
X03929Y035738D01*
X03933D01*
X03929Y035778D01*
X03933Y035818D01*
X03929D01*
X03925Y035858D01*
X03921Y035818D01*
X03917D01*
X03921Y035778D01*
X03917Y035738D01*
X03921D01*
X03925Y035698D01*
X040745Y034124D02*
X040785Y034204D01*
X040745Y034284D01*
X040825Y034244D01*
X040905Y034284D01*
X040865Y034204D01*
X040905Y034124D01*
X040825Y034164D01*
X040745Y034124D01*
Y037273D02*
X040785Y037353D01*
X040745Y037433D01*
X040825Y037393D01*
X040905Y037433D01*
X040865Y037353D01*
X040905Y037273D01*
X040825Y037313D01*
X040745Y037273D01*
X037595D02*
X037635Y037353D01*
X037595Y037433D01*
X037675Y037393D01*
X037755Y037433D01*
X037715Y037353D01*
X037755Y037273D01*
X037675Y037313D01*
X037595Y037273D01*
Y034124D02*
X037635Y034204D01*
X037595Y034284D01*
X037675Y034244D01*
X037755Y034284D01*
X037715Y034204D01*
X037755Y034124D01*
X037675Y034164D01*
X037595Y034124D01*
X026297Y010254D02*
X026217Y010414D01*
X026377D01*
X026297Y010254D01*
Y011254D02*
X026217Y011414D01*
X026377D01*
X026297Y011254D01*
Y012254D02*
X026217Y012414D01*
X026377D01*
X026297Y012254D01*
Y013254D02*
X026217Y013414D01*
X026377D01*
X026297Y013254D01*
X029297Y012254D02*
X029217Y012414D01*
X029377D01*
X029297Y012254D01*
Y013254D02*
X029217Y013414D01*
X029377D01*
X029297Y013254D01*
Y010254D02*
X029217Y010414D01*
X029377D01*
X029297Y010254D01*
Y011254D02*
X029217Y011414D01*
X029377D01*
X029297Y011254D01*
X038993Y050364D02*
Y050324D01*
X039073D01*
Y050364D01*
X039113D01*
Y050444D01*
X039073D01*
Y050484D01*
X038993D01*
Y050444D01*
X038953D01*
Y050364D01*
X038993D01*
X039171Y024321D02*
Y024281D01*
X039251D01*
Y024321D01*
X039291D01*
Y024401D01*
X039251D01*
Y024441D01*
X039171D01*
Y024401D01*
X039131D01*
Y024321D01*
X039171D01*
X034564Y022608D02*
Y022569D01*
X034644D01*
Y022608D01*
X034684D01*
Y022689D01*
X034644D01*
Y022729D01*
X034564D01*
Y022689D01*
X034524D01*
Y022608D01*
X034564D01*
X03925Y012076D02*
X03929Y012116D01*
X03933D01*
X03929Y012156D01*
X03933Y012196D01*
X03929D01*
X03925Y012236D01*
X03921Y012196D01*
X03917D01*
X03921Y012156D01*
X03917Y012116D01*
X03921D01*
X03925Y012076D01*
X037595Y010502D02*
X037635Y010582D01*
X037595Y010662D01*
X037675Y010622D01*
X037755Y010662D01*
X037715Y010582D01*
X037755Y010502D01*
X037675Y010542D01*
X037595Y010502D01*
Y013651D02*
X037635Y013731D01*
X037595Y013811D01*
X037675Y013771D01*
X037755Y013811D01*
X037715Y013731D01*
X037755Y013651D01*
X037675Y013691D01*
X037595Y013651D01*
X040745Y010502D02*
X040785Y010582D01*
X040745Y010662D01*
X040825Y010622D01*
X040905Y010662D01*
X040865Y010582D01*
X040905Y010502D01*
X040825Y010542D01*
X040745Y010502D01*
Y013651D02*
X040785Y013731D01*
X040745Y013811D01*
X040825Y013771D01*
X040905Y013811D01*
X040865Y013731D01*
X040905Y013651D01*
X040825Y013691D01*
X040745Y013651D01*
X03921Y032195D02*
Y032155D01*
X03929D01*
Y032195D01*
X03933D01*
Y032275D01*
X03929D01*
Y032315D01*
X03921D01*
Y032275D01*
X03917D01*
Y032195D01*
X03921D01*
Y016447D02*
Y016407D01*
X03929D01*
Y016447D01*
X03933D01*
Y016527D01*
X03929D01*
Y016567D01*
X03921D01*
Y016527D01*
X03917D01*
Y016447D01*
X03921D01*
X03925Y01995D02*
X03929Y01999D01*
X03933D01*
X03929Y02003D01*
X03933Y02007D01*
X03929D01*
X03925Y02011D01*
X03921Y02007D01*
X03917D01*
X03921Y02003D01*
X03917Y01999D01*
X03921D01*
X03925Y01995D01*
X037595Y018376D02*
X037635Y018456D01*
X037595Y018536D01*
X037675Y018496D01*
X037755Y018536D01*
X037715Y018456D01*
X037755Y018376D01*
X037675Y018416D01*
X037595Y018376D01*
Y021525D02*
X037635Y021605D01*
X037595Y021685D01*
X037675Y021645D01*
X037755Y021685D01*
X037715Y021605D01*
X037755Y021525D01*
X037675Y021565D01*
X037595Y021525D01*
X040745Y018376D02*
X040785Y018456D01*
X040745Y018536D01*
X040825Y018496D01*
X040905Y018536D01*
X040865Y018456D01*
X040905Y018376D01*
X040825Y018416D01*
X040745Y018376D01*
Y021525D02*
X040785Y021605D01*
X040745Y021685D01*
X040825Y021645D01*
X040905Y021685D01*
X040865Y021605D01*
X040905Y021525D01*
X040825Y021565D01*
X040745Y021525D01*
X037595Y02625D02*
X037635Y02633D01*
X037595Y02641D01*
X037675Y02637D01*
X037755Y02641D01*
X037715Y02633D01*
X037755Y02625D01*
X037675Y02629D01*
X037595Y02625D01*
Y029399D02*
X037635Y029479D01*
X037595Y029559D01*
X037675Y029519D01*
X037755Y029559D01*
X037715Y029479D01*
X037755Y029399D01*
X037675Y029439D01*
X037595Y029399D01*
X040745D02*
X040785Y029479D01*
X040745Y029559D01*
X040825Y029519D01*
X040905Y029559D01*
X040865Y029479D01*
X040905Y029399D01*
X040825Y029439D01*
X040745Y029399D01*
Y02625D02*
X040785Y02633D01*
X040745Y02641D01*
X040825Y02637D01*
X040905Y02641D01*
X040865Y02633D01*
X040905Y02625D01*
X040825Y02629D01*
X040745Y02625D01*
X03925Y027824D02*
X03929Y027864D01*
X03933D01*
X03929Y027904D01*
X03933Y027944D01*
X03929D01*
X03925Y027984D01*
X03921Y027944D01*
X03917D01*
X03921Y027904D01*
X03917Y027864D01*
X03921D01*
X03925Y027824D01*
X037675Y008573D02*
Y008533D01*
X037755D01*
Y008573D01*
X037795D01*
Y008653D01*
X037755D01*
Y008693D01*
X037675D01*
Y008653D01*
X037635D01*
Y008573D01*
X037675D01*
X025411Y007372D02*
Y007332D01*
X025491D01*
Y007372D01*
X025531D01*
Y007452D01*
X025491D01*
Y007492D01*
X025411D01*
Y007452D01*
X025371D01*
Y007372D01*
X025411D01*
X020809Y01586D02*
X020729Y01602D01*
X020889D01*
X020809Y01586D01*
X021809Y01486D02*
X021729Y01502D01*
X021889D01*
X021809Y01486D01*
X022809Y01586D02*
X022729Y01602D01*
X022889D01*
X022809Y01586D01*
X012833Y012076D02*
X012873Y012116D01*
X012913D01*
X012873Y012156D01*
X012913Y012196D01*
X012873D01*
X012833Y012236D01*
X012793Y012196D01*
X012753D01*
X012793Y012156D01*
X012753Y012116D01*
X012793D01*
X012833Y012076D01*
X014327Y013651D02*
X014367Y013731D01*
X014327Y013811D01*
X014407Y013771D01*
X014487Y013811D01*
X014447Y013731D01*
X014487Y013651D01*
X014407Y013691D01*
X014327Y013651D01*
Y010502D02*
X014367Y010582D01*
X014327Y010662D01*
X014407Y010622D01*
X014487Y010662D01*
X014447Y010582D01*
X014487Y010502D01*
X014407Y010542D01*
X014327Y010502D01*
X011178Y013651D02*
X011218Y013731D01*
X011178Y013811D01*
X011258Y013771D01*
X011338Y013811D01*
X011298Y013731D01*
X011338Y013651D01*
X011258Y013691D01*
X011178Y013651D01*
Y010502D02*
X011218Y010582D01*
X011178Y010662D01*
X011258Y010622D01*
X011338Y010662D01*
X011298Y010582D01*
X011338Y010502D01*
X011258Y010542D01*
X011178Y010502D01*
X017193Y015861D02*
X017113Y016021D01*
X017273D01*
X017193Y015861D01*
X018193Y016861D02*
X018113Y017021D01*
X018273D01*
X018193Y016861D01*
X019193Y015861D02*
X019113Y016021D01*
X019273D01*
X019193Y015861D01*
X026297Y018596D02*
X026217Y018756D01*
X026377D01*
X026297Y018596D01*
Y019596D02*
X026217Y019756D01*
X026377D01*
X026297Y019596D01*
Y016596D02*
X026217Y016756D01*
X026377D01*
X026297Y016596D01*
Y017596D02*
X026217Y017756D01*
X026377D01*
X026297Y017596D01*
X029297Y016596D02*
X029217Y016756D01*
X029377D01*
X029297Y016596D01*
Y017596D02*
X029217Y017756D01*
X029377D01*
X029297Y017596D01*
Y018596D02*
X029217Y018756D01*
X029377D01*
X029297Y018596D01*
Y019596D02*
X029217Y019756D01*
X029377D01*
X029297Y019596D01*
X012833Y01995D02*
X012873Y01999D01*
X012913D01*
X012873Y02003D01*
X012913Y02007D01*
X012873D01*
X012833Y02011D01*
X012793Y02007D01*
X012753D01*
X012793Y02003D01*
X012753Y01999D01*
X012793D01*
X012833Y01995D01*
X014327Y021525D02*
X014367Y021605D01*
X014327Y021685D01*
X014407Y021645D01*
X014487Y021685D01*
X014447Y021605D01*
X014487Y021525D01*
X014407Y021565D01*
X014327Y021525D01*
Y018376D02*
X014367Y018456D01*
X014327Y018536D01*
X014407Y018496D01*
X014487Y018536D01*
X014447Y018456D01*
X014487Y018376D01*
X014407Y018416D01*
X014327Y018376D01*
X011178Y021525D02*
X011218Y021605D01*
X011178Y021685D01*
X011258Y021645D01*
X011338Y021685D01*
X011298Y021605D01*
X011338Y021525D01*
X011258Y021565D01*
X011178Y021525D01*
Y018376D02*
X011218Y018456D01*
X011178Y018536D01*
X011258Y018496D01*
X011338Y018536D01*
X011298Y018456D01*
X011338Y018376D01*
X011258Y018416D01*
X011178Y018376D01*
X029316Y02656D02*
X029236Y02672D01*
X029396D01*
X029316Y02656D01*
Y02556D02*
X029236Y02572D01*
X029396D01*
X029316Y02556D01*
Y02856D02*
X029236Y02872D01*
X029396D01*
X029316Y02856D01*
Y02756D02*
X029236Y02772D01*
X029396D01*
X029316Y02756D01*
X026316Y02856D02*
X026236Y02872D01*
X026396D01*
X026316Y02856D01*
Y02756D02*
X026236Y02772D01*
X026396D01*
X026316Y02756D01*
Y02656D02*
X026236Y02672D01*
X026396D01*
X026316Y02656D01*
Y02556D02*
X026236Y02572D01*
X026396D01*
X026316Y02556D01*
X014327Y029399D02*
X014367Y029479D01*
X014327Y029559D01*
X014407Y029519D01*
X014487Y029559D01*
X014447Y029479D01*
X014487Y029399D01*
X014407Y029439D01*
X014327Y029399D01*
Y02625D02*
X014367Y02633D01*
X014327Y02641D01*
X014407Y02637D01*
X014487Y02641D01*
X014447Y02633D01*
X014487Y02625D01*
X014407Y02629D01*
X014327Y02625D01*
X011178D02*
X011218Y02633D01*
X011178Y02641D01*
X011258Y02637D01*
X011338Y02641D01*
X011298Y02633D01*
X011338Y02625D01*
X011258Y02629D01*
X011178Y02625D01*
Y029399D02*
X011218Y029479D01*
X011178Y029559D01*
X011258Y029519D01*
X011338Y029559D01*
X011298Y029479D01*
X011338Y029399D01*
X011258Y029439D01*
X011178Y029399D01*
X012833Y027824D02*
X012873Y027864D01*
X012913D01*
X012873Y027904D01*
X012913Y027944D01*
X012873D01*
X012833Y027984D01*
X012793Y027944D01*
X012753D01*
X012793Y027904D01*
X012753Y027864D01*
X012793D01*
X012833Y027824D01*
X034972Y011254D02*
X034892Y011414D01*
X035052D01*
X034972Y011254D01*
Y010254D02*
X034892Y010414D01*
X035052D01*
X034972Y010254D01*
Y013254D02*
X034892Y013414D01*
X035052D01*
X034972Y013254D01*
Y012254D02*
X034892Y012414D01*
X035052D01*
X034972Y012254D01*
X031972Y013254D02*
X031892Y013414D01*
X032052D01*
X031972Y013254D01*
Y012254D02*
X031892Y012414D01*
X032052D01*
X031972Y012254D01*
Y011254D02*
X031892Y011414D01*
X032052D01*
X031972Y011254D01*
Y010254D02*
X031892Y010414D01*
X032052D01*
X031972Y010254D01*
Y018596D02*
X031892Y018756D01*
X032052D01*
X031972Y018596D01*
Y019596D02*
X031892Y019756D01*
X032052D01*
X031972Y019596D01*
Y016596D02*
X031892Y016756D01*
X032052D01*
X031972Y016596D01*
Y017596D02*
X031892Y017756D01*
X032052D01*
X031972Y017596D01*
X034972Y016596D02*
X034892Y016756D01*
X035052D01*
X034972Y016596D01*
Y017596D02*
X034892Y017756D01*
X035052D01*
X034972Y017596D01*
Y018596D02*
X034892Y018756D01*
X035052D01*
X034972Y018596D01*
Y019596D02*
X034892Y019756D01*
X035052D01*
X034972Y019596D01*
X031991Y02556D02*
X031911Y02572D01*
X032071D01*
X031991Y02556D01*
Y02656D02*
X031911Y02672D01*
X032071D01*
X031991Y02656D01*
Y02756D02*
X031911Y02772D01*
X032071D01*
X031991Y02756D01*
Y02856D02*
X031911Y02872D01*
X032071D01*
X031991Y02856D01*
X034991Y02756D02*
X034911Y02772D01*
X035071D01*
X034991Y02756D01*
Y02856D02*
X034911Y02872D01*
X035071D01*
X034991Y02856D01*
Y02556D02*
X034911Y02572D01*
X035071D01*
X034991Y02556D01*
Y02656D02*
X034911Y02672D01*
X035071D01*
X034991Y02656D01*
X017186Y031194D02*
X017106Y031354D01*
X017266D01*
X017186Y031194D01*
X018186Y032194D02*
X018106Y032354D01*
X018266D01*
X018186Y032194D01*
X019186Y031194D02*
X019106Y031354D01*
X019266D01*
X019186Y031194D01*
X022846Y03118D02*
X022766Y03134D01*
X022926D01*
X022846Y03118D01*
X021846Y03018D02*
X021766Y03034D01*
X021926D01*
X021846Y03018D01*
X020846Y03118D02*
X020766Y03134D01*
X020926D01*
X020846Y03118D01*
X012833Y035698D02*
X012873Y035738D01*
X012913D01*
X012873Y035778D01*
X012913Y035818D01*
X012873D01*
X012833Y035858D01*
X012793Y035818D01*
X012753D01*
X012793Y035778D01*
X012753Y035738D01*
X012793D01*
X012833Y035698D01*
X011178Y037273D02*
X011218Y037353D01*
X011178Y037433D01*
X011258Y037393D01*
X011338Y037433D01*
X011298Y037353D01*
X011338Y037273D01*
X011258Y037313D01*
X011178Y037273D01*
Y034124D02*
X011218Y034204D01*
X011178Y034284D01*
X011258Y034244D01*
X011338Y034284D01*
X011298Y034204D01*
X011338Y034124D01*
X011258Y034164D01*
X011178Y034124D01*
X014327D02*
X014367Y034204D01*
X014327Y034284D01*
X014407Y034244D01*
X014487Y034284D01*
X014447Y034204D01*
X014487Y034124D01*
X014407Y034164D01*
X014327Y034124D01*
Y037273D02*
X014367Y037353D01*
X014327Y037433D01*
X014407Y037393D01*
X014487Y037433D01*
X014447Y037353D01*
X014487Y037273D01*
X014407Y037313D01*
X014327Y037273D01*
X029277Y034902D02*
X029197Y035062D01*
X029357D01*
X029277Y034902D01*
Y033902D02*
X029197Y034062D01*
X029357D01*
X029277Y033902D01*
Y032902D02*
X029197Y033062D01*
X029357D01*
X029277Y032902D01*
Y031902D02*
X029197Y032062D01*
X029357D01*
X029277Y031902D01*
X026277Y032902D02*
X026197Y033062D01*
X026357D01*
X026277Y032902D01*
Y031902D02*
X026197Y032062D01*
X026357D01*
X026277Y031902D01*
Y034902D02*
X026197Y035062D01*
X026357D01*
X026277Y034902D01*
Y033902D02*
X026197Y034062D01*
X026357D01*
X026277Y033902D01*
X035548Y051899D02*
X035588D01*
X035628Y051939D01*
X035668Y051899D01*
X035708D01*
Y051939D01*
X035668Y051979D01*
X035708Y052019D01*
Y052059D01*
X035668D01*
X035628Y052019D01*
X035588Y052059D01*
X035548D01*
Y052019D01*
X035588Y051979D01*
X035548Y051939D01*
Y051899D01*
X027261Y051309D02*
X027301D01*
X027341Y051349D01*
X027381Y051309D01*
X027421D01*
Y051349D01*
X027381Y051389D01*
X027421Y051429D01*
Y051469D01*
X027381D01*
X027341Y051429D01*
X027301Y051469D01*
X027261D01*
Y051429D01*
X027301Y051389D01*
X027261Y051349D01*
Y051309D01*
X02728Y049143D02*
X02732D01*
X02736Y049183D01*
X0274Y049143D01*
X02744D01*
Y049183D01*
X0274Y049223D01*
X02744Y049263D01*
Y049303D01*
X0274D01*
X02736Y049263D01*
X02732Y049303D01*
X02728D01*
Y049263D01*
X02732Y049223D01*
X02728Y049183D01*
Y049143D01*
X035548Y04875D02*
X035588D01*
X035628Y04879D01*
X035668Y04875D01*
X035708D01*
Y04879D01*
X035668Y04883D01*
X035708Y04887D01*
Y04891D01*
X035668D01*
X035628Y04887D01*
X035588Y04891D01*
X035548D01*
Y04887D01*
X035588Y04883D01*
X035548Y04879D01*
Y04875D01*
Y050324D02*
X035588D01*
X035628Y050364D01*
X035668Y050324D01*
X035708D01*
Y050364D01*
X035668Y050404D01*
X035708Y050444D01*
Y050484D01*
X035668D01*
X035628Y050444D01*
X035588Y050484D01*
X035548D01*
Y050444D01*
X035588Y050404D01*
X035548Y050364D01*
Y050324D01*
X025273Y049183D02*
Y049143D01*
X025353D01*
Y049183D01*
X025393D01*
Y049263D01*
X025353D01*
Y049303D01*
X025273D01*
Y049263D01*
X025233D01*
Y049183D01*
X025273D01*
X025273Y051349D02*
Y051309D01*
X025353D01*
Y051349D01*
X025393D01*
Y051429D01*
X025353D01*
Y051469D01*
X025273D01*
Y051429D01*
X025233D01*
Y051349D01*
X025273D01*
X037616Y051943D02*
Y051903D01*
X037696D01*
Y051943D01*
X037736D01*
Y052023D01*
X037696D01*
Y052063D01*
X037616D01*
Y052023D01*
X037576D01*
Y051943D01*
X037616D01*
Y048794D02*
Y048754D01*
X037696D01*
Y048794D01*
X037736D01*
Y048874D01*
X037696D01*
Y048914D01*
X037616D01*
Y048874D01*
X037576D01*
Y048794D01*
X037616D01*
X023205Y048987D02*
X023285Y049067D01*
X023365Y048987D01*
X023285Y048907D01*
X023205Y048987D01*
Y052215D02*
X023285Y052295D01*
X023365Y052215D01*
X023285Y052135D01*
X023205Y052215D01*
X023285Y049734D02*
X023205Y049894D01*
X023365D01*
X023285Y049734D01*
Y050521D02*
X023205Y050681D01*
X023365D01*
X023285Y050521D01*
Y051309D02*
X023205Y051469D01*
X023365D01*
X023285Y051309D01*
X013638Y049242D02*
Y049402D01*
X013799D01*
Y049242D01*
X013638D01*
X013678Y049282D02*
Y049362D01*
X013758D01*
Y049282D01*
X013678D01*
X015528Y05062D02*
Y05078D01*
X015688D01*
Y05062D01*
X015528D01*
X015568Y05066D02*
Y05074D01*
X015648D01*
Y05066D01*
X015568D01*
X020037Y046289D02*
X019957Y046449D01*
X020117D01*
X020037Y046289D01*
Y046329D02*
X019997Y046409D01*
X020077D01*
X020037Y046329D01*
X024171Y047667D02*
X024091Y047827D01*
X024251D01*
X024171Y047667D01*
Y047707D02*
X024131Y047787D01*
X024211D01*
X024171Y047707D01*
X020037Y052785D02*
X019957Y052945D01*
X020117D01*
X020037Y052785D01*
Y052825D02*
X019997Y052905D01*
X020077D01*
X020037Y052825D01*
X018758Y052785D02*
X018678Y052945D01*
X018838D01*
X018758Y052785D01*
Y052825D02*
X018718Y052905D01*
X018798D01*
X018758Y052825D01*
X024467Y021667D02*
X024387Y021827D01*
X024547D01*
X024467Y021667D01*
Y021707D02*
X024427Y021787D01*
X024507D01*
X024467Y021707D01*
X032833Y008838D02*
X032753Y008998D01*
X032913D01*
X032833Y008838D01*
Y008878D02*
X032793Y008958D01*
X032873D01*
X032833Y008878D01*
X027675Y022996D02*
X027595Y023156D01*
X027755D01*
X027675Y022996D01*
Y023036D02*
X027635Y023116D01*
X027715D01*
X027675Y023036D01*
X028364Y022238D02*
X028284Y022398D01*
X028444D01*
X028364Y022238D01*
Y022278D02*
X028324Y022358D01*
X028404D01*
X028364Y022278D01*
X032852Y024206D02*
X032772Y024366D01*
X032932D01*
X032852Y024206D01*
Y024246D02*
X032812Y024326D01*
X032892D01*
X032852Y024246D01*
X028266Y037789D02*
X028186Y037949D01*
X028346D01*
X028266Y037789D01*
Y037829D02*
X028226Y037909D01*
X028306D01*
X028266Y037829D01*
X024722Y037002D02*
X024642Y037162D01*
X024802D01*
X024722Y037002D01*
Y037042D02*
X024682Y037122D01*
X024762D01*
X024722Y037042D01*
X027478Y038675D02*
X027398Y038835D01*
X027558D01*
X027478Y038675D01*
Y038715D02*
X027438Y038795D01*
X027518D01*
X027478Y038715D01*
D75*
X040196Y00818D02*
G03*
X040196Y00818I-00008J0D01*
G01*
X01185D02*
G03*
X01185Y00818I-00008J0D01*
G01*
X040196Y052274D02*
G03*
X040196Y052274I-00008J0D01*
G01*
X01185D02*
G03*
X01185Y052274I-00008J0D01*
G01*
X015688Y048337D02*
G03*
X015688Y048337I-00008J0D01*
G01*
D76*
X015648D02*
G03*
X015648Y048337I-00004J0D01*
G01*
M02*
