G04*
G04 #@! TF.GenerationSoftware,Altium Limited,Altium Designer,21.3.2 (30)*
G04*
G04 Layer_Color=255*
%FSTAX24Y24*%
%MOIN*%
G70*
G04*
G04 #@! TF.SameCoordinates,D50E3B47-D74C-4BCA-B3C4-33FD4FEC1BCA*
G04*
G04*
G04 #@! TF.FilePolarity,Positive*
G04*
G01*
G75*
%ADD18R,0.0512X0.0394*%
G04:AMPARAMS|DCode=19|XSize=39.4mil|YSize=47.2mil|CornerRadius=9.8mil|HoleSize=0mil|Usage=FLASHONLY|Rotation=90.000|XOffset=0mil|YOffset=0mil|HoleType=Round|Shape=RoundedRectangle|*
%AMROUNDEDRECTD19*
21,1,0.0394,0.0276,0,0,90.0*
21,1,0.0197,0.0472,0,0,90.0*
1,1,0.0197,0.0138,0.0098*
1,1,0.0197,0.0138,-0.0098*
1,1,0.0197,-0.0138,-0.0098*
1,1,0.0197,-0.0138,0.0098*
%
%ADD19ROUNDEDRECTD19*%
%ADD38O,0.0984X0.1260*%
%ADD39C,0.2205*%
%ADD40C,0.0709*%
%ADD41P,0.0767X8X22.5*%
%ADD42C,0.0984*%
%ADD43C,0.1181*%
%ADD44C,0.0787*%
%ADD45R,0.0787X0.0787*%
%ADD46C,0.0827*%
%ADD47O,0.0591X0.0394*%
%ADD48O,0.0787X0.0630*%
%ADD49O,0.1181X0.1969*%
%ADD50O,0.1969X0.1181*%
D18*
X018758Y050247D02*
D03*
Y049381D02*
D03*
X020037Y050247D02*
D03*
Y049381D02*
D03*
X021317Y049381D02*
D03*
Y050247D02*
D03*
D19*
X018758Y051192D02*
D03*
Y051979D02*
D03*
X020037Y051192D02*
D03*
Y051979D02*
D03*
X017279Y026469D02*
D03*
Y025682D02*
D03*
Y028813D02*
D03*
Y028026D02*
D03*
X018654D02*
D03*
Y028813D02*
D03*
Y025682D02*
D03*
Y026469D02*
D03*
X018654Y033932D02*
D03*
Y034719D02*
D03*
X020028Y026469D02*
D03*
Y025682D02*
D03*
Y028026D02*
D03*
Y028813D02*
D03*
X021403Y025682D02*
D03*
Y026469D02*
D03*
Y028026D02*
D03*
Y028813D02*
D03*
X021384Y011163D02*
D03*
Y010376D02*
D03*
X022759D02*
D03*
Y011163D02*
D03*
Y01272D02*
D03*
Y013507D02*
D03*
X022778Y025682D02*
D03*
Y026469D02*
D03*
Y028026D02*
D03*
Y028813D02*
D03*
X021411Y018599D02*
D03*
Y019387D02*
D03*
X022785Y018599D02*
D03*
Y019387D02*
D03*
X021411Y020943D02*
D03*
Y021731D02*
D03*
X022785Y020943D02*
D03*
Y021731D02*
D03*
X021403Y034719D02*
D03*
Y033932D02*
D03*
X022778D02*
D03*
Y034719D02*
D03*
X020028D02*
D03*
Y033932D02*
D03*
X017279Y034719D02*
D03*
Y033932D02*
D03*
X018654Y037063D02*
D03*
Y036276D02*
D03*
X020028D02*
D03*
Y037063D02*
D03*
X021403D02*
D03*
Y036276D02*
D03*
X022778Y037063D02*
D03*
Y036276D02*
D03*
X017279D02*
D03*
Y037063D02*
D03*
X01726Y010376D02*
D03*
Y011163D02*
D03*
Y01272D02*
D03*
Y013507D02*
D03*
X018635Y011163D02*
D03*
Y010376D02*
D03*
X017286Y019387D02*
D03*
Y018599D02*
D03*
X018635Y013507D02*
D03*
Y01272D02*
D03*
X020009Y010376D02*
D03*
Y011163D02*
D03*
Y013507D02*
D03*
Y01272D02*
D03*
X021384Y013507D02*
D03*
Y01272D02*
D03*
X018661Y018599D02*
D03*
Y019387D02*
D03*
X020036Y018599D02*
D03*
Y019387D02*
D03*
X017286Y021731D02*
D03*
Y020943D02*
D03*
X018661D02*
D03*
Y021731D02*
D03*
X020036D02*
D03*
Y020943D02*
D03*
X021317Y051979D02*
D03*
Y051192D02*
D03*
D38*
X040195Y042826D02*
D03*
X011691D02*
D03*
D39*
X040116Y00818D02*
D03*
X01177D02*
D03*
X040116Y052274D02*
D03*
X01177D02*
D03*
D40*
X034991Y034982D02*
D03*
Y033982D02*
D03*
Y032982D02*
D03*
Y031982D02*
D03*
X031991Y032982D02*
D03*
Y031982D02*
D03*
Y033982D02*
D03*
X026297Y010334D02*
D03*
Y011334D02*
D03*
Y012334D02*
D03*
Y013334D02*
D03*
X029297Y012334D02*
D03*
Y013334D02*
D03*
Y011334D02*
D03*
X018193Y016941D02*
D03*
X019193Y015941D02*
D03*
X026297Y018676D02*
D03*
Y016676D02*
D03*
Y017676D02*
D03*
X029297Y016676D02*
D03*
Y017676D02*
D03*
Y018676D02*
D03*
Y019676D02*
D03*
X029316Y02664D02*
D03*
Y02864D02*
D03*
Y02764D02*
D03*
X026316Y02864D02*
D03*
Y02764D02*
D03*
Y02664D02*
D03*
Y02564D02*
D03*
X034972Y011334D02*
D03*
Y013334D02*
D03*
Y012334D02*
D03*
X031972Y013334D02*
D03*
Y012334D02*
D03*
Y011334D02*
D03*
Y010334D02*
D03*
Y018676D02*
D03*
Y016676D02*
D03*
Y017676D02*
D03*
X034972Y016676D02*
D03*
Y017676D02*
D03*
Y018676D02*
D03*
Y019676D02*
D03*
X031991Y02564D02*
D03*
Y02664D02*
D03*
Y02764D02*
D03*
Y02864D02*
D03*
X034991Y02764D02*
D03*
Y02864D02*
D03*
Y02664D02*
D03*
X018186Y032274D02*
D03*
X019186Y031274D02*
D03*
X021846Y03026D02*
D03*
X020846Y03126D02*
D03*
X029277Y034982D02*
D03*
Y033982D02*
D03*
Y032982D02*
D03*
Y031982D02*
D03*
X026277Y032982D02*
D03*
Y031982D02*
D03*
Y033982D02*
D03*
D41*
X031991Y034982D02*
D03*
X029297Y010334D02*
D03*
X039033Y050404D02*
D03*
X039211Y024361D02*
D03*
X034604Y022648D02*
D03*
X03925Y032235D02*
D03*
Y016487D02*
D03*
X037715Y008613D02*
D03*
X025451Y007412D02*
D03*
X017193Y015941D02*
D03*
X026297Y019676D02*
D03*
X029316Y02564D02*
D03*
X034972Y010334D02*
D03*
X031972Y019676D02*
D03*
X034991Y02564D02*
D03*
X017186Y031274D02*
D03*
X022846Y03126D02*
D03*
X026277Y034982D02*
D03*
X025313Y049223D02*
D03*
X025313Y051389D02*
D03*
X037656Y051983D02*
D03*
Y048834D02*
D03*
D42*
X03925Y035778D02*
D03*
Y012156D02*
D03*
Y02003D02*
D03*
Y027904D02*
D03*
X012833Y012156D02*
D03*
Y02003D02*
D03*
Y027904D02*
D03*
Y035778D02*
D03*
D43*
X040825Y034204D02*
D03*
Y037353D02*
D03*
X037675D02*
D03*
Y034204D02*
D03*
Y010582D02*
D03*
Y013731D02*
D03*
X040825Y010582D02*
D03*
Y013731D02*
D03*
X037675Y018456D02*
D03*
Y021605D02*
D03*
X040825Y018456D02*
D03*
Y021605D02*
D03*
X037675Y02633D02*
D03*
Y029479D02*
D03*
X040825D02*
D03*
Y02633D02*
D03*
X014407Y013731D02*
D03*
Y010582D02*
D03*
X011258Y013731D02*
D03*
Y010582D02*
D03*
X014407Y021605D02*
D03*
Y018456D02*
D03*
X011258Y021605D02*
D03*
Y018456D02*
D03*
X014407Y029479D02*
D03*
Y02633D02*
D03*
X011258D02*
D03*
Y029479D02*
D03*
Y037353D02*
D03*
Y034204D02*
D03*
X014407D02*
D03*
Y037353D02*
D03*
D44*
X020809Y01594D02*
D03*
X021809Y01494D02*
D03*
D45*
X022809Y01594D02*
D03*
D46*
X035628Y051979D02*
D03*
X027341Y051389D02*
D03*
X02736Y049223D02*
D03*
X035628Y04883D02*
D03*
Y050404D02*
D03*
D47*
X023285Y048987D02*
D03*
Y052215D02*
D03*
D48*
Y049814D02*
D03*
Y050601D02*
D03*
Y051389D02*
D03*
D49*
X013719Y049322D02*
D03*
D50*
X015608Y0507D02*
D03*
Y048337D02*
D03*
M02*
