M48
;Layer_Color=9474304
;FILE_FORMAT=2:4
INCH,LZ
;TYPE=PLATED
T1F00S00C0.0280
T2F00S00C0.0315
T4F00S00C0.0394
T6F00S00C0.0453
T7F00S00C0.0531
T8F00S00C0.1457
;TYPE=NON_PLATED
%
T01
X032833Y008918
X032852Y024286
X027675Y023076
X028364Y022318
X024467Y021747
X024722Y037082
X028266Y037869
X027478Y038755
X020037Y046369
X024171Y047747
X020037Y052865
X018758
T02
X026297Y010334
Y011334
Y012334
Y013334
X029297
Y012334
Y011334
Y010334
X021809Y01494
X031972Y013334
Y012334
Y011334
Y010334
X034972
Y011334
Y012334
Y013334
Y016676
Y017676
Y018676
Y019676
X031972
Y018676
Y017676
Y016676
X031991Y02564
Y02664
Y02764
Y02864
X034991
Y02764
Y02664
Y02564
X029316Y02564
Y02664
Y02764
Y02864
X026316
Y02764
Y02664
Y02564
X026297Y019676
Y018676
Y017676
Y016676
X029297
Y017676
Y018676
Y019676
X022809Y01594
X020809
X019193Y015941
X017193
X018193Y016941
X021846Y03026
X022846Y03126
X020846
X019186Y031274
X017186
X018186Y032274
X026277Y031982
Y032982
Y033982
Y034982
X029277
Y033982
Y032982
Y031982
X031991Y031982
Y032982
Y033982
Y034982
X034991
Y033982
Y032982
Y031982
X023285Y049814
Y050601
Y051389
T04
X035628Y04883
Y050404
Y051979
X027341Y051389
X02736Y049223
T06
X012833Y012156
X03925
Y02003
Y027904
X012833
Y02003
Y035778
X03925
T07
X011258Y010582
X014407
Y013731
X011258
X037675
Y010582
X040825
Y013731
Y018456
X037675
Y021605
X040825
Y02633
X037675
Y029479
X040825
X014407
Y02633
X011258
Y029479
Y021605
X014407
Y018456
X011258
Y034204
Y037353
X014407
Y034204
X037675
X040825
Y037353
X037675
T08
X01177Y00818
X040116
Y052274
X01177
M30
