G04*
G04 #@! TF.GenerationSoftware,Altium Limited,Altium Designer,21.3.2 (30)*
G04*
G04 Layer_Color=128*
%FSTAX24Y24*%
%MOIN*%
G70*
G04*
G04 #@! TF.SameCoordinates,D50E3B47-D74C-4BCA-B3C4-33FD4FEC1BCA*
G04*
G04*
G04 #@! TF.FilePolarity,Positive*
G04*
G01*
G75*
%ADD74C,0.0020*%
D74*
X039998Y042826D02*
X040392D01*
X040195Y042629D02*
Y043023D01*
X011494Y042826D02*
X011888D01*
X011691Y042629D02*
Y043023D01*
X039388Y00818D02*
X040844D01*
X040116Y007452D02*
Y008908D01*
X011041Y00818D02*
X012498D01*
X01177Y007452D02*
Y008908D01*
X039388Y052274D02*
X040844D01*
X040116Y051546D02*
Y053003D01*
X034833Y034982D02*
X035148D01*
X034991Y034825D02*
Y03514D01*
X034833Y033982D02*
X035148D01*
X034991Y033825D02*
Y03414D01*
X034833Y032982D02*
X035148D01*
X034991Y032825D02*
Y03314D01*
X034833Y031982D02*
X035148D01*
X034991Y031825D02*
Y03214D01*
X031833Y032982D02*
X032148D01*
X031991Y032825D02*
Y03314D01*
X031833Y031982D02*
X032148D01*
X031991Y031825D02*
Y03214D01*
X031833Y034982D02*
X032148D01*
X031991Y034825D02*
Y03514D01*
X031833Y033982D02*
X032148D01*
X031991Y033825D02*
Y03414D01*
X039024Y035778D02*
X039476D01*
X03925Y035552D02*
Y036005D01*
X040559Y034204D02*
X041091D01*
X040825Y033938D02*
Y034469D01*
X040559Y037353D02*
X041091D01*
X040825Y037087D02*
Y037619D01*
X037409Y037353D02*
X037941D01*
X037675Y037087D02*
Y037619D01*
X037409Y034204D02*
X037941D01*
X037675Y033938D02*
Y034469D01*
X02614Y010334D02*
X026455D01*
X026297Y010176D02*
Y010491D01*
X02614Y011334D02*
X026455D01*
X026297Y011176D02*
Y011491D01*
X02614Y012334D02*
X026455D01*
X026297Y012176D02*
Y012491D01*
X02614Y013334D02*
X026455D01*
X026297Y013176D02*
Y013491D01*
X02914Y012334D02*
X029455D01*
X029297Y012176D02*
Y012491D01*
X02914Y013334D02*
X029455D01*
X029297Y013176D02*
Y013491D01*
X02914Y010334D02*
X029455D01*
X029297Y010176D02*
Y010491D01*
X02914Y011334D02*
X029455D01*
X029297Y011176D02*
Y011491D01*
X038876Y050404D02*
X039191D01*
X039033Y050247D02*
Y050562D01*
X039053Y024361D02*
X039368D01*
X039211Y024204D02*
Y024519D01*
X034447Y022648D02*
X034762D01*
X034604Y022491D02*
Y022806D01*
X039024Y012156D02*
X039476D01*
X03925Y01193D02*
Y012383D01*
X037409Y010582D02*
X037941D01*
X037675Y010316D02*
Y010847D01*
X037409Y013731D02*
X037941D01*
X037675Y013465D02*
Y013997D01*
X040559Y010582D02*
X041091D01*
X040825Y010316D02*
Y010847D01*
X040559Y013731D02*
X041091D01*
X040825Y013465D02*
Y013997D01*
X039093Y032235D02*
X039407D01*
X03925Y032078D02*
Y032393D01*
X039093Y016487D02*
X039407D01*
X03925Y01633D02*
Y016645D01*
X039024Y02003D02*
X039476D01*
X03925Y019804D02*
Y020257D01*
X037409Y018456D02*
X037941D01*
X037675Y01819D02*
Y018721D01*
X037409Y021605D02*
X037941D01*
X037675Y021339D02*
Y021871D01*
X040559Y018456D02*
X041091D01*
X040825Y01819D02*
Y018721D01*
X040559Y021605D02*
X041091D01*
X040825Y021339D02*
Y021871D01*
X037409Y02633D02*
X037941D01*
X037675Y026064D02*
Y026595D01*
X037409Y029479D02*
X037941D01*
X037675Y029213D02*
Y029745D01*
X040559Y029479D02*
X041091D01*
X040825Y029213D02*
Y029745D01*
X040559Y02633D02*
X041091D01*
X040825Y026064D02*
Y026595D01*
X039024Y027904D02*
X039476D01*
X03925Y027678D02*
Y028131D01*
X037557Y008613D02*
X037872D01*
X037715Y008456D02*
Y008771D01*
X025293Y007412D02*
X025608D01*
X025451Y007255D02*
Y00757D01*
X020652Y01594D02*
X020967D01*
X020809Y015782D02*
Y016097D01*
X021652Y01494D02*
X021967D01*
X021809Y014782D02*
Y015097D01*
X022652Y01594D02*
X022967D01*
X022809Y015782D02*
Y016097D01*
X012606Y012156D02*
X013059D01*
X012833Y01193D02*
Y012383D01*
X014142Y013731D02*
X014673D01*
X014407Y013465D02*
Y013997D01*
X014142Y010582D02*
X014673D01*
X014407Y010316D02*
Y010847D01*
X010992Y013731D02*
X011524D01*
X011258Y013465D02*
Y013997D01*
X010992Y010582D02*
X011524D01*
X011258Y010316D02*
Y010847D01*
X017036Y015941D02*
X017351D01*
X017193Y015784D02*
Y016099D01*
X018036Y016941D02*
X018351D01*
X018193Y016784D02*
Y017099D01*
X019036Y015941D02*
X019351D01*
X019193Y015784D02*
Y016099D01*
X02614Y018676D02*
X026455D01*
X026297Y018519D02*
Y018834D01*
X02614Y019676D02*
X026455D01*
X026297Y019519D02*
Y019834D01*
X02614Y016676D02*
X026455D01*
X026297Y016519D02*
Y016834D01*
X02614Y017676D02*
X026455D01*
X026297Y017519D02*
Y017834D01*
X02914Y016676D02*
X029455D01*
X029297Y016519D02*
Y016834D01*
X02914Y017676D02*
X029455D01*
X029297Y017519D02*
Y017834D01*
X02914Y018676D02*
X029455D01*
X029297Y018519D02*
Y018834D01*
X02914Y019676D02*
X029455D01*
X029297Y019519D02*
Y019834D01*
X012606Y02003D02*
X013059D01*
X012833Y019804D02*
Y020257D01*
X014142Y021605D02*
X014673D01*
X014407Y021339D02*
Y021871D01*
X014142Y018456D02*
X014673D01*
X014407Y01819D02*
Y018721D01*
X010992Y021605D02*
X011524D01*
X011258Y021339D02*
Y021871D01*
X010992Y018456D02*
X011524D01*
X011258Y01819D02*
Y018721D01*
X029159Y02664D02*
X029474D01*
X029316Y026482D02*
Y026797D01*
X029159Y02564D02*
X029474D01*
X029316Y025482D02*
Y025797D01*
X029159Y02864D02*
X029474D01*
X029316Y028482D02*
Y028797D01*
X029159Y02764D02*
X029474D01*
X029316Y027482D02*
Y027797D01*
X026159Y02864D02*
X026474D01*
X026316Y028482D02*
Y028797D01*
X026159Y02764D02*
X026474D01*
X026316Y027482D02*
Y027797D01*
X026159Y02664D02*
X026474D01*
X026316Y026482D02*
Y026797D01*
X026159Y02564D02*
X026474D01*
X026316Y025482D02*
Y025797D01*
X014142Y029479D02*
X014673D01*
X014407Y029213D02*
Y029745D01*
X014142Y02633D02*
X014673D01*
X014407Y026064D02*
Y026595D01*
X010992Y02633D02*
X011524D01*
X011258Y026064D02*
Y026595D01*
X010992Y029479D02*
X011524D01*
X011258Y029213D02*
Y029745D01*
X012606Y027904D02*
X013059D01*
X012833Y027678D02*
Y028131D01*
X034814Y011334D02*
X035129D01*
X034972Y011176D02*
Y011491D01*
X034814Y010334D02*
X035129D01*
X034972Y010176D02*
Y010491D01*
X034814Y013334D02*
X035129D01*
X034972Y013176D02*
Y013491D01*
X034814Y012334D02*
X035129D01*
X034972Y012176D02*
Y012491D01*
X031814Y013334D02*
X032129D01*
X031972Y013176D02*
Y013491D01*
X031814Y012334D02*
X032129D01*
X031972Y012176D02*
Y012491D01*
X031814Y011334D02*
X032129D01*
X031972Y011176D02*
Y011491D01*
X031814Y010334D02*
X032129D01*
X031972Y010176D02*
Y010491D01*
X031814Y018676D02*
X032129D01*
X031972Y018519D02*
Y018834D01*
X031814Y019676D02*
X032129D01*
X031972Y019519D02*
Y019834D01*
X031814Y016676D02*
X032129D01*
X031972Y016519D02*
Y016834D01*
X031814Y017676D02*
X032129D01*
X031972Y017519D02*
Y017834D01*
X034814Y016676D02*
X035129D01*
X034972Y016519D02*
Y016834D01*
X034814Y017676D02*
X035129D01*
X034972Y017519D02*
Y017834D01*
X034814Y018676D02*
X035129D01*
X034972Y018519D02*
Y018834D01*
X034814Y019676D02*
X035129D01*
X034972Y019519D02*
Y019834D01*
X031833Y02564D02*
X032148D01*
X031991Y025482D02*
Y025797D01*
X031833Y02664D02*
X032148D01*
X031991Y026482D02*
Y026797D01*
X031833Y02764D02*
X032148D01*
X031991Y027482D02*
Y027797D01*
X031833Y02864D02*
X032148D01*
X031991Y028482D02*
Y028797D01*
X034833Y02764D02*
X035148D01*
X034991Y027482D02*
Y027797D01*
X034833Y02864D02*
X035148D01*
X034991Y028482D02*
Y028797D01*
X034833Y02564D02*
X035148D01*
X034991Y025482D02*
Y025797D01*
X034833Y02664D02*
X035148D01*
X034991Y026482D02*
Y026797D01*
X017028Y031274D02*
X017343D01*
X017186Y031117D02*
Y031431D01*
X018028Y032274D02*
X018343D01*
X018186Y032117D02*
Y032431D01*
X019028Y031274D02*
X019343D01*
X019186Y031117D02*
Y031431D01*
X022689Y03126D02*
X023004D01*
X022846Y031103D02*
Y031418D01*
X021689Y03026D02*
X022004D01*
X021846Y030103D02*
Y030418D01*
X020689Y03126D02*
X021004D01*
X020846Y031103D02*
Y031418D01*
X012606Y035778D02*
X013059D01*
X012833Y035552D02*
Y036005D01*
X010992Y037353D02*
X011524D01*
X011258Y037087D02*
Y037619D01*
X010992Y034204D02*
X011524D01*
X011258Y033938D02*
Y034469D01*
X014142Y034204D02*
X014673D01*
X014407Y033938D02*
Y034469D01*
X014142Y037353D02*
X014673D01*
X014407Y037087D02*
Y037619D01*
X029119Y034982D02*
X029434D01*
X029277Y034825D02*
Y03514D01*
X029119Y033982D02*
X029434D01*
X029277Y033825D02*
Y03414D01*
X029119Y032982D02*
X029434D01*
X029277Y032825D02*
Y03314D01*
X029119Y031982D02*
X029434D01*
X029277Y031825D02*
Y03214D01*
X026119Y032982D02*
X026434D01*
X026277Y032825D02*
Y03314D01*
X026119Y031982D02*
X026434D01*
X026277Y031825D02*
Y03214D01*
X026119Y034982D02*
X026434D01*
X026277Y034825D02*
Y03514D01*
X026119Y033982D02*
X026434D01*
X026277Y033825D02*
Y03414D01*
X011041Y052274D02*
X012498D01*
X01177Y051546D02*
Y053003D01*
X035431Y051979D02*
X035825D01*
X035628Y051782D02*
Y052176D01*
X027144Y051389D02*
X027538D01*
X027341Y051192D02*
Y051586D01*
X027163Y049223D02*
X027557D01*
X02736Y049026D02*
Y04942D01*
X035431Y04883D02*
X035825D01*
X035628Y048633D02*
Y049026D01*
X035431Y050404D02*
X035825D01*
X035628Y050208D02*
Y050601D01*
X025155Y049223D02*
X02547D01*
X025313Y049066D02*
Y049381D01*
X025156Y051389D02*
X02547D01*
X025313Y051231D02*
Y051546D01*
X037498Y051983D02*
X037813D01*
X037656Y051826D02*
Y052141D01*
X037498Y048834D02*
X037813D01*
X037656Y048676D02*
Y048991D01*
X023089Y048987D02*
X023482D01*
X023285Y04879D02*
Y049184D01*
X023089Y052215D02*
X023482D01*
X023285Y052019D02*
Y052412D01*
X023128Y049814D02*
X023443D01*
X023285Y049656D02*
Y049971D01*
X023128Y050601D02*
X023443D01*
X023285Y050444D02*
Y050759D01*
X023128Y051389D02*
X023443D01*
X023285Y051231D02*
Y051546D01*
X013522Y049322D02*
X013915D01*
X013719Y049125D02*
Y049519D01*
X015411Y0507D02*
X015805D01*
X015608Y050503D02*
Y050897D01*
X015411Y048337D02*
X015805D01*
X015608Y048141D02*
Y048534D01*
X019897Y046369D02*
X020177D01*
X020037Y046229D02*
Y046509D01*
X024031Y047747D02*
X024311D01*
X024171Y047607D02*
Y047887D01*
X019897Y052865D02*
X020177D01*
X020037Y052725D02*
Y053005D01*
X018618Y052865D02*
X018898D01*
X018758Y052725D02*
Y053005D01*
X024327Y021747D02*
X024607D01*
X024467Y021607D02*
Y021887D01*
X032693Y008918D02*
X032973D01*
X032833Y008778D02*
Y009058D01*
X027535Y023076D02*
X027815D01*
X027675Y022936D02*
Y023216D01*
X028224Y022318D02*
X028504D01*
X028364Y022178D02*
Y022458D01*
X032712Y024286D02*
X032992D01*
X032852Y024146D02*
Y024426D01*
X028126Y037869D02*
X028406D01*
X028266Y037729D02*
Y038009D01*
X024582Y037082D02*
X024862D01*
X024722Y036942D02*
Y037222D01*
X027338Y038755D02*
X027618D01*
X027478Y038615D02*
Y038895D01*
M02*
