M48
;Layer_Color=9474304
;FILE_FORMAT=2:4
INCH,LZ
;TYPE=PLATED
T3F00S00C0.0315
T5F00S00C0.0394
;TYPE=NON_PLATED
T9F00S00C0.0394
%
G90
G05
T03
G00X025411Y007412
M15
G01X02549
M16
G00X037675Y008613
M15
G01X037754
M16
G00X039211Y016487
M15
G01X039289
M16
G00X039171Y024361
M15
G01X03925
M16
G00X034565Y022648
M15
G01X034644
M16
G00X039289Y032235
M15
G01X039211
M16
G00X037695Y048834
M15
G01X037617
M16
G00X038994Y050404
M15
G01X039073
M16
G00X037695Y051983
M15
G01X037617
M16
G00X025352Y051389
M15
G01X025274
M16
G00X025352Y049223
M15
G01X025274
M16
T05
G00X011691Y042688
M15
G01Y042963
M16
G00X040195Y042688
M15
G01Y042963
M16
G00X015116Y048337
M15
G01X0161
M16
G00X015215Y0507
M15
G01X016002
M16
G00X013719Y049715
M15
G01Y048928
M16
T09
G00X023384Y048987
M15
G01X023187
M16
G00X023384Y052215
M15
G01X023187
M16
M17
M30
