M48
;Layer_Color=9474304
;FILE_FORMAT=2:4
INCH,LZ
;TYPE=PLATED
T1F00S00C0.0100
T2F00S00C0.0197
T4F00S00C0.0394
T5F00S00C0.0433
T6F00S00C0.0512
T7F00S00C0.1181
%
T01
X027362Y00563
X027323Y013819
X027323Y02185
T02
X013291Y009217
X01935Y008504
X021535
X02185Y012205
X028583Y012638
X02874Y015236
X027915Y010356
X027559Y008425
Y007717
X026142Y008071
X02878Y007047
X028622Y004449
X02189Y004016
X021496Y016693
X019311
X02185Y020236
X021496Y024724
X019311
X026102Y024291
X02752Y023937
Y024646
X027875Y026576
X02874Y023268
X028583Y020669
X027875Y018545
X02752Y016614
Y015906
X026102Y01626
X013252Y017406
X013252Y025437
T04
X025984Y004606
X027283
X027244Y012795
X025945
X025945Y020827
X027244
T05
X031535Y004142
Y005142
Y006142
Y007142
Y008142
Y009142
X031496Y012331
Y013331
Y014331
Y015331
Y016331
Y017331
X031496Y020362
Y021362
Y022362
Y023362
Y024362
Y025362
T06
X012244Y005638
Y007638
X012205Y013827
Y015827
X012205Y021858
Y023858
T07
X011535Y002835
X032008
Y028543
X011535
M30
