G04 Layer_Color=65535*
%FSTAX24Y24*%
%MOIN*%
G70*
G01*
G75*
%ADD19C,0.0197*%
%ADD29C,0.0100*%
%ADD30C,0.0098*%
%ADD31C,0.0079*%
%ADD32C,0.0020*%
%ADD33C,0.0040*%
%ADD34C,0.0070*%
G36*
X019728Y007461D02*
X01976Y00743D01*
X019777Y007389D01*
Y007366D01*
Y007344D01*
X01976Y007303D01*
X019728Y007272D01*
X019687Y007255D01*
X019643D01*
X019601Y007272D01*
X01957Y007303D01*
X019553Y007344D01*
Y007366D01*
Y007389D01*
X01957Y00743D01*
X019601Y007461D01*
X019643Y007478D01*
X019687D01*
X019728Y007461D01*
D02*
G37*
G36*
X019689Y01565D02*
X01972Y015619D01*
X019737Y015578D01*
Y015555D01*
Y015533D01*
X01972Y015492D01*
X019689Y015461D01*
X019648Y015444D01*
X019603D01*
X019562Y015461D01*
X019531Y015492D01*
X019514Y015533D01*
Y015555D01*
Y015578D01*
X019531Y015619D01*
X019562Y01565D01*
X019603Y015667D01*
X019648D01*
X019689Y01565D01*
D02*
G37*
G36*
X019689Y023682D02*
X01972Y02365D01*
X019737Y023609D01*
Y023587D01*
Y023565D01*
X01972Y023524D01*
X019689Y023492D01*
X019648Y023475D01*
X019603D01*
X019562Y023492D01*
X019531Y023524D01*
X019514Y023565D01*
Y023587D01*
Y023609D01*
X019531Y02365D01*
X019562Y023682D01*
X019603Y023699D01*
X019648D01*
X019689Y023682D01*
D02*
G37*
D19*
X018706Y026327D02*
G03*
X01871Y026299I-000084J-000028D01*
G01*
X018706Y018296D02*
G03*
X01871Y018268I-000084J-000028D01*
G01*
X018745Y010107D02*
G03*
X018749Y010079I-000084J-000028D01*
G01*
D29*
X019731Y023582D02*
G03*
X019731Y023582I-000112J0D01*
G01*
X019731Y01555D02*
G03*
X019731Y01555I-000112J0D01*
G01*
X01977Y007361D02*
G03*
X01977Y007361I-000112J0D01*
G01*
X010433Y024827D02*
X013701D01*
X010433Y02089D02*
Y024827D01*
Y02089D02*
X013701D01*
Y024827D01*
X010433Y024354D02*
X010906D01*
Y023449D02*
Y024354D01*
X010472Y023449D02*
X010906D01*
X010512Y022268D02*
X010906D01*
Y021402D02*
Y022268D01*
X010472Y021402D02*
X010906D01*
X010433Y016795D02*
X013701D01*
X010433Y012858D02*
Y016795D01*
Y012858D02*
X013701D01*
Y016795D01*
X010433Y016323D02*
X010906D01*
Y015417D02*
Y016323D01*
X010472Y015417D02*
X010906D01*
X010512Y014236D02*
X010906D01*
Y01337D02*
Y014236D01*
X010472Y01337D02*
X010906D01*
X010472Y008606D02*
X01374D01*
X010472Y004669D02*
Y008606D01*
Y004669D02*
X01374D01*
Y008606D01*
X010472Y008134D02*
X010945D01*
Y007228D02*
Y008134D01*
X010512Y007228D02*
X010945D01*
X010551Y006047D02*
X010945D01*
Y005181D02*
Y006047D01*
X010512Y005181D02*
X010945D01*
D30*
X027293Y021634D02*
G03*
X027293Y021634I-000049J0D01*
G01*
X025994D02*
G03*
X025994Y021634I-000049J0D01*
G01*
X025994Y013602D02*
G03*
X025994Y013602I-000049J0D01*
G01*
X027293D02*
G03*
X027293Y013602I-000049J0D01*
G01*
X027333Y005413D02*
G03*
X027333Y005413I-000049J0D01*
G01*
X026033D02*
G03*
X026033Y005413I-000049J0D01*
G01*
D31*
X025709Y024921D02*
G03*
X025709Y024921I-000787J0D01*
G01*
X027598D02*
G03*
X027598Y024921I-000787J0D01*
G01*
X027598Y01689D02*
G03*
X027598Y01689I-000787J0D01*
G01*
X025709D02*
G03*
X025709Y01689I-000787J0D01*
G01*
X025748Y008701D02*
G03*
X025748Y008701I-000787J0D01*
G01*
X027638D02*
G03*
X027638Y008701I-000787J0D01*
G01*
X027827Y024705D02*
Y026004D01*
Y024705D02*
X030425D01*
Y026004D01*
X027827D02*
X030425D01*
X015008Y027047D02*
X019205D01*
X015008Y02622D02*
X019205D01*
X015008D02*
Y027047D01*
X019205Y02622D02*
Y027047D01*
X01811Y02622D02*
Y027008D01*
X019934Y024004D02*
X021645D01*
X019234Y023926D02*
X019312Y024004D01*
X019934D01*
X022275D02*
X022344Y023935D01*
X021645Y024004D02*
X022275D01*
X019234Y021757D02*
Y023926D01*
Y021757D02*
X01932Y021671D01*
X022344Y021757D02*
Y023935D01*
X022259Y021671D02*
X022344Y021757D01*
X01932Y021671D02*
X022259D01*
X026693Y020276D02*
Y021378D01*
X026693Y020276D02*
X027795D01*
Y021378D01*
X026693Y021378D02*
X027795D01*
X025394Y020276D02*
Y021378D01*
X025394Y020276D02*
X026496D01*
Y021378D01*
X025394Y021378D02*
X026496D01*
X030996Y020862D02*
X031996D01*
Y019862D02*
Y025862D01*
X030996Y019862D02*
Y025862D01*
Y019862D02*
X031996D01*
X030996Y025862D02*
X031996D01*
X02402Y020193D02*
Y020666D01*
X02403Y020971D02*
Y021464D01*
X023375Y020971D02*
Y021464D01*
X023374Y020193D02*
Y020666D01*
X023375Y021464D02*
X02403D01*
X023374Y020193D02*
X02402D01*
X024967D02*
Y020666D01*
X024976Y020971D02*
Y021464D01*
X024321Y020971D02*
Y021464D01*
X02432Y020193D02*
Y020666D01*
X024321Y021464D02*
X024976D01*
X02432Y020193D02*
X024967D01*
X024603Y024254D02*
X024684D01*
Y024259D01*
X024528Y024249D02*
Y024291D01*
X025236D01*
Y024213D02*
Y024291D01*
X024646Y024213D02*
X025236D01*
X024646D02*
Y024291D01*
X024528D02*
X024646D01*
X024528D02*
X025394D01*
Y024331D01*
X024449D02*
X025394D01*
X026493Y024254D02*
X026574D01*
Y024259D01*
X026417Y024249D02*
Y024291D01*
X027126D01*
Y024213D02*
Y024291D01*
X026535Y024213D02*
X027126D01*
X026535D02*
Y024291D01*
X026417D02*
X026535D01*
X026417D02*
X027283D01*
Y024331D01*
X026339D02*
X027283D01*
X022397Y020987D02*
Y021461D01*
X022388Y020189D02*
Y020682D01*
X023043Y020189D02*
Y020682D01*
X023043Y020987D02*
Y021461D01*
X022388Y020189D02*
X023043D01*
X022397Y021461D02*
X023043D01*
X023902Y024287D02*
Y024761D01*
X023911Y025066D02*
Y025559D01*
X023257Y025066D02*
Y025559D01*
X023256Y024287D02*
Y024761D01*
X023257Y025559D02*
X023911D01*
X023256Y024287D02*
X023902D01*
X017918Y022162D02*
Y022635D01*
X017927Y02294D02*
Y023433D01*
X017272Y02294D02*
Y023433D01*
X017272Y022162D02*
Y022635D01*
X017272Y023433D02*
X017927D01*
X017272Y022162D02*
X017918D01*
X025901Y022838D02*
Y023311D01*
X025892Y02204D02*
Y022533D01*
X026547Y02204D02*
Y022533D01*
X026547Y022838D02*
Y023311D01*
X025892Y02204D02*
X026547D01*
X025901Y023311D02*
X026547D01*
X01649Y024964D02*
Y025437D01*
X016481Y024166D02*
Y024659D01*
X017136Y024166D02*
Y024659D01*
X017136Y024964D02*
Y025437D01*
X016481Y024166D02*
X017136D01*
X01649Y025437D02*
X017136D01*
X01772Y021737D02*
X018193D01*
X016921Y021746D02*
X017415D01*
X016921Y021091D02*
X017415D01*
X01772Y021091D02*
X018193D01*
X016921Y021091D02*
Y021746D01*
X018193Y021091D02*
Y021737D01*
X022356Y025082D02*
Y025555D01*
X022347Y024284D02*
Y024777D01*
X023002Y024284D02*
Y024777D01*
X023003Y025082D02*
Y025555D01*
X022347Y024284D02*
X023002D01*
X022356Y025555D02*
X023003D01*
X018036Y024169D02*
Y024642D01*
X018045Y024948D02*
Y025441D01*
X01739Y024948D02*
Y025441D01*
X01739Y024169D02*
Y024642D01*
X01739Y025441D02*
X018045D01*
X01739Y024169D02*
X018036D01*
X018263Y024964D02*
Y025437D01*
X018254Y024166D02*
Y024659D01*
X018909Y024166D02*
Y024659D01*
X018909Y024964D02*
Y025437D01*
X018254Y024166D02*
X018909D01*
X018263Y025437D02*
X018909D01*
X018263Y016932D02*
Y017405D01*
X018254Y016134D02*
Y016627D01*
X018909Y016134D02*
Y016627D01*
X018909Y016932D02*
Y017405D01*
X018254Y016134D02*
X018909D01*
X018263Y017405D02*
X018909D01*
X018036Y016138D02*
Y016611D01*
X018045Y016916D02*
Y017409D01*
X01739Y016916D02*
Y017409D01*
X01739Y016138D02*
Y016611D01*
X01739Y017409D02*
X018045D01*
X01739Y016138D02*
X018036D01*
X022356Y01705D02*
Y017524D01*
X022347Y016252D02*
Y016745D01*
X023002Y016252D02*
Y016745D01*
X023003Y01705D02*
Y017524D01*
X022347Y016252D02*
X023002D01*
X022356Y017524D02*
X023003D01*
X01772Y013705D02*
X018193D01*
X016921Y013715D02*
X017415D01*
X016921Y01306D02*
X017415D01*
X01772Y013059D02*
X018193D01*
X016921Y01306D02*
Y013715D01*
X018193Y013059D02*
Y013705D01*
X01649Y016932D02*
Y017405D01*
X016481Y016134D02*
Y016627D01*
X017136Y016134D02*
Y016627D01*
X017136Y016932D02*
Y017405D01*
X016481Y016134D02*
X017136D01*
X01649Y017405D02*
X017136D01*
X025901Y014806D02*
Y015279D01*
X025892Y014008D02*
Y014501D01*
X026547Y014008D02*
Y014501D01*
X026547Y014806D02*
Y015279D01*
X025892Y014008D02*
X026547D01*
X025901Y015279D02*
X026547D01*
X017918Y01413D02*
Y014603D01*
X017927Y014908D02*
Y015401D01*
X017272Y014908D02*
Y015401D01*
X017272Y01413D02*
Y014603D01*
X017272Y015401D02*
X017927D01*
X017272Y01413D02*
X017918D01*
X023902Y016256D02*
Y016729D01*
X023911Y017034D02*
Y017527D01*
X023257Y017034D02*
Y017527D01*
X023256Y016256D02*
Y016729D01*
X023257Y017527D02*
X023911D01*
X023256Y016256D02*
X023902D01*
X022397Y012956D02*
Y013429D01*
X022388Y012158D02*
Y012651D01*
X023043Y012158D02*
Y012651D01*
X023043Y012956D02*
Y013429D01*
X022388Y012158D02*
X023043D01*
X022397Y013429D02*
X023043D01*
X026493Y016222D02*
X026574D01*
Y016227D01*
X026417Y016218D02*
Y01626D01*
X027126D01*
Y016181D02*
Y01626D01*
X026535Y016181D02*
X027126D01*
X026535D02*
Y01626D01*
X026417D02*
X026535D01*
X026417D02*
X027283D01*
Y016299D01*
X026339D02*
X027283D01*
X024603Y016222D02*
X024684D01*
Y016227D01*
X024528Y016218D02*
Y01626D01*
X025236D01*
Y016181D02*
Y01626D01*
X024646Y016181D02*
X025236D01*
X024646D02*
Y01626D01*
X024528D02*
X024646D01*
X024528D02*
X025394D01*
Y016299D01*
X024449D02*
X025394D01*
X024967Y012161D02*
Y012635D01*
X024976Y01294D02*
Y013433D01*
X024321Y01294D02*
Y013433D01*
X02432Y012161D02*
Y012635D01*
X024321Y013433D02*
X024976D01*
X02432Y012161D02*
X024967D01*
X02402D02*
Y012635D01*
X02403Y01294D02*
Y013433D01*
X023375Y01294D02*
Y013433D01*
X023374Y012161D02*
Y012635D01*
X023375Y013433D02*
X02403D01*
X023374Y012161D02*
X02402D01*
X030996Y012831D02*
X031996D01*
Y011831D02*
Y017831D01*
X030996Y011831D02*
Y017831D01*
Y011831D02*
X031996D01*
X030996Y017831D02*
X031996D01*
X025394Y012244D02*
Y013346D01*
X025394Y012244D02*
X026496D01*
Y013346D01*
X025394Y013346D02*
X026496D01*
X026693Y012244D02*
Y013346D01*
X026693Y012244D02*
X027795D01*
Y013346D01*
X026693Y013346D02*
X027795D01*
X019934Y015972D02*
X021645D01*
X019234Y015894D02*
X019312Y015972D01*
X019934D01*
X022275D02*
X022344Y015903D01*
X021645Y015972D02*
X022275D01*
X019234Y013726D02*
Y015894D01*
Y013726D02*
X01932Y01364D01*
X022344Y013726D02*
Y015903D01*
X022259Y01364D02*
X022344Y013726D01*
X01932Y01364D02*
X022259D01*
X015008Y019016D02*
X019205D01*
X015008Y018189D02*
X019205D01*
X015008D02*
Y019016D01*
X019205Y018189D02*
Y019016D01*
X01811Y018189D02*
Y018976D01*
X027827Y016673D02*
Y017972D01*
Y016673D02*
X030425D01*
Y017972D01*
X027827D02*
X030425D01*
X02594Y006617D02*
Y00709D01*
X025931Y005819D02*
Y006312D01*
X026586Y005819D02*
Y006312D01*
X026587Y006617D02*
Y00709D01*
X025931Y005819D02*
X026586D01*
X02594Y00709D02*
X026587D01*
X026732Y004055D02*
Y005157D01*
X026732Y004055D02*
X027835D01*
Y005157D01*
X026732Y005157D02*
X027835D01*
X025006Y003973D02*
Y004446D01*
X025015Y004751D02*
Y005244D01*
X02436Y004751D02*
Y005244D01*
X02436Y003973D02*
Y004446D01*
X02436Y005244D02*
X025015D01*
X02436Y003973D02*
X025006D01*
X02406D02*
Y004446D01*
X024069Y004751D02*
Y005244D01*
X023414Y004751D02*
Y005244D01*
X023413Y003973D02*
Y004446D01*
X023414Y005244D02*
X024069D01*
X023413Y003973D02*
X02406D01*
X022436Y004767D02*
Y00524D01*
X022427Y003969D02*
Y004462D01*
X023082Y003969D02*
Y004462D01*
X023083Y004767D02*
Y00524D01*
X022427Y003969D02*
X023082D01*
X022436Y00524D02*
X023083D01*
X027866Y008484D02*
Y009783D01*
Y008484D02*
X030465D01*
Y009783D01*
X027866D02*
X030465D01*
X024643Y008033D02*
X024724D01*
Y008038D01*
X024567Y008029D02*
Y008071D01*
X025276D01*
Y007992D02*
Y008071D01*
X024685Y007992D02*
X025276D01*
X024685D02*
Y008071D01*
X024567D02*
X024685D01*
X024567D02*
X025433D01*
Y00811D01*
X024488D02*
X025433D01*
X026532Y008033D02*
X026613D01*
Y008038D01*
X026457Y008029D02*
Y008071D01*
X027165D01*
Y007992D02*
Y008071D01*
X026575Y007992D02*
X027165D01*
X026575D02*
Y008071D01*
X026457D02*
X026575D01*
X026457D02*
X027323D01*
Y00811D01*
X026378D02*
X027323D01*
X017759Y005516D02*
X018232D01*
X016961Y005526D02*
X017454D01*
X016961Y004871D02*
X017454D01*
X017759Y00487D02*
X018232D01*
X016961Y004871D02*
Y005526D01*
X018232Y00487D02*
Y005516D01*
X017957Y005941D02*
Y006414D01*
X017967Y006719D02*
Y007212D01*
X017312Y006719D02*
Y007212D01*
X017311Y005941D02*
Y006414D01*
X017312Y007212D02*
X017967D01*
X017311Y005941D02*
X017957D01*
X025433Y004055D02*
Y005157D01*
X025433Y004055D02*
X026535D01*
Y005157D01*
X025433Y005157D02*
X026535D01*
X018303Y008743D02*
Y009216D01*
X018293Y007945D02*
Y008438D01*
X018948Y007945D02*
Y008438D01*
X018949Y008743D02*
Y009216D01*
X018293Y007945D02*
X018948D01*
X018303Y009216D02*
X018949D01*
X031035Y004642D02*
X032035D01*
Y003642D02*
Y009642D01*
X031035Y003642D02*
Y009642D01*
Y003642D02*
X032035D01*
X031035Y009642D02*
X032035D01*
X018075Y007949D02*
Y008422D01*
X018085Y008727D02*
Y00922D01*
X01743Y008727D02*
Y00922D01*
X017429Y007949D02*
Y008422D01*
X01743Y00922D02*
X018085D01*
X017429Y007949D02*
X018075D01*
X022396Y008862D02*
Y009335D01*
X022386Y008063D02*
Y008556D01*
X023041Y008063D02*
Y008556D01*
X023042Y008862D02*
Y009335D01*
X022386Y008063D02*
X023041D01*
X022396Y009335D02*
X023042D01*
X019973Y007783D02*
X021684D01*
X019274Y007706D02*
X019352Y007783D01*
X019973D01*
X022315D02*
X022384Y007714D01*
X021684Y007783D02*
X022315D01*
X019274Y005537D02*
Y007706D01*
Y005537D02*
X01936Y005451D01*
X022384Y005537D02*
Y007714D01*
X022298Y005451D02*
X022384Y005537D01*
X01936Y005451D02*
X022298D01*
X015047Y010827D02*
X019244D01*
X015047Y01D02*
X019244D01*
X015047D02*
Y010827D01*
X019244Y01D02*
Y010827D01*
X01815Y01D02*
Y010787D01*
X01653Y008743D02*
Y009216D01*
X01652Y007945D02*
Y008438D01*
X017175Y007945D02*
Y008438D01*
X017176Y008743D02*
Y009216D01*
X01652Y007945D02*
X017175D01*
X01653Y009216D02*
X017176D01*
X023942Y008067D02*
Y00854D01*
X023951Y008845D02*
Y009338D01*
X023296Y008845D02*
Y009338D01*
X023295Y008067D02*
Y00854D01*
X023296Y009338D02*
X023951D01*
X023295Y008067D02*
X023942D01*
X032428Y024534D02*
X032244D01*
Y024396D01*
X032336Y024442D01*
X032382D01*
X032428Y024396D01*
Y024304D01*
X032382Y024259D01*
X03229D01*
X032244Y024304D01*
X03252Y024213D02*
X032703D01*
X032795Y024534D02*
Y024259D01*
X032933D01*
X032979Y024304D01*
Y024488D01*
X032933Y024534D01*
X032795D01*
X032428Y016503D02*
X032244D01*
Y016365D01*
X032336Y016411D01*
X032382D01*
X032428Y016365D01*
Y016273D01*
X032382Y016227D01*
X03229D01*
X032244Y016273D01*
X03252Y016181D02*
X032703D01*
X032795Y016503D02*
Y016227D01*
X032933D01*
X032979Y016273D01*
Y016457D01*
X032933Y016503D01*
X032795D01*
X032467Y008314D02*
X032283D01*
Y008176D01*
X032375Y008222D01*
X032421D01*
X032467Y008176D01*
Y008084D01*
X032421Y008038D01*
X032329D01*
X032283Y008084D01*
X032559Y007992D02*
X032743D01*
X032834Y008314D02*
Y008038D01*
X032972D01*
X033018Y008084D01*
Y008268D01*
X032972Y008314D01*
X032834D01*
X028255Y027244D02*
X028071D01*
Y027106D01*
X028163Y027152D01*
X028209D01*
X028255Y027106D01*
Y027014D01*
X028209Y026969D01*
X028117D01*
X028071Y027014D01*
X028346Y027244D02*
Y02706D01*
X028438Y026969D01*
X02853Y02706D01*
Y027244D01*
X028622Y027106D02*
X028806D01*
X028897Y026969D02*
X029035Y027106D01*
X028897Y027244D01*
X029127Y026969D02*
X029219D01*
X029173D01*
Y027244D01*
X029127Y027198D01*
X029357Y026969D02*
Y027014D01*
X029402D01*
Y026969D01*
X029357D01*
X02977Y027244D02*
X029586D01*
Y027106D01*
X029678Y027152D01*
X029724D01*
X02977Y027106D01*
Y027014D01*
X029724Y026969D01*
X029632D01*
X029586Y027014D01*
X029862Y027244D02*
Y02706D01*
X029953Y026969D01*
X030045Y02706D01*
Y027244D01*
X030137Y026923D02*
X030321D01*
X030413Y026969D02*
X030504D01*
X030459D01*
Y027244D01*
X030413Y027198D01*
X030642Y026923D02*
X030826D01*
X030918Y026969D02*
X03101D01*
X030964D01*
Y027244D01*
X030918Y027198D01*
X014877Y02781D02*
Y027581D01*
X014923Y027535D01*
X015015D01*
X015061Y027581D01*
Y02781D01*
X015337Y027535D02*
X015153D01*
X015337Y027718D01*
Y027764D01*
X015291Y02781D01*
X015199D01*
X015153Y027764D01*
X015428Y027489D02*
X015612D01*
X015704Y027535D02*
X015796D01*
X01575D01*
Y02781D01*
X015704Y027764D01*
X015934Y027489D02*
X016117D01*
X016209Y027535D02*
X016301D01*
X016255D01*
Y02781D01*
X016209Y027764D01*
X01833Y024596D02*
Y024366D01*
X018376Y02432D01*
X018468D01*
X018514Y024366D01*
Y024596D01*
X018605Y02432D02*
X018697D01*
X018651D01*
Y024596D01*
X018605Y02455D01*
X018835Y024274D02*
X019019D01*
X019111Y02432D02*
X019202D01*
X019156D01*
Y024596D01*
X019111Y02455D01*
X01934Y024274D02*
X019524D01*
X019616Y02432D02*
X019707D01*
X019662D01*
Y024596D01*
X019616Y02455D01*
X014488Y023858D02*
X01458D01*
X014534D01*
Y024134D01*
X014488Y024088D01*
X014718Y023858D02*
Y024134D01*
X01481Y024042D01*
X014901Y024134D01*
Y023858D01*
X014993Y023812D02*
X015177D01*
X015269Y023858D02*
X015361D01*
X015315D01*
Y024134D01*
X015269Y024088D01*
X015498Y023812D02*
X015682D01*
X015774Y023858D02*
X015866D01*
X01582D01*
Y024134D01*
X015774Y024088D01*
X014213Y02626D02*
X014304D01*
X014259D01*
Y026535D01*
X014213Y026489D01*
X014442Y026535D02*
Y02626D01*
Y026352D01*
X014626Y026535D01*
X014488Y026398D01*
X014626Y02626D01*
X014718Y026214D02*
X014901D01*
X014993Y02626D02*
X015085D01*
X015039D01*
Y026535D01*
X014993Y026489D01*
X015223Y026214D02*
X015406D01*
X015498Y02626D02*
X01559D01*
X015544D01*
Y026535D01*
X015498Y026489D01*
X030354Y02378D02*
X030446D01*
X0304D01*
Y024055D01*
X030354Y024009D01*
X030584Y024055D02*
Y02378D01*
Y023871D01*
X030768Y024055D01*
X03063Y023917D01*
X030768Y02378D01*
X030859Y023734D02*
X031043D01*
X031135Y02378D02*
X031227D01*
X031181D01*
Y024055D01*
X031135Y024009D01*
X031365Y023734D02*
X031548D01*
X03164Y02378D02*
X031732D01*
X031686D01*
Y024055D01*
X03164Y024009D01*
X027933Y021496D02*
Y021772D01*
X027795Y021634D01*
X027979D01*
X028071Y021496D02*
Y021542D01*
X028117D01*
Y021496D01*
X028071D01*
X0283Y021542D02*
X028346Y021496D01*
X028438D01*
X028484Y021542D01*
Y021726D01*
X028438Y021772D01*
X028346D01*
X0283Y021726D01*
Y02168D01*
X028346Y021634D01*
X028484D01*
X028576Y021542D02*
X028622Y021496D01*
X028714D01*
X02876Y021542D01*
Y021726D01*
X028714Y021772D01*
X028622D01*
X028576Y021726D01*
Y02168D01*
X028622Y021634D01*
X02876D01*
X028851Y021496D02*
Y021772D01*
Y021588D02*
X028989Y02168D01*
X028851Y021588D02*
X028989Y021496D01*
X029127Y02145D02*
X029311D01*
X029402Y021496D02*
X029494D01*
X029448D01*
Y021772D01*
X029402Y021726D01*
X029632Y02145D02*
X029816D01*
X029907Y021496D02*
X029999D01*
X029953D01*
Y021772D01*
X029907Y021726D01*
X028268Y021496D02*
X027992D01*
Y021634D01*
X028038Y02168D01*
X02813D01*
X028176Y021634D01*
Y021496D01*
Y021588D02*
X028268Y02168D01*
X027992Y021772D02*
Y021955D01*
X028038D01*
X028222Y021772D01*
X028268D01*
X028314Y022047D02*
Y022231D01*
X028268Y022323D02*
Y022414D01*
Y022368D01*
X027992D01*
X028038Y022323D01*
X028314Y022552D02*
Y022736D01*
X028268Y022828D02*
Y022919D01*
Y022874D01*
X027992D01*
X028038Y022828D01*
X016181Y023661D02*
Y023753D01*
Y023707D01*
X015906D01*
X015952Y023661D01*
Y023891D02*
X015906Y023937D01*
Y024029D01*
X015952Y024075D01*
X016135D01*
X016181Y024029D01*
Y023937D01*
X016135Y023891D01*
X015952D01*
X016181Y024167D02*
X015906D01*
X016089D02*
X015997Y024304D01*
X016089Y024167D02*
X016181Y024304D01*
X016227Y024442D02*
Y024626D01*
X016181Y024718D02*
Y024809D01*
Y024763D01*
X015906D01*
X015952Y024718D01*
X016227Y024947D02*
Y025131D01*
X016181Y025223D02*
Y025314D01*
Y025269D01*
X015906D01*
X015952Y025223D01*
X023661Y022047D02*
Y022139D01*
Y022093D01*
X023386D01*
X023432Y022047D01*
Y022277D02*
X023386Y022323D01*
Y022415D01*
X023432Y02246D01*
X023616D01*
X023661Y022415D01*
Y022323D01*
X023616Y022277D01*
X023432D01*
X023661Y022552D02*
X023386D01*
Y02269D01*
X023432Y022736D01*
X023524D01*
X02357Y02269D01*
Y022552D01*
Y022644D02*
X023661Y022736D01*
X023707Y022828D02*
Y023012D01*
X023661Y023103D02*
Y023195D01*
Y023149D01*
X023386D01*
X023432Y023103D01*
X023707Y023333D02*
Y023517D01*
X023661Y023608D02*
Y0237D01*
Y023654D01*
X023386D01*
X023432Y023608D01*
X023701Y022992D02*
Y023084D01*
Y023038D01*
X023425D01*
X023471Y022992D01*
Y023222D02*
X023425Y023268D01*
Y023359D01*
X023471Y023405D01*
X023655D01*
X023701Y023359D01*
Y023268D01*
X023655Y023222D01*
X023471D01*
X023701Y023497D02*
X023425D01*
Y023635D01*
X023471Y023681D01*
X023563D01*
X023609Y023635D01*
Y023497D01*
Y023589D02*
X023701Y023681D01*
X023747Y023773D02*
Y023956D01*
X023701Y024048D02*
Y02414D01*
Y024094D01*
X023425D01*
X023471Y024048D01*
X023747Y024278D02*
Y024461D01*
X023701Y024553D02*
Y024645D01*
Y024599D01*
X023425D01*
X023471Y024553D01*
X016102Y02126D02*
Y021352D01*
Y021306D01*
X015827D01*
X015873Y02126D01*
Y021489D02*
X015827Y021535D01*
Y021627D01*
X015873Y021673D01*
X016056D01*
X016102Y021627D01*
Y021535D01*
X016056Y021489D01*
X015873D01*
X016102Y021765D02*
X015827D01*
X016011D02*
X015919Y021903D01*
X016011Y021765D02*
X016102Y021903D01*
X016148Y02204D02*
Y022224D01*
X016102Y022316D02*
Y022408D01*
Y022362D01*
X015827D01*
X015873Y022316D01*
X016148Y022546D02*
Y022729D01*
X016102Y022821D02*
Y022913D01*
Y022867D01*
X015827D01*
X015873Y022821D01*
X016024Y024672D02*
Y024488D01*
X016161D01*
X016116Y02458D01*
Y024626D01*
X016161Y024672D01*
X016253D01*
X016299Y024626D01*
Y024534D01*
X016253Y024488D01*
X016345Y024764D02*
Y024947D01*
X016299Y025039D02*
X016024D01*
Y025177D01*
X01607Y025223D01*
X016161D01*
X016207Y025177D01*
Y025039D01*
X016345Y025315D02*
Y025498D01*
X016299Y02559D02*
Y025682D01*
Y025636D01*
X016024D01*
X01607Y02559D01*
X016345Y02582D02*
Y026003D01*
X016299Y026095D02*
Y026187D01*
Y026141D01*
X016024D01*
X01607Y026095D01*
X029436Y021732D02*
X029252D01*
Y021594D01*
X029344Y02164D01*
X02939D01*
X029436Y021594D01*
Y021503D01*
X02939Y021457D01*
X029298D01*
X029252Y021503D01*
X029527Y021411D02*
X029711D01*
X029803Y021732D02*
Y021457D01*
X029941D01*
X029987Y021503D01*
Y021686D01*
X029941Y021732D01*
X029803D01*
X030078Y021411D02*
X030262D01*
X030354Y021457D02*
X030446D01*
X0304D01*
Y021732D01*
X030354Y021686D01*
X030584Y021411D02*
X030767D01*
X030859Y021457D02*
X030951D01*
X030905D01*
Y021732D01*
X030859Y021686D01*
X027087Y019764D02*
Y019947D01*
X027178Y020039D01*
X02727Y019947D01*
Y019764D01*
Y019902D01*
X027087D01*
X027362Y020039D02*
Y019764D01*
X0275D01*
X027546Y01981D01*
Y019993D01*
X0275Y020039D01*
X027362D01*
X027821Y019993D02*
X027775Y020039D01*
X027684D01*
X027638Y019993D01*
Y01981D01*
X027684Y019764D01*
X027775D01*
X027821Y01981D01*
X027913Y019718D02*
X028097D01*
X028189Y019764D02*
X02828D01*
X028235D01*
Y020039D01*
X028189Y019993D01*
X028418Y019718D02*
X028602D01*
X028694Y019764D02*
X028786D01*
X02874D01*
Y020039D01*
X028694Y019993D01*
X025577D02*
X025531Y020039D01*
X02544D01*
X025394Y019993D01*
Y01981D01*
X02544Y019764D01*
X025531D01*
X025577Y01981D01*
Y019902D01*
X025486D01*
X025669Y019764D02*
Y020039D01*
X025853Y019764D01*
Y020039D01*
X025945D02*
Y019764D01*
X026082D01*
X026128Y01981D01*
Y019993D01*
X026082Y020039D01*
X025945D01*
X02622Y019718D02*
X026404D01*
X026496Y020039D02*
Y019764D01*
X026633D01*
X026679Y01981D01*
Y019993D01*
X026633Y020039D01*
X026496D01*
X026771Y019718D02*
X026955D01*
X027047Y019764D02*
X027139D01*
X027093D01*
Y020039D01*
X027047Y019993D01*
X027276Y019718D02*
X02746D01*
X027552Y019764D02*
X027644D01*
X027598D01*
Y020039D01*
X027552Y019993D01*
X030961Y026055D02*
X031144D01*
X031236Y0261D02*
X031328D01*
X031282D01*
Y026376D01*
X031236Y02633D01*
X031466Y026055D02*
X031649D01*
X031741Y0261D02*
X031833D01*
X031787D01*
Y026376D01*
X031741Y02633D01*
X010455Y025431D02*
X010363D01*
X010409D01*
Y025202D01*
X010363Y025156D01*
X010318D01*
X010272Y025202D01*
X010547Y025156D02*
X010639D01*
X010593D01*
Y025431D01*
X010547Y025386D01*
X010777Y02511D02*
X01096D01*
X011052Y025156D02*
X011144D01*
X011098D01*
Y025431D01*
X011052Y025386D01*
X011282Y02511D02*
X011466D01*
X011557Y025156D02*
X011649D01*
X011603D01*
Y025431D01*
X011557Y025386D01*
X023425Y019764D02*
X023517D01*
X023471D01*
Y020039D01*
X023425Y019993D01*
X023655D02*
X023701Y020039D01*
X023793D01*
X023838Y019993D01*
Y01981D01*
X023793Y019764D01*
X023701D01*
X023655Y01981D01*
Y019993D01*
X02393Y019764D02*
Y019947D01*
X024068D01*
X024114Y019902D01*
Y019764D01*
X024206Y019718D02*
X024389D01*
X024481Y019764D02*
X024573D01*
X024527D01*
Y020039D01*
X024481Y019993D01*
X024711Y019718D02*
X024895D01*
X024986Y019764D02*
X025078D01*
X025032D01*
Y020039D01*
X024986Y019993D01*
X02437Y019803D02*
X024462D01*
X024416D01*
Y020079D01*
X02437Y020033D01*
X0246D02*
X024646Y020079D01*
X024737D01*
X024783Y020033D01*
Y019849D01*
X024737Y019803D01*
X024646D01*
X0246Y019849D01*
Y020033D01*
X024875Y019803D02*
Y019987D01*
X025013D01*
X025059Y019941D01*
Y019803D01*
X025151Y019757D02*
X025334D01*
X025426Y019803D02*
X025518D01*
X025472D01*
Y020079D01*
X025426Y020033D01*
X025656Y019757D02*
X025839D01*
X025931Y019803D02*
X026023D01*
X025977D01*
Y020079D01*
X025931Y020033D01*
X024685Y026142D02*
X024777D01*
X024731D01*
Y026417D01*
X024685Y026371D01*
X024915D02*
X024961Y026417D01*
X025052D01*
X025098Y026371D01*
Y026188D01*
X025052Y026142D01*
X024961D01*
X024915Y026188D01*
Y026371D01*
X02519Y026325D02*
Y026188D01*
X025236Y026142D01*
X025374D01*
Y026325D01*
X025466Y026096D02*
X025649D01*
X025741Y026142D02*
X025833D01*
X025787D01*
Y026417D01*
X025741Y026371D01*
X025971Y026096D02*
X026154D01*
X026246Y026142D02*
X026338D01*
X026292D01*
Y026417D01*
X026246Y026371D01*
X026535Y026142D02*
X026627D01*
X026581D01*
Y026417D01*
X026535Y026371D01*
X026765D02*
X026811Y026417D01*
X026903D01*
X026949Y026371D01*
Y026188D01*
X026903Y026142D01*
X026811D01*
X026765Y026188D01*
Y026371D01*
X027041Y026325D02*
Y026188D01*
X027086Y026142D01*
X027224D01*
Y026325D01*
X027316Y026096D02*
X0275D01*
X027592Y026142D02*
X027683D01*
X027637D01*
Y026417D01*
X027592Y026371D01*
X027821Y026096D02*
X028005D01*
X028097Y026142D02*
X028188D01*
X028143D01*
Y026417D01*
X028097Y026371D01*
X022441Y019724D02*
X022533D01*
X022487D01*
Y02D01*
X022441Y019954D01*
X022671D02*
X022716Y02D01*
X022808D01*
X022854Y019954D01*
Y01977D01*
X022808Y019724D01*
X022716D01*
X022671Y01977D01*
Y019954D01*
X022946Y019724D02*
Y019908D01*
X023084D01*
X02313Y019862D01*
Y019724D01*
X023222Y019678D02*
X023405D01*
X023497Y019724D02*
X023589D01*
X023543D01*
Y02D01*
X023497Y019954D01*
X023727Y019678D02*
X02391D01*
X024002Y019724D02*
X024094D01*
X024048D01*
Y02D01*
X024002Y019954D01*
X023291Y02588D02*
X023382D01*
X023337D01*
Y026156D01*
X023291Y02611D01*
X02352Y026064D02*
Y025926D01*
X023566Y02588D01*
X023704D01*
Y026064D01*
X023796Y025835D02*
X023979D01*
X024071Y02588D02*
X024163D01*
X024117D01*
Y026156D01*
X024071Y02611D01*
X024301Y025835D02*
X024484D01*
X024576Y02588D02*
X024668D01*
X024622D01*
Y026156D01*
X024576Y02611D01*
X017283Y023661D02*
X017375D01*
X017329D01*
Y023937D01*
X017283Y023891D01*
X017513D02*
X017559Y023937D01*
X017651D01*
X017697Y023891D01*
Y023707D01*
X017651Y023661D01*
X017559D01*
X017513Y023707D01*
Y023891D01*
X017789Y023661D02*
Y023845D01*
X017926D01*
X017972Y023799D01*
Y023661D01*
X018064Y023616D02*
X018248D01*
X01834Y023661D02*
X018431D01*
X018385D01*
Y023937D01*
X01834Y023891D01*
X018569Y023616D02*
X018753D01*
X018845Y023661D02*
X018936D01*
X018891D01*
Y023937D01*
X018845Y023891D01*
X025906Y023583D02*
X025997D01*
X025951D01*
Y023858D01*
X025906Y023812D01*
X026135D02*
X026181Y023858D01*
X026273D01*
X026319Y023812D01*
Y023629D01*
X026273Y023583D01*
X026181D01*
X026135Y023629D01*
Y023812D01*
X026411Y023583D02*
Y023766D01*
X026548D01*
X026594Y02372D01*
Y023583D01*
X026686Y023537D02*
X02687D01*
X026962Y023583D02*
X027053D01*
X027008D01*
Y023858D01*
X026962Y023812D01*
X027191Y023537D02*
X027375D01*
X027467Y023583D02*
X027559D01*
X027513D01*
Y023858D01*
X027467Y023812D01*
X016521Y02575D02*
X016612D01*
X016567D01*
Y026026D01*
X016521Y02598D01*
X01675Y02575D02*
Y025934D01*
X016888D01*
X016934Y025888D01*
Y02575D01*
X017026Y025705D02*
X017209D01*
X017301Y02575D02*
X017393D01*
X017347D01*
Y026026D01*
X017301Y02598D01*
X017531Y025705D02*
X017714D01*
X017806Y02575D02*
X017898D01*
X017852D01*
Y026026D01*
X017806Y02598D01*
X017323Y020591D02*
X017415D01*
X017369D01*
Y020866D01*
X017323Y02082D01*
X017552Y020591D02*
Y020774D01*
X01769D01*
X017736Y020728D01*
Y020591D01*
X017828Y020545D02*
X018012D01*
X018103Y020591D02*
X018195D01*
X018149D01*
Y020866D01*
X018103Y02082D01*
X018333Y020545D02*
X018517D01*
X018609Y020591D02*
X0187D01*
X018654D01*
Y020866D01*
X018609Y02082D01*
X022391Y02587D02*
X022482D01*
X022437D01*
Y026146D01*
X022391Y0261D01*
X02262Y026054D02*
Y025916D01*
X022666Y02587D01*
X022804D01*
Y026054D01*
X022896Y025825D02*
X023079D01*
X023171Y02587D02*
X023263D01*
X023217D01*
Y026146D01*
X023171Y0261D01*
X023401Y025825D02*
X023584D01*
X023676Y02587D02*
X023768D01*
X023722D01*
Y026146D01*
X023676Y0261D01*
X017431Y02576D02*
X017522D01*
X017477D01*
Y026036D01*
X017431Y02599D01*
X01766Y025944D02*
Y025806D01*
X017706Y02576D01*
X017844D01*
Y025944D01*
X017936Y025715D02*
X018119D01*
X018211Y02576D02*
X018303D01*
X018257D01*
Y026036D01*
X018211Y02599D01*
X018441Y025715D02*
X018624D01*
X018716Y02576D02*
X018808D01*
X018762D01*
Y026036D01*
X018716Y02599D01*
X018291Y02598D02*
X018337Y026026D01*
X018428D01*
X018474Y02598D01*
Y025796D01*
X018428Y02575D01*
X018337D01*
X018291Y025796D01*
Y02598D01*
X018566Y02575D02*
Y025796D01*
X018612D01*
Y02575D01*
X018566D01*
X018796D02*
X018888D01*
X018842D01*
Y026026D01*
X018796Y02598D01*
X019025Y025934D02*
Y025796D01*
X019071Y02575D01*
X019209D01*
Y025934D01*
X019301Y025705D02*
X019484D01*
X019576Y02575D02*
X019668D01*
X019622D01*
Y026026D01*
X019576Y02598D01*
X019806Y025705D02*
X01999D01*
X020081Y02575D02*
X020173D01*
X020127D01*
Y026026D01*
X020081Y02598D01*
X032205Y022283D02*
Y022467D01*
X032297Y022559D01*
X032388Y022467D01*
Y022283D01*
Y022421D01*
X032205D01*
X03248Y022559D02*
Y022283D01*
X032618D01*
X032664Y022329D01*
Y022513D01*
X032618Y022559D01*
X03248D01*
X032939Y022513D02*
X032893Y022559D01*
X032802D01*
X032756Y022513D01*
Y022329D01*
X032802Y022283D01*
X032893D01*
X032939Y022329D01*
X032467Y020394D02*
X032283D01*
Y020256D01*
X032375Y020302D01*
X032421D01*
X032467Y020256D01*
Y020164D01*
X032421Y020118D01*
X032329D01*
X032283Y020164D01*
X032559Y020072D02*
X032743D01*
X032834Y020394D02*
Y020118D01*
X032972D01*
X033018Y020164D01*
Y020348D01*
X032972Y020394D01*
X032834D01*
X032428Y021489D02*
X032382Y021535D01*
X03229D01*
X032244Y021489D01*
Y021306D01*
X03229Y02126D01*
X032382D01*
X032428Y021306D01*
Y021398D01*
X032336D01*
X03252Y021214D02*
X032703D01*
X032795Y021535D02*
Y02126D01*
X032933D01*
X032979Y021306D01*
Y021489D01*
X032933Y021535D01*
X032795D01*
X032388Y023419D02*
X032342Y023464D01*
X032251D01*
X032205Y023419D01*
Y023235D01*
X032251Y023189D01*
X032342D01*
X032388Y023235D01*
Y023327D01*
X032297D01*
X03248Y023143D02*
X032664D01*
X032756Y023464D02*
Y023189D01*
X032893D01*
X032939Y023235D01*
Y023419D01*
X032893Y023464D01*
X032756D01*
X032428Y025426D02*
X032382Y025472D01*
X03229D01*
X032244Y025426D01*
Y025243D01*
X03229Y025197D01*
X032382D01*
X032428Y025243D01*
Y025335D01*
X032336D01*
X03252Y025151D02*
X032703D01*
X032795Y025472D02*
Y025197D01*
X032933D01*
X032979Y025243D01*
Y025426D01*
X032933Y025472D01*
X032795D01*
X018291Y017949D02*
X018337Y017994D01*
X018428D01*
X018474Y017949D01*
Y017765D01*
X018428Y017719D01*
X018337D01*
X018291Y017765D01*
Y017949D01*
X018566Y017719D02*
Y017765D01*
X018612D01*
Y017719D01*
X018566D01*
X018796D02*
X018888D01*
X018842D01*
Y017994D01*
X018796Y017949D01*
X019025Y017903D02*
Y017765D01*
X019071Y017719D01*
X019209D01*
Y017903D01*
X019301Y017673D02*
X019484D01*
X019576Y017719D02*
X019668D01*
X019622D01*
Y017994D01*
X019576Y017949D01*
X017431Y017729D02*
X017522D01*
X017477D01*
Y018004D01*
X017431Y017959D01*
X01766Y017913D02*
Y017775D01*
X017706Y017729D01*
X017844D01*
Y017913D01*
X017936Y017683D02*
X018119D01*
X018211Y017729D02*
X018303D01*
X018257D01*
Y018004D01*
X018211Y017959D01*
X022391Y017839D02*
X022482D01*
X022437D01*
Y018114D01*
X022391Y018069D01*
X02262Y018023D02*
Y017885D01*
X022666Y017839D01*
X022804D01*
Y018023D01*
X022896Y017793D02*
X023079D01*
X023171Y017839D02*
X023263D01*
X023217D01*
Y018114D01*
X023171Y018069D01*
X017323Y012559D02*
X017415D01*
X017369D01*
Y012835D01*
X017323Y012789D01*
X017552Y012559D02*
Y012743D01*
X01769D01*
X017736Y012697D01*
Y012559D01*
X017828Y012513D02*
X018012D01*
X018103Y012559D02*
X018195D01*
X018149D01*
Y012835D01*
X018103Y012789D01*
X016521Y017719D02*
X016612D01*
X016567D01*
Y017994D01*
X016521Y017949D01*
X01675Y017719D02*
Y017903D01*
X016888D01*
X016934Y017857D01*
Y017719D01*
X017026Y017673D02*
X017209D01*
X017301Y017719D02*
X017393D01*
X017347D01*
Y017994D01*
X017301Y017949D01*
X025906Y015551D02*
X025997D01*
X025951D01*
Y015827D01*
X025906Y015781D01*
X026135D02*
X026181Y015827D01*
X026273D01*
X026319Y015781D01*
Y015597D01*
X026273Y015551D01*
X026181D01*
X026135Y015597D01*
Y015781D01*
X026411Y015551D02*
Y015735D01*
X026548D01*
X026594Y015689D01*
Y015551D01*
X026686Y015505D02*
X02687D01*
X026962Y015551D02*
X027053D01*
X027008D01*
Y015827D01*
X026962Y015781D01*
X017283Y01563D02*
X017375D01*
X017329D01*
Y015905D01*
X017283Y01586D01*
X017513D02*
X017559Y015905D01*
X017651D01*
X017697Y01586D01*
Y015676D01*
X017651Y01563D01*
X017559D01*
X017513Y015676D01*
Y01586D01*
X017789Y01563D02*
Y015814D01*
X017926D01*
X017972Y015768D01*
Y01563D01*
X018064Y015584D02*
X018248D01*
X01834Y01563D02*
X018431D01*
X018385D01*
Y015905D01*
X01834Y01586D01*
X023291Y017849D02*
X023382D01*
X023337D01*
Y018124D01*
X023291Y018079D01*
X02352Y018033D02*
Y017895D01*
X023566Y017849D01*
X023704D01*
Y018033D01*
X023796Y017803D02*
X023979D01*
X024071Y017849D02*
X024163D01*
X024117D01*
Y018124D01*
X024071Y018079D01*
X022441Y011693D02*
X022533D01*
X022487D01*
Y011968D01*
X022441Y011923D01*
X022671D02*
X022716Y011968D01*
X022808D01*
X022854Y011923D01*
Y011739D01*
X022808Y011693D01*
X022716D01*
X022671Y011739D01*
Y011923D01*
X022946Y011693D02*
Y011877D01*
X023084D01*
X02313Y011831D01*
Y011693D01*
X023222Y011647D02*
X023405D01*
X023497Y011693D02*
X023589D01*
X023543D01*
Y011968D01*
X023497Y011923D01*
X026535Y01811D02*
X026627D01*
X026581D01*
Y018386D01*
X026535Y01834D01*
X026765D02*
X026811Y018386D01*
X026903D01*
X026949Y01834D01*
Y018156D01*
X026903Y01811D01*
X026811D01*
X026765Y018156D01*
Y01834D01*
X027041Y018294D02*
Y018156D01*
X027086Y01811D01*
X027224D01*
Y018294D01*
X027316Y018064D02*
X0275D01*
X027592Y01811D02*
X027683D01*
X027637D01*
Y018386D01*
X027592Y01834D01*
X024685Y01811D02*
X024777D01*
X024731D01*
Y018386D01*
X024685Y01834D01*
X024915D02*
X024961Y018386D01*
X025052D01*
X025098Y01834D01*
Y018156D01*
X025052Y01811D01*
X024961D01*
X024915Y018156D01*
Y01834D01*
X02519Y018294D02*
Y018156D01*
X025236Y01811D01*
X025374D01*
Y018294D01*
X025466Y018064D02*
X025649D01*
X025741Y01811D02*
X025833D01*
X025787D01*
Y018386D01*
X025741Y01834D01*
X02437Y011772D02*
X024462D01*
X024416D01*
Y012047D01*
X02437Y012001D01*
X0246D02*
X024646Y012047D01*
X024737D01*
X024783Y012001D01*
Y011818D01*
X024737Y011772D01*
X024646D01*
X0246Y011818D01*
Y012001D01*
X024875Y011772D02*
Y011955D01*
X025013D01*
X025059Y011909D01*
Y011772D01*
X025151Y011726D02*
X025334D01*
X025426Y011772D02*
X025518D01*
X025472D01*
Y012047D01*
X025426Y012001D01*
X023425Y011732D02*
X023517D01*
X023471D01*
Y012008D01*
X023425Y011962D01*
X023655D02*
X023701Y012008D01*
X023793D01*
X023838Y011962D01*
Y011778D01*
X023793Y011732D01*
X023701D01*
X023655Y011778D01*
Y011962D01*
X02393Y011732D02*
Y011916D01*
X024068D01*
X024114Y01187D01*
Y011732D01*
X024206Y011686D02*
X024389D01*
X024481Y011732D02*
X024573D01*
X024527D01*
Y012008D01*
X024481Y011962D01*
X010455Y0174D02*
X010363D01*
X010409D01*
Y01717D01*
X010363Y017124D01*
X010318D01*
X010272Y01717D01*
X010547Y017124D02*
X010639D01*
X010593D01*
Y0174D01*
X010547Y017354D01*
X010777Y017079D02*
X01096D01*
X011052Y017124D02*
X011144D01*
X011098D01*
Y0174D01*
X011052Y017354D01*
X030961Y018023D02*
X031144D01*
X031236Y018069D02*
X031328D01*
X031282D01*
Y018344D01*
X031236Y018299D01*
X025577Y011962D02*
X025531Y012008D01*
X02544D01*
X025394Y011962D01*
Y011778D01*
X02544Y011732D01*
X025531D01*
X025577Y011778D01*
Y01187D01*
X025486D01*
X025669Y011732D02*
Y012008D01*
X025853Y011732D01*
Y012008D01*
X025945D02*
Y011732D01*
X026082D01*
X026128Y011778D01*
Y011962D01*
X026082Y012008D01*
X025945D01*
X02622Y011686D02*
X026404D01*
X026496Y012008D02*
Y011732D01*
X026633D01*
X026679Y011778D01*
Y011962D01*
X026633Y012008D01*
X026496D01*
X026771Y011686D02*
X026955D01*
X027047Y011732D02*
X027139D01*
X027093D01*
Y012008D01*
X027047Y011962D01*
X027087Y011732D02*
Y011916D01*
X027178Y012008D01*
X02727Y011916D01*
Y011732D01*
Y01187D01*
X027087D01*
X027362Y012008D02*
Y011732D01*
X0275D01*
X027546Y011778D01*
Y011962D01*
X0275Y012008D01*
X027362D01*
X027821Y011962D02*
X027775Y012008D01*
X027684D01*
X027638Y011962D01*
Y011778D01*
X027684Y011732D01*
X027775D01*
X027821Y011778D01*
X027913Y011686D02*
X028097D01*
X028189Y011732D02*
X02828D01*
X028235D01*
Y012008D01*
X028189Y011962D01*
X029436Y013701D02*
X029252D01*
Y013563D01*
X029344Y013609D01*
X02939D01*
X029436Y013563D01*
Y013471D01*
X02939Y013425D01*
X029298D01*
X029252Y013471D01*
X029527Y013379D02*
X029711D01*
X029803Y013701D02*
Y013425D01*
X029941D01*
X029987Y013471D01*
Y013655D01*
X029941Y013701D01*
X029803D01*
X030078Y013379D02*
X030262D01*
X030354Y013425D02*
X030446D01*
X0304D01*
Y013701D01*
X030354Y013655D01*
X016024Y01664D02*
Y016457D01*
X016161D01*
X016116Y016549D01*
Y016594D01*
X016161Y01664D01*
X016253D01*
X016299Y016594D01*
Y016503D01*
X016253Y016457D01*
X016345Y016732D02*
Y016916D01*
X016299Y017008D02*
X016024D01*
Y017145D01*
X01607Y017191D01*
X016161D01*
X016207Y017145D01*
Y017008D01*
X016345Y017283D02*
Y017467D01*
X016299Y017559D02*
Y017651D01*
Y017605D01*
X016024D01*
X01607Y017559D01*
X016102Y013228D02*
Y01332D01*
Y013274D01*
X015827D01*
X015873Y013228D01*
Y013458D02*
X015827Y013504D01*
Y013596D01*
X015873Y013642D01*
X016056D01*
X016102Y013596D01*
Y013504D01*
X016056Y013458D01*
X015873D01*
X016102Y013733D02*
X015827D01*
X016011D02*
X015919Y013871D01*
X016011Y013733D02*
X016102Y013871D01*
X016148Y014009D02*
Y014193D01*
X016102Y014284D02*
Y014376D01*
Y01433D01*
X015827D01*
X015873Y014284D01*
X023701Y014961D02*
Y015052D01*
Y015007D01*
X023425D01*
X023471Y014961D01*
Y01519D02*
X023425Y015236D01*
Y015328D01*
X023471Y015374D01*
X023655D01*
X023701Y015328D01*
Y015236D01*
X023655Y01519D01*
X023471D01*
X023701Y015466D02*
X023425D01*
Y015603D01*
X023471Y015649D01*
X023563D01*
X023609Y015603D01*
Y015466D01*
Y015558D02*
X023701Y015649D01*
X023747Y015741D02*
Y015925D01*
X023701Y016017D02*
Y016109D01*
Y016063D01*
X023425D01*
X023471Y016017D01*
X023661Y014016D02*
Y014108D01*
Y014062D01*
X023386D01*
X023432Y014016D01*
Y014245D02*
X023386Y014291D01*
Y014383D01*
X023432Y014429D01*
X023616D01*
X023661Y014383D01*
Y014291D01*
X023616Y014245D01*
X023432D01*
X023661Y014521D02*
X023386D01*
Y014659D01*
X023432Y014705D01*
X023524D01*
X02357Y014659D01*
Y014521D01*
Y014613D02*
X023661Y014705D01*
X023707Y014796D02*
Y01498D01*
X023661Y015072D02*
Y015164D01*
Y015118D01*
X023386D01*
X023432Y015072D01*
X016181Y01563D02*
Y015722D01*
Y015676D01*
X015906D01*
X015952Y01563D01*
Y01586D02*
X015906Y015905D01*
Y015997D01*
X015952Y016043D01*
X016135D01*
X016181Y015997D01*
Y015905D01*
X016135Y01586D01*
X015952D01*
X016181Y016135D02*
X015906D01*
X016089D02*
X015997Y016273D01*
X016089Y016135D02*
X016181Y016273D01*
X016227Y016411D02*
Y016594D01*
X016181Y016686D02*
Y016778D01*
Y016732D01*
X015906D01*
X015952Y016686D01*
X028268Y013465D02*
X027992D01*
Y013602D01*
X028038Y013648D01*
X02813D01*
X028176Y013602D01*
Y013465D01*
Y013556D02*
X028268Y013648D01*
X027992Y01374D02*
Y013924D01*
X028038D01*
X028222Y01374D01*
X028268D01*
X028314Y014016D02*
Y014199D01*
X028268Y014291D02*
Y014383D01*
Y014337D01*
X027992D01*
X028038Y014291D01*
X027933Y013465D02*
Y01374D01*
X027795Y013602D01*
X027979D01*
X028071Y013465D02*
Y01351D01*
X028117D01*
Y013465D01*
X028071D01*
X0283Y01351D02*
X028346Y013465D01*
X028438D01*
X028484Y01351D01*
Y013694D01*
X028438Y01374D01*
X028346D01*
X0283Y013694D01*
Y013648D01*
X028346Y013602D01*
X028484D01*
X028576Y01351D02*
X028622Y013465D01*
X028714D01*
X02876Y01351D01*
Y013694D01*
X028714Y01374D01*
X028622D01*
X028576Y013694D01*
Y013648D01*
X028622Y013602D01*
X02876D01*
X028851Y013465D02*
Y01374D01*
Y013556D02*
X028989Y013648D01*
X028851Y013556D02*
X028989Y013465D01*
X029127Y013419D02*
X029311D01*
X029402Y013465D02*
X029494D01*
X029448D01*
Y01374D01*
X029402Y013694D01*
X030354Y015748D02*
X030446D01*
X0304D01*
Y016024D01*
X030354Y015978D01*
X030584Y016024D02*
Y015748D01*
Y01584D01*
X030768Y016024D01*
X03063Y015886D01*
X030768Y015748D01*
X030859Y015702D02*
X031043D01*
X031135Y015748D02*
X031227D01*
X031181D01*
Y016024D01*
X031135Y015978D01*
X014213Y018228D02*
X014304D01*
X014259D01*
Y018504D01*
X014213Y018458D01*
X014442Y018504D02*
Y018228D01*
Y01832D01*
X014626Y018504D01*
X014488Y018366D01*
X014626Y018228D01*
X014718Y018182D02*
X014901D01*
X014993Y018228D02*
X015085D01*
X015039D01*
Y018504D01*
X014993Y018458D01*
X014488Y015827D02*
X01458D01*
X014534D01*
Y016102D01*
X014488Y016056D01*
X014718Y015827D02*
Y016102D01*
X01481Y01601D01*
X014901Y016102D01*
Y015827D01*
X014993Y015781D02*
X015177D01*
X015269Y015827D02*
X015361D01*
X015315D01*
Y016102D01*
X015269Y016056D01*
X01833Y016564D02*
Y016335D01*
X018376Y016289D01*
X018468D01*
X018514Y016335D01*
Y016564D01*
X018605Y016289D02*
X018697D01*
X018651D01*
Y016564D01*
X018605Y016518D01*
X018835Y016243D02*
X019019D01*
X019111Y016289D02*
X019202D01*
X019156D01*
Y016564D01*
X019111Y016518D01*
X014877Y019779D02*
Y019549D01*
X014923Y019503D01*
X015015D01*
X015061Y019549D01*
Y019779D01*
X015337Y019503D02*
X015153D01*
X015337Y019687D01*
Y019733D01*
X015291Y019779D01*
X015199D01*
X015153Y019733D01*
X015428Y019457D02*
X015612D01*
X015704Y019503D02*
X015796D01*
X01575D01*
Y019779D01*
X015704Y019733D01*
X028255Y019213D02*
X028071D01*
Y019075D01*
X028163Y019121D01*
X028209D01*
X028255Y019075D01*
Y018983D01*
X028209Y018937D01*
X028117D01*
X028071Y018983D01*
X028346Y019213D02*
Y019029D01*
X028438Y018937D01*
X02853Y019029D01*
Y019213D01*
X028622Y019075D02*
X028806D01*
X028897Y018937D02*
X029035Y019075D01*
X028897Y019213D01*
X029127Y018937D02*
X029219D01*
X029173D01*
Y019213D01*
X029127Y019167D01*
X029357Y018937D02*
Y018983D01*
X029402D01*
Y018937D01*
X029357D01*
X02977Y019213D02*
X029586D01*
Y019075D01*
X029678Y019121D01*
X029724D01*
X02977Y019075D01*
Y018983D01*
X029724Y018937D01*
X029632D01*
X029586Y018983D01*
X029862Y019213D02*
Y019029D01*
X029953Y018937D01*
X030045Y019029D01*
Y019213D01*
X030137Y018891D02*
X030321D01*
X030413Y018937D02*
X030504D01*
X030459D01*
Y019213D01*
X030413Y019167D01*
X032428Y017395D02*
X032382Y017441D01*
X03229D01*
X032244Y017395D01*
Y017211D01*
X03229Y017165D01*
X032382D01*
X032428Y017211D01*
Y017303D01*
X032336D01*
X03252Y017119D02*
X032703D01*
X032795Y017441D02*
Y017165D01*
X032933D01*
X032979Y017211D01*
Y017395D01*
X032933Y017441D01*
X032795D01*
X032388Y015387D02*
X032342Y015433D01*
X032251D01*
X032205Y015387D01*
Y015203D01*
X032251Y015157D01*
X032342D01*
X032388Y015203D01*
Y015295D01*
X032297D01*
X03248Y015112D02*
X032664D01*
X032756Y015433D02*
Y015157D01*
X032893D01*
X032939Y015203D01*
Y015387D01*
X032893Y015433D01*
X032756D01*
X032428Y013458D02*
X032382Y013504D01*
X03229D01*
X032244Y013458D01*
Y013274D01*
X03229Y013228D01*
X032382D01*
X032428Y013274D01*
Y013366D01*
X032336D01*
X03252Y013182D02*
X032703D01*
X032795Y013504D02*
Y013228D01*
X032933D01*
X032979Y013274D01*
Y013458D01*
X032933Y013504D01*
X032795D01*
X032467Y012362D02*
X032283D01*
Y012224D01*
X032375Y01227D01*
X032421D01*
X032467Y012224D01*
Y012133D01*
X032421Y012087D01*
X032329D01*
X032283Y012133D01*
X032559Y012041D02*
X032743D01*
X032834Y012362D02*
Y012087D01*
X032972D01*
X033018Y012133D01*
Y012316D01*
X032972Y012362D01*
X032834D01*
X032205Y014252D02*
Y014436D01*
X032297Y014527D01*
X032388Y014436D01*
Y014252D01*
Y01439D01*
X032205D01*
X03248Y014527D02*
Y014252D01*
X032618D01*
X032664Y014298D01*
Y014482D01*
X032618Y014527D01*
X03248D01*
X032939Y014482D02*
X032893Y014527D01*
X032802D01*
X032756Y014482D01*
Y014298D01*
X032802Y014252D01*
X032893D01*
X032939Y014298D01*
X032244Y006063D02*
Y006247D01*
X032336Y006338D01*
X032428Y006247D01*
Y006063D01*
Y006201D01*
X032244D01*
X03252Y006338D02*
Y006063D01*
X032657D01*
X032703Y006109D01*
Y006293D01*
X032657Y006338D01*
X03252D01*
X032979Y006293D02*
X032933Y006338D01*
X032841D01*
X032795Y006293D01*
Y006109D01*
X032841Y006063D01*
X032933D01*
X032979Y006109D01*
X032506Y004173D02*
X032323D01*
Y004035D01*
X032415Y004081D01*
X032461D01*
X032506Y004035D01*
Y003944D01*
X032461Y003898D01*
X032369D01*
X032323Y003944D01*
X032598Y003852D02*
X032782D01*
X032874Y004173D02*
Y003898D01*
X033012D01*
X033058Y003944D01*
Y004127D01*
X033012Y004173D01*
X032874D01*
X032467Y005269D02*
X032421Y005315D01*
X032329D01*
X032283Y005269D01*
Y005085D01*
X032329Y005039D01*
X032421D01*
X032467Y005085D01*
Y005177D01*
X032375D01*
X032559Y004993D02*
X032743D01*
X032834Y005315D02*
Y005039D01*
X032972D01*
X033018Y005085D01*
Y005269D01*
X032972Y005315D01*
X032834D01*
X032428Y007198D02*
X032382Y007244D01*
X03229D01*
X032244Y007198D01*
Y007014D01*
X03229Y006969D01*
X032382D01*
X032428Y007014D01*
Y007106D01*
X032336D01*
X03252Y006923D02*
X032703D01*
X032795Y007244D02*
Y006969D01*
X032933D01*
X032979Y007014D01*
Y007198D01*
X032933Y007244D01*
X032795D01*
X032467Y009206D02*
X032421Y009252D01*
X032329D01*
X032283Y009206D01*
Y009022D01*
X032329Y008976D01*
X032421D01*
X032467Y009022D01*
Y009114D01*
X032375D01*
X032559Y00893D02*
X032743D01*
X032834Y009252D02*
Y008976D01*
X032972D01*
X033018Y009022D01*
Y009206D01*
X032972Y009252D01*
X032834D01*
X027972Y005276D02*
Y005551D01*
X027835Y005413D01*
X028018D01*
X02811Y005276D02*
Y005322D01*
X028156D01*
Y005276D01*
X02811D01*
X02834Y005322D02*
X028386Y005276D01*
X028477D01*
X028523Y005322D01*
Y005505D01*
X028477Y005551D01*
X028386D01*
X02834Y005505D01*
Y005459D01*
X028386Y005413D01*
X028523D01*
X028615Y005322D02*
X028661Y005276D01*
X028753D01*
X028799Y005322D01*
Y005505D01*
X028753Y005551D01*
X028661D01*
X028615Y005505D01*
Y005459D01*
X028661Y005413D01*
X028799D01*
X028891Y005276D02*
Y005551D01*
Y005367D02*
X029028Y005459D01*
X028891Y005367D02*
X029028Y005276D01*
X025945Y007362D02*
X026037D01*
X025991D01*
Y007638D01*
X025945Y007592D01*
X026174D02*
X02622Y007638D01*
X026312D01*
X026358Y007592D01*
Y007408D01*
X026312Y007362D01*
X02622D01*
X026174Y007408D01*
Y007592D01*
X02645Y007362D02*
Y007546D01*
X026588D01*
X026634Y0075D01*
Y007362D01*
X023701Y005827D02*
Y005919D01*
Y005873D01*
X023425D01*
X023471Y005827D01*
Y006056D02*
X023425Y006102D01*
Y006194D01*
X023471Y00624D01*
X023655D01*
X023701Y006194D01*
Y006102D01*
X023655Y006056D01*
X023471D01*
X023701Y006332D02*
X023425D01*
Y00647D01*
X023471Y006516D01*
X023563D01*
X023609Y00647D01*
Y006332D01*
Y006424D02*
X023701Y006516D01*
X030394Y007559D02*
X030486D01*
X03044D01*
Y007835D01*
X030394Y007789D01*
X030623Y007835D02*
Y007559D01*
Y007651D01*
X030807Y007835D01*
X030669Y007697D01*
X030807Y007559D01*
X029475Y005512D02*
X029291D01*
Y005374D01*
X029383Y00542D01*
X029429D01*
X029475Y005374D01*
Y005282D01*
X029429Y005236D01*
X029337D01*
X029291Y005282D01*
X029567Y00519D02*
X029751D01*
X029842Y005512D02*
Y005236D01*
X02998D01*
X030026Y005282D01*
Y005466D01*
X02998Y005512D01*
X029842D01*
X027126Y003543D02*
Y003727D01*
X027218Y003819D01*
X02731Y003727D01*
Y003543D01*
Y003681D01*
X027126D01*
X027401Y003819D02*
Y003543D01*
X027539D01*
X027585Y003589D01*
Y003773D01*
X027539Y003819D01*
X027401D01*
X027861Y003773D02*
X027815Y003819D01*
X027723D01*
X027677Y003773D01*
Y003589D01*
X027723Y003543D01*
X027815D01*
X027861Y003589D01*
X024409Y003583D02*
X024501D01*
X024455D01*
Y003858D01*
X024409Y003812D01*
X024639D02*
X024685Y003858D01*
X024777D01*
X024823Y003812D01*
Y003629D01*
X024777Y003583D01*
X024685D01*
X024639Y003629D01*
Y003812D01*
X024915Y003583D02*
Y003766D01*
X025052D01*
X025098Y00372D01*
Y003583D01*
X023465Y003543D02*
X023556D01*
X02351D01*
Y003819D01*
X023465Y003773D01*
X023694D02*
X02374Y003819D01*
X023832D01*
X023878Y003773D01*
Y003589D01*
X023832Y003543D01*
X02374D01*
X023694Y003589D01*
Y003773D01*
X02397Y003543D02*
Y003727D01*
X024107D01*
X024153Y003681D01*
Y003543D01*
X02248Y003504D02*
X022572D01*
X022526D01*
Y003779D01*
X02248Y003734D01*
X02271D02*
X022756Y003779D01*
X022848D01*
X022894Y003734D01*
Y00355D01*
X022848Y003504D01*
X022756D01*
X02271Y00355D01*
Y003734D01*
X022985Y003504D02*
Y003688D01*
X023123D01*
X023169Y003642D01*
Y003504D01*
X028294Y011024D02*
X02811D01*
Y010886D01*
X028202Y010932D01*
X028248D01*
X028294Y010886D01*
Y010794D01*
X028248Y010748D01*
X028156D01*
X02811Y010794D01*
X028386Y011024D02*
Y01084D01*
X028478Y010748D01*
X028569Y01084D01*
Y011024D01*
X028661Y010886D02*
X028845D01*
X028937Y010748D02*
X029074Y010886D01*
X028937Y011024D01*
X029166Y010748D02*
X029258D01*
X029212D01*
Y011024D01*
X029166Y010978D01*
X029396Y010748D02*
Y010794D01*
X029442D01*
Y010748D01*
X029396D01*
X029809Y011024D02*
X029625D01*
Y010886D01*
X029717Y010932D01*
X029763D01*
X029809Y010886D01*
Y010794D01*
X029763Y010748D01*
X029671D01*
X029625Y010794D01*
X029901Y011024D02*
Y01084D01*
X029993Y010748D01*
X030085Y01084D01*
Y011024D01*
X024724Y009921D02*
X024816D01*
X02477D01*
Y010197D01*
X024724Y010151D01*
X024954D02*
X025Y010197D01*
X025092D01*
X025138Y010151D01*
Y009967D01*
X025092Y009921D01*
X025D01*
X024954Y009967D01*
Y010151D01*
X025229Y010105D02*
Y009967D01*
X025275Y009921D01*
X025413D01*
Y010105D01*
X026575Y009921D02*
X026667D01*
X026621D01*
Y010197D01*
X026575Y010151D01*
X026804D02*
X02685Y010197D01*
X026942D01*
X026988Y010151D01*
Y009967D01*
X026942Y009921D01*
X02685D01*
X026804Y009967D01*
Y010151D01*
X02708Y010105D02*
Y009967D01*
X027126Y009921D01*
X027264D01*
Y010105D01*
X016063Y008451D02*
Y008268D01*
X016201D01*
X016155Y00836D01*
Y008405D01*
X016201Y008451D01*
X016293D01*
X016339Y008405D01*
Y008314D01*
X016293Y008268D01*
X016385Y008543D02*
Y008727D01*
X016339Y008819D02*
X016063D01*
Y008956D01*
X016109Y009002D01*
X016201D01*
X016247Y008956D01*
Y008819D01*
X014252Y010039D02*
X014344D01*
X014298D01*
Y010315D01*
X014252Y010269D01*
X014482Y010315D02*
Y010039D01*
Y010131D01*
X014665Y010315D01*
X014527Y010177D01*
X014665Y010039D01*
X017362Y00437D02*
X017454D01*
X017408D01*
Y004646D01*
X017362Y0046D01*
X017592Y00437D02*
Y004554D01*
X01773D01*
X017775Y004508D01*
Y00437D01*
X017323Y007441D02*
X017415D01*
X017369D01*
Y007716D01*
X017323Y007671D01*
X017552D02*
X017598Y007716D01*
X01769D01*
X017736Y007671D01*
Y007487D01*
X01769Y007441D01*
X017598D01*
X017552Y007487D01*
Y007671D01*
X017828Y007441D02*
Y007625D01*
X017966D01*
X018012Y007579D01*
Y007441D01*
X014528Y007638D02*
X014619D01*
X014573D01*
Y007913D01*
X014528Y007867D01*
X014757Y007638D02*
Y007913D01*
X014849Y007821D01*
X014941Y007913D01*
Y007638D01*
X028307Y005276D02*
X028032D01*
Y005413D01*
X028077Y005459D01*
X028169D01*
X028215Y005413D01*
Y005276D01*
Y005367D02*
X028307Y005459D01*
X028032Y005551D02*
Y005735D01*
X028077D01*
X028261Y005551D01*
X028307D01*
X025617Y003773D02*
X025571Y003819D01*
X025479D01*
X025433Y003773D01*
Y003589D01*
X025479Y003543D01*
X025571D01*
X025617Y003589D01*
Y003681D01*
X025525D01*
X025709Y003543D02*
Y003819D01*
X025892Y003543D01*
Y003819D01*
X025984D02*
Y003543D01*
X026122D01*
X026168Y003589D01*
Y003773D01*
X026122Y003819D01*
X025984D01*
X02626Y003497D02*
X026443D01*
X026535Y003819D02*
Y003543D01*
X026673D01*
X026719Y003589D01*
Y003773D01*
X026673Y003819D01*
X026535D01*
X02374Y006772D02*
Y006863D01*
Y006818D01*
X023465D01*
X023511Y006772D01*
Y007001D02*
X023465Y007047D01*
Y007139D01*
X023511Y007185D01*
X023694D01*
X02374Y007139D01*
Y007047D01*
X023694Y007001D01*
X023511D01*
X02374Y007277D02*
X023465D01*
Y007414D01*
X023511Y00746D01*
X023602D01*
X023648Y007414D01*
Y007277D01*
Y007369D02*
X02374Y00746D01*
X016142Y005039D02*
Y005131D01*
Y005085D01*
X015866D01*
X015912Y005039D01*
Y005269D02*
X015866Y005315D01*
Y005407D01*
X015912Y005453D01*
X016096D01*
X016142Y005407D01*
Y005315D01*
X016096Y005269D01*
X015912D01*
X016142Y005544D02*
X015866D01*
X01605D02*
X015958Y005682D01*
X01605Y005544D02*
X016142Y005682D01*
X01622Y007441D02*
Y007533D01*
Y007487D01*
X015945D01*
X015991Y007441D01*
Y007671D02*
X015945Y007716D01*
Y007808D01*
X015991Y007854D01*
X016175D01*
X01622Y007808D01*
Y007716D01*
X016175Y007671D01*
X015991D01*
X01622Y007946D02*
X015945D01*
X016129D02*
X016037Y008084D01*
X016129Y007946D02*
X01622Y008084D01*
X01833Y00976D02*
X018376Y009805D01*
X018468D01*
X018514Y00976D01*
Y009576D01*
X018468Y00953D01*
X018376D01*
X01833Y009576D01*
Y00976D01*
X018606Y00953D02*
Y009576D01*
X018651D01*
Y00953D01*
X018606D01*
X018835D02*
X018927D01*
X018881D01*
Y009805D01*
X018835Y00976D01*
X019065Y009714D02*
Y009576D01*
X019111Y00953D01*
X019248D01*
Y009714D01*
X01747Y00954D02*
X017562D01*
X017516D01*
Y009815D01*
X01747Y00977D01*
X0177Y009724D02*
Y009586D01*
X017745Y00954D01*
X017883D01*
Y009724D01*
X02243Y00965D02*
X022522D01*
X022476D01*
Y009926D01*
X02243Y00988D01*
X02266Y009834D02*
Y009696D01*
X022706Y00965D01*
X022843D01*
Y009834D01*
X018369Y008375D02*
Y008146D01*
X018415Y0081D01*
X018507D01*
X018553Y008146D01*
Y008375D01*
X018645Y0081D02*
X018737D01*
X018691D01*
Y008375D01*
X018645Y00833D01*
X014917Y01159D02*
Y01136D01*
X014963Y011314D01*
X015055D01*
X015101Y01136D01*
Y01159D01*
X015376Y011314D02*
X015192D01*
X015376Y011498D01*
Y011544D01*
X01533Y01159D01*
X015238D01*
X015192Y011544D01*
X01656Y00953D02*
X016652D01*
X016606D01*
Y009805D01*
X01656Y00976D01*
X01679Y00953D02*
Y009714D01*
X016927D01*
X016973Y009668D01*
Y00953D01*
X02333Y00966D02*
X023422D01*
X023376D01*
Y009936D01*
X02333Y00989D01*
X02356Y009844D02*
Y009706D01*
X023605Y00966D01*
X023743D01*
Y009844D01*
X010495Y009211D02*
X010403D01*
X010449D01*
Y008981D01*
X010403Y008936D01*
X010357D01*
X010311Y008981D01*
X010587Y008936D02*
X010678D01*
X010632D01*
Y009211D01*
X010587Y009165D01*
D32*
X009961Y019685D02*
X033386D01*
X027957Y024835D02*
Y025874D01*
X027827Y024705D02*
X027957Y024835D01*
X027827Y024705D02*
X027957Y024835D01*
X030295D01*
X030425Y024705D01*
X030295Y024835D02*
X030425Y024705D01*
X030295Y024835D02*
Y025874D01*
X030425Y026004D01*
X030295Y025874D02*
X030425Y026004D01*
X027957Y025874D02*
X030295D01*
X027827Y026004D02*
X027957Y025874D01*
X027827Y026004D02*
X027827D01*
X009961Y011575D02*
X033386D01*
X027957Y016803D02*
Y017843D01*
X027827Y016673D02*
X027957Y016803D01*
X027827Y016673D02*
X027957Y016803D01*
X030295D01*
X030425Y016673D01*
X030295Y016803D02*
X030425Y016673D01*
X030295Y016803D02*
Y017843D01*
X030425Y017972D01*
X030295Y017843D02*
X030425Y017972D01*
X027957Y017843D02*
X030295D01*
X027827Y017972D02*
X027957Y017843D01*
X027827Y017972D02*
X027827D01*
X027996Y008614D02*
Y009654D01*
X027866Y008484D02*
X027996Y008614D01*
X027866Y008484D02*
X027996Y008614D01*
X030335D01*
X030465Y008484D01*
X030335Y008614D02*
X030465Y008484D01*
X030335Y008614D02*
Y009654D01*
X030465Y009783D01*
X030335Y009654D02*
X030465Y009783D01*
X027996Y009654D02*
X030335D01*
X027866Y009783D02*
X027996Y009654D01*
X027866Y009783D02*
X027866D01*
D33*
X014769Y024335D02*
Y024385D01*
Y024335D02*
X015669D01*
Y024385D01*
X014769Y024985D02*
Y025035D01*
X015669D01*
Y024985D02*
Y025035D01*
X029454Y021894D02*
Y021944D01*
Y021894D02*
X030354D01*
Y021944D01*
X029454Y022544D02*
Y022594D01*
X030354D01*
Y022544D02*
Y022594D01*
X029454Y013863D02*
Y013913D01*
Y013863D02*
X030354D01*
Y013913D01*
X029454Y014513D02*
Y014563D01*
X030354D01*
Y014513D02*
Y014563D01*
X014769Y016304D02*
Y016354D01*
Y016304D02*
X015669D01*
Y016354D01*
X014769Y016954D02*
Y017004D01*
X015669D01*
Y016954D02*
Y017004D01*
X029494Y005674D02*
Y005724D01*
Y005674D02*
X030394D01*
Y005724D01*
X029494Y006324D02*
Y006374D01*
X030394D01*
Y006324D02*
Y006374D01*
X014809Y008115D02*
Y008165D01*
Y008115D02*
X015709D01*
Y008165D01*
X014809Y008765D02*
Y008815D01*
X015709D01*
Y008765D02*
Y008815D01*
D34*
X023969Y020735D02*
Y020915D01*
X023429Y020735D02*
Y020915D01*
X024916Y020735D02*
Y020915D01*
X024376Y020735D02*
Y020915D01*
X022448Y020738D02*
Y020918D01*
X022988Y020738D02*
Y020918D01*
X023851Y02483D02*
Y02501D01*
X023311Y02483D02*
Y02501D01*
X017867Y022704D02*
Y022884D01*
X017327Y022704D02*
Y022884D01*
X025952Y022589D02*
Y022769D01*
X026492Y022589D02*
Y022769D01*
X016541Y024715D02*
Y024895D01*
X017081Y024715D02*
Y024895D01*
X017471Y021686D02*
X017651D01*
X017471Y021146D02*
X017651D01*
X022407Y024833D02*
Y025013D01*
X022947Y024833D02*
Y025013D01*
X017985Y024712D02*
Y024892D01*
X017445Y024712D02*
Y024892D01*
X018314Y024715D02*
Y024895D01*
X018854Y024715D02*
Y024895D01*
X018314Y016683D02*
Y016863D01*
X018854Y016683D02*
Y016863D01*
X017985Y01668D02*
Y01686D01*
X017445Y01668D02*
Y01686D01*
X022407Y016801D02*
Y016981D01*
X022947Y016801D02*
Y016981D01*
X017471Y013654D02*
X017651D01*
X017471Y013114D02*
X017651D01*
X016541Y016683D02*
Y016863D01*
X017081Y016683D02*
Y016863D01*
X025952Y014557D02*
Y014737D01*
X026492Y014557D02*
Y014737D01*
X017867Y014672D02*
Y014852D01*
X017327Y014672D02*
Y014852D01*
X023851Y016798D02*
Y016978D01*
X023311Y016798D02*
Y016978D01*
X022448Y012707D02*
Y012887D01*
X022988Y012707D02*
Y012887D01*
X024916Y012704D02*
Y012884D01*
X024376Y012704D02*
Y012884D01*
X023969Y012704D02*
Y012884D01*
X023429Y012704D02*
Y012884D01*
X025991Y006368D02*
Y006548D01*
X026531Y006368D02*
Y006548D01*
X024955Y004515D02*
Y004695D01*
X024415Y004515D02*
Y004695D01*
X024009Y004515D02*
Y004695D01*
X023469Y004515D02*
Y004695D01*
X022487Y004518D02*
Y004698D01*
X023027Y004518D02*
Y004698D01*
X01751Y005465D02*
X01769D01*
X01751Y004925D02*
X01769D01*
X017906Y006483D02*
Y006663D01*
X017366Y006483D02*
Y006663D01*
X018353Y008494D02*
Y008674D01*
X018893Y008494D02*
Y008674D01*
X018025Y008491D02*
Y008671D01*
X017485Y008491D02*
Y008671D01*
X022447Y008612D02*
Y008792D01*
X022987Y008612D02*
Y008792D01*
X01658Y008494D02*
Y008674D01*
X01712Y008494D02*
Y008674D01*
X023891Y008609D02*
Y008789D01*
X023351Y008609D02*
Y008789D01*
M02*
