G04 Layer_Color=32896*
%FSTAX24Y24*%
%MOIN*%
G70*
G01*
G75*
%ADD31C,0.0079*%
%ADD32C,0.0020*%
%ADD34C,0.0070*%
D31*
X029343Y02237D02*
G03*
X029343Y02237I-000008J0D01*
G01*
X029343Y014339D02*
G03*
X029343Y014339I-000008J0D01*
G01*
X029382Y00615D02*
G03*
X029382Y00615I-000008J0D01*
G01*
X028195Y025751D02*
Y026224D01*
X028204Y024953D02*
Y025446D01*
X027549Y024953D02*
Y025446D01*
X027549Y025751D02*
Y026224D01*
X027549Y024953D02*
X028204D01*
X027549Y026224D02*
X028195D01*
X029061Y025751D02*
Y026224D01*
X02907Y024953D02*
Y025446D01*
X028415Y024953D02*
Y025446D01*
X028415Y025751D02*
Y026224D01*
X028415Y024953D02*
X02907D01*
X028415Y026224D02*
X029061D01*
X029967Y025791D02*
Y026264D01*
X029976Y024992D02*
Y025486D01*
X029321Y024992D02*
Y025486D01*
X02932Y025791D02*
Y026264D01*
X029321Y024992D02*
X029976D01*
X02932Y026264D02*
X029967D01*
X029967Y017759D02*
Y018232D01*
X029976Y016961D02*
Y017454D01*
X029321Y016961D02*
Y017454D01*
X02932Y017759D02*
Y018232D01*
X029321Y016961D02*
X029976D01*
X02932Y018232D02*
X029967D01*
X029061Y01772D02*
Y018193D01*
X02907Y016921D02*
Y017415D01*
X028415Y016921D02*
Y017415D01*
X028415Y01772D02*
Y018193D01*
X028415Y016921D02*
X02907D01*
X028415Y018193D02*
X029061D01*
X028195Y01772D02*
Y018193D01*
X028204Y016921D02*
Y017415D01*
X027549Y016921D02*
Y017415D01*
X027549Y01772D02*
Y018193D01*
X027549Y016921D02*
X028204D01*
X027549Y018193D02*
X028195D01*
X028234Y009531D02*
Y010004D01*
X028243Y008732D02*
Y009226D01*
X027589Y008732D02*
Y009226D01*
X027588Y009531D02*
Y010004D01*
X027589Y008732D02*
X028243D01*
X027588Y010004D02*
X028234D01*
X030006Y00957D02*
Y010043D01*
X030015Y008772D02*
Y009265D01*
X02936Y008772D02*
Y009265D01*
X02936Y00957D02*
Y010043D01*
X02936Y008772D02*
X030015D01*
X02936Y010043D02*
X030006D01*
X0291Y009531D02*
Y010004D01*
X02911Y008732D02*
Y009226D01*
X028455Y008732D02*
Y009226D01*
X028454Y009531D02*
Y010004D01*
X028455Y008732D02*
X02911D01*
X028454Y010004D02*
X0291D01*
X029701Y02285D02*
Y023126D01*
X029609Y023034D01*
X029517Y023126D01*
Y02285D01*
X029241Y02308D02*
X029287Y023126D01*
X029379D01*
X029425Y02308D01*
Y022896D01*
X029379Y02285D01*
X029287D01*
X029241Y022896D01*
X028966Y023126D02*
X029058Y02308D01*
X02915Y022988D01*
Y022896D01*
X029104Y02285D01*
X029012D01*
X028966Y022896D01*
Y022942D01*
X029012Y022988D01*
X02915D01*
X028874Y02308D02*
X028828Y023126D01*
X028736D01*
X02869Y02308D01*
Y022896D01*
X028736Y02285D01*
X028828D01*
X028874Y022896D01*
Y02308D01*
X028599D02*
X028553Y023126D01*
X028461D01*
X028415Y02308D01*
Y022896D01*
X028461Y02285D01*
X028553D01*
X028599Y022896D01*
Y02308D01*
X028323Y02285D02*
X028231D01*
X028277D01*
Y023126D01*
X028323Y02308D01*
X028094Y022805D02*
X02791D01*
X027818Y02285D02*
X027726D01*
X027772D01*
Y023126D01*
X027818Y02308D01*
X027588Y022805D02*
X027405D01*
X027313Y02285D02*
X027221D01*
X027267D01*
Y023126D01*
X027313Y02308D01*
X016942Y020433D02*
X017126D01*
X016942Y020617D01*
Y020663D01*
X016988Y020709D01*
X01708D01*
X017126Y020663D01*
X01685Y020433D02*
Y020709D01*
X016759Y020617D01*
X016667Y020709D01*
Y020433D01*
X016575Y020387D02*
X016391D01*
X016299Y020433D02*
X016208D01*
X016254D01*
Y020709D01*
X016299Y020663D01*
X01607Y020387D02*
X015886D01*
X015794Y020433D02*
X015703D01*
X015748D01*
Y020709D01*
X015794Y020663D01*
X013911Y025315D02*
X014094D01*
X013911Y025499D01*
Y025545D01*
X013957Y02559D01*
X014049D01*
X014094Y025545D01*
X013819Y025315D02*
Y02559D01*
X013727Y025499D01*
X013635Y02559D01*
Y025315D01*
X013543Y025269D02*
X01336D01*
X013268Y025315D02*
X013176D01*
X013222D01*
Y02559D01*
X013268Y025545D01*
X013038Y025269D02*
X012855D01*
X012763Y025315D02*
X012671D01*
X012717D01*
Y02559D01*
X012763Y025545D01*
X015919Y020433D02*
X016102D01*
X015919Y020617D01*
Y020663D01*
X015965Y020709D01*
X016056D01*
X016102Y020663D01*
X015827Y020433D02*
Y020709D01*
X015735Y020617D01*
X015643Y020709D01*
Y020433D01*
X015551Y020387D02*
X015368D01*
X015276Y020433D02*
X015184D01*
X01523D01*
Y020709D01*
X015276Y020663D01*
X015046Y020387D02*
X014863D01*
X014771Y020433D02*
X014679D01*
X014725D01*
Y020709D01*
X014771Y020663D01*
X014856Y025315D02*
X015039D01*
X014856Y025499D01*
Y025545D01*
X014902Y02559D01*
X014993D01*
X015039Y025545D01*
X014764Y025315D02*
Y02559D01*
X014672Y025499D01*
X01458Y02559D01*
Y025315D01*
X014488Y025269D02*
X014305D01*
X014213Y025315D02*
X014121D01*
X014167D01*
Y02559D01*
X014213Y025545D01*
X013983Y025269D02*
X0138D01*
X013708Y025315D02*
X013616D01*
X013662D01*
Y02559D01*
X013708Y025545D01*
X014895Y020433D02*
X015079D01*
X014895Y020617D01*
Y020663D01*
X014941Y020709D01*
X015033D01*
X015079Y020663D01*
X014803Y020433D02*
Y020709D01*
X014711Y020617D01*
X01462Y020709D01*
Y020433D01*
X014528Y020387D02*
X014344D01*
X014252Y020433D02*
X01416D01*
X014206D01*
Y020709D01*
X014252Y020663D01*
X014023Y020387D02*
X013839D01*
X013747Y020433D02*
X013655D01*
X013701D01*
Y020709D01*
X013747Y020663D01*
X015801Y025315D02*
X015984D01*
X015801Y025499D01*
Y025545D01*
X015847Y02559D01*
X015938D01*
X015984Y025545D01*
X015709Y025315D02*
Y02559D01*
X015617Y025499D01*
X015525Y02559D01*
Y025315D01*
X015433Y025269D02*
X01525D01*
X015158Y025315D02*
X015066D01*
X015112D01*
Y02559D01*
X015158Y025545D01*
X014928Y025269D02*
X014744D01*
X014653Y025315D02*
X014561D01*
X014607D01*
Y02559D01*
X014653Y025545D01*
X013911Y020433D02*
X014094D01*
X013911Y020617D01*
Y020663D01*
X013957Y020709D01*
X014049D01*
X014094Y020663D01*
X013819Y020433D02*
Y020709D01*
X013727Y020617D01*
X013635Y020709D01*
Y020433D01*
X013543Y020387D02*
X01336D01*
X013268Y020433D02*
X013176D01*
X013222D01*
Y020709D01*
X013268Y020663D01*
X013038Y020387D02*
X012855D01*
X012763Y020433D02*
X012671D01*
X012717D01*
Y020709D01*
X012763Y020663D01*
X017008Y025315D02*
X016916D01*
X016962D01*
Y02559D01*
X017008Y025545D01*
X016778Y025315D02*
Y02559D01*
X016686Y025499D01*
X016595Y02559D01*
Y025315D01*
X016503Y025269D02*
X016319D01*
X016227Y025315D02*
X016135D01*
X016181D01*
Y02559D01*
X016227Y025545D01*
X015998Y025269D02*
X015814D01*
X015722Y025315D02*
X01563D01*
X015676D01*
Y02559D01*
X015722Y025545D01*
X027323Y025906D02*
Y025814D01*
Y02586D01*
X027047D01*
X027093Y025906D01*
Y025676D02*
X027047Y02563D01*
Y025538D01*
X027093Y025492D01*
X027277D01*
X027323Y025538D01*
Y02563D01*
X027277Y025676D01*
X027093D01*
X027323Y0254D02*
X027139D01*
Y025263D01*
X027185Y025217D01*
X027323D01*
X027369Y025125D02*
Y024941D01*
X027323Y024849D02*
Y024758D01*
Y024804D01*
X027047D01*
X027093Y024849D01*
X027369Y02462D02*
Y024436D01*
X027323Y024344D02*
Y024253D01*
Y024298D01*
X027047D01*
X027093Y024344D01*
X029031Y02654D02*
X028939D01*
X028985D01*
Y026816D01*
X029031Y02677D01*
X028801D02*
X028755Y026816D01*
X028663D01*
X028617Y02677D01*
Y026586D01*
X028663Y02654D01*
X028755D01*
X028801Y026586D01*
Y02677D01*
X028526Y02654D02*
Y026724D01*
X028388D01*
X028342Y026678D01*
Y02654D01*
X02825Y026495D02*
X028066D01*
X027975Y02654D02*
X027883D01*
X027929D01*
Y026816D01*
X027975Y02677D01*
X027745Y026495D02*
X027561D01*
X027469Y02654D02*
X027378D01*
X027424D01*
Y026816D01*
X027469Y02677D01*
X030157Y026765D02*
X030112Y026811D01*
X03002D01*
X029974Y026765D01*
Y026581D01*
X03002Y026535D01*
X030112D01*
X030157Y026581D01*
Y026765D01*
X029882Y026535D02*
Y026581D01*
X029836D01*
Y026535D01*
X029882D01*
X029652D02*
X029561D01*
X029606D01*
Y026811D01*
X029652Y026765D01*
X029423Y026719D02*
Y026581D01*
X029377Y026535D01*
X029239D01*
Y026719D01*
X029147Y02649D02*
X028964D01*
X028872Y026535D02*
X02878D01*
X028826D01*
Y026811D01*
X028872Y026765D01*
X028642Y02649D02*
X028459D01*
X028367Y026535D02*
X028275D01*
X028321D01*
Y026811D01*
X028367Y026765D01*
X030157Y018734D02*
X030112Y018779D01*
X03002D01*
X029974Y018734D01*
Y01855D01*
X03002Y018504D01*
X030112D01*
X030157Y01855D01*
Y018734D01*
X029882Y018504D02*
Y01855D01*
X029836D01*
Y018504D01*
X029882D01*
X029652D02*
X029561D01*
X029606D01*
Y018779D01*
X029652Y018734D01*
X029423Y018688D02*
Y01855D01*
X029377Y018504D01*
X029239D01*
Y018688D01*
X029147Y018458D02*
X028964D01*
X028872Y018504D02*
X02878D01*
X028826D01*
Y018779D01*
X028872Y018734D01*
X029031Y018509D02*
X028939D01*
X028985D01*
Y018784D01*
X029031Y018739D01*
X028801D02*
X028755Y018784D01*
X028663D01*
X028617Y018739D01*
Y018555D01*
X028663Y018509D01*
X028755D01*
X028801Y018555D01*
Y018739D01*
X028526Y018509D02*
Y018693D01*
X028388D01*
X028342Y018647D01*
Y018509D01*
X02825Y018463D02*
X028066D01*
X027975Y018509D02*
X027883D01*
X027929D01*
Y018784D01*
X027975Y018739D01*
X027323Y017874D02*
Y017782D01*
Y017828D01*
X027047D01*
X027093Y017874D01*
Y017644D02*
X027047Y017599D01*
Y017507D01*
X027093Y017461D01*
X027277D01*
X027323Y017507D01*
Y017599D01*
X027277Y017644D01*
X027093D01*
X027323Y017369D02*
X027139D01*
Y017231D01*
X027185Y017185D01*
X027323D01*
X027369Y017093D02*
Y01691D01*
X027323Y016818D02*
Y016726D01*
Y016772D01*
X027047D01*
X027093Y016818D01*
X017008Y017283D02*
X016916D01*
X016962D01*
Y017559D01*
X017008Y017513D01*
X016778Y017283D02*
Y017559D01*
X016686Y017467D01*
X016595Y017559D01*
Y017283D01*
X016503Y017238D02*
X016319D01*
X016227Y017283D02*
X016135D01*
X016181D01*
Y017559D01*
X016227Y017513D01*
X013911Y012402D02*
X014094D01*
X013911Y012585D01*
Y012631D01*
X013957Y012677D01*
X014049D01*
X014094Y012631D01*
X013819Y012402D02*
Y012677D01*
X013727Y012585D01*
X013635Y012677D01*
Y012402D01*
X013543Y012356D02*
X01336D01*
X013268Y012402D02*
X013176D01*
X013222D01*
Y012677D01*
X013268Y012631D01*
X015801Y017283D02*
X015984D01*
X015801Y017467D01*
Y017513D01*
X015847Y017559D01*
X015938D01*
X015984Y017513D01*
X015709Y017283D02*
Y017559D01*
X015617Y017467D01*
X015525Y017559D01*
Y017283D01*
X015433Y017238D02*
X01525D01*
X015158Y017283D02*
X015066D01*
X015112D01*
Y017559D01*
X015158Y017513D01*
X014895Y012402D02*
X015079D01*
X014895Y012585D01*
Y012631D01*
X014941Y012677D01*
X015033D01*
X015079Y012631D01*
X014803Y012402D02*
Y012677D01*
X014711Y012585D01*
X01462Y012677D01*
Y012402D01*
X014528Y012356D02*
X014344D01*
X014252Y012402D02*
X01416D01*
X014206D01*
Y012677D01*
X014252Y012631D01*
X014856Y017283D02*
X015039D01*
X014856Y017467D01*
Y017513D01*
X014902Y017559D01*
X014993D01*
X015039Y017513D01*
X014764Y017283D02*
Y017559D01*
X014672Y017467D01*
X01458Y017559D01*
Y017283D01*
X014488Y017238D02*
X014305D01*
X014213Y017283D02*
X014121D01*
X014167D01*
Y017559D01*
X014213Y017513D01*
X015919Y012402D02*
X016102D01*
X015919Y012585D01*
Y012631D01*
X015965Y012677D01*
X016056D01*
X016102Y012631D01*
X015827Y012402D02*
Y012677D01*
X015735Y012585D01*
X015643Y012677D01*
Y012402D01*
X015551Y012356D02*
X015368D01*
X015276Y012402D02*
X015184D01*
X01523D01*
Y012677D01*
X015276Y012631D01*
X013911Y017283D02*
X014094D01*
X013911Y017467D01*
Y017513D01*
X013957Y017559D01*
X014049D01*
X014094Y017513D01*
X013819Y017283D02*
Y017559D01*
X013727Y017467D01*
X013635Y017559D01*
Y017283D01*
X013543Y017238D02*
X01336D01*
X013268Y017283D02*
X013176D01*
X013222D01*
Y017559D01*
X013268Y017513D01*
X016942Y012402D02*
X017126D01*
X016942Y012585D01*
Y012631D01*
X016988Y012677D01*
X01708D01*
X017126Y012631D01*
X01685Y012402D02*
Y012677D01*
X016759Y012585D01*
X016667Y012677D01*
Y012402D01*
X016575Y012356D02*
X016391D01*
X016299Y012402D02*
X016208D01*
X016254D01*
Y012677D01*
X016299Y012631D01*
X029701Y014819D02*
Y015094D01*
X029609Y015003D01*
X029517Y015094D01*
Y014819D01*
X029241Y015049D02*
X029287Y015094D01*
X029379D01*
X029425Y015049D01*
Y014865D01*
X029379Y014819D01*
X029287D01*
X029241Y014865D01*
X028966Y015094D02*
X029058Y015049D01*
X02915Y014957D01*
Y014865D01*
X029104Y014819D01*
X029012D01*
X028966Y014865D01*
Y014911D01*
X029012Y014957D01*
X02915D01*
X028874Y015049D02*
X028828Y015094D01*
X028736D01*
X02869Y015049D01*
Y014865D01*
X028736Y014819D01*
X028828D01*
X028874Y014865D01*
Y015049D01*
X028599D02*
X028553Y015094D01*
X028461D01*
X028415Y015049D01*
Y014865D01*
X028461Y014819D01*
X028553D01*
X028599Y014865D01*
Y015049D01*
X028323Y014819D02*
X028231D01*
X028277D01*
Y015094D01*
X028323Y015049D01*
X028094Y014773D02*
X02791D01*
X027818Y014819D02*
X027726D01*
X027772D01*
Y015094D01*
X027818Y015049D01*
X027362Y009685D02*
Y009593D01*
Y009639D01*
X027087D01*
X027133Y009685D01*
Y009455D02*
X027087Y00941D01*
Y009318D01*
X027133Y009272D01*
X027316D01*
X027362Y009318D01*
Y00941D01*
X027316Y009455D01*
X027133D01*
X027362Y00918D02*
X027179D01*
Y009042D01*
X027224Y008996D01*
X027362D01*
X030197Y010545D02*
X030151Y01059D01*
X030059D01*
X030013Y010545D01*
Y010361D01*
X030059Y010315D01*
X030151D01*
X030197Y010361D01*
Y010545D01*
X029921Y010315D02*
Y010361D01*
X029875D01*
Y010315D01*
X029921D01*
X029692D02*
X0296D01*
X029646D01*
Y01059D01*
X029692Y010545D01*
X029462Y010499D02*
Y010361D01*
X029416Y010315D01*
X029279D01*
Y010499D01*
X016982Y004213D02*
X017165D01*
X016982Y004396D01*
Y004442D01*
X017028Y004488D01*
X017119D01*
X017165Y004442D01*
X01689Y004213D02*
Y004488D01*
X016798Y004396D01*
X016706Y004488D01*
Y004213D01*
X01395Y009094D02*
X014134D01*
X01395Y009278D01*
Y009324D01*
X013996Y00937D01*
X014088D01*
X014134Y009324D01*
X013858Y009094D02*
Y00937D01*
X013767Y009278D01*
X013675Y00937D01*
Y009094D01*
X01584D02*
X016024D01*
X01584Y009278D01*
Y009324D01*
X015886Y00937D01*
X015978D01*
X016024Y009324D01*
X015748Y009094D02*
Y00937D01*
X015656Y009278D01*
X015564Y00937D01*
Y009094D01*
X02974Y00663D02*
Y006906D01*
X029648Y006814D01*
X029556Y006906D01*
Y00663D01*
X029281Y00686D02*
X029327Y006906D01*
X029419D01*
X029464Y00686D01*
Y006676D01*
X029419Y00663D01*
X029327D01*
X029281Y006676D01*
X029005Y006906D02*
X029097Y00686D01*
X029189Y006768D01*
Y006676D01*
X029143Y00663D01*
X029051D01*
X029005Y006676D01*
Y006722D01*
X029051Y006768D01*
X029189D01*
X028913Y00686D02*
X028868Y006906D01*
X028776D01*
X02873Y00686D01*
Y006676D01*
X028776Y00663D01*
X028868D01*
X028913Y006676D01*
Y00686D01*
X028638D02*
X028592Y006906D01*
X0285D01*
X028454Y00686D01*
Y006676D01*
X0285Y00663D01*
X028592D01*
X028638Y006676D01*
Y00686D01*
X028362Y00663D02*
X028271D01*
X028317D01*
Y006906D01*
X028362Y00686D01*
X02907Y01032D02*
X028978D01*
X029024D01*
Y010596D01*
X02907Y01055D01*
X02884D02*
X028795Y010596D01*
X028703D01*
X028657Y01055D01*
Y010366D01*
X028703Y01032D01*
X028795D01*
X02884Y010366D01*
Y01055D01*
X028565Y01032D02*
Y010504D01*
X028427D01*
X028381Y010458D01*
Y01032D01*
X017047Y009094D02*
X016955D01*
X017001D01*
Y00937D01*
X017047Y009324D01*
X016818Y009094D02*
Y00937D01*
X016726Y009278D01*
X016634Y00937D01*
Y009094D01*
X01395Y004213D02*
X014134D01*
X01395Y004396D01*
Y004442D01*
X013996Y004488D01*
X014088D01*
X014134Y004442D01*
X013858Y004213D02*
Y004488D01*
X013767Y004396D01*
X013675Y004488D01*
Y004213D01*
X014934D02*
X015118D01*
X014934Y004396D01*
Y004442D01*
X01498Y004488D01*
X015072D01*
X015118Y004442D01*
X014843Y004213D02*
Y004488D01*
X014751Y004396D01*
X014659Y004488D01*
Y004213D01*
X014895Y009094D02*
X015079D01*
X014895Y009278D01*
Y009324D01*
X014941Y00937D01*
X015033D01*
X015079Y009324D01*
X014803Y009094D02*
Y00937D01*
X014711Y009278D01*
X01462Y00937D01*
Y009094D01*
X015958Y004213D02*
X016142D01*
X015958Y004396D01*
Y004442D01*
X016004Y004488D01*
X016096D01*
X016142Y004442D01*
X015866Y004213D02*
Y004488D01*
X015774Y004396D01*
X015683Y004488D01*
Y004213D01*
D32*
X028789Y022559D02*
X029478D01*
X028789Y021378D02*
Y022559D01*
Y021378D02*
X029478D01*
Y022559D01*
X028789Y014528D02*
X029478D01*
X028789Y013346D02*
Y014528D01*
Y013346D02*
X029478D01*
Y014528D01*
X028829Y006339D02*
X029518D01*
X028829Y005157D02*
Y006339D01*
Y005157D02*
X029518D01*
Y006339D01*
D34*
X028144Y025502D02*
Y025682D01*
X027604Y025502D02*
Y025682D01*
X02901Y025502D02*
Y025682D01*
X02847Y025502D02*
Y025682D01*
X029916Y025542D02*
Y025722D01*
X029376Y025542D02*
Y025722D01*
X029916Y01751D02*
Y01769D01*
X029376Y01751D02*
Y01769D01*
X02901Y017471D02*
Y017651D01*
X02847Y017471D02*
Y017651D01*
X028144Y017471D02*
Y017651D01*
X027604Y017471D02*
Y017651D01*
X028183Y009282D02*
Y009462D01*
X027643Y009282D02*
Y009462D01*
X029955Y009321D02*
Y009501D01*
X029415Y009321D02*
Y009501D01*
X02905Y009282D02*
Y009462D01*
X02851Y009282D02*
Y009462D01*
M02*
