G04 Layer_Color=128*
%FSTAX24Y24*%
%MOIN*%
G70*
G01*
G75*
%ADD13R,0.0591X0.0472*%
%ADD16R,0.0472X0.0315*%
%ADD28R,0.0276X0.0236*%
D13*
X016732Y022559D02*
D03*
Y02122D02*
D03*
X013819Y023504D02*
D03*
Y024843D02*
D03*
X015787Y02122D02*
D03*
Y022559D02*
D03*
X014803Y024843D02*
D03*
Y023504D02*
D03*
Y022559D02*
D03*
Y02122D02*
D03*
X015787Y023504D02*
D03*
Y024843D02*
D03*
X013819Y02122D02*
D03*
Y022559D02*
D03*
X016732Y024843D02*
D03*
Y023504D02*
D03*
X016732Y016811D02*
D03*
Y015472D02*
D03*
X013819Y013189D02*
D03*
Y014528D02*
D03*
X015787Y015472D02*
D03*
Y016811D02*
D03*
X014803Y014528D02*
D03*
Y013189D02*
D03*
Y016811D02*
D03*
Y015472D02*
D03*
X015787Y013189D02*
D03*
Y014528D02*
D03*
X013819Y015472D02*
D03*
Y016811D02*
D03*
X016732Y014528D02*
D03*
Y013189D02*
D03*
X016772Y006339D02*
D03*
Y005D02*
D03*
X013858Y007283D02*
D03*
Y008622D02*
D03*
X015827Y007283D02*
D03*
Y008622D02*
D03*
X016772D02*
D03*
Y007283D02*
D03*
X013858Y005D02*
D03*
Y006339D02*
D03*
X014843Y006339D02*
D03*
Y005D02*
D03*
Y008622D02*
D03*
Y007283D02*
D03*
X015827Y005D02*
D03*
Y006339D02*
D03*
D16*
X027875Y025984D02*
D03*
X027874Y025197D02*
D03*
X028742Y025984D02*
D03*
X02874Y025197D02*
D03*
X029647Y026024D02*
D03*
X029646Y025236D02*
D03*
X029647Y017992D02*
D03*
X029646Y017205D02*
D03*
X028742Y017953D02*
D03*
X02874Y017165D02*
D03*
X027875Y017953D02*
D03*
X027874Y017165D02*
D03*
X027915Y009764D02*
D03*
X027913Y008976D02*
D03*
X029686Y009803D02*
D03*
X029685Y009016D02*
D03*
X028781Y009764D02*
D03*
X02878Y008976D02*
D03*
D28*
X028661Y022343D02*
D03*
Y021594D02*
D03*
X029606Y022343D02*
D03*
Y021969D02*
D03*
X029602Y021594D02*
D03*
X028661Y014311D02*
D03*
Y013563D02*
D03*
X029606Y014311D02*
D03*
Y013937D02*
D03*
X029602Y013563D02*
D03*
X028701Y006122D02*
D03*
Y005374D02*
D03*
X029646Y006122D02*
D03*
Y005748D02*
D03*
X029642Y005374D02*
D03*
M02*
