G04 Layer_Color=32768*
%FSTAX24Y24*%
%MOIN*%
G70*
G01*
G75*
%ADD53C,0.0039*%
D53*
X014646Y022756D02*
X014803D01*
X014724Y022677D02*
Y022835D01*
X015079Y025512D02*
Y025669D01*
X015Y025591D02*
X015157D01*
X030079Y023189D02*
Y023346D01*
X03Y023268D02*
X030157D01*
X027638Y022205D02*
Y022362D01*
X027559Y022283D02*
X027717D01*
X016654Y02189D02*
X016811D01*
X016732Y021811D02*
Y021969D01*
X01374Y024173D02*
X013898D01*
X013819Y024094D02*
Y024252D01*
X015709Y02189D02*
X015866D01*
X015787Y021811D02*
Y021969D01*
X014724Y024173D02*
X014882D01*
X014803Y024094D02*
Y024252D01*
X014724Y02189D02*
X014882D01*
X014803Y021811D02*
Y021969D01*
X015709Y024173D02*
X015866D01*
X015787Y024094D02*
Y024252D01*
X01374Y02189D02*
X013898D01*
X013819Y021811D02*
Y021969D01*
X027598Y023189D02*
Y023346D01*
X02752Y023268D02*
X027677D01*
X016654Y024173D02*
X016811D01*
X016732Y024094D02*
Y024252D01*
X016142Y02315D02*
Y023307D01*
X016063Y023228D02*
X01622D01*
X024646Y022244D02*
Y022402D01*
X024567Y022323D02*
X024724D01*
Y023189D02*
Y023346D01*
X024646Y023268D02*
X024803D01*
X016142Y022283D02*
Y022441D01*
X016063Y022362D02*
X01622D01*
X016142Y014252D02*
Y014409D01*
X016063Y014331D02*
X01622D01*
X024724Y015157D02*
Y015315D01*
X024646Y015236D02*
X024803D01*
X024646Y014213D02*
Y01437D01*
X024567Y014291D02*
X024724D01*
X016142Y015118D02*
Y015276D01*
X016063Y015197D02*
X01622D01*
X016654Y016142D02*
X016811D01*
X016732Y016063D02*
Y01622D01*
X027598Y015157D02*
Y015315D01*
X02752Y015236D02*
X027677D01*
X01374Y013858D02*
X013898D01*
X013819Y01378D02*
Y013937D01*
X015709Y016142D02*
X015866D01*
X015787Y016063D02*
Y01622D01*
X014724Y013858D02*
X014882D01*
X014803Y01378D02*
Y013937D01*
X014724Y016142D02*
X014882D01*
X014803Y016063D02*
Y01622D01*
X015709Y013858D02*
X015866D01*
X015787Y01378D02*
Y013937D01*
X01374Y016142D02*
X013898D01*
X013819Y016063D02*
Y01622D01*
X016654Y013858D02*
X016811D01*
X016732Y01378D02*
Y013937D01*
X027638Y014173D02*
Y014331D01*
X027559Y014252D02*
X027717D01*
X030079Y015157D02*
Y015315D01*
X03Y015236D02*
X030157D01*
X015079Y01748D02*
Y017638D01*
X015Y017559D02*
X015157D01*
X014646Y014724D02*
X014803D01*
X014724Y014646D02*
Y014803D01*
X027677Y005984D02*
Y006142D01*
X027598Y006063D02*
X027756D01*
X024685Y006024D02*
Y006181D01*
X024606Y006102D02*
X024764D01*
X030118Y006969D02*
Y007126D01*
X030039Y007047D02*
X030197D01*
X016693Y005669D02*
X01685D01*
X016772Y005591D02*
Y005748D01*
X01378Y007953D02*
X013937D01*
X013858Y007874D02*
Y008031D01*
X015748Y007953D02*
X015906D01*
X015827Y007874D02*
Y008031D01*
X015118Y009291D02*
Y009449D01*
X015039Y00937D02*
X015197D01*
X014685Y006535D02*
X014843D01*
X014764Y006457D02*
Y006614D01*
X027638Y006969D02*
Y007126D01*
X027559Y007047D02*
X027717D01*
X024764Y006969D02*
Y007126D01*
X024685Y007047D02*
X024843D01*
X016693Y007953D02*
X01685D01*
X016772Y007874D02*
Y008031D01*
X016181Y006063D02*
Y00622D01*
X016102Y006142D02*
X01626D01*
X016181Y006929D02*
Y007087D01*
X016102Y007008D02*
X01626D01*
X01378Y005669D02*
X013937D01*
X013858Y005591D02*
Y005748D01*
X014764Y005669D02*
X014921D01*
X014843Y005591D02*
Y005748D01*
X014764Y007953D02*
X014921D01*
X014843Y007874D02*
Y008031D01*
X015748Y005669D02*
X015906D01*
X015827Y005591D02*
Y005748D01*
M02*
