G04 Layer_Color=16711935*
%FSTAX24Y24*%
%MOIN*%
G70*
G01*
G75*
%ADD38R,0.0671X0.0552*%
%ADD41R,0.0552X0.0395*%
%ADD44C,0.1458*%
%ADD45R,0.0678X0.0678*%
%ADD46C,0.0710*%
%ADD47R,0.0710X0.0710*%
%ADD48R,0.1025X0.1064*%
%ADD49C,0.1064*%
%ADD50C,0.0474*%
%ADD51C,0.0280*%
%ADD52R,0.0356X0.0316*%
D38*
X016732Y022559D02*
D03*
Y02122D02*
D03*
X013819Y023504D02*
D03*
Y024843D02*
D03*
X015787Y02122D02*
D03*
Y022559D02*
D03*
X014803Y024843D02*
D03*
Y023504D02*
D03*
Y022559D02*
D03*
Y02122D02*
D03*
X015787Y023504D02*
D03*
Y024843D02*
D03*
X013819Y02122D02*
D03*
Y022559D02*
D03*
X016732Y024843D02*
D03*
Y023504D02*
D03*
X016732Y016811D02*
D03*
Y015472D02*
D03*
X013819Y013189D02*
D03*
Y014528D02*
D03*
X015787Y015472D02*
D03*
Y016811D02*
D03*
X014803Y014528D02*
D03*
Y013189D02*
D03*
Y016811D02*
D03*
Y015472D02*
D03*
X015787Y013189D02*
D03*
Y014528D02*
D03*
X013819Y015472D02*
D03*
Y016811D02*
D03*
X016732Y014528D02*
D03*
Y013189D02*
D03*
X016772Y006339D02*
D03*
Y005D02*
D03*
X013858Y007283D02*
D03*
Y008622D02*
D03*
X015827Y007283D02*
D03*
Y008622D02*
D03*
X016772D02*
D03*
Y007283D02*
D03*
X013858Y005D02*
D03*
Y006339D02*
D03*
X014843Y006339D02*
D03*
Y005D02*
D03*
Y008622D02*
D03*
Y007283D02*
D03*
X015827Y005D02*
D03*
Y006339D02*
D03*
D41*
X027875Y025984D02*
D03*
X027874Y025197D02*
D03*
X028742Y025984D02*
D03*
X02874Y025197D02*
D03*
X029647Y026024D02*
D03*
X029646Y025236D02*
D03*
X029647Y017992D02*
D03*
X029646Y017205D02*
D03*
X028742Y017953D02*
D03*
X02874Y017165D02*
D03*
X027875Y017953D02*
D03*
X027874Y017165D02*
D03*
X027915Y009764D02*
D03*
X027913Y008976D02*
D03*
X029686Y009803D02*
D03*
X029685Y009016D02*
D03*
X028781Y009764D02*
D03*
X02878Y008976D02*
D03*
D44*
X032008Y002835D02*
D03*
X011535D02*
D03*
X032008Y028543D02*
D03*
X011535D02*
D03*
D45*
X018602Y026772D02*
D03*
X016614D02*
D03*
X015614D02*
D03*
X017618D02*
D03*
X018602Y01874D02*
D03*
X016614D02*
D03*
X015614D02*
D03*
X017618D02*
D03*
X018642Y010551D02*
D03*
X016654D02*
D03*
X015654D02*
D03*
X017657D02*
D03*
D46*
X027244Y020827D02*
D03*
X025945D02*
D03*
X031496Y025362D02*
D03*
Y024362D02*
D03*
Y023362D02*
D03*
Y022362D02*
D03*
Y021362D02*
D03*
X031496Y017331D02*
D03*
Y016331D02*
D03*
Y015331D02*
D03*
Y014331D02*
D03*
Y013331D02*
D03*
X025945Y012795D02*
D03*
X027244D02*
D03*
X027283Y004606D02*
D03*
X025984D02*
D03*
X031535Y009142D02*
D03*
Y008142D02*
D03*
Y007142D02*
D03*
Y006142D02*
D03*
Y005142D02*
D03*
D47*
X031496Y020362D02*
D03*
X031496Y012331D02*
D03*
X031535Y004142D02*
D03*
D48*
X012205Y023858D02*
D03*
X012205Y015827D02*
D03*
X012244Y007638D02*
D03*
D49*
X012205Y021858D02*
D03*
X012205Y013827D02*
D03*
X012244Y005638D02*
D03*
D50*
X028583Y020669D02*
D03*
X021496Y024724D02*
D03*
X02874Y023268D02*
D03*
X02185Y020236D02*
D03*
X026102Y024291D02*
D03*
X02752Y024646D02*
D03*
Y023937D02*
D03*
X027875Y026576D02*
D03*
X013252Y025437D02*
D03*
X019311Y024724D02*
D03*
X019311Y016693D02*
D03*
X013252Y017406D02*
D03*
X027875Y018545D02*
D03*
X02752Y015906D02*
D03*
Y016614D02*
D03*
X026102Y01626D02*
D03*
X02185Y012205D02*
D03*
X02874Y015236D02*
D03*
X021496Y016693D02*
D03*
X028583Y012638D02*
D03*
X028622Y004449D02*
D03*
X021535Y008504D02*
D03*
X02878Y007047D02*
D03*
X02189Y004016D02*
D03*
X026142Y008071D02*
D03*
X027559Y008425D02*
D03*
Y007717D02*
D03*
X027915Y010356D02*
D03*
X013291Y009217D02*
D03*
X01935Y008504D02*
D03*
D51*
X027323Y02185D02*
D03*
X027323Y013819D02*
D03*
X027362Y00563D02*
D03*
D52*
X028661Y022343D02*
D03*
Y021594D02*
D03*
X029606Y022343D02*
D03*
Y021969D02*
D03*
X029602Y021594D02*
D03*
X028661Y014311D02*
D03*
Y013563D02*
D03*
X029606Y014311D02*
D03*
Y013937D02*
D03*
X029602Y013563D02*
D03*
X028701Y006122D02*
D03*
Y005374D02*
D03*
X029646Y006122D02*
D03*
Y005748D02*
D03*
X029642Y005374D02*
D03*
M02*
