G04 Layer_Physical_Order=2*
G04 Layer_Color=16711680*
%FSTAX24Y24*%
%MOIN*%
G70*
G01*
G75*
%ADD13R,0.0591X0.0472*%
%ADD16R,0.0472X0.0315*%
%ADD19C,0.0197*%
%ADD20C,0.1378*%
%ADD21R,0.0598X0.0598*%
%ADD22C,0.0630*%
%ADD23R,0.0630X0.0630*%
%ADD24R,0.0945X0.0984*%
%ADD25C,0.0984*%
%ADD26C,0.0394*%
%ADD27C,0.0200*%
%ADD28R,0.0276X0.0236*%
G36*
X02815Y010551D02*
Y009606D01*
X026378D01*
Y007992D01*
X026142Y007756D01*
X025354D01*
Y004134D01*
X028346D01*
X028425Y004213D01*
Y004646D01*
X028934D01*
X028976Y003622D01*
X021378D01*
X021339Y003583D01*
X021181Y00374D01*
Y004409D01*
X023189D01*
Y008465D01*
X025591D01*
X02563Y008425D01*
X025709Y008504D01*
Y01063D01*
X028071D01*
X02815Y010551D01*
D02*
G37*
G36*
X012953Y016654D02*
Y015079D01*
X011496D01*
Y013189D01*
X011968Y012717D01*
X017441D01*
Y013976D01*
X016417D01*
Y014252D01*
Y014331D01*
Y014764D01*
Y014921D01*
X018819D01*
X018898Y014843D01*
Y01189D01*
X010197D01*
Y012677D01*
Y01685D01*
X012953D01*
Y016654D01*
D02*
G37*
G36*
X017323Y019567D02*
X032835D01*
Y018386D01*
Y012008D01*
X032717Y01189D01*
X032677Y011929D01*
X030236D01*
Y012244D01*
X030118Y012362D01*
Y013661D01*
X030197Y01374D01*
X030118Y013819D01*
Y014016D01*
X030591D01*
X030669Y013937D01*
Y012717D01*
X030748Y012638D01*
X030787Y012677D01*
X032126D01*
Y016024D01*
X032087Y015984D01*
X031102D01*
Y016654D01*
X032087D01*
X032165Y016732D01*
Y017677D01*
X031969Y017874D01*
X030906D01*
Y017638D01*
X028504D01*
X028504Y019094D01*
X025359Y019094D01*
X025359Y017087D01*
X022756D01*
Y016063D01*
X020827D01*
Y019213D01*
X018032D01*
Y018425D01*
X017283D01*
Y019606D01*
X017323Y019567D01*
D02*
G37*
G36*
X017087Y008071D02*
X015512D01*
Y00878D01*
X015472Y008819D01*
X015512Y008858D01*
X017087D01*
Y008071D01*
D02*
G37*
G36*
X015984Y011024D02*
X015984Y01D01*
X020433D01*
X020512Y009921D01*
Y008307D01*
X020276Y008071D01*
X018622D01*
Y009331D01*
X018346Y009606D01*
X014843Y009606D01*
X014843Y011024D01*
X015984Y011024D01*
D02*
G37*
G36*
X015197Y00811D02*
X013465D01*
Y008701D01*
Y008858D01*
X015197D01*
Y00811D01*
D02*
G37*
G36*
X02748Y013937D02*
X028819D01*
Y013465D01*
X028386D01*
Y013622D01*
X028307Y013701D01*
X027126D01*
Y014016D01*
X02748D01*
Y013937D01*
D02*
G37*
G36*
X029843Y015157D02*
Y014646D01*
X031811D01*
Y014016D01*
X031063D01*
Y014213D01*
X029449D01*
Y014921D01*
X02937Y015D01*
X028583D01*
X028543Y015039D01*
Y015472D01*
X029528D01*
X029843Y015157D01*
D02*
G37*
G36*
X014173Y015748D02*
Y014252D01*
X013465D01*
Y015827D01*
X014016D01*
X014055Y015866D01*
X014173Y015748D01*
D02*
G37*
G36*
X015118Y013661D02*
X015118Y012953D01*
X015079Y012913D01*
X013425Y012913D01*
X013425Y013661D01*
X015118Y013661D01*
D02*
G37*
G36*
X017126Y012992D02*
X017047Y012913D01*
X015433D01*
Y013661D01*
X017126D01*
Y012992D01*
D02*
G37*
G36*
X027717Y015669D02*
Y014213D01*
X026654D01*
Y013819D01*
X026929Y013543D01*
X027953D01*
X028228Y013268D01*
X029449D01*
Y013661D01*
X029843D01*
X029921Y013583D01*
Y013071D01*
X02811D01*
X027874Y013268D01*
X025669D01*
Y014297D01*
Y015029D01*
Y01563D01*
X02627D01*
X026713Y016142D01*
X027717Y016142D01*
Y015669D01*
D02*
G37*
G36*
X017165Y004803D02*
X017087Y004724D01*
X015472D01*
Y005472D01*
X017165D01*
Y004803D01*
D02*
G37*
G36*
X027756Y00748D02*
Y006024D01*
X026693D01*
Y00563D01*
X026969Y005354D01*
X027992D01*
X028268Y005079D01*
X029488D01*
Y005472D01*
X029882D01*
X029961Y005394D01*
Y004882D01*
X02815D01*
X027913Y005079D01*
X025709D01*
Y006108D01*
Y00684D01*
Y007441D01*
X02631D01*
X026752Y007953D01*
X027756Y007953D01*
Y00748D01*
D02*
G37*
G36*
X02752Y005748D02*
X028858D01*
Y005276D01*
X028425D01*
Y005433D01*
X028346Y005512D01*
X027165D01*
Y005827D01*
X02752D01*
Y005748D01*
D02*
G37*
G36*
X012992Y008465D02*
Y00689D01*
X011535D01*
Y005D01*
X012008Y004528D01*
X01748D01*
Y005787D01*
X016457D01*
Y006063D01*
Y006142D01*
Y006575D01*
Y006732D01*
X018858D01*
X018937Y006654D01*
Y003701D01*
X010236D01*
Y004488D01*
Y008661D01*
X012992D01*
Y008465D01*
D02*
G37*
G36*
X017362Y011378D02*
X032874D01*
Y010197D01*
Y003819D01*
X032756Y003701D01*
X032717Y00374D01*
X030276D01*
Y004055D01*
X030157Y004173D01*
Y005472D01*
X030236Y005551D01*
X030157Y00563D01*
Y005827D01*
X03063D01*
X030709Y005748D01*
Y004528D01*
X030787Y004449D01*
X030827Y004488D01*
X032165D01*
Y007835D01*
X032126Y007795D01*
X031142D01*
Y008465D01*
X032126D01*
X032205Y008543D01*
Y009488D01*
X032008Y009685D01*
X030945D01*
Y009449D01*
X028543D01*
X028543Y010906D01*
X025398Y010906D01*
X025398Y008898D01*
X022795D01*
Y007874D01*
X020866D01*
Y011024D01*
X018071D01*
Y010236D01*
X017323D01*
Y011417D01*
X017362Y011378D01*
D02*
G37*
G36*
X015157Y005472D02*
X015157Y004764D01*
X015118Y004724D01*
X013465Y004724D01*
X013465Y005472D01*
X015157Y005472D01*
D02*
G37*
G36*
X03189Y009409D02*
X03189Y00878D01*
X030866D01*
Y00752D01*
X03185D01*
X03189Y00748D01*
Y006772D01*
X030157D01*
X030157Y00748D01*
X028346D01*
X028346Y006457D01*
X028307Y006417D01*
X028346Y006378D01*
X02874D01*
X028858Y00626D01*
Y005984D01*
X02815D01*
X028031Y006102D01*
Y008189D01*
X027362D01*
X027323Y008228D01*
Y009173D01*
X031102D01*
Y009449D01*
Y009488D01*
X03189D01*
X03189Y009409D01*
D02*
G37*
G36*
X016142Y006969D02*
X014528Y006969D01*
X014528Y00752D01*
Y007717D01*
X016142D01*
X016142Y006969D01*
D02*
G37*
G36*
X014488Y010197D02*
Y009409D01*
X018032D01*
X018307Y009134D01*
Y007047D01*
X016496D01*
Y00752D01*
X016535Y007559D01*
X01752D01*
Y009016D01*
Y009055D01*
X012244D01*
Y009843D01*
Y010276D01*
X014409D01*
X014488Y010197D01*
D02*
G37*
G36*
X029882Y006969D02*
Y006457D01*
X03185D01*
Y005827D01*
X031102D01*
Y006024D01*
X029488D01*
Y006732D01*
X029409Y006811D01*
X028622D01*
X028583Y00685D01*
Y007283D01*
X029567D01*
X029882Y006969D01*
D02*
G37*
G36*
X014213Y007559D02*
Y006063D01*
X013504D01*
Y007638D01*
X014055D01*
X014094Y007677D01*
X014213Y007559D01*
D02*
G37*
G36*
X016181Y006181D02*
X016102Y006102D01*
X014528D01*
Y006693D01*
X016181D01*
Y006181D01*
D02*
G37*
G36*
X014173Y02378D02*
Y022283D01*
X013465D01*
Y023858D01*
X014016D01*
X014055Y023898D01*
X014173Y02378D01*
D02*
G37*
G36*
X016142Y022402D02*
X016063Y022323D01*
X014488D01*
Y022913D01*
X016142D01*
Y022402D01*
D02*
G37*
G36*
X03185Y02563D02*
X03185Y025D01*
X030827D01*
Y02374D01*
X031811D01*
X03185Y023701D01*
Y022992D01*
X030118D01*
X030118Y023701D01*
X028307D01*
X028307Y022677D01*
X028268Y022638D01*
X028307Y022598D01*
X028701D01*
X028819Y02248D01*
Y022205D01*
X02811D01*
X027992Y022323D01*
Y024409D01*
X027323D01*
X027283Y024449D01*
Y025394D01*
X031063D01*
Y025669D01*
Y025709D01*
X03185D01*
X03185Y02563D01*
D02*
G37*
G36*
X027717Y023701D02*
Y022244D01*
X026654D01*
Y02185D01*
X026929Y021575D01*
X027953D01*
X028228Y021299D01*
X029449D01*
Y021693D01*
X029843D01*
X029921Y021614D01*
Y021102D01*
X02811D01*
X027874Y021299D01*
X025669D01*
Y022328D01*
Y02306D01*
Y023661D01*
X02627D01*
X026713Y024173D01*
X027717Y024173D01*
Y023701D01*
D02*
G37*
G36*
X02748Y021969D02*
X028819D01*
Y021496D01*
X028386D01*
Y021654D01*
X028307Y021732D01*
X027126D01*
Y022047D01*
X02748D01*
Y021969D01*
D02*
G37*
G36*
X029843Y023189D02*
Y022677D01*
X031811D01*
Y022047D01*
X031063D01*
Y022244D01*
X029449D01*
Y022953D01*
X02937Y023031D01*
X028583D01*
X028543Y023071D01*
Y023504D01*
X029528D01*
X029843Y023189D01*
D02*
G37*
G36*
X015945Y027244D02*
X015945Y02622D01*
X020394D01*
X020472Y026142D01*
Y024528D01*
X020236Y024291D01*
X018583D01*
Y025551D01*
X018307Y025827D01*
X014803Y025827D01*
X014803Y027244D01*
X015945Y027244D01*
D02*
G37*
G36*
X015157Y024331D02*
X013425D01*
Y024921D01*
Y025079D01*
X015157D01*
Y024331D01*
D02*
G37*
G36*
X02811Y026772D02*
Y025827D01*
X026339D01*
Y024213D01*
X026102Y023976D01*
X025315D01*
Y020354D01*
X028307D01*
X028386Y020433D01*
Y020866D01*
X028894D01*
X028937Y019843D01*
X021339D01*
X021299Y019803D01*
X021142Y019961D01*
Y02063D01*
X02315D01*
Y024685D01*
X025551D01*
X025591Y024646D01*
X025669Y024724D01*
Y02685D01*
X028031D01*
X02811Y026772D01*
D02*
G37*
G36*
X016102Y023189D02*
X014488Y023189D01*
X014488Y02374D01*
Y023937D01*
X016102D01*
X016102Y023189D01*
D02*
G37*
G36*
X014449Y026417D02*
Y02563D01*
X017992D01*
X018268Y025354D01*
Y023268D01*
X016457D01*
Y02374D01*
X016496Y02378D01*
X01748D01*
Y025236D01*
Y025276D01*
X012205D01*
Y026063D01*
Y026496D01*
X01437D01*
X014449Y026417D01*
D02*
G37*
G36*
X017047Y024291D02*
X015472D01*
Y025D01*
X015433Y025039D01*
X015472Y025079D01*
X017047D01*
Y024291D01*
D02*
G37*
G36*
X014449Y018386D02*
Y017598D01*
X017992D01*
X018268Y017323D01*
Y015236D01*
X016457D01*
Y015709D01*
X016496Y015748D01*
X01748D01*
Y017205D01*
Y017244D01*
X012205D01*
Y018032D01*
Y018465D01*
X01437D01*
X014449Y018386D01*
D02*
G37*
G36*
X017047Y01626D02*
X015472D01*
Y016968D01*
X015433Y017008D01*
X015472Y017047D01*
X017047D01*
Y01626D01*
D02*
G37*
G36*
X015945Y019213D02*
X015945Y018189D01*
X020394D01*
X020472Y01811D01*
Y016496D01*
X020236Y01626D01*
X018583D01*
Y01752D01*
X018307Y017795D01*
X014803Y017795D01*
X014803Y019213D01*
X015945Y019213D01*
D02*
G37*
G36*
X016142Y01437D02*
X016063Y014291D01*
X014488D01*
Y014882D01*
X016142D01*
Y01437D01*
D02*
G37*
G36*
X03185Y017598D02*
X03185Y016968D01*
X030827D01*
Y015709D01*
X031811D01*
X03185Y015669D01*
Y014961D01*
X030118D01*
X030118Y015669D01*
X028307D01*
X028307Y014646D01*
X028268Y014606D01*
X028307Y014567D01*
X028701D01*
X028819Y014449D01*
Y014173D01*
X02811D01*
X027992Y014291D01*
Y016378D01*
X027323D01*
X027283Y016417D01*
Y017362D01*
X031063D01*
Y017638D01*
Y017677D01*
X03185D01*
X03185Y017598D01*
D02*
G37*
G36*
X016102Y015157D02*
X014488Y015157D01*
X014488Y015709D01*
Y015906D01*
X016102D01*
X016102Y015157D01*
D02*
G37*
G36*
X017323Y027598D02*
X032835D01*
Y026417D01*
Y020039D01*
X032717Y019921D01*
X032677Y019961D01*
X030236D01*
Y020276D01*
X030118Y020394D01*
Y021693D01*
X030197Y021772D01*
X030118Y02185D01*
Y022047D01*
X030591D01*
X030669Y021969D01*
Y020748D01*
X030748Y020669D01*
X030787Y020709D01*
X032126D01*
Y024055D01*
X032087Y024016D01*
X031102D01*
Y024685D01*
X032087D01*
X032165Y024764D01*
Y025709D01*
X031969Y025906D01*
X030906D01*
Y025669D01*
X028504D01*
X028504Y027126D01*
X025359Y027126D01*
X025359Y025118D01*
X022756D01*
Y024094D01*
X020827D01*
Y027244D01*
X018032D01*
Y026457D01*
X017283D01*
Y027638D01*
X017323Y027598D01*
D02*
G37*
G36*
X015118Y021693D02*
X015118Y020984D01*
X015079Y020945D01*
X013425Y020945D01*
X013425Y021693D01*
X015118Y021693D01*
D02*
G37*
G36*
X017126Y021024D02*
X017047Y020945D01*
X015433D01*
Y021693D01*
X017126D01*
Y021024D01*
D02*
G37*
G36*
X015157Y016299D02*
X013425D01*
Y01689D01*
Y017047D01*
X015157D01*
Y016299D01*
D02*
G37*
G36*
X02811Y01874D02*
Y017795D01*
X026339D01*
Y016181D01*
X026102Y015945D01*
X025315D01*
Y012323D01*
X028307D01*
X028386Y012402D01*
Y012835D01*
X028894D01*
X028937Y011811D01*
X021339D01*
X021299Y011772D01*
X021142Y011929D01*
Y012598D01*
X02315D01*
Y016654D01*
X025551D01*
X025591Y016614D01*
X025669Y016693D01*
Y018819D01*
X028031D01*
X02811Y01874D01*
D02*
G37*
G36*
X012953Y024685D02*
Y02311D01*
X011496D01*
Y02122D01*
X011968Y020748D01*
X017441D01*
Y022008D01*
X016417D01*
Y022283D01*
Y022362D01*
Y022795D01*
Y022953D01*
X018819D01*
X018898Y022874D01*
Y019921D01*
X010197D01*
Y020709D01*
Y024882D01*
X012953D01*
Y024685D01*
D02*
G37*
D13*
X016732Y022559D02*
D03*
Y02122D02*
D03*
X013819Y023504D02*
D03*
Y024843D02*
D03*
X015787Y02122D02*
D03*
Y022559D02*
D03*
X014803Y024843D02*
D03*
Y023504D02*
D03*
Y022559D02*
D03*
Y02122D02*
D03*
X015787Y023504D02*
D03*
Y024843D02*
D03*
X013819Y02122D02*
D03*
Y022559D02*
D03*
X016732Y024843D02*
D03*
Y023504D02*
D03*
X016732Y016811D02*
D03*
Y015472D02*
D03*
X013819Y013189D02*
D03*
Y014528D02*
D03*
X015787Y015472D02*
D03*
Y016811D02*
D03*
X014803Y014528D02*
D03*
Y013189D02*
D03*
Y016811D02*
D03*
Y015472D02*
D03*
X015787Y013189D02*
D03*
Y014528D02*
D03*
X013819Y015472D02*
D03*
Y016811D02*
D03*
X016732Y014528D02*
D03*
Y013189D02*
D03*
X016772Y006339D02*
D03*
Y005D02*
D03*
X013858Y007283D02*
D03*
Y008622D02*
D03*
X015827Y007283D02*
D03*
Y008622D02*
D03*
X016772D02*
D03*
Y007283D02*
D03*
X013858Y005D02*
D03*
Y006339D02*
D03*
X014843Y006339D02*
D03*
Y005D02*
D03*
Y008622D02*
D03*
Y007283D02*
D03*
X015827Y005D02*
D03*
Y006339D02*
D03*
D16*
X027875Y025984D02*
D03*
X027874Y025197D02*
D03*
X028742Y025984D02*
D03*
X02874Y025197D02*
D03*
X029647Y026024D02*
D03*
X029646Y025236D02*
D03*
X029647Y017992D02*
D03*
X029646Y017205D02*
D03*
X028742Y017953D02*
D03*
X02874Y017165D02*
D03*
X027875Y017953D02*
D03*
X027874Y017165D02*
D03*
X027915Y009764D02*
D03*
X027913Y008976D02*
D03*
X029686Y009803D02*
D03*
X029685Y009016D02*
D03*
X028781Y009764D02*
D03*
X02878Y008976D02*
D03*
D19*
X027913Y025236D02*
X029646D01*
X028169Y022461D02*
Y025197D01*
X031417Y020283D02*
X032173D01*
X031339Y020362D02*
X031417Y020283D01*
X017618Y026772D02*
Y027303D01*
X015614Y026157D02*
Y026772D01*
X030346Y020598D02*
Y021622D01*
Y020598D02*
X030583Y020362D01*
X031339D01*
X03Y021969D02*
X030346Y021622D01*
X024291Y024291D02*
X026102D01*
X02378Y02378D02*
X024291Y024291D01*
X02378Y020236D02*
Y02378D01*
Y020236D02*
X028386D01*
X02185D02*
X02378D01*
X028169Y022461D02*
X028287Y022343D01*
X028661D01*
X028583Y020433D02*
Y020669D01*
X02815Y021181D02*
X029488D01*
X021496Y024724D02*
Y027421D01*
X028169Y025197D02*
X02874D01*
X032323Y020433D02*
Y025748D01*
X032173Y020283D02*
X032323Y020433D01*
X032047Y026024D02*
X032323Y025748D01*
X031378Y026024D02*
X032047D01*
X031378D02*
Y027087D01*
X031043Y027421D02*
X031378Y027087D01*
X021496Y027421D02*
X031043D01*
X017736D02*
X021496D01*
X017618Y027303D02*
X017736Y027421D01*
X029606Y021969D02*
X03D01*
X031496Y024362D02*
X032236D01*
X031457D02*
X031496D01*
X029606Y022343D02*
X031319D01*
X026299Y021969D02*
X026813Y021455D01*
X02815Y021181D02*
Y02122D01*
X027913Y021457D02*
X02815Y02122D01*
X027488Y021457D02*
X027913D01*
X027487Y021455D02*
X027488Y021457D01*
X026813Y021455D02*
X027487D01*
X027323Y02185D02*
X028406D01*
X029488Y021181D02*
X029602Y021295D01*
X026299Y021969D02*
Y023543D01*
X02874Y023268D02*
X029449D01*
X029606Y02311D01*
Y022343D02*
Y02311D01*
X030276Y025236D02*
X031213D01*
X029646D02*
X030276D01*
Y023559D02*
Y025236D01*
Y023559D02*
X030472Y023362D01*
X031457D01*
X029602Y021295D02*
Y021594D01*
X028406Y02185D02*
X028661Y021594D01*
X026299Y023543D02*
X026693Y023937D01*
X02752D01*
X028386Y020236D02*
X028583Y020433D01*
X026102Y024291D02*
Y026181D01*
X026497Y026576D01*
X027875D01*
X02752Y024646D02*
Y025D01*
X027717Y025197D01*
X027874D01*
X029647Y026024D02*
X031378D01*
X031339Y020362D02*
X031457D01*
X031319Y022343D02*
X031339Y022362D01*
X027875Y025984D02*
Y026576D01*
X031213Y025236D02*
X031339Y025362D01*
X029608Y025984D02*
X029647Y026024D01*
X028742Y025984D02*
X029608D01*
X027874Y025197D02*
X027913Y025236D01*
X0175Y025437D02*
X017909Y025028D01*
X013252Y025437D02*
X0175D01*
X018516Y026D02*
X019311Y025205D01*
X015772Y026D02*
X018516D01*
X015614Y026157D02*
X015772Y026D01*
X017909Y023752D02*
Y025028D01*
X017661Y023504D02*
X017909Y023752D01*
X016732Y023504D02*
X017661D01*
X011189Y023634D02*
X011413Y023858D01*
X011189Y021185D02*
Y023634D01*
Y021185D02*
X011917Y020457D01*
X011413Y023858D02*
X012205D01*
X011917Y020457D02*
X018114D01*
X018504Y020846D02*
Y022244D01*
X018114Y020457D02*
X018504Y020846D01*
X019311Y024724D02*
Y025205D01*
X018189Y022559D02*
X018504Y022244D01*
X016732Y022559D02*
X018189D01*
X015787Y02122D02*
X016732D01*
X013819D02*
X013819Y02122D01*
X014803D01*
X013819Y022559D02*
Y023504D01*
X014803D02*
X015787D01*
X014803Y022559D02*
X014803Y022559D01*
X015787D01*
Y024843D02*
X016732D01*
X013819D02*
X014803D01*
X013819Y016811D02*
X014803D01*
X015787D02*
X016732D01*
X014803Y014528D02*
X015787D01*
X014803Y014528D02*
X014803Y014528D01*
X014803Y015472D02*
X015787D01*
X013819Y014528D02*
Y015472D01*
X013819Y013189D02*
X014803D01*
X013819Y013189D02*
X013819Y013189D01*
X015787Y013189D02*
X016732D01*
Y014528D02*
X018189D01*
X018504Y014213D01*
X019311Y016693D02*
Y017173D01*
X018114Y012425D02*
X018504Y012815D01*
Y014213D01*
X011917Y012425D02*
X018114D01*
X011413Y015827D02*
X012205D01*
X011189Y013154D02*
X011917Y012425D01*
X011189Y013154D02*
Y015602D01*
X011413Y015827D01*
X016732Y015472D02*
X017661D01*
X017909Y01572D01*
Y016996D01*
X015614Y018126D02*
X015772Y017968D01*
X018516D01*
X019311Y017173D01*
X013252Y017406D02*
X0175D01*
X017909Y016996D01*
X027874Y017165D02*
X027913Y017205D01*
X028742Y017953D02*
X029608D01*
X029647Y017992D01*
X031213Y017205D02*
X031339Y017331D01*
X027875Y017953D02*
Y018545D01*
X031319Y014311D02*
X031339Y014331D01*
Y012331D02*
X031457D01*
X029647Y017992D02*
X031378D01*
X027717Y017165D02*
X027874D01*
X02752Y016968D02*
X027717Y017165D01*
X02752Y016614D02*
Y016968D01*
X026497Y018545D02*
X027875D01*
X026102Y01815D02*
X026497Y018545D01*
X026102Y01626D02*
Y01815D01*
X028386Y012205D02*
X028583Y012402D01*
X026693Y015906D02*
X02752D01*
X026299Y015512D02*
X026693Y015906D01*
X028406Y013819D02*
X028661Y013563D01*
X029602Y013264D02*
Y013563D01*
X030472Y015331D02*
X031457D01*
X030276Y015528D02*
X030472Y015331D01*
X030276Y015528D02*
Y017205D01*
X029646D02*
X030276D01*
X031213D01*
X029606Y014311D02*
Y015079D01*
X029449Y015236D02*
X029606Y015079D01*
X02874Y015236D02*
X029449D01*
X026299Y013937D02*
Y015512D01*
X029488Y01315D02*
X029602Y013264D01*
X027323Y013819D02*
X028406D01*
X026813Y013424D02*
X027487D01*
X027488Y013425D01*
X027913D01*
X02815Y013189D01*
Y01315D02*
Y013189D01*
X026299Y013937D02*
X026813Y013424D01*
X029606Y014311D02*
X031319D01*
X031457Y016331D02*
X031496D01*
X032236D01*
X029606Y013937D02*
X03D01*
X017618Y019272D02*
X017736Y01939D01*
X021496D01*
X031043D01*
X031378Y019055D01*
Y017992D02*
Y019055D01*
Y017992D02*
X032047D01*
X032323Y017717D01*
X032173Y012252D02*
X032323Y012402D01*
Y017717D01*
X028169Y017165D02*
X02874D01*
X021496Y016693D02*
Y01939D01*
X02815Y01315D02*
X029488D01*
X028583Y012402D02*
Y012638D01*
X028287Y014311D02*
X028661D01*
X028169Y014429D02*
X028287Y014311D01*
X02185Y012205D02*
X02378D01*
X028386D01*
X02378D02*
Y015748D01*
X024291Y01626D01*
X026102D01*
X03Y013937D02*
X030346Y013591D01*
X030583Y012331D02*
X031339D01*
X030346Y012567D02*
X030583Y012331D01*
X030346Y012567D02*
Y013591D01*
X015614Y018126D02*
Y01874D01*
X017618D02*
Y019272D01*
X031339Y012331D02*
X031417Y012252D01*
X032173D01*
X028169Y014429D02*
Y017165D01*
X027913Y017205D02*
X029646D01*
X027953Y009016D02*
X029685D01*
X028209Y00624D02*
Y008976D01*
X031457Y004063D02*
X032213D01*
X031378Y004142D02*
X031457Y004063D01*
X017657Y010551D02*
Y011083D01*
X015654Y009937D02*
Y010551D01*
X030386Y004378D02*
Y005402D01*
Y004378D02*
X030622Y004142D01*
X031378D01*
X030039Y005748D02*
X030386Y005402D01*
X024331Y008071D02*
X026142D01*
X023819Y007559D02*
X024331Y008071D01*
X023819Y004016D02*
Y007559D01*
Y004016D02*
X028425D01*
X02189D02*
X023819D01*
X028209Y00624D02*
X028327Y006122D01*
X028701D01*
X028622Y004213D02*
Y004449D01*
X028189Y004961D02*
X029528D01*
X021535Y008504D02*
Y011201D01*
X028209Y008976D02*
X02878D01*
X032362Y004213D02*
Y009528D01*
X032213Y004063D02*
X032362Y004213D01*
X032087Y009803D02*
X032362Y009528D01*
X031417Y009803D02*
X032087D01*
X031417D02*
Y010866D01*
X031083Y011201D02*
X031417Y010866D01*
X021535Y011201D02*
X031083D01*
X017776D02*
X021535D01*
X017657Y011083D02*
X017776Y011201D01*
X029646Y005748D02*
X030039D01*
X031535Y008142D02*
X032276D01*
X031496D02*
X031535D01*
X029646Y006122D02*
X031358D01*
X026339Y005748D02*
X026852Y005235D01*
X028189Y004961D02*
Y005D01*
X027953Y005236D02*
X028189Y005D01*
X027527Y005236D02*
X027953D01*
X027526Y005235D02*
X027527Y005236D01*
X026852Y005235D02*
X027526D01*
X027362Y00563D02*
X028445D01*
X029528Y004961D02*
X029642Y005075D01*
X026339Y005748D02*
Y007323D01*
X02878Y007047D02*
X029488D01*
X029646Y00689D01*
Y006122D02*
Y00689D01*
X030315Y009016D02*
X031252D01*
X029685D02*
X030315D01*
Y007339D02*
Y009016D01*
Y007339D02*
X030512Y007142D01*
X031496D01*
X029642Y005075D02*
Y005374D01*
X028445Y00563D02*
X028701Y005374D01*
X026339Y007323D02*
X026732Y007717D01*
X027559D01*
X028425Y004016D02*
X028622Y004213D01*
X026142Y008071D02*
Y009961D01*
X026537Y010356D01*
X027915D01*
X027559Y008425D02*
Y00878D01*
X027756Y008976D01*
X027913D01*
X029686Y009803D02*
X031417D01*
X031378Y004142D02*
X031496D01*
X031358Y006122D02*
X031378Y006142D01*
X027915Y009764D02*
Y010356D01*
X031252Y009016D02*
X031378Y009142D01*
X029647Y009764D02*
X029686Y009803D01*
X028781Y009764D02*
X029647D01*
X027913Y008976D02*
X027953Y009016D01*
X017539Y009217D02*
X017949Y008807D01*
X013291Y009217D02*
X017539D01*
X018555Y00978D02*
X01935Y008984D01*
X015811Y00978D02*
X018555D01*
X015654Y009937D02*
X015811Y00978D01*
X017949Y007531D02*
Y008807D01*
X017701Y007283D02*
X017949Y007531D01*
X016772Y007283D02*
X017701D01*
X011228Y007413D02*
X011453Y007638D01*
X011228Y004965D02*
Y007413D01*
Y004965D02*
X011957Y004236D01*
X011453Y007638D02*
X012244D01*
X011957Y004236D02*
X018154D01*
X018543Y004626D02*
Y006024D01*
X018154Y004236D02*
X018543Y004626D01*
X01935Y008504D02*
Y008984D01*
X018228Y006339D02*
X018543Y006024D01*
X016772Y006339D02*
X018228D01*
X015827Y005D02*
X016772D01*
X013858D02*
X013858Y005D01*
X014843D01*
X013858Y006339D02*
Y007283D01*
X014843D02*
X015827D01*
X014843Y006339D02*
X014843Y006339D01*
X015827D01*
Y008622D02*
X016772D01*
X013858D02*
X014843D01*
D20*
X032008Y002835D02*
D03*
X011535D02*
D03*
X032008Y028543D02*
D03*
X011535D02*
D03*
D21*
X018602Y026772D02*
D03*
X016614D02*
D03*
X015614D02*
D03*
X017618D02*
D03*
X018602Y01874D02*
D03*
X016614D02*
D03*
X015614D02*
D03*
X017618D02*
D03*
X018642Y010551D02*
D03*
X016654D02*
D03*
X015654D02*
D03*
X017657D02*
D03*
D22*
X027244Y020827D02*
D03*
X025945D02*
D03*
X031496Y025362D02*
D03*
Y024362D02*
D03*
Y023362D02*
D03*
Y022362D02*
D03*
Y021362D02*
D03*
X031496Y017331D02*
D03*
Y016331D02*
D03*
Y015331D02*
D03*
Y014331D02*
D03*
Y013331D02*
D03*
X025945Y012795D02*
D03*
X027244D02*
D03*
X027283Y004606D02*
D03*
X025984D02*
D03*
X031535Y009142D02*
D03*
Y008142D02*
D03*
Y007142D02*
D03*
Y006142D02*
D03*
Y005142D02*
D03*
D23*
X031496Y020362D02*
D03*
X031496Y012331D02*
D03*
X031535Y004142D02*
D03*
D24*
X012205Y023858D02*
D03*
X012205Y015827D02*
D03*
X012244Y007638D02*
D03*
D25*
X012205Y021858D02*
D03*
X012205Y013827D02*
D03*
X012244Y005638D02*
D03*
D26*
X028583Y020669D02*
D03*
X021496Y024724D02*
D03*
X02874Y023268D02*
D03*
X02185Y020236D02*
D03*
X026102Y024291D02*
D03*
X02752Y024646D02*
D03*
Y023937D02*
D03*
X027875Y026576D02*
D03*
X013252Y025437D02*
D03*
X019311Y024724D02*
D03*
X019311Y016693D02*
D03*
X013252Y017406D02*
D03*
X027875Y018545D02*
D03*
X02752Y015906D02*
D03*
Y016614D02*
D03*
X026102Y01626D02*
D03*
X02185Y012205D02*
D03*
X02874Y015236D02*
D03*
X021496Y016693D02*
D03*
X028583Y012638D02*
D03*
X028622Y004449D02*
D03*
X021535Y008504D02*
D03*
X02878Y007047D02*
D03*
X02189Y004016D02*
D03*
X026142Y008071D02*
D03*
X027559Y008425D02*
D03*
Y007717D02*
D03*
X027915Y010356D02*
D03*
X013291Y009217D02*
D03*
X01935Y008504D02*
D03*
D27*
X027323Y02185D02*
D03*
X027323Y013819D02*
D03*
X027362Y00563D02*
D03*
D28*
X028661Y022343D02*
D03*
Y021594D02*
D03*
X029606Y022343D02*
D03*
Y021969D02*
D03*
X029602Y021594D02*
D03*
X028661Y014311D02*
D03*
Y013563D02*
D03*
X029606Y014311D02*
D03*
Y013937D02*
D03*
X029602Y013563D02*
D03*
X028701Y006122D02*
D03*
Y005374D02*
D03*
X029646Y006122D02*
D03*
Y005748D02*
D03*
X029642Y005374D02*
D03*
M02*
