G04 Layer_Color=2752767*
%FSTAX24Y24*%
%MOIN*%
G70*
G01*
G75*
%ADD54C,0.0020*%
%ADD55C,0.0027*%
D54*
X031928Y002755D02*
Y002915D01*
X032088D01*
Y002755D01*
X031928D01*
X011455D02*
Y002915D01*
X011615D01*
Y002755D01*
X011455D01*
X031928Y028463D02*
Y028623D01*
X032088D01*
Y028463D01*
X031928D01*
X011455D02*
Y028623D01*
X011615D01*
Y028463D01*
X011455D01*
X027244Y020747D02*
X027164Y020907D01*
X027324D01*
X027244Y020747D01*
X025945D02*
X025865Y020907D01*
X026025D01*
X025945Y020747D01*
X031496Y025282D02*
X031536Y025322D01*
X031576D01*
X031536Y025362D01*
X031576Y025402D01*
X031536D01*
X031496Y025442D01*
X031456Y025402D01*
X031416D01*
X031456Y025362D01*
X031416Y025322D01*
X031456D01*
X031496Y025282D01*
Y024282D02*
X031536Y024322D01*
X031576D01*
X031536Y024362D01*
X031576Y024402D01*
X031536D01*
X031496Y024442D01*
X031456Y024402D01*
X031416D01*
X031456Y024362D01*
X031416Y024322D01*
X031456D01*
X031496Y024282D01*
Y023282D02*
X031536Y023322D01*
X031576D01*
X031536Y023362D01*
X031576Y023402D01*
X031536D01*
X031496Y023442D01*
X031456Y023402D01*
X031416D01*
X031456Y023362D01*
X031416Y023322D01*
X031456D01*
X031496Y023282D01*
Y022282D02*
X031536Y022322D01*
X031576D01*
X031536Y022362D01*
X031576Y022402D01*
X031536D01*
X031496Y022442D01*
X031456Y022402D01*
X031416D01*
X031456Y022362D01*
X031416Y022322D01*
X031456D01*
X031496Y022282D01*
Y021282D02*
X031536Y021322D01*
X031576D01*
X031536Y021362D01*
X031576Y021402D01*
X031536D01*
X031496Y021442D01*
X031456Y021402D01*
X031416D01*
X031456Y021362D01*
X031416Y021322D01*
X031456D01*
X031496Y021282D01*
Y020282D02*
X031536Y020322D01*
X031576D01*
X031536Y020362D01*
X031576Y020402D01*
X031536D01*
X031496Y020442D01*
X031456Y020402D01*
X031416D01*
X031456Y020362D01*
X031416Y020322D01*
X031456D01*
X031496Y020282D01*
X012125Y023778D02*
X012165Y023858D01*
X012125Y023938D01*
X012205Y023898D01*
X012285Y023938D01*
X012245Y023858D01*
X012285Y023778D01*
X012205Y023818D01*
X012125Y023778D01*
Y021778D02*
X012165Y021858D01*
X012125Y021938D01*
X012205Y021898D01*
X012285Y021938D01*
X012245Y021858D01*
X012285Y021778D01*
X012205Y021818D01*
X012125Y021778D01*
X012125Y015747D02*
X012165Y015827D01*
X012125Y015907D01*
X012205Y015867D01*
X012285Y015907D01*
X012245Y015827D01*
X012285Y015747D01*
X012205Y015787D01*
X012125Y015747D01*
Y013747D02*
X012165Y013827D01*
X012125Y013907D01*
X012205Y013867D01*
X012285Y013907D01*
X012245Y013827D01*
X012285Y013747D01*
X012205Y013787D01*
X012125Y013747D01*
X031496Y017251D02*
X031536Y017291D01*
X031576D01*
X031536Y017331D01*
X031576Y017371D01*
X031536D01*
X031496Y017411D01*
X031456Y017371D01*
X031416D01*
X031456Y017331D01*
X031416Y017291D01*
X031456D01*
X031496Y017251D01*
Y016251D02*
X031536Y016291D01*
X031576D01*
X031536Y016331D01*
X031576Y016371D01*
X031536D01*
X031496Y016411D01*
X031456Y016371D01*
X031416D01*
X031456Y016331D01*
X031416Y016291D01*
X031456D01*
X031496Y016251D01*
Y015251D02*
X031536Y015291D01*
X031576D01*
X031536Y015331D01*
X031576Y015371D01*
X031536D01*
X031496Y015411D01*
X031456Y015371D01*
X031416D01*
X031456Y015331D01*
X031416Y015291D01*
X031456D01*
X031496Y015251D01*
Y014251D02*
X031536Y014291D01*
X031576D01*
X031536Y014331D01*
X031576Y014371D01*
X031536D01*
X031496Y014411D01*
X031456Y014371D01*
X031416D01*
X031456Y014331D01*
X031416Y014291D01*
X031456D01*
X031496Y014251D01*
Y013251D02*
X031536Y013291D01*
X031576D01*
X031536Y013331D01*
X031576Y013371D01*
X031536D01*
X031496Y013411D01*
X031456Y013371D01*
X031416D01*
X031456Y013331D01*
X031416Y013291D01*
X031456D01*
X031496Y013251D01*
Y012251D02*
X031536Y012291D01*
X031576D01*
X031536Y012331D01*
X031576Y012371D01*
X031536D01*
X031496Y012411D01*
X031456Y012371D01*
X031416D01*
X031456Y012331D01*
X031416Y012291D01*
X031456D01*
X031496Y012251D01*
X025945Y012715D02*
X025865Y012875D01*
X026025D01*
X025945Y012715D01*
X027244D02*
X027164Y012875D01*
X027324D01*
X027244Y012715D01*
X027283Y004526D02*
X027203Y004686D01*
X027363D01*
X027283Y004526D01*
X025984D02*
X025904Y004686D01*
X026064D01*
X025984Y004526D01*
X031535Y009062D02*
X031575Y009102D01*
X031615D01*
X031575Y009142D01*
X031615Y009182D01*
X031575D01*
X031535Y009222D01*
X031495Y009182D01*
X031455D01*
X031495Y009142D01*
X031455Y009102D01*
X031495D01*
X031535Y009062D01*
Y008062D02*
X031575Y008102D01*
X031615D01*
X031575Y008142D01*
X031615Y008182D01*
X031575D01*
X031535Y008222D01*
X031495Y008182D01*
X031455D01*
X031495Y008142D01*
X031455Y008102D01*
X031495D01*
X031535Y008062D01*
Y007062D02*
X031575Y007102D01*
X031615D01*
X031575Y007142D01*
X031615Y007182D01*
X031575D01*
X031535Y007222D01*
X031495Y007182D01*
X031455D01*
X031495Y007142D01*
X031455Y007102D01*
X031495D01*
X031535Y007062D01*
Y006062D02*
X031575Y006102D01*
X031615D01*
X031575Y006142D01*
X031615Y006182D01*
X031575D01*
X031535Y006222D01*
X031495Y006182D01*
X031455D01*
X031495Y006142D01*
X031455Y006102D01*
X031495D01*
X031535Y006062D01*
Y005062D02*
X031575Y005102D01*
X031615D01*
X031575Y005142D01*
X031615Y005182D01*
X031575D01*
X031535Y005222D01*
X031495Y005182D01*
X031455D01*
X031495Y005142D01*
X031455Y005102D01*
X031495D01*
X031535Y005062D01*
Y004062D02*
X031575Y004102D01*
X031615D01*
X031575Y004142D01*
X031615Y004182D01*
X031575D01*
X031535Y004222D01*
X031495Y004182D01*
X031455D01*
X031495Y004142D01*
X031455Y004102D01*
X031495D01*
X031535Y004062D01*
X012164Y007558D02*
X012204Y007638D01*
X012164Y007718D01*
X012244Y007678D01*
X012324Y007718D01*
X012284Y007638D01*
X012324Y007558D01*
X012244Y007598D01*
X012164Y007558D01*
Y005558D02*
X012204Y005638D01*
X012164Y005718D01*
X012244Y005678D01*
X012324Y005718D01*
X012284Y005638D01*
X012324Y005558D01*
X012244Y005598D01*
X012164Y005558D01*
X028543Y020629D02*
Y020589D01*
X028623D01*
Y020629D01*
X028663D01*
Y020709D01*
X028623D01*
Y020749D01*
X028543D01*
Y020709D01*
X028503D01*
Y020629D01*
X028543D01*
X021456Y024684D02*
Y024644D01*
X021536D01*
Y024684D01*
X021576D01*
Y024764D01*
X021536D01*
Y024804D01*
X021456D01*
Y024764D01*
X021416D01*
Y024684D01*
X021456D01*
X027243Y02177D02*
X027283D01*
X027323Y02181D01*
X027363Y02177D01*
X027403D01*
Y02181D01*
X027363Y02185D01*
X027403Y02189D01*
Y02193D01*
X027363D01*
X027323Y02189D01*
X027283Y02193D01*
X027243D01*
Y02189D01*
X027283Y02185D01*
X027243Y02181D01*
Y02177D01*
X0287Y023228D02*
Y023188D01*
X02878D01*
Y023228D01*
X02882D01*
Y023308D01*
X02878D01*
Y023348D01*
X0287D01*
Y023308D01*
X02866D01*
Y023228D01*
X0287D01*
X02181Y020196D02*
Y020156D01*
X02189D01*
Y020196D01*
X02193D01*
Y020276D01*
X02189D01*
Y020316D01*
X02181D01*
Y020276D01*
X02177D01*
Y020196D01*
X02181D01*
X026062Y024251D02*
Y024211D01*
X026142D01*
Y024251D01*
X026182D01*
Y024331D01*
X026142D01*
Y024371D01*
X026062D01*
Y024331D01*
X026022D01*
Y024251D01*
X026062D01*
X02748Y024606D02*
Y024566D01*
X02756D01*
Y024606D01*
X0276D01*
Y024686D01*
X02756D01*
Y024726D01*
X02748D01*
Y024686D01*
X02744D01*
Y024606D01*
X02748D01*
Y023897D02*
Y023857D01*
X02756D01*
Y023897D01*
X0276D01*
Y023977D01*
X02756D01*
Y024017D01*
X02748D01*
Y023977D01*
X02744D01*
Y023897D01*
X02748D01*
X027835Y026536D02*
Y026496D01*
X027915D01*
Y026536D01*
X027955D01*
Y026616D01*
X027915D01*
Y026656D01*
X027835D01*
Y026616D01*
X027795D01*
Y026536D01*
X027835D01*
X013212Y025397D02*
Y025357D01*
X013292D01*
Y025397D01*
X013332D01*
Y025477D01*
X013292D01*
Y025517D01*
X013212D01*
Y025477D01*
X013172D01*
Y025397D01*
X013212D01*
X019271Y024684D02*
Y024644D01*
X019351D01*
Y024684D01*
X019391D01*
Y024764D01*
X019351D01*
Y024804D01*
X019271D01*
Y024764D01*
X019231D01*
Y024684D01*
X019271D01*
X019271Y016653D02*
Y016613D01*
X019351D01*
Y016653D01*
X019391D01*
Y016733D01*
X019351D01*
Y016773D01*
X019271D01*
Y016733D01*
X019231D01*
Y016653D01*
X019271D01*
X013212Y017366D02*
Y017326D01*
X013292D01*
Y017366D01*
X013332D01*
Y017446D01*
X013292D01*
Y017486D01*
X013212D01*
Y017446D01*
X013172D01*
Y017366D01*
X013212D01*
X027835Y018505D02*
Y018465D01*
X027915D01*
Y018505D01*
X027955D01*
Y018585D01*
X027915D01*
Y018625D01*
X027835D01*
Y018585D01*
X027795D01*
Y018505D01*
X027835D01*
X02748Y015866D02*
Y015826D01*
X02756D01*
Y015866D01*
X0276D01*
Y015946D01*
X02756D01*
Y015986D01*
X02748D01*
Y015946D01*
X02744D01*
Y015866D01*
X02748D01*
Y016574D02*
Y016534D01*
X02756D01*
Y016574D01*
X0276D01*
Y016654D01*
X02756D01*
Y016694D01*
X02748D01*
Y016654D01*
X02744D01*
Y016574D01*
X02748D01*
X026062Y01622D02*
Y01618D01*
X026142D01*
Y01622D01*
X026182D01*
Y0163D01*
X026142D01*
Y01634D01*
X026062D01*
Y0163D01*
X026022D01*
Y01622D01*
X026062D01*
X02181Y012165D02*
Y012125D01*
X02189D01*
Y012165D01*
X02193D01*
Y012245D01*
X02189D01*
Y012285D01*
X02181D01*
Y012245D01*
X02177D01*
Y012165D01*
X02181D01*
X0287Y015196D02*
Y015156D01*
X02878D01*
Y015196D01*
X02882D01*
Y015276D01*
X02878D01*
Y015316D01*
X0287D01*
Y015276D01*
X02866D01*
Y015196D01*
X0287D01*
X027243Y013739D02*
X027283D01*
X027323Y013779D01*
X027363Y013739D01*
X027403D01*
Y013779D01*
X027363Y013819D01*
X027403Y013859D01*
Y013899D01*
X027363D01*
X027323Y013859D01*
X027283Y013899D01*
X027243D01*
Y013859D01*
X027283Y013819D01*
X027243Y013779D01*
Y013739D01*
X021456Y016653D02*
Y016613D01*
X021536D01*
Y016653D01*
X021576D01*
Y016733D01*
X021536D01*
Y016773D01*
X021456D01*
Y016733D01*
X021416D01*
Y016653D01*
X021456D01*
X028543Y012598D02*
Y012558D01*
X028623D01*
Y012598D01*
X028663D01*
Y012678D01*
X028623D01*
Y012718D01*
X028543D01*
Y012678D01*
X028503D01*
Y012598D01*
X028543D01*
X028582Y004409D02*
Y004369D01*
X028662D01*
Y004409D01*
X028702D01*
Y004489D01*
X028662D01*
Y004529D01*
X028582D01*
Y004489D01*
X028542D01*
Y004409D01*
X028582D01*
X021495Y008464D02*
Y008424D01*
X021575D01*
Y008464D01*
X021615D01*
Y008544D01*
X021575D01*
Y008584D01*
X021495D01*
Y008544D01*
X021455D01*
Y008464D01*
X021495D01*
X027282Y00555D02*
X027322D01*
X027362Y00559D01*
X027402Y00555D01*
X027442D01*
Y00559D01*
X027402Y00563D01*
X027442Y00567D01*
Y00571D01*
X027402D01*
X027362Y00567D01*
X027322Y00571D01*
X027282D01*
Y00567D01*
X027322Y00563D01*
X027282Y00559D01*
Y00555D01*
X02874Y007007D02*
Y006967D01*
X02882D01*
Y007007D01*
X02886D01*
Y007087D01*
X02882D01*
Y007127D01*
X02874D01*
Y007087D01*
X0287D01*
Y007007D01*
X02874D01*
X02185Y003976D02*
Y003936D01*
X02193D01*
Y003976D01*
X02197D01*
Y004056D01*
X02193D01*
Y004096D01*
X02185D01*
Y004056D01*
X02181D01*
Y003976D01*
X02185D01*
X026102Y008031D02*
Y007991D01*
X026182D01*
Y008031D01*
X026222D01*
Y008111D01*
X026182D01*
Y008151D01*
X026102D01*
Y008111D01*
X026062D01*
Y008031D01*
X026102D01*
X027519Y008385D02*
Y008345D01*
X027599D01*
Y008385D01*
X027639D01*
Y008465D01*
X027599D01*
Y008505D01*
X027519D01*
Y008465D01*
X027479D01*
Y008385D01*
X027519D01*
Y007677D02*
Y007637D01*
X027599D01*
Y007677D01*
X027639D01*
Y007757D01*
X027599D01*
Y007797D01*
X027519D01*
Y007757D01*
X027479D01*
Y007677D01*
X027519D01*
X027875Y010316D02*
Y010276D01*
X027955D01*
Y010316D01*
X027995D01*
Y010396D01*
X027955D01*
Y010436D01*
X027875D01*
Y010396D01*
X027835D01*
Y010316D01*
X027875D01*
X013251Y009177D02*
Y009137D01*
X013331D01*
Y009177D01*
X013371D01*
Y009257D01*
X013331D01*
Y009297D01*
X013251D01*
Y009257D01*
X013211D01*
Y009177D01*
X013251D01*
X01931Y008464D02*
Y008424D01*
X01939D01*
Y008464D01*
X01943D01*
Y008544D01*
X01939D01*
Y008584D01*
X01931D01*
Y008544D01*
X01927D01*
Y008464D01*
X01931D01*
D55*
X018682Y026772D02*
G03*
X018682Y026772I-00008J0D01*
G01*
X016694D02*
G03*
X016694Y026772I-00008J0D01*
G01*
X015694D02*
G03*
X015694Y026772I-00008J0D01*
G01*
X017698D02*
G03*
X017698Y026772I-00008J0D01*
G01*
X018682Y01874D02*
G03*
X018682Y01874I-00008J0D01*
G01*
X016694D02*
G03*
X016694Y01874I-00008J0D01*
G01*
X015694D02*
G03*
X015694Y01874I-00008J0D01*
G01*
X017698D02*
G03*
X017698Y01874I-00008J0D01*
G01*
X018722Y010551D02*
G03*
X018722Y010551I-00008J0D01*
G01*
X016734D02*
G03*
X016734Y010551I-00008J0D01*
G01*
X015734D02*
G03*
X015734Y010551I-00008J0D01*
G01*
X017737D02*
G03*
X017737Y010551I-00008J0D01*
G01*
M02*
