G04 Layer_Physical_Order=1*
G04 Layer_Color=255*
%FSTAX24Y24*%
%MOIN*%
G70*
G01*
G75*
%ADD10R,0.1181X0.0671*%
%ADD11R,0.0315X0.0671*%
%ADD12R,0.0709X0.0236*%
%ADD13R,0.0591X0.0472*%
%ADD14R,0.0472X0.0591*%
%ADD15R,0.0500X0.0550*%
%ADD16R,0.0472X0.0315*%
%ADD17R,0.0394X0.0787*%
%ADD18R,0.0315X0.0472*%
%ADD19C,0.0197*%
%ADD20C,0.1378*%
%ADD21R,0.0598X0.0598*%
%ADD22C,0.0630*%
%ADD23R,0.0630X0.0630*%
%ADD24R,0.0945X0.0984*%
%ADD25C,0.0984*%
%ADD26C,0.0394*%
%ADD27C,0.0200*%
G36*
X030512Y010984D02*
X030394Y010866D01*
X030394Y009843D01*
X029409Y009843D01*
Y007638D01*
X028937D01*
Y009961D01*
X028583D01*
X028543Y01D01*
Y010157D01*
X027756D01*
X027598Y010315D01*
Y011063D01*
X030433D01*
X030512Y010984D01*
D02*
G37*
G36*
X025Y01189D02*
X025039Y01185D01*
X021417D01*
Y012559D01*
X021457Y012598D01*
X025D01*
Y01189D01*
D02*
G37*
G36*
X028898Y013701D02*
X029134D01*
Y01252D01*
Y012441D01*
X02811D01*
X02811Y014528D01*
X028898D01*
Y013701D01*
D02*
G37*
G36*
X016024Y009094D02*
X015354D01*
Y010827D01*
X015394Y010866D01*
X016024D01*
Y009094D01*
D02*
G37*
G36*
X027047Y007717D02*
X025787D01*
X025748Y007756D01*
Y008504D01*
X027047D01*
Y007717D01*
D02*
G37*
G36*
X015039Y008189D02*
X014173D01*
Y009803D01*
X015039D01*
Y008189D01*
D02*
G37*
G36*
X016968Y011024D02*
Y010866D01*
Y010236D01*
Y010039D01*
X01811Y010039D01*
Y009567D01*
X018386Y009567D01*
X018898D01*
X018898Y009055D01*
X018898Y008701D01*
X016102D01*
Y008189D01*
X015433D01*
Y00874D01*
Y008898D01*
X016299D01*
Y010236D01*
X016299Y011024D01*
X015157Y011024D01*
X015157Y01D01*
X014961Y01D01*
X012244D01*
X011575Y01D01*
X011575Y006457D01*
X015827Y006457D01*
Y004685D01*
X017795D01*
X017756Y004724D01*
Y005591D01*
X018307D01*
X018346Y00563D01*
Y005984D01*
X019094D01*
X019173Y005906D01*
Y00378D01*
X019055Y003661D01*
X019016Y003701D01*
X010236D01*
Y004331D01*
Y004488D01*
Y01122D01*
X010433Y011417D01*
X016968D01*
Y011024D01*
D02*
G37*
G36*
X029724Y013937D02*
X029173D01*
Y015551D01*
X029724D01*
Y013937D01*
D02*
G37*
G36*
X013937Y017953D02*
Y017717D01*
Y016024D01*
X015787D01*
Y014882D01*
X013071D01*
X012913Y015039D01*
Y017953D01*
Y017992D01*
X013937D01*
Y017953D01*
D02*
G37*
G36*
X017244Y015354D02*
X017913D01*
Y015197D01*
Y015157D01*
X019016D01*
Y014921D01*
X018976Y014882D01*
X01622D01*
Y016654D01*
X017244D01*
Y015354D01*
D02*
G37*
G36*
X027402Y014449D02*
Y01374D01*
X024921D01*
Y014567D01*
X027283D01*
X027402Y014449D01*
D02*
G37*
G36*
X028937Y014803D02*
X027874D01*
Y01248D01*
X026811D01*
Y013071D01*
X02685Y01311D01*
X027598D01*
X027638Y01315D01*
Y015197D01*
X027992Y015551D01*
X028937D01*
Y014803D01*
D02*
G37*
G36*
X019055Y014646D02*
Y014409D01*
X017874D01*
Y014213D01*
X017402D01*
Y01311D01*
X01622D01*
Y014685D01*
X019016D01*
X019055Y014646D01*
D02*
G37*
G36*
X032953Y015551D02*
Y012913D01*
X030945D01*
Y011929D01*
X030787Y011772D01*
X025512D01*
Y012835D01*
X02189D01*
X021811Y012913D01*
Y014173D01*
X023268D01*
X023386Y014055D01*
Y013465D01*
X02626D01*
X026378Y013346D01*
Y012126D01*
X026417Y012165D01*
X029409Y012165D01*
X029409Y013701D01*
X030079D01*
Y014488D01*
X030118Y014528D01*
X030157Y014488D01*
X030709D01*
Y01374D01*
X030827Y013622D01*
X030866Y013661D01*
X032047D01*
X032087Y013701D01*
Y015D01*
X03126D01*
X031181Y015079D01*
Y01563D01*
X03122Y015669D01*
X032835D01*
X032953Y015551D01*
D02*
G37*
G36*
X032992Y007362D02*
Y004724D01*
X030984D01*
Y00374D01*
X030827Y003583D01*
X025551D01*
Y004646D01*
X021929D01*
X02185Y004724D01*
Y005984D01*
X023307D01*
X023425Y005866D01*
Y005276D01*
X026299D01*
X026417Y005157D01*
Y003937D01*
X026457Y003976D01*
X029449Y003976D01*
X029449Y005512D01*
X030118D01*
Y006299D01*
X030157Y006339D01*
X030197Y006299D01*
X030748D01*
Y005551D01*
X030866Y005433D01*
X030906Y005472D01*
X032087D01*
X032126Y005512D01*
Y006811D01*
X031299D01*
X03122Y00689D01*
Y007441D01*
X03126Y00748D01*
X032874D01*
X032992Y007362D01*
D02*
G37*
G36*
X027441Y00626D02*
Y005551D01*
X024961D01*
Y006378D01*
X027323D01*
X027441Y00626D01*
D02*
G37*
G36*
X029764Y005748D02*
X029213D01*
Y007362D01*
X029764D01*
Y005748D01*
D02*
G37*
G36*
X019094Y006457D02*
Y00622D01*
X017913D01*
Y006024D01*
X017441D01*
Y004921D01*
X01626D01*
Y006496D01*
X019055D01*
X019094Y006457D01*
D02*
G37*
G36*
X025039Y003701D02*
X025079Y003661D01*
X021457D01*
Y00437D01*
X021496Y004409D01*
X025039D01*
Y003701D01*
D02*
G37*
G36*
X028937Y005512D02*
X029173D01*
Y004331D01*
Y004252D01*
X02815D01*
X02815Y006339D01*
X028937D01*
Y005512D01*
D02*
G37*
G36*
X028976Y006614D02*
X027913D01*
Y004291D01*
X02685D01*
Y004882D01*
X02689Y004921D01*
X027638D01*
X027677Y004961D01*
Y007008D01*
X028031Y007362D01*
X028976D01*
Y006614D01*
D02*
G37*
G36*
X020276Y007244D02*
X018307D01*
X018268Y007283D01*
Y007598D01*
X01748D01*
Y008386D01*
X019094D01*
Y009567D01*
X020276D01*
Y007244D01*
D02*
G37*
G36*
X027835Y007874D02*
X027795Y007835D01*
Y007441D01*
X027717D01*
X027205Y006929D01*
Y006693D01*
X025Y006693D01*
X025Y00748D01*
X027323Y00748D01*
Y007913D01*
X027795Y007913D01*
X027835Y007874D01*
D02*
G37*
G36*
X026929Y009843D02*
X028189D01*
X028622Y009409D01*
X028622Y007559D01*
X02815Y007559D01*
X02811Y007598D01*
Y008189D01*
X027441D01*
X027402Y008228D01*
Y008858D01*
X022244D01*
Y009803D01*
X018307D01*
Y01122D01*
X018346Y01126D01*
X026929D01*
Y009843D01*
D02*
G37*
G36*
X021929Y009567D02*
X021929Y008504D01*
X025236Y008504D01*
Y007717D01*
X023425Y007717D01*
X023425Y007244D01*
X022638D01*
X020906Y007244D01*
X020906Y009567D01*
X021929Y009567D01*
D02*
G37*
G36*
X013976Y009764D02*
Y009528D01*
Y007835D01*
X015827D01*
Y006693D01*
X01311D01*
X012953Y00685D01*
Y009764D01*
Y009803D01*
X013976D01*
Y009764D01*
D02*
G37*
G36*
X017283Y007165D02*
X017953D01*
Y007008D01*
Y006969D01*
X019055D01*
Y006732D01*
X019016Y006693D01*
X01626D01*
Y008465D01*
X017283D01*
Y007165D01*
D02*
G37*
G36*
X03189Y007795D02*
X030984D01*
X030984Y006693D01*
X030157D01*
Y006969D01*
Y007638D01*
X029882D01*
X029843Y007677D01*
Y008465D01*
X03189D01*
X03189Y007795D01*
D02*
G37*
G36*
X03185Y015984D02*
X030945D01*
X030945Y014882D01*
X030118D01*
Y015157D01*
Y015827D01*
X029843D01*
X029803Y015866D01*
Y016654D01*
X03185D01*
X03185Y015984D01*
D02*
G37*
G36*
X03185Y024016D02*
X030945D01*
X030945Y022913D01*
X030118D01*
Y023189D01*
Y023858D01*
X029843D01*
X029803Y023898D01*
Y024685D01*
X03185D01*
X03185Y024016D01*
D02*
G37*
G36*
X02189Y025787D02*
X02189Y024724D01*
X025197Y024724D01*
Y023937D01*
X023386Y023937D01*
X023386Y023465D01*
X022598D01*
X020866Y023465D01*
X020866Y025787D01*
X02189Y025787D01*
D02*
G37*
G36*
X020236Y023465D02*
X018268D01*
X018228Y023504D01*
Y023819D01*
X017441D01*
Y024606D01*
X019055D01*
Y025787D01*
X020236D01*
Y023465D01*
D02*
G37*
G36*
X017244Y023386D02*
X017913D01*
Y023228D01*
Y023189D01*
X019016D01*
Y022953D01*
X018976Y022913D01*
X01622D01*
Y024685D01*
X017244D01*
Y023386D01*
D02*
G37*
G36*
X027402Y02248D02*
Y021772D01*
X024921D01*
Y022598D01*
X027283D01*
X027402Y02248D01*
D02*
G37*
G36*
X029724Y021969D02*
X029173D01*
Y023583D01*
X029724D01*
Y021969D01*
D02*
G37*
G36*
X013937Y025984D02*
Y025748D01*
Y024055D01*
X015787D01*
Y022913D01*
X013071D01*
X012913Y023071D01*
Y025984D01*
Y026024D01*
X013937D01*
Y025984D01*
D02*
G37*
G36*
X016929Y027244D02*
Y027087D01*
Y026457D01*
Y02626D01*
X018071Y02626D01*
Y025787D01*
X018346Y025787D01*
X018858D01*
X018858Y025276D01*
X018858Y024921D01*
X016063D01*
Y024409D01*
X015394D01*
Y024961D01*
Y025118D01*
X01626D01*
Y026457D01*
X01626Y027244D01*
X015118Y027244D01*
X015118Y02622D01*
X014921Y02622D01*
X012205D01*
X011535Y02622D01*
X011535Y022677D01*
X015787Y022677D01*
Y020906D01*
X017756D01*
X017717Y020945D01*
Y021811D01*
X018268D01*
X018307Y02185D01*
Y022205D01*
X019055D01*
X019134Y022126D01*
Y02D01*
X019016Y019882D01*
X018976Y019921D01*
X010197D01*
Y020551D01*
Y020709D01*
Y027441D01*
X010394Y027638D01*
X016929D01*
Y027244D01*
D02*
G37*
G36*
X015984Y025315D02*
X015315D01*
Y027047D01*
X015354Y027087D01*
X015984D01*
Y025315D01*
D02*
G37*
G36*
X030472Y027205D02*
X030354Y027087D01*
X030354Y026063D01*
X02937Y026063D01*
Y023858D01*
X028898D01*
Y026181D01*
X028543D01*
X028504Y02622D01*
Y026378D01*
X027717D01*
X027559Y026535D01*
Y027283D01*
X030394D01*
X030472Y027205D01*
D02*
G37*
G36*
X015Y024409D02*
X014134D01*
Y026024D01*
X015D01*
Y024409D01*
D02*
G37*
G36*
X027795Y024094D02*
X027756Y024055D01*
Y023661D01*
X027677D01*
X027165Y02315D01*
Y022913D01*
X024961Y022913D01*
X024961Y023701D01*
X027283Y023701D01*
Y024134D01*
X027756Y024134D01*
X027795Y024094D01*
D02*
G37*
G36*
X02689Y026063D02*
X02815D01*
X028583Y02563D01*
X028583Y02378D01*
X02811Y02378D01*
X028071Y023819D01*
Y024409D01*
X027402D01*
X027362Y024449D01*
Y025079D01*
X022205D01*
Y026024D01*
X018268D01*
Y027441D01*
X018307Y02748D01*
X02689D01*
Y026063D01*
D02*
G37*
G36*
X027008Y023937D02*
X025748D01*
X025709Y023976D01*
Y024724D01*
X027008D01*
Y023937D01*
D02*
G37*
G36*
X027008Y015906D02*
X025748D01*
X025709Y015945D01*
Y016693D01*
X027008D01*
Y015906D01*
D02*
G37*
G36*
X015Y016378D02*
X014134D01*
Y017992D01*
X015D01*
Y016378D01*
D02*
G37*
G36*
X016929Y019213D02*
Y019055D01*
Y018425D01*
Y018228D01*
X018071Y018228D01*
Y017756D01*
X018346Y017756D01*
X018858D01*
X018858Y017244D01*
X018858Y01689D01*
X016063D01*
Y016378D01*
X015394D01*
Y016929D01*
Y017087D01*
X01626D01*
Y018425D01*
X01626Y019213D01*
X015118Y019213D01*
X015118Y018189D01*
X014921Y018189D01*
X012205D01*
X011535Y018189D01*
X011535Y014646D01*
X015787Y014646D01*
Y012874D01*
X017756D01*
X017717Y012913D01*
Y01378D01*
X018268D01*
X018307Y013819D01*
Y014173D01*
X019055D01*
X019134Y014094D01*
Y011968D01*
X019016Y01185D01*
X018976Y01189D01*
X010197D01*
Y01252D01*
Y012677D01*
Y019409D01*
X010394Y019606D01*
X016929D01*
Y019213D01*
D02*
G37*
G36*
X02689Y018032D02*
X02815D01*
X028583Y017598D01*
X028583Y015748D01*
X02811Y015748D01*
X028071Y015787D01*
Y016378D01*
X027402D01*
X027362Y016417D01*
Y017047D01*
X022205D01*
Y017992D01*
X018268D01*
Y019409D01*
X018307Y019449D01*
X02689D01*
Y018032D01*
D02*
G37*
G36*
X02189Y017756D02*
X02189Y016693D01*
X025197Y016693D01*
Y015906D01*
X023386Y015906D01*
X023386Y015433D01*
X022598D01*
X020866Y015433D01*
X020866Y017756D01*
X02189Y017756D01*
D02*
G37*
G36*
X020236Y015433D02*
X018268D01*
X018228Y015472D01*
Y015787D01*
X017441D01*
Y016575D01*
X019055D01*
Y017756D01*
X020236D01*
Y015433D01*
D02*
G37*
G36*
X027795Y016063D02*
X027756Y016024D01*
Y01563D01*
X027677D01*
X027165Y015118D01*
Y014882D01*
X024961Y014882D01*
X024961Y015669D01*
X027283Y015669D01*
Y016102D01*
X027756Y016102D01*
X027795Y016063D01*
D02*
G37*
G36*
X028937Y022835D02*
X027874D01*
Y020512D01*
X026811D01*
Y021102D01*
X02685Y021142D01*
X027598D01*
X027638Y021181D01*
Y023228D01*
X027992Y023583D01*
X028937D01*
Y022835D01*
D02*
G37*
G36*
X019055Y022677D02*
Y022441D01*
X017874D01*
Y022244D01*
X017402D01*
Y021142D01*
X01622D01*
Y022717D01*
X019016D01*
X019055Y022677D01*
D02*
G37*
G36*
X032953Y023583D02*
Y020945D01*
X030945D01*
Y019961D01*
X030787Y019803D01*
X025512D01*
Y020866D01*
X02189D01*
X021811Y020945D01*
Y022205D01*
X023268D01*
X023386Y022087D01*
Y021496D01*
X02626D01*
X026378Y021378D01*
Y020157D01*
X026417Y020197D01*
X029409Y020197D01*
X029409Y021732D01*
X030079D01*
Y02252D01*
X030118Y022559D01*
X030157Y02252D01*
X030709D01*
Y021772D01*
X030827Y021654D01*
X030866Y021693D01*
X032047D01*
X032087Y021732D01*
Y023031D01*
X03126D01*
X031181Y02311D01*
Y023661D01*
X03122Y023701D01*
X032835D01*
X032953Y023583D01*
D02*
G37*
G36*
X028898Y021732D02*
X029134D01*
Y020551D01*
Y020472D01*
X02811D01*
X02811Y022559D01*
X028898D01*
Y021732D01*
D02*
G37*
G36*
X015984Y017283D02*
X015315D01*
Y019016D01*
X015354Y019055D01*
X015984D01*
Y017283D01*
D02*
G37*
G36*
X030472Y019173D02*
X030354Y019055D01*
X030354Y018031D01*
X02937Y018032D01*
Y015827D01*
X028898D01*
Y01815D01*
X028543D01*
X028504Y018189D01*
Y018346D01*
X027717D01*
X027559Y018504D01*
Y019252D01*
X030394D01*
X030472Y019173D01*
D02*
G37*
G36*
X025Y019921D02*
X025039Y019882D01*
X021417D01*
Y020591D01*
X021457Y02063D01*
X025D01*
Y019921D01*
D02*
G37*
D10*
X029126Y026535D02*
D03*
X029126Y018504D02*
D03*
X029165Y010315D02*
D03*
D11*
X030031Y024173D02*
D03*
X029134D02*
D03*
X02822D02*
D03*
X030031Y016142D02*
D03*
X029134D02*
D03*
X02822D02*
D03*
X030071Y007953D02*
D03*
X029173D02*
D03*
X02826D02*
D03*
D12*
X022945Y023571D02*
D03*
Y023071D02*
D03*
Y022571D02*
D03*
Y022071D02*
D03*
X018649D02*
D03*
Y022571D02*
D03*
Y023071D02*
D03*
Y023571D02*
D03*
X022945Y015539D02*
D03*
Y015039D02*
D03*
Y014539D02*
D03*
Y014039D02*
D03*
X018649D02*
D03*
Y014539D02*
D03*
Y015039D02*
D03*
Y015539D02*
D03*
X022984Y00735D02*
D03*
Y00685D02*
D03*
Y00635D02*
D03*
Y00585D02*
D03*
X018688D02*
D03*
Y00635D02*
D03*
Y00685D02*
D03*
Y00735D02*
D03*
D13*
X014724Y023425D02*
D03*
Y022087D02*
D03*
X014724Y015394D02*
D03*
Y014055D02*
D03*
X014764Y007205D02*
D03*
Y005866D02*
D03*
D14*
X014409Y025591D02*
D03*
X015748D02*
D03*
X029409Y023268D02*
D03*
X030748D02*
D03*
X028307Y022283D02*
D03*
X026969D02*
D03*
X026929Y023268D02*
D03*
X028268D02*
D03*
X015472Y023228D02*
D03*
X016811D02*
D03*
X023976Y022323D02*
D03*
X025315D02*
D03*
X024055Y023268D02*
D03*
X025394D02*
D03*
X015472Y022362D02*
D03*
X016811D02*
D03*
X015472Y014331D02*
D03*
X016811D02*
D03*
X024055Y015236D02*
D03*
X025394D02*
D03*
X023976Y014291D02*
D03*
X025315D02*
D03*
X015472Y015197D02*
D03*
X016811D02*
D03*
X026929Y015236D02*
D03*
X028268D02*
D03*
X028307Y014252D02*
D03*
X026969D02*
D03*
X029409Y015236D02*
D03*
X030748D02*
D03*
X014409Y017559D02*
D03*
X015748D02*
D03*
X028346Y006063D02*
D03*
X027008D02*
D03*
X024016Y006102D02*
D03*
X025354D02*
D03*
X029449Y007047D02*
D03*
X030787D02*
D03*
X014449Y00937D02*
D03*
X015787D02*
D03*
X026969Y007047D02*
D03*
X028307D02*
D03*
X024094D02*
D03*
X025433D02*
D03*
X015512Y006142D02*
D03*
X01685D02*
D03*
X015512Y007008D02*
D03*
X01685D02*
D03*
D15*
X015669Y024685D02*
D03*
X014769D02*
D03*
X030354Y022244D02*
D03*
X029454D02*
D03*
X030354Y014213D02*
D03*
X029454D02*
D03*
X015669Y016654D02*
D03*
X014769D02*
D03*
X030394Y006024D02*
D03*
X029494D02*
D03*
X015709Y008465D02*
D03*
X014809D02*
D03*
D16*
X023701Y020433D02*
D03*
X023699Y02122D02*
D03*
X024647Y020433D02*
D03*
X024646Y02122D02*
D03*
X022717Y021221D02*
D03*
X022718Y020433D02*
D03*
X023583Y024528D02*
D03*
X023581Y025315D02*
D03*
X017598Y022402D02*
D03*
X017597Y023189D02*
D03*
X02622Y023071D02*
D03*
X026222Y022283D02*
D03*
X01681Y025197D02*
D03*
X016811Y024409D02*
D03*
X022676Y025315D02*
D03*
X022677Y024528D02*
D03*
X017717Y024409D02*
D03*
X017715Y025197D02*
D03*
X018583Y025197D02*
D03*
X018584Y024409D02*
D03*
X018583Y017165D02*
D03*
X018584Y016378D02*
D03*
X017717Y016378D02*
D03*
X017715Y017165D02*
D03*
X022676Y017284D02*
D03*
X022677Y016496D02*
D03*
X01681Y017165D02*
D03*
X016811Y016378D02*
D03*
X02622Y015039D02*
D03*
X026222Y014252D02*
D03*
X017598Y01437D02*
D03*
X017597Y015157D02*
D03*
X023583Y016496D02*
D03*
X023581Y017283D02*
D03*
X022717Y013189D02*
D03*
X022718Y012402D02*
D03*
X024647Y012402D02*
D03*
X024646Y013189D02*
D03*
X023701Y012402D02*
D03*
X023699Y013189D02*
D03*
X02626Y00685D02*
D03*
X026261Y006063D02*
D03*
X024686Y004213D02*
D03*
X024685Y005D02*
D03*
X02374Y004213D02*
D03*
X023739Y005D02*
D03*
X022756Y005D02*
D03*
X022757Y004213D02*
D03*
X017638Y006181D02*
D03*
X017636Y006969D02*
D03*
X018622Y008976D02*
D03*
X018623Y008189D02*
D03*
X017756Y008189D02*
D03*
X017755Y008976D02*
D03*
X022715Y009095D02*
D03*
X022717Y008307D02*
D03*
X016849Y008976D02*
D03*
X01685Y008189D02*
D03*
X023622Y008307D02*
D03*
X023621Y009094D02*
D03*
D17*
X024921Y025512D02*
D03*
Y024331D02*
D03*
X026811Y025512D02*
D03*
Y024331D02*
D03*
X026811Y01748D02*
D03*
Y016299D02*
D03*
X024921Y01748D02*
D03*
Y016299D02*
D03*
X024961Y009291D02*
D03*
Y00811D02*
D03*
X02685Y009291D02*
D03*
Y00811D02*
D03*
D18*
X017953Y021417D02*
D03*
X017165Y021416D02*
D03*
X017953Y013386D02*
D03*
X017165Y013384D02*
D03*
X017992Y005197D02*
D03*
X017205Y005195D02*
D03*
D19*
X030197Y021457D02*
Y022244D01*
X028583Y020748D02*
Y022283D01*
X028543Y020709D02*
X028583Y020748D01*
X025591Y022323D02*
X026379D01*
X024016Y022165D02*
Y022559D01*
X022945Y022571D02*
X024004D01*
X024055Y023071D02*
X024055D01*
X022945D02*
X024055D01*
X029291Y02225D02*
Y023268D01*
X015614Y025724D02*
Y026772D01*
X018602D02*
X022441D01*
X016614Y025392D02*
Y026772D01*
Y027244D01*
X016496Y025197D02*
X01681D01*
X016339Y025039D02*
X016496Y025197D01*
X015984Y025039D02*
X016339D01*
X015669Y024724D02*
X015984Y025039D01*
X015669Y024685D02*
Y024724D01*
X014409Y024882D02*
Y025045D01*
Y025591D01*
Y025045D02*
X014769Y024685D01*
X014409Y024882D02*
X014606Y024685D01*
X014769D01*
X015157Y027362D02*
X016496D01*
X011654D02*
X015157D01*
Y027402D01*
X021496Y024646D02*
Y024724D01*
Y024646D02*
X021614Y024528D01*
X022677D01*
X016496Y027362D02*
X016614Y027244D01*
X011024Y026732D02*
X011654Y027362D01*
X02752Y023661D02*
Y023937D01*
X027126Y023268D02*
X02752Y023661D01*
X026929Y023268D02*
X027126D01*
X02822Y024685D02*
Y025323D01*
X028031Y025512D02*
X02822Y025323D01*
X026811Y025512D02*
X028031D01*
X022676Y025315D02*
Y026537D01*
X022441Y026772D02*
X022676Y026537D01*
X030551Y023346D02*
Y024291D01*
X03015D02*
X030551D01*
X030031Y024173D02*
X03015Y024291D01*
X031268D02*
X031339Y024362D01*
X030551Y024291D02*
X031268D01*
X031496Y021362D02*
X031953D01*
X030709D02*
X031496D01*
X032205Y021614D02*
Y023228D01*
X031953Y021362D02*
X032205Y021614D01*
X030291Y021362D02*
X030709D01*
X030197Y021457D02*
X030291Y021362D01*
X030709Y020236D02*
Y021362D01*
X030512Y020039D02*
X030709Y020236D01*
X027717Y020827D02*
Y021685D01*
X027244Y020827D02*
X027717D01*
X027913Y023268D02*
X028268D01*
X027717Y023071D02*
X027913Y023268D01*
X027717Y022016D02*
Y023071D01*
X024055D02*
Y023268D01*
Y023071D02*
Y023071D01*
X025472D02*
X025787D01*
X026732Y023071D02*
X026929Y023268D01*
X02622Y023071D02*
X026732D01*
X026969Y022205D02*
X027323Y02185D01*
X026969Y022205D02*
Y022283D01*
X031496Y023362D02*
X032071D01*
X031457D02*
X031496D01*
X027323Y02185D02*
Y02185D01*
X027717Y022016D02*
X027718Y022014D01*
Y021687D02*
Y022014D01*
X027717Y021685D02*
X027718Y021687D01*
X028268Y023268D02*
X02874D01*
X026419Y022283D02*
X026969D01*
X025787Y023071D02*
X02622D01*
X024004Y022571D02*
X024016Y022559D01*
X026379Y022323D02*
X026419Y022283D01*
X024055Y023071D02*
X024055Y023071D01*
X022953Y024528D02*
X023583D01*
X022945Y02452D02*
X022953Y024528D01*
X022945Y023571D02*
Y02452D01*
X026142Y020039D02*
X030512D01*
X02185Y020236D02*
X022047Y020433D01*
X022718D01*
X026102Y024291D02*
X026142Y024331D01*
X026811D01*
X02822Y024173D02*
Y024685D01*
X02752Y024646D02*
X027559Y024685D01*
X02822D01*
X029291Y02225D02*
X029297Y022244D01*
X032071Y023362D02*
X032205Y023228D01*
X030551Y023346D02*
X03063Y023268D01*
X025945Y020236D02*
Y020827D01*
Y020236D02*
X026142Y020039D01*
X024921Y025512D02*
X026811D01*
X027875Y026573D02*
Y026576D01*
Y026573D02*
X027913Y026535D01*
X029126D01*
Y024181D02*
X029134Y024173D01*
X029126Y024181D02*
Y026535D01*
X024724Y025315D02*
X024921Y025512D01*
X023581Y025315D02*
X024724D01*
X024724Y024528D02*
X024921Y024331D01*
X023583Y024528D02*
X024724D01*
X023583Y024528D02*
X023583Y024528D01*
X022677Y024528D02*
X023583D01*
X023581Y025315D02*
X023581Y025315D01*
X022676Y025315D02*
X023581D01*
X025945Y020827D02*
Y021142D01*
X025866Y02122D02*
X025945Y021142D01*
X024646Y02122D02*
X025866D01*
X023701Y020433D02*
X024647D01*
X023701Y020433D02*
X023701Y020433D01*
X022718Y020433D02*
X023701D01*
X022953Y02122D02*
X023699D01*
X022945Y021228D02*
X022953Y02122D01*
X022945Y021228D02*
Y022071D01*
X023699Y02122D02*
X024646D01*
X025787Y023071D02*
X025787Y023071D01*
X011024Y022087D02*
Y026732D01*
X013465Y023425D02*
X014724D01*
X013252Y023638D02*
X013465Y023425D01*
X013252Y023638D02*
Y025437D01*
X012449Y020622D02*
X017823D01*
X012205Y020866D02*
X012449Y020622D01*
X012205Y020866D02*
Y021858D01*
X019311Y024535D02*
Y024724D01*
X019185Y024409D02*
X019311Y024535D01*
X018584Y024409D02*
X019185D01*
X017953Y020752D02*
Y021417D01*
X017823Y020622D02*
X017953Y020752D01*
X016811Y023228D02*
Y024409D01*
X018649Y023571D02*
Y023637D01*
X018584Y023702D02*
X018649Y023637D01*
X018584Y023702D02*
Y024409D01*
X018584Y024409D02*
X018584Y024409D01*
X017717Y024409D02*
X018584D01*
X018649Y021523D02*
Y022071D01*
X018543Y021417D02*
X018649Y021523D01*
X017953Y021417D02*
X018543D01*
X016811Y02177D02*
X017165Y021416D01*
X016811Y02177D02*
Y022362D01*
X017768Y022571D02*
X018649D01*
X017598Y022402D02*
X017768Y022571D01*
X017597Y023189D02*
X017715Y023071D01*
X018649D01*
X017559Y022362D02*
X017598Y022402D01*
X016811Y022362D02*
X017559D01*
X017558Y023228D02*
X017597Y023189D01*
X016811Y023228D02*
X017558D01*
X014921D02*
X015472D01*
X014724Y023425D02*
X014921Y023228D01*
X015197Y022087D02*
X015472Y022362D01*
X014724Y022087D02*
X015197D01*
X014496Y021858D02*
X014724Y022087D01*
X012205Y021858D02*
X014496D01*
X011252D02*
X012205D01*
X011024Y022087D02*
X011252Y021858D01*
X017715Y025197D02*
X017715Y025197D01*
X018583D01*
X01681Y025197D02*
X017715D01*
X016614Y025392D02*
X01681Y025197D01*
X015614Y025724D02*
X015748Y025591D01*
X015614Y017693D02*
X015748Y017559D01*
X016614Y017361D02*
X01681Y017165D01*
X017715D01*
X017715Y017165D02*
X018583D01*
X017715Y017165D02*
X017715Y017165D01*
X011024Y014055D02*
X011252Y013827D01*
X012205D01*
X014496D01*
X014724Y014055D01*
X015197D01*
X015472Y014331D01*
X014724Y015394D02*
X014921Y015197D01*
X015472D01*
X016811D02*
X017558D01*
X017597Y015157D01*
X016811Y014331D02*
X017559D01*
X017598Y01437D01*
X017715Y015039D02*
X018649D01*
X017597Y015157D02*
X017715Y015039D01*
X017598Y01437D02*
X017768Y014539D01*
X018649D01*
X016811Y013739D02*
Y014331D01*
Y013739D02*
X017165Y013384D01*
X017953Y013386D02*
X018543D01*
X018649Y013491D01*
Y014039D01*
X017717Y016378D02*
X018584D01*
X018584Y016378D01*
Y015671D02*
Y016378D01*
Y015671D02*
X018649Y015606D01*
Y015539D02*
Y015606D01*
X016811Y015197D02*
Y016378D01*
X017823Y012591D02*
X017953Y01272D01*
Y013386D01*
X018584Y016378D02*
X019185D01*
X019311Y016504D01*
Y016693D01*
X012205Y012835D02*
Y013827D01*
Y012835D02*
X012449Y012591D01*
X017823D01*
X013252Y015606D02*
Y017406D01*
Y015606D02*
X013465Y015394D01*
X014724D01*
X011024Y014055D02*
Y018701D01*
X025787Y015039D02*
X025787Y015039D01*
X023699Y013189D02*
X024646D01*
X022945Y013197D02*
Y014039D01*
Y013197D02*
X022953Y013189D01*
X023699D01*
X022718Y012402D02*
X023701D01*
X023701Y012402D01*
X024647D01*
X024646Y013189D02*
X025866D01*
X025945Y01311D01*
Y012795D02*
Y01311D01*
X022676Y017284D02*
X023581D01*
X023581Y017283D01*
X022677Y016496D02*
X023583D01*
X023583Y016496D01*
X024724D01*
X024921Y016299D01*
X023581Y017283D02*
X024724D01*
X024921Y01748D01*
X029126Y01615D02*
Y018504D01*
Y01615D02*
X029134Y016142D01*
X027913Y018504D02*
X029126D01*
X027875Y018542D02*
X027913Y018504D01*
X027875Y018542D02*
Y018545D01*
X024921Y01748D02*
X026811D01*
X025945Y012205D02*
X026142Y012008D01*
X025945Y012205D02*
Y012795D01*
X030551Y015315D02*
X03063Y015236D01*
X032071Y015331D02*
X032205Y015197D01*
X029291Y014218D02*
X029297Y014213D01*
X027559Y016654D02*
X02822D01*
X02752Y016614D02*
X027559Y016654D01*
X02822Y016142D02*
Y016654D01*
X026142Y016299D02*
X026811D01*
X026102Y01626D02*
X026142Y016299D01*
X022047Y012402D02*
X022718D01*
X02185Y012205D02*
X022047Y012402D01*
X026142Y012008D02*
X030512D01*
X022945Y015539D02*
Y016488D01*
X022953Y016496D01*
X023583D01*
X024055Y015039D02*
X024055Y015039D01*
X026379Y014291D02*
X026419Y014252D01*
X024004Y014539D02*
X024016Y014528D01*
X025787Y015039D02*
X02622D01*
X026419Y014252D02*
X026969D01*
X028268Y015236D02*
X02874D01*
X027717Y013654D02*
X027718Y013655D01*
Y013983D01*
X027717Y013984D02*
X027718Y013983D01*
X027323Y013819D02*
Y013819D01*
X031457Y015331D02*
X031496D01*
X032071D01*
X026969Y014173D02*
Y014252D01*
Y014173D02*
X027323Y013819D01*
X02622Y015039D02*
X026732D01*
X026929Y015236D01*
X025472Y015039D02*
X025787D01*
X024055Y015039D02*
Y015039D01*
Y015236D01*
X027717Y013984D02*
Y015039D01*
X027913Y015236D01*
X028268D01*
X027244Y012795D02*
X027717D01*
Y013654D01*
X030512Y012008D02*
X030709Y012205D01*
Y013331D01*
X030197Y013425D02*
X030291Y013331D01*
X030709D01*
X031953D02*
X032205Y013583D01*
Y015197D01*
X030709Y013331D02*
X031496D01*
X031953D01*
X030551Y01626D02*
X031268D01*
X031339Y016331D01*
X030031Y016142D02*
X03015Y01626D01*
X030551D01*
Y015315D02*
Y01626D01*
X022441Y01874D02*
X022676Y018505D01*
Y017284D02*
Y018505D01*
X026811Y01748D02*
X028031D01*
X02822Y017291D01*
Y016654D02*
Y017291D01*
X026929Y015236D02*
X027126D01*
X02752Y01563D01*
Y015906D01*
X011024Y018701D02*
X011654Y019331D01*
X016496D02*
X016614Y019213D01*
X021614Y016496D02*
X022677D01*
X021496Y016614D02*
X021614Y016496D01*
X021496Y016614D02*
Y016693D01*
X015157Y019331D02*
Y01937D01*
X011654Y019331D02*
X015157D01*
X016496D01*
X014606Y016654D02*
X014769D01*
X014409Y01685D02*
X014606Y016654D01*
X014409Y017013D02*
X014769Y016654D01*
X014409Y017013D02*
Y017559D01*
Y01685D02*
Y017013D01*
X015669Y016654D02*
Y016693D01*
X015984Y017008D01*
X016339D01*
X016496Y017165D01*
X01681D01*
X016614Y01874D02*
Y019213D01*
Y017361D02*
Y01874D01*
X018602D02*
X022441D01*
X015614Y017693D02*
Y01874D01*
X029291Y014218D02*
Y015236D01*
X022945Y015039D02*
X024055D01*
X024055D01*
X022945Y014539D02*
X024004D01*
X024016Y014134D02*
Y014528D01*
X025591Y014291D02*
X026379D01*
X028543Y012677D02*
X028583Y012717D01*
Y014252D01*
X030197Y013425D02*
Y014213D01*
X030236Y005236D02*
Y006024D01*
X028622Y004528D02*
Y006063D01*
X028583Y004488D02*
X028622Y004528D01*
X02563Y006102D02*
X026419D01*
X024055Y005945D02*
Y006339D01*
X022984Y00635D02*
X024043D01*
X024094Y00685D02*
X024094D01*
X022984D02*
X024094D01*
X029331Y006029D02*
Y007047D01*
X015654Y009504D02*
Y010551D01*
X018642D02*
X02248D01*
X016654Y009172D02*
Y010551D01*
Y011024D01*
X016535Y008976D02*
X016849D01*
X016378Y008819D02*
X016535Y008976D01*
X016024Y008819D02*
X016378D01*
X015709Y008504D02*
X016024Y008819D01*
X015709Y008465D02*
Y008504D01*
X014449Y008661D02*
Y008824D01*
Y00937D01*
Y008824D02*
X014809Y008465D01*
X014449Y008661D02*
X014646Y008465D01*
X014809D01*
X015197Y011142D02*
X016535D01*
X011693D02*
X015197D01*
Y011181D01*
X021535Y008425D02*
Y008504D01*
Y008425D02*
X021654Y008307D01*
X022717D01*
X016535Y011142D02*
X016654Y011024D01*
X011063Y010512D02*
X011693Y011142D01*
X027559Y007441D02*
Y007717D01*
X027165Y007047D02*
X027559Y007441D01*
X026969Y007047D02*
X027165D01*
X02826Y008465D02*
Y009102D01*
X028071Y009291D02*
X02826Y009102D01*
X02685Y009291D02*
X028071D01*
X022715Y009095D02*
Y010316D01*
X02248Y010551D02*
X022715Y010316D01*
X030591Y007126D02*
Y008071D01*
X030189D02*
X030591D01*
X030071Y007953D02*
X030189Y008071D01*
X031307D02*
X031378Y008142D01*
X030591Y008071D02*
X031307D01*
X031535Y005142D02*
X031992D01*
X030748D02*
X031535D01*
X032244Y005394D02*
Y007008D01*
X031992Y005142D02*
X032244Y005394D01*
X030331Y005142D02*
X030748D01*
X030236Y005236D02*
X030331Y005142D01*
X030748Y004016D02*
Y005142D01*
X030551Y003819D02*
X030748Y004016D01*
X027756Y004606D02*
Y005465D01*
X027283Y004606D02*
X027756D01*
X027953Y007047D02*
X028307D01*
X027756Y00685D02*
X027953Y007047D01*
X027756Y005795D02*
Y00685D01*
X024094D02*
Y007047D01*
Y00685D02*
Y00685D01*
X025512D02*
X025827D01*
X026772Y00685D02*
X026969Y007047D01*
X02626Y00685D02*
X026772D01*
X027008Y005984D02*
X027362Y00563D01*
X027008Y005984D02*
Y006063D01*
X031535Y007142D02*
X03211D01*
X031496D02*
X031535D01*
X027362Y00563D02*
Y00563D01*
X027756Y005795D02*
X027757Y005794D01*
Y005466D02*
Y005794D01*
X027756Y005465D02*
X027757Y005466D01*
X028307Y007047D02*
X02878D01*
X026458Y006063D02*
X027008D01*
X025827Y00685D02*
X02626D01*
X024043Y00635D02*
X024055Y006339D01*
X026419Y006102D02*
X026458Y006063D01*
X024094Y00685D02*
X024094Y00685D01*
X022992Y008307D02*
X023622D01*
X022984Y008299D02*
X022992Y008307D01*
X022984Y00735D02*
Y008299D01*
X026181Y003819D02*
X030551D01*
X02189Y004016D02*
X022087Y004213D01*
X022757D01*
X026142Y008071D02*
X026181Y00811D01*
X02685D01*
X02826Y007953D02*
Y008465D01*
X027559Y008425D02*
X027598Y008465D01*
X02826D01*
X029331Y006029D02*
X029336Y006024D01*
X03211Y007142D02*
X032244Y007008D01*
X030591Y007126D02*
X030669Y007047D01*
X025984Y004016D02*
Y004606D01*
Y004016D02*
X026181Y003819D01*
X024961Y009291D02*
X02685D01*
X027915Y010353D02*
Y010356D01*
Y010353D02*
X027953Y010315D01*
X029165D01*
Y007961D02*
X029173Y007953D01*
X029165Y007961D02*
Y010315D01*
X024764Y009094D02*
X024961Y009291D01*
X023621Y009094D02*
X024764D01*
X024764Y008307D02*
X024961Y00811D01*
X023622Y008307D02*
X024764D01*
X023622Y008307D02*
X023622Y008307D01*
X022717Y008307D02*
X023622D01*
X023621Y009095D02*
X023621Y009094D01*
X022715Y009095D02*
X023621D01*
X025984Y004606D02*
Y004921D01*
X025906Y005D02*
X025984Y004921D01*
X024685Y005D02*
X025906D01*
X02374Y004213D02*
X024686D01*
X02374Y004213D02*
X02374Y004213D01*
X022757Y004213D02*
X02374D01*
X022992Y005D02*
X023739D01*
X022984Y005008D02*
X022992Y005D01*
X022984Y005008D02*
Y00585D01*
X023739Y005D02*
X024685D01*
X025827Y00685D02*
X025827Y00685D01*
X011063Y005866D02*
Y010512D01*
X013504Y007205D02*
X014764D01*
X013291Y007417D02*
X013504Y007205D01*
X013291Y007417D02*
Y009217D01*
X012488Y004402D02*
X017862D01*
X012244Y004646D02*
X012488Y004402D01*
X012244Y004646D02*
Y005638D01*
X01935Y008315D02*
Y008504D01*
X019224Y008189D02*
X01935Y008315D01*
X018623Y008189D02*
X019224D01*
X017992Y004531D02*
Y005197D01*
X017862Y004402D02*
X017992Y004531D01*
X01685Y007008D02*
Y008189D01*
X018688Y00735D02*
Y007417D01*
X018623Y007482D02*
X018688Y007417D01*
X018623Y007482D02*
Y008189D01*
X018623Y008189D02*
X018623Y008189D01*
X017756Y008189D02*
X018623D01*
X018688Y005302D02*
Y00585D01*
X018583Y005197D02*
X018688Y005302D01*
X017992Y005197D02*
X018583D01*
X01685Y00555D02*
X017205Y005195D01*
X01685Y00555D02*
Y006142D01*
X017807Y00635D02*
X018688D01*
X017638Y006181D02*
X017807Y00635D01*
X017636Y006969D02*
X017755Y00685D01*
X018688D01*
X017598Y006142D02*
X017638Y006181D01*
X01685Y006142D02*
X017598D01*
X017597Y007008D02*
X017636Y006969D01*
X01685Y007008D02*
X017597D01*
X014961D02*
X015512D01*
X014764Y007205D02*
X014961Y007008D01*
X015236Y005866D02*
X015512Y006142D01*
X014764Y005866D02*
X015236D01*
X014535Y005638D02*
X014764Y005866D01*
X012244Y005638D02*
X014535D01*
X011291D02*
X012244D01*
X011063Y005866D02*
X011291Y005638D01*
X017755Y008976D02*
X017755Y008976D01*
X018622D01*
X016849Y008976D02*
X017755D01*
X016654Y009172D02*
X016849Y008976D01*
X015654Y009504D02*
X015787Y00937D01*
D20*
X032008Y002835D02*
D03*
X011535D02*
D03*
X032008Y028543D02*
D03*
X011535D02*
D03*
D21*
X018602Y026772D02*
D03*
X016614D02*
D03*
X015614D02*
D03*
X017618D02*
D03*
X018602Y01874D02*
D03*
X016614D02*
D03*
X015614D02*
D03*
X017618D02*
D03*
X018642Y010551D02*
D03*
X016654D02*
D03*
X015654D02*
D03*
X017657D02*
D03*
D22*
X027244Y020827D02*
D03*
X025945D02*
D03*
X031496Y025362D02*
D03*
Y024362D02*
D03*
Y023362D02*
D03*
Y022362D02*
D03*
Y021362D02*
D03*
X031496Y017331D02*
D03*
Y016331D02*
D03*
Y015331D02*
D03*
Y014331D02*
D03*
Y013331D02*
D03*
X025945Y012795D02*
D03*
X027244D02*
D03*
X027283Y004606D02*
D03*
X025984D02*
D03*
X031535Y009142D02*
D03*
Y008142D02*
D03*
Y007142D02*
D03*
Y006142D02*
D03*
Y005142D02*
D03*
D23*
X031496Y020362D02*
D03*
X031496Y012331D02*
D03*
X031535Y004142D02*
D03*
D24*
X012205Y023858D02*
D03*
X012205Y015827D02*
D03*
X012244Y007638D02*
D03*
D25*
X012205Y021858D02*
D03*
X012205Y013827D02*
D03*
X012244Y005638D02*
D03*
D26*
X028583Y020669D02*
D03*
X021496Y024724D02*
D03*
X02874Y023268D02*
D03*
X02185Y020236D02*
D03*
X026102Y024291D02*
D03*
X02752Y024646D02*
D03*
Y023937D02*
D03*
X027875Y026576D02*
D03*
X013252Y025437D02*
D03*
X019311Y024724D02*
D03*
X019311Y016693D02*
D03*
X013252Y017406D02*
D03*
X027875Y018545D02*
D03*
X02752Y015906D02*
D03*
Y016614D02*
D03*
X026102Y01626D02*
D03*
X02185Y012205D02*
D03*
X02874Y015236D02*
D03*
X021496Y016693D02*
D03*
X028583Y012638D02*
D03*
X028622Y004449D02*
D03*
X021535Y008504D02*
D03*
X02878Y007047D02*
D03*
X02189Y004016D02*
D03*
X026142Y008071D02*
D03*
X027559Y008425D02*
D03*
Y007717D02*
D03*
X027915Y010356D02*
D03*
X013291Y009217D02*
D03*
X01935Y008504D02*
D03*
D27*
X027323Y02185D02*
D03*
X027323Y013819D02*
D03*
X027362Y00563D02*
D03*
M02*
